  0
SECTION
  2
HEADER
  9
$ACADVER
  1
AC1014
  9
$HANDSEED
  5
FFFF
  9
$MEASUREMENT
 70
     1
  0
ENDSEC
  0
SECTION
  2
TABLES
  0
TABLE
  2
VPORT
  5
8
330
0
100
AcDbSymbolTable
 70
     4
  0
VPORT
  5
2E
330
8
100
AcDbSymbolTableRecord
100
AcDbViewportTableRecord
  2
*ACTIVE
 70
     0
 10
0.0
 20
0.0
 11
1.0
 21
1.0
 12
210.0
 22
148.5
 13
0.0
 23
0.0
 14
10.0
 24
10.0
 15
10.0
 25
10.0
 16
0.0
 26
0.0
 36
1.0
 17
0.0
 27
0.0
 37
0.0
 40
341.0
 41
1.24
 42
50.0
 43
0.0
 44
0.0
 50
0.0
 51
0.0
 71
     0
 72
   100
 73
     1
 74
     3
 75
     0
 76
     0
 77
     0
 78
     0
  0
ENDTAB
  0
TABLE
  2
LTYPE
  5
5
330
0
100
AcDbSymbolTable
 70
     1
  0
LTYPE
  5
14
330
5
100
AcDbSymbolTableRecord
100
AcDbLinetypeTableRecord
  2
BYBLOCK
 70
     0
  3

 72
    65
 73
     0
 40
0.0
  0
LTYPE
  5
15
330
5
100
AcDbSymbolTableRecord
100
AcDbLinetypeTableRecord
  2
BYLAYER
 70
     0
  3

 72
    65
 73
     0
 40
0.0
  0
LTYPE
  5
16
330
5
100
AcDbSymbolTableRecord
100
AcDbLinetypeTableRecord
  2
CONTINUOUS
 70
     0
  3
Solid line
 72
    65
 73
     0
 40
0.0
  0
ENDTAB
  0
TABLE
  2
LAYER
  5
2
100
AcDbSymbolTable
 70
2
  0
LAYER
  5
50
100
AcDbSymbolTableRecord
100
AcDbLayerTableRecord
  2
0
 70
0
  6
CONTINUOUS
  0
LAYER
  5
51
100
AcDbSymbolTableRecord
100
AcDbLayerTableRecord
  2
Layer_1
 70
0
  6
CONTINUOUS
  0
ENDTAB
  0
TABLE
  2
STYLE
  5
3
330
0
100
AcDbSymbolTable
 70
     1
  0
STYLE
  5
11
330
3
100
AcDbSymbolTableRecord
100
AcDbTextStyleTableRecord
  2
STANDARD
 70
     0
 40
0.0
 41
1.0
 50
0.0
 71
     0
 42
2.5
  3
txt
  4

  0
ENDTAB
  0
TABLE
  2
VIEW
  5
6
330
0
100
AcDbSymbolTable
 70
     0
  0
ENDTAB
  0
TABLE
  2
UCS
  5
7
330
0
100
AcDbSymbolTable
 70
     0
  0
ENDTAB
  0
TABLE
  2
APPID
  5
9
330
0
100
AcDbSymbolTable
 70
     2
  0
APPID
  5
12
330
9
100
AcDbSymbolTableRecord
100
AcDbRegAppTableRecord
  2
ACAD
 70
     0
  0
ENDTAB
  0
TABLE
  2
DIMSTYLE
  5
A
330
0
100
AcDbSymbolTable
 70
     1
  0
DIMSTYLE
105
27
330
A
100
AcDbSymbolTableRecord
100
AcDbDimStyleTableRecord
  2
ISO-25
 70
     0
  3

  4

  5

  6

  7

 40
1.0
 41
2.5
 42
0.625
 43
3.75
 44
1.25
 45
0.0
 46
0.0
 47
0.0
 48
0.0
140
2.5
141
2.5
142
0.0
143
0.03937007874016
144
1.0
145
0.0
146
1.0
147
0.625
 71
     0
 72
     0
 73
     0
 74
     0
 75
     0
 76
     0
 77
     1
 78
     8
170
     0
171
     3
172
     1
173
     0
174
     0
175
     0
176
     0
177
     0
178
     0
270
     2
271
     2
272
     2
273
     2
274
     3
340
11
275
     0
280
     0
281
     0
282
     0
283
     0
284
     8
285
     0
286
     0
287
     3
288
     0
  0
ENDTAB
  0
TABLE
  2
BLOCK_RECORD
  5
1
330
0
100
AcDbSymbolTable
 70
     1
  0
BLOCK_RECORD
  5
1F
330
1
100
AcDbSymbolTableRecord
100
AcDbBlockTableRecord
  2
*MODEL_SPACE
  0
BLOCK_RECORD
  5
1B
330
1
100
AcDbSymbolTableRecord
100
AcDbBlockTableRecord
  2
*PAPER_SPACE
  0
ENDTAB
  0
ENDSEC
  0
SECTION
  2
BLOCKS
  0
BLOCK
  5
20
330
1F
100
AcDbEntity
  8
0
100
AcDbBlockBegin
  2
*MODEL_SPACE
 70
     0
 10
0.0
 20
0.0
 30
0.0
  3
*MODEL_SPACE
  1

  0
ENDBLK
  5
21
330
1F
100
AcDbEntity
  8
0
100
AcDbBlockEnd
  0
BLOCK
  5
1C
330
1B
100
AcDbEntity
 67
     1
  8
0
100
AcDbBlockBegin
  2
*PAPER_SPACE
  1

  0
ENDBLK
  5
1D
330
1B
100
AcDbEntity
 67
     1
  8
0
100
AcDbBlockEnd
  0
ENDSEC
  0
SECTION
  2
ENTITIES
  0
SPLINE
  5
100
100
AcDbEntity
  8
Layer_1
 62
7
100
AcDbSpline
 70
8
 71
3
 72
8
 73
4
 74
0
 40
0
 40
0
 40
0
 40
0
 40
1
 40
1
 40
1
 40
1
 10
10.174542
 20
5.172603
 30
0.0
 10
7.413290
 20
5.172857
 30
0.0
 10
5.174991
 20
7.411370
 30
0.0
 10
5.175001
 20
10.172622
 30
0.0
  0
LWPOLYLINE
  5
101
100
AcDbEntity
  8
Layer_1
 62
7
100
AcDbPolyline
 90
2
 70
0
 10
245.479504
 20
5.172603
 30
0.0
 10
10.174542
 20
5.172603
 30
0.0
  0
SPLINE
  5
102
100
AcDbEntity
  8
Layer_1
 62
7
100
AcDbSpline
 70
8
 71
3
 72
8
 73
4
 74
0
 40
0
 40
0
 40
0
 40
0
 40
1
 40
1
 40
1
 40
1
 10
5.174541
 20
102.165613
 30
0.0
 10
5.174534
 20
103.491780
 30
0.0
 10
5.701379
 20
104.763626
 30
0.0
 10
6.639161
 20
105.701327
 30
0.0
  0
SPLINE
  5
103
100
AcDbEntity
  8
Layer_1
 62
7
100
AcDbSpline
 70
8
 71
3
 72
8
 73
4
 74
0
 40
0
 40
0
 40
0
 40
0
 40
1
 40
1
 40
1
 40
1
 10
6.639161
 20
105.701327
 30
0.0
 10
7.576943
 20
106.639027
 30
0.0
 10
8.848835
 20
107.165761
 30
0.0
 10
10.175002
 20
107.165639
 30
0.0
  0
LWPOLYLINE
  5
104
100
AcDbEntity
  8
Layer_1
 62
7
100
AcDbPolyline
 90
2
 70
0
 10
5.175001
 20
10.172622
 30
0.0
 10
5.174541
 20
102.165613
 30
0.0
  0
SPLINE
  5
105
100
AcDbEntity
  8
Layer_1
 62
7
100
AcDbSpline
 70
8
 71
3
 72
8
 73
4
 74
0
 40
0
 40
0
 40
0
 40
0
 40
1
 40
1
 40
1
 40
1
 10
245.479504
 20
107.165614
 30
0.0
 10
248.240739
 20
107.165360
 30
0.0
 10
250.479031
 20
104.926873
 30
0.0
 10
250.479045
 20
102.165638
 30
0.0
  0
LWPOLYLINE
  5
106
100
AcDbEntity
  8
Layer_1
 62
7
100
AcDbPolyline
 90
2
 70
0
 10
10.175002
 20
107.165639
 30
0.0
 10
245.479504
 20
107.165614
 30
0.0
  0
SPLINE
  5
107
100
AcDbEntity
  8
Layer_1
 62
7
100
AcDbSpline
 70
8
 71
3
 72
8
 73
4
 74
0
 40
0
 40
0
 40
0
 40
0
 40
1
 40
1
 40
1
 40
1
 10
250.479505
 20
10.172604
 30
0.0
 10
250.479500
 20
8.846445
 30
0.0
 10
249.952650
 20
7.574610
 30
0.0
 10
249.014869
 20
6.636918
 30
0.0
  0
SPLINE
  5
108
100
AcDbEntity
  8
Layer_1
 62
7
100
AcDbSpline
 70
8
 71
3
 72
8
 73
4
 74
0
 40
0
 40
0
 40
0
 40
0
 40
1
 40
1
 40
1
 40
1
 10
249.014869
 20
6.636918
 30
0.0
 10
248.077088
 20
5.699227
 30
0.0
 10
246.805203
 20
5.172499
 30
0.0
 10
245.479044
 20
5.172621
 30
0.0
  0
LWPOLYLINE
  5
109
100
AcDbEntity
  8
Layer_1
 62
7
100
AcDbPolyline
 90
2
 70
0
 10
250.479045
 20
102.165638
 30
0.0
 10
250.479505
 20
10.172604
 30
0.0
  0
SPLINE
  5
10a
100
AcDbEntity
  8
Layer_1
 62
7
100
AcDbSpline
 70
8
 71
3
 72
8
 73
4
 74
0
 40
0
 40
0
 40
0
 40
0
 40
1
 40
1
 40
1
 40
1
 10
19.066593
 20
97.268392
 30
0.0
 10
18.655532
 20
97.318739
 30
0.0
 10
18.281462
 20
97.026385
 30
0.0
 10
18.231003
 20
96.615337
 30
0.0
  0
LWPOLYLINE
  5
10b
100
AcDbEntity
  8
Layer_1
 62
7
100
AcDbPolyline
 90
2
 70
0
 10
36.485782
 20
95.129585
 30
0.0
 10
19.066593
 20
97.268392
 30
0.0
  0
SPLINE
  5
10c
100
AcDbEntity
  8
Layer_1
 62
7
100
AcDbSpline
 70
8
 71
3
 72
8
 73
4
 74
0
 40
0
 40
0
 40
0
 40
0
 40
1
 40
1
 40
1
 40
1
 10
11.265952
 20
39.891362
 30
0.0
 10
11.241705
 20
39.693922
 30
0.0
 10
11.296887
 20
39.494937
 30
0.0
 10
11.419360
 20
39.338185
 30
0.0
  0
SPLINE
  5
10d
100
AcDbEntity
  8
Layer_1
 62
7
100
AcDbSpline
 70
8
 71
3
 72
8
 73
4
 74
0
 40
0
 40
0
 40
0
 40
0
 40
1
 40
1
 40
1
 40
1
 10
11.419360
 20
39.338185
 30
0.0
 10
11.541832
 20
39.181434
 30
0.0
 10
11.721560
 20
39.079758
 30
0.0
 10
11.919002
 20
39.055527
 30
0.0
  0
LWPOLYLINE
  5
10e
100
AcDbEntity
  8
Layer_1
 62
7
100
AcDbPolyline
 90
2
 70
0
 10
18.231003
 20
96.615337
 30
0.0
 10
11.265952
 20
39.891362
 30
0.0
  0
SPLINE
  5
10f
100
AcDbEntity
  8
Layer_1
 62
7
100
AcDbSpline
 70
8
 71
3
 72
8
 73
4
 74
0
 40
0
 40
0
 40
0
 40
0
 40
1
 40
1
 40
1
 40
1
 10
30.826963
 20
36.733939
 30
0.0
 10
31.024395
 20
36.709688
 30
0.0
 10
31.223374
 20
36.764862
 30
0.0
 10
31.380125
 20
36.887321
 30
0.0
  0
SPLINE
  5
110
100
AcDbEntity
  8
Layer_1
 62
7
100
AcDbSpline
 70
8
 71
3
 72
8
 73
4
 74
0
 40
0
 40
0
 40
0
 40
0
 40
1
 40
1
 40
1
 40
1
 10
31.380125
 20
36.887321
 30
0.0
 10
31.536876
 20
37.009781
 30
0.0
 10
31.638560
 20
37.189495
 30
0.0
 10
31.662806
 20
37.386927
 30
0.0
  0
LWPOLYLINE
  5
111
100
AcDbEntity
  8
Layer_1
 62
7
100
AcDbPolyline
 90
2
 70
0
 10
11.919002
 20
39.055527
 30
0.0
 10
30.826963
 20
36.733939
 30
0.0
  0
SPLINE
  5
112
100
AcDbEntity
  8
Layer_1
 62
7
100
AcDbSpline
 70
8
 71
3
 72
8
 73
4
 74
0
 40
0
 40
0
 40
0
 40
0
 40
1
 40
1
 40
1
 40
1
 10
32.060069
 20
40.622648
 30
0.0
 10
32.084317
 20
40.820078
 30
0.0
 10
32.186000
 20
40.999788
 30
0.0
 10
32.342750
 20
41.122246
 30
0.0
  0
SPLINE
  5
113
100
AcDbEntity
  8
Layer_1
 62
7
100
AcDbSpline
 70
8
 71
3
 72
8
 73
4
 74
0
 40
0
 40
0
 40
0
 40
0
 40
1
 40
1
 40
1
 40
1
 10
32.342750
 20
41.122246
 30
0.0
 10
32.499500
 20
41.244703
 30
0.0
 10
32.698476
 20
41.299876
 30
0.0
 10
32.895906
 20
41.275627
 30
0.0
  0
LWPOLYLINE
  5
114
100
AcDbEntity
  8
Layer_1
 62
7
100
AcDbPolyline
 90
2
 70
0
 10
31.662806
 20
37.386927
 30
0.0
 10
32.060069
 20
40.622648
 30
0.0
  0
SPLINE
  5
115
100
AcDbEntity
  8
Layer_1
 62
7
100
AcDbSpline
 70
8
 71
3
 72
8
 73
4
 74
0
 40
0
 40
0
 40
0
 40
0
 40
1
 40
1
 40
1
 40
1
 10
44.099248
 20
39.900055
 30
0.0
 10
44.510362
 20
39.849551
 30
0.0
 10
44.802699
 20
39.475343
 30
0.0
 10
44.752208
 20
39.064227
 30
0.0
  0
LWPOLYLINE
  5
116
100
AcDbEntity
  8
Layer_1
 62
7
100
AcDbPolyline
 90
2
 70
0
 10
32.895906
 20
41.275627
 30
0.0
 10
44.099248
 20
39.900055
 30
0.0
  0
SPLINE
  5
117
100
AcDbEntity
  8
Layer_1
 62
7
100
AcDbSpline
 70
8
 71
3
 72
8
 73
4
 74
0
 40
0
 40
0
 40
0
 40
0
 40
1
 40
1
 40
1
 40
1
 10
42.613448
 20
21.645055
 30
0.0
 10
42.562955
 20
21.233938
 30
0.0
 10
42.855292
 20
20.859727
 30
0.0
 10
43.266408
 20
20.809224
 30
0.0
  0
LWPOLYLINE
  5
118
100
AcDbEntity
  8
Layer_1
 62
7
100
AcDbPolyline
 90
2
 70
0
 10
44.752208
 20
39.064227
 30
0.0
 10
42.613448
 20
21.645055
 30
0.0
  0
SPLINE
  5
119
100
AcDbEntity
  8
Layer_1
 62
7
100
AcDbSpline
 70
8
 71
3
 72
8
 73
4
 74
0
 40
0
 40
0
 40
0
 40
0
 40
1
 40
1
 40
1
 40
1
 10
104.717481
 20
13.264006
 30
0.0
 10
104.914916
 20
13.239758
 30
0.0
 10
105.113897
 20
13.294935
 30
0.0
 10
105.270648
 20
13.417401
 30
0.0
  0
SPLINE
  5
11a
100
AcDbEntity
  8
Layer_1
 62
7
100
AcDbSpline
 70
8
 71
3
 72
8
 73
4
 74
0
 40
0
 40
0
 40
0
 40
0
 40
1
 40
1
 40
1
 40
1
 10
105.270648
 20
13.417401
 30
0.0
 10
105.427400
 20
13.539866
 30
0.0
 10
105.529080
 20
13.719586
 30
0.0
 10
105.553319
 20
13.917022
 30
0.0
  0
LWPOLYLINE
  5
11b
100
AcDbEntity
  8
Layer_1
 62
7
100
AcDbPolyline
 90
2
 70
0
 10
43.266408
 20
20.809224
 30
0.0
 10
104.717481
 20
13.264006
 30
0.0
  0
SPLINE
  5
11c
100
AcDbEntity
  8
Layer_1
 62
7
100
AcDbSpline
 70
8
 71
3
 72
8
 73
4
 74
0
 40
0
 40
0
 40
0
 40
0
 40
1
 40
1
 40
1
 40
1
 10
114.839737
 20
89.549044
 30
0.0
 10
114.890205
 20
89.960166
 30
0.0
 10
114.597842
 20
90.334361
 30
0.0
 10
114.186720
 20
90.384836
 30
0.0
  0
LWPOLYLINE
  5
11d
100
AcDbEntity
  8
Layer_1
 62
7
100
AcDbPolyline
 90
2
 70
0
 10
105.553319
 20
13.917022
 30
0.0
 10
114.839737
 20
89.549044
 30
0.0
  0
SPLINE
  5
11e
100
AcDbEntity
  8
Layer_1
 62
7
100
AcDbSpline
 70
8
 71
3
 72
8
 73
4
 74
0
 40
0
 40
0
 40
0
 40
0
 40
1
 40
1
 40
1
 40
1
 10
77.859534
 20
94.845275
 30
0.0
 10
77.448425
 20
94.895749
 30
0.0
 10
77.156064
 20
95.269925
 30
0.0
 10
77.206514
 20
95.681037
 30
0.0
  0
LWPOLYLINE
  5
11f
100
AcDbEntity
  8
Layer_1
 62
7
100
AcDbPolyline
 90
2
 70
0
 10
114.186720
 20
90.384836
 30
0.0
 10
77.859534
 20
94.845275
 30
0.0
  0
SPLINE
  5
120
100
AcDbEntity
  8
Layer_1
 62
7
100
AcDbSpline
 70
8
 71
3
 72
8
 73
4
 74
0
 40
0
 40
0
 40
0
 40
0
 40
1
 40
1
 40
1
 40
1
 10
77.603821
 20
98.916788
 30
0.0
 10
77.628073
 20
99.114223
 30
0.0
 10
77.572898
 20
99.313207
 30
0.0
 10
77.450434
 20
99.469960
 30
0.0
  0
SPLINE
  5
121
100
AcDbEntity
  8
Layer_1
 62
7
100
AcDbSpline
 70
8
 71
3
 72
8
 73
4
 74
0
 40
0
 40
0
 40
0
 40
0
 40
1
 40
1
 40
1
 40
1
 10
77.450434
 20
99.469960
 30
0.0
 10
77.327971
 20
99.626714
 30
0.0
 10
77.148251
 20
99.728397
 30
0.0
 10
76.950814
 20
99.752638
 30
0.0
  0
LWPOLYLINE
  5
122
100
AcDbEntity
  8
Layer_1
 62
7
100
AcDbPolyline
 90
2
 70
0
 10
77.206514
 20
95.681037
 30
0.0
 10
77.603821
 20
98.916788
 30
0.0
  0
SPLINE
  5
123
100
AcDbEntity
  8
Layer_1
 62
7
100
AcDbSpline
 70
8
 71
3
 72
8
 73
4
 74
0
 40
0
 40
0
 40
0
 40
0
 40
1
 40
1
 40
1
 40
1
 10
58.042805
 20
102.074211
 30
0.0
 10
57.631697
 20
102.124682
 30
0.0
 10
57.257508
 20
101.832343
 30
0.0
 10
57.207010
 20
101.421238
 30
0.0
  0
LWPOLYLINE
  5
124
100
AcDbEntity
  8
Layer_1
 62
7
100
AcDbPolyline
 90
2
 70
0
 10
76.950814
 20
99.752638
 30
0.0
 10
58.042805
 20
102.074211
 30
0.0
  0
SPLINE
  5
125
100
AcDbEntity
  8
Layer_1
 62
7
100
AcDbSpline
 70
8
 71
3
 72
8
 73
4
 74
0
 40
0
 40
0
 40
0
 40
0
 40
1
 40
1
 40
1
 40
1
 10
56.809699
 20
98.185502
 30
0.0
 10
56.759197
 20
97.774404
 30
0.0
 10
56.385013
 20
97.482070
 30
0.0
 10
55.973910
 20
97.532537
 30
0.0
  0
LWPOLYLINE
  5
126
100
AcDbEntity
  8
Layer_1
 62
7
100
AcDbPolyline
 90
2
 70
0
 10
57.207010
 20
101.421238
 30
0.0
 10
56.809699
 20
98.185502
 30
0.0
  0
SPLINE
  5
127
100
AcDbEntity
  8
Layer_1
 62
7
100
AcDbSpline
 70
8
 71
3
 72
8
 73
4
 74
0
 40
0
 40
0
 40
0
 40
0
 40
1
 40
1
 40
1
 40
1
 10
38.554700
 20
99.671302
 30
0.0
 10
38.143596
 20
99.721772
 30
0.0
 10
37.769409
 20
99.429438
 30
0.0
 10
37.718907
 20
99.018338
 30
0.0
  0
LWPOLYLINE
  5
128
100
AcDbEntity
  8
Layer_1
 62
7
100
AcDbPolyline
 90
2
 70
0
 10
55.973910
 20
97.532537
 30
0.0
 10
38.554700
 20
99.671302
 30
0.0
  0
SPLINE
  5
129
100
AcDbEntity
  8
Layer_1
 62
7
100
AcDbSpline
 70
8
 71
3
 72
8
 73
4
 74
0
 40
0
 40
0
 40
0
 40
0
 40
1
 40
1
 40
1
 40
1
 10
37.321594
 20
95.782593
 30
0.0
 10
37.297364
 20
95.585159
 30
0.0
 10
37.195695
 20
95.405438
 30
0.0
 10
37.038954
 20
95.282965
 30
0.0
  0
SPLINE
  5
12a
100
AcDbEntity
  8
Layer_1
 62
7
100
AcDbSpline
 70
8
 71
3
 72
8
 73
4
 74
0
 40
0
 40
0
 40
0
 40
0
 40
1
 40
1
 40
1
 40
1
 10
37.038954
 20
95.282965
 30
0.0
 10
36.882213
 20
95.160493
 30
0.0
 10
36.683240
 20
95.105303
 30
0.0
 10
36.485806
 20
95.129537
 30
0.0
  0
LWPOLYLINE
  5
12b
100
AcDbEntity
  8
Layer_1
 62
7
100
AcDbPolyline
 90
2
 70
0
 10
37.718907
 20
99.018338
 30
0.0
 10
37.321594
 20
95.782593
 30
0.0
  0
SPLINE
  5
12c
100
AcDbEntity
  8
Layer_1
 62
7
100
AcDbSpline
 70
8
 71
3
 72
8
 73
4
 74
0
 40
0
 40
0
 40
0
 40
0
 40
1
 40
1
 40
1
 40
1
 10
236.587452
 20
97.268392
 30
0.0
 10
236.998514
 20
97.318739
 30
0.0
 10
237.372583
 20
97.026385
 30
0.0
 10
237.423042
 20
96.615337
 30
0.0
  0
LWPOLYLINE
  5
12d
100
AcDbEntity
  8
Layer_1
 62
7
100
AcDbPolyline
 90
2
 70
0
 10
219.168263
 20
95.129585
 30
0.0
 10
236.587452
 20
97.268392
 30
0.0
  0
SPLINE
  5
12e
100
AcDbEntity
  8
Layer_1
 62
7
100
AcDbSpline
 70
8
 71
3
 72
8
 73
4
 74
0
 40
0
 40
0
 40
0
 40
0
 40
1
 40
1
 40
1
 40
1
 10
244.388094
 20
39.891362
 30
0.0
 10
244.412341
 20
39.693922
 30
0.0
 10
244.357158
 20
39.494937
 30
0.0
 10
244.234686
 20
39.338185
 30
0.0
  0
SPLINE
  5
12f
100
AcDbEntity
  8
Layer_1
 62
7
100
AcDbSpline
 70
8
 71
3
 72
8
 73
4
 74
0
 40
0
 40
0
 40
0
 40
0
 40
1
 40
1
 40
1
 40
1
 10
244.234686
 20
39.338185
 30
0.0
 10
244.112214
 20
39.181434
 30
0.0
 10
243.932485
 20
39.079758
 30
0.0
 10
243.735043
 20
39.055527
 30
0.0
  0
LWPOLYLINE
  5
130
100
AcDbEntity
  8
Layer_1
 62
7
100
AcDbPolyline
 90
2
 70
0
 10
237.423042
 20
96.615337
 30
0.0
 10
244.388094
 20
39.891362
 30
0.0
  0
SPLINE
  5
131
100
AcDbEntity
  8
Layer_1
 62
7
100
AcDbSpline
 70
8
 71
3
 72
8
 73
4
 74
0
 40
0
 40
0
 40
0
 40
0
 40
1
 40
1
 40
1
 40
1
 10
224.827082
 20
36.733939
 30
0.0
 10
224.629650
 20
36.709688
 30
0.0
 10
224.430672
 20
36.764862
 30
0.0
 10
224.273921
 20
36.887321
 30
0.0
  0
SPLINE
  5
132
100
AcDbEntity
  8
Layer_1
 62
7
100
AcDbSpline
 70
8
 71
3
 72
8
 73
4
 74
0
 40
0
 40
0
 40
0
 40
0
 40
1
 40
1
 40
1
 40
1
 10
224.273921
 20
36.887321
 30
0.0
 10
224.117169
 20
37.009781
 30
0.0
 10
224.015486
 20
37.189495
 30
0.0
 10
223.991240
 20
37.386927
 30
0.0
  0
LWPOLYLINE
  5
133
100
AcDbEntity
  8
Layer_1
 62
7
100
AcDbPolyline
 90
2
 70
0
 10
243.735043
 20
39.055527
 30
0.0
 10
224.827082
 20
36.733939
 30
0.0
  0
SPLINE
  5
134
100
AcDbEntity
  8
Layer_1
 62
7
100
AcDbSpline
 70
8
 71
3
 72
8
 73
4
 74
0
 40
0
 40
0
 40
0
 40
0
 40
1
 40
1
 40
1
 40
1
 10
223.593977
 20
40.622648
 30
0.0
 10
223.569729
 20
40.820078
 30
0.0
 10
223.468045
 20
40.999788
 30
0.0
 10
223.311295
 20
41.122246
 30
0.0
  0
SPLINE
  5
135
100
AcDbEntity
  8
Layer_1
 62
7
100
AcDbSpline
 70
8
 71
3
 72
8
 73
4
 74
0
 40
0
 40
0
 40
0
 40
0
 40
1
 40
1
 40
1
 40
1
 10
223.311295
 20
41.122246
 30
0.0
 10
223.154545
 20
41.244703
 30
0.0
 10
222.955569
 20
41.299876
 30
0.0
 10
222.758140
 20
41.275627
 30
0.0
  0
LWPOLYLINE
  5
136
100
AcDbEntity
  8
Layer_1
 62
7
100
AcDbPolyline
 90
2
 70
0
 10
223.991240
 20
37.386927
 30
0.0
 10
223.593977
 20
40.622648
 30
0.0
  0
SPLINE
  5
137
100
AcDbEntity
  8
Layer_1
 62
7
100
AcDbSpline
 70
8
 71
3
 72
8
 73
4
 74
0
 40
0
 40
0
 40
0
 40
0
 40
1
 40
1
 40
1
 40
1
 10
211.554798
 20
39.900055
 30
0.0
 10
211.143684
 20
39.849551
 30
0.0
 10
210.851347
 20
39.475343
 30
0.0
 10
210.901838
 20
39.064227
 30
0.0
  0
LWPOLYLINE
  5
138
100
AcDbEntity
  8
Layer_1
 62
7
100
AcDbPolyline
 90
2
 70
0
 10
222.758140
 20
41.275627
 30
0.0
 10
211.554798
 20
39.900055
 30
0.0
  0
SPLINE
  5
139
100
AcDbEntity
  8
Layer_1
 62
7
100
AcDbSpline
 70
8
 71
3
 72
8
 73
4
 74
0
 40
0
 40
0
 40
0
 40
0
 40
1
 40
1
 40
1
 40
1
 10
213.040598
 20
21.645055
 30
0.0
 10
213.091091
 20
21.233938
 30
0.0
 10
212.798753
 20
20.859727
 30
0.0
 10
212.387638
 20
20.809224
 30
0.0
  0
LWPOLYLINE
  5
13a
100
AcDbEntity
  8
Layer_1
 62
7
100
AcDbPolyline
 90
2
 70
0
 10
210.901838
 20
39.064227
 30
0.0
 10
213.040598
 20
21.645055
 30
0.0
  0
SPLINE
  5
13b
100
AcDbEntity
  8
Layer_1
 62
7
100
AcDbSpline
 70
8
 71
3
 72
8
 73
4
 74
0
 40
0
 40
0
 40
0
 40
0
 40
1
 40
1
 40
1
 40
1
 10
150.936565
 20
13.264006
 30
0.0
 10
150.739130
 20
13.239758
 30
0.0
 10
150.540148
 20
13.294935
 30
0.0
 10
150.383397
 20
13.417401
 30
0.0
  0
SPLINE
  5
13c
100
AcDbEntity
  8
Layer_1
 62
7
100
AcDbSpline
 70
8
 71
3
 72
8
 73
4
 74
0
 40
0
 40
0
 40
0
 40
0
 40
1
 40
1
 40
1
 40
1
 10
150.383397
 20
13.417401
 30
0.0
 10
150.226646
 20
13.539866
 30
0.0
 10
150.124966
 20
13.719586
 30
0.0
 10
150.100727
 20
13.917022
 30
0.0
  0
LWPOLYLINE
  5
13d
100
AcDbEntity
  8
Layer_1
 62
7
100
AcDbPolyline
 90
2
 70
0
 10
212.387638
 20
20.809224
 30
0.0
 10
150.936565
 20
13.264006
 30
0.0
  0
SPLINE
  5
13e
100
AcDbEntity
  8
Layer_1
 62
7
100
AcDbSpline
 70
8
 71
3
 72
8
 73
4
 74
0
 40
0
 40
0
 40
0
 40
0
 40
1
 40
1
 40
1
 40
1
 10
140.814308
 20
89.549044
 30
0.0
 10
140.763840
 20
89.960166
 30
0.0
 10
141.056204
 20
90.334361
 30
0.0
 10
141.467325
 20
90.384836
 30
0.0
  0
LWPOLYLINE
  5
13f
100
AcDbEntity
  8
Layer_1
 62
7
100
AcDbPolyline
 90
2
 70
0
 10
150.100727
 20
13.917022
 30
0.0
 10
140.814308
 20
89.549044
 30
0.0
  0
SPLINE
  5
140
100
AcDbEntity
  8
Layer_1
 62
7
100
AcDbSpline
 70
8
 71
3
 72
8
 73
4
 74
0
 40
0
 40
0
 40
0
 40
0
 40
1
 40
1
 40
1
 40
1
 10
177.794512
 20
94.845275
 30
0.0
 10
178.205621
 20
94.895749
 30
0.0
 10
178.497982
 20
95.269925
 30
0.0
 10
178.447532
 20
95.681037
 30
0.0
  0
LWPOLYLINE
  5
141
100
AcDbEntity
  8
Layer_1
 62
7
100
AcDbPolyline
 90
2
 70
0
 10
141.467325
 20
90.384836
 30
0.0
 10
177.794512
 20
94.845275
 30
0.0
  0
SPLINE
  5
142
100
AcDbEntity
  8
Layer_1
 62
7
100
AcDbSpline
 70
8
 71
3
 72
8
 73
4
 74
0
 40
0
 40
0
 40
0
 40
0
 40
1
 40
1
 40
1
 40
1
 10
178.050225
 20
98.916788
 30
0.0
 10
178.025972
 20
99.114223
 30
0.0
 10
178.081147
 20
99.313207
 30
0.0
 10
178.203611
 20
99.469960
 30
0.0
  0
SPLINE
  5
143
100
AcDbEntity
  8
Layer_1
 62
7
100
AcDbSpline
 70
8
 71
3
 72
8
 73
4
 74
0
 40
0
 40
0
 40
0
 40
0
 40
1
 40
1
 40
1
 40
1
 10
178.203611
 20
99.469960
 30
0.0
 10
178.326075
 20
99.626714
 30
0.0
 10
178.505795
 20
99.728397
 30
0.0
 10
178.703232
 20
99.752638
 30
0.0
  0
LWPOLYLINE
  5
144
100
AcDbEntity
  8
Layer_1
 62
7
100
AcDbPolyline
 90
2
 70
0
 10
178.447532
 20
95.681037
 30
0.0
 10
178.050225
 20
98.916788
 30
0.0
  0
SPLINE
  5
145
100
AcDbEntity
  8
Layer_1
 62
7
100
AcDbSpline
 70
8
 71
3
 72
8
 73
4
 74
0
 40
0
 40
0
 40
0
 40
0
 40
1
 40
1
 40
1
 40
1
 10
197.611240
 20
102.074211
 30
0.0
 10
198.022348
 20
102.124682
 30
0.0
 10
198.396538
 20
101.832343
 30
0.0
 10
198.447035
 20
101.421238
 30
0.0
  0
LWPOLYLINE
  5
146
100
AcDbEntity
  8
Layer_1
 62
7
100
AcDbPolyline
 90
2
 70
0
 10
178.703232
 20
99.752638
 30
0.0
 10
197.611240
 20
102.074211
 30
0.0
  0
SPLINE
  5
147
100
AcDbEntity
  8
Layer_1
 62
7
100
AcDbSpline
 70
8
 71
3
 72
8
 73
4
 74
0
 40
0
 40
0
 40
0
 40
0
 40
1
 40
1
 40
1
 40
1
 10
198.844346
 20
98.185502
 30
0.0
 10
198.894848
 20
97.774404
 30
0.0
 10
199.269032
 20
97.482070
 30
0.0
 10
199.680136
 20
97.532537
 30
0.0
  0
LWPOLYLINE
  5
148
100
AcDbEntity
  8
Layer_1
 62
7
100
AcDbPolyline
 90
2
 70
0
 10
198.447035
 20
101.421238
 30
0.0
 10
198.844346
 20
98.185502
 30
0.0
  0
SPLINE
  5
149
100
AcDbEntity
  8
Layer_1
 62
7
100
AcDbSpline
 70
8
 71
3
 72
8
 73
4
 74
0
 40
0
 40
0
 40
0
 40
0
 40
1
 40
1
 40
1
 40
1
 10
217.099346
 20
99.671302
 30
0.0
 10
217.510450
 20
99.721772
 30
0.0
 10
217.884637
 20
99.429438
 30
0.0
 10
217.935139
 20
99.018338
 30
0.0
  0
LWPOLYLINE
  5
14a
100
AcDbEntity
  8
Layer_1
 62
7
100
AcDbPolyline
 90
2
 70
0
 10
199.680136
 20
97.532537
 30
0.0
 10
217.099346
 20
99.671302
 30
0.0
  0
SPLINE
  5
14b
100
AcDbEntity
  8
Layer_1
 62
7
100
AcDbSpline
 70
8
 71
3
 72
8
 73
4
 74
0
 40
0
 40
0
 40
0
 40
0
 40
1
 40
1
 40
1
 40
1
 10
218.332452
 20
95.782593
 30
0.0
 10
218.356682
 20
95.585159
 30
0.0
 10
218.458350
 20
95.405438
 30
0.0
 10
218.615091
 20
95.282965
 30
0.0
  0
SPLINE
  5
14c
100
AcDbEntity
  8
Layer_1
 62
7
100
AcDbSpline
 70
8
 71
3
 72
8
 73
4
 74
0
 40
0
 40
0
 40
0
 40
0
 40
1
 40
1
 40
1
 40
1
 10
218.615091
 20
95.282965
 30
0.0
 10
218.771832
 20
95.160493
 30
0.0
 10
218.970806
 20
95.105303
 30
0.0
 10
219.168239
 20
95.129537
 30
0.0
  0
SPLINE
  5
14d
100
AcDbEntity
  8
Layer_1
 62
7
100
AcDbSpline
 70
8
 71
3
 72
8
 73
4
 74
0
 40
0
 40
0
 40
0
 40
0
 40
1
 40
1
 40
1
 40
1
 10
134.302024
 20
61.012245
 30
0.0
 10
134.302016
 20
61.426453
 30
0.0
 10
133.966232
 20
61.762231
 30
0.0
 10
133.552024
 20
61.762231
 30
0.0
  0
LWPOLYLINE
  5
14e
100
AcDbEntity
  8
Layer_1
 62
7
100
AcDbPolyline
 90
2
 70
0
 10
217.935139
 20
99.018338
 30
0.0
 10
218.332452
 20
95.782593
 30
0.0
  0
SPLINE
  5
14f
100
AcDbEntity
  8
Layer_1
 62
7
100
AcDbSpline
 70
8
 71
3
 72
8
 73
4
 74
0
 40
0
 40
0
 40
0
 40
0
 40
1
 40
1
 40
1
 40
1
 10
122.102022
 20
61.762245
 30
0.0
 10
121.903109
 20
61.762245
 30
0.0
 10
121.712343
 20
61.683227
 30
0.0
 10
121.571690
 20
61.542574
 30
0.0
  0
SPLINE
  5
150
100
AcDbEntity
  8
Layer_1
 62
7
100
AcDbSpline
 70
8
 71
3
 72
8
 73
4
 74
0
 40
0
 40
0
 40
0
 40
0
 40
1
 40
1
 40
1
 40
1
 10
121.571690
 20
61.542574
 30
0.0
 10
121.431038
 20
61.401920
 30
0.0
 10
121.352021
 20
61.211154
 30
0.0
 10
121.352022
 20
61.012241
 30
0.0
  0
LWPOLYLINE
  5
151
100
AcDbEntity
  8
Layer_1
 62
7
100
AcDbPolyline
 90
2
 70
0
 10
133.552024
 20
61.762231
 30
0.0
 10
122.102022
 20
61.762245
 30
0.0
  0
SPLINE
  5
152
100
AcDbEntity
  8
Layer_1
 62
7
100
AcDbSpline
 70
8
 71
3
 72
8
 73
4
 74
0
 40
0
 40
0
 40
0
 40
0
 40
1
 40
1
 40
1
 40
1
 10
121.352022
 20
34.762240
 30
0.0
 10
121.352018
 20
34.563325
 30
0.0
 10
121.431034
 20
34.372556
 30
0.0
 10
121.571687
 20
34.231901
 30
0.0
  0
SPLINE
  5
153
100
AcDbEntity
  8
Layer_1
 62
7
100
AcDbSpline
 70
8
 71
3
 72
8
 73
4
 74
0
 40
0
 40
0
 40
0
 40
0
 40
1
 40
1
 40
1
 40
1
 10
121.571687
 20
34.231901
 30
0.0
 10
121.712339
 20
34.091246
 30
0.0
 10
121.903107
 20
34.012226
 30
0.0
 10
122.102022
 20
34.012226
 30
0.0
  0
LWPOLYLINE
  5
154
100
AcDbEntity
  8
Layer_1
 62
7
100
AcDbPolyline
 90
2
 70
0
 10
121.352022
 20
61.012241
 30
0.0
 10
121.352022
 20
34.762240
 30
0.0
  0
SPLINE
  5
155
100
AcDbEntity
  8
Layer_1
 62
7
100
AcDbSpline
 70
8
 71
3
 72
8
 73
4
 74
0
 40
0
 40
0
 40
0
 40
0
 40
1
 40
1
 40
1
 40
1
 10
133.552024
 20
34.012240
 30
0.0
 10
133.966232
 20
34.012240
 30
0.0
 10
134.302016
 20
34.348018
 30
0.0
 10
134.302024
 20
34.762226
 30
0.0
  0
LWPOLYLINE
  5
156
100
AcDbEntity
  8
Layer_1
 62
7
100
AcDbPolyline
 90
2
 70
0
 10
122.102022
 20
34.012226
 30
0.0
 10
133.552024
 20
34.012240
 30
0.0
  0
SPLINE
  5
157
100
AcDbEntity
  8
Layer_1
 62
7
100
AcDbSpline
 70
8
 71
3
 72
8
 73
4
 74
0
 40
0
 40
0
 40
0
 40
0
 40
1
 40
1
 40
1
 40
1
 10
127.827023
 20
81.137248
 30
0.0
 10
125.065595
 20
81.137248
 30
0.0
 10
122.827015
 20
78.898669
 30
0.0
 10
122.827015
 20
76.137241
 30
0.0
  0
SPLINE
  5
158
100
AcDbEntity
  8
Layer_1
 62
7
100
AcDbSpline
 70
8
 71
3
 72
8
 73
4
 74
0
 40
0
 40
0
 40
0
 40
0
 40
1
 40
1
 40
1
 40
1
 10
122.827015
 20
76.137241
 30
0.0
 10
122.827015
 20
73.375812
 30
0.0
 10
125.065595
 20
71.137233
 30
0.0
 10
127.827023
 20
71.137233
 30
0.0
  0
SPLINE
  5
159
100
AcDbEntity
  8
Layer_1
 62
7
100
AcDbSpline
 70
8
 71
3
 72
8
 73
4
 74
0
 40
0
 40
0
 40
0
 40
0
 40
1
 40
1
 40
1
 40
1
 10
127.827023
 20
71.137233
 30
0.0
 10
129.613351
 20
71.137233
 30
0.0
 10
131.263986
 20
72.090227
 30
0.0
 10
132.157151
 20
73.637233
 30
0.0
  0
SPLINE
  5
15a
100
AcDbEntity
  8
Layer_1
 62
7
100
AcDbSpline
 70
8
 71
3
 72
8
 73
4
 74
0
 40
0
 40
0
 40
0
 40
0
 40
1
 40
1
 40
1
 40
1
 10
132.157151
 20
73.637233
 30
0.0
 10
133.050315
 20
75.184239
 30
0.0
 10
133.050315
 20
77.090228
 30
0.0
 10
132.157151
 20
78.637234
 30
0.0
  0
SPLINE
  5
15b
100
AcDbEntity
  8
Layer_1
 62
7
100
AcDbSpline
 70
8
 71
3
 72
8
 73
4
 74
0
 40
0
 40
0
 40
0
 40
0
 40
1
 40
1
 40
1
 40
1
 10
132.157151
 20
78.637234
 30
0.0
 10
131.263986
 20
80.184240
 30
0.0
 10
129.613351
 20
81.137234
 30
0.0
 10
127.827023
 20
81.137234
 30
0.0
  0
LWPOLYLINE
  5
15c
100
AcDbEntity
  8
Layer_1
 62
7
100
AcDbPolyline
 90
2
 70
0
 10
134.302024
 20
34.762226
 30
0.0
 10
134.302024
 20
61.012245
 30
0.0
  0
ENDSEC
  0
SECTION
  2
OBJECTS
  0
DICTIONARY
  5
C
330
0
100
AcDbDictionary
  3
ACAD_GROUP
350
D
  3
ACAD_MLINESTYLE
350
17
  0
DICTIONARY
  5
D
330
C
100
AcDbDictionary
  0
DICTIONARY
  5
1A
330
C
100
AcDbDictionary
  0
DICTIONARY
  5
17
330
C
100
AcDbDictionary
  3
STANDARD
350
18
  0
DICTIONARY
  5
19
330
C
100
AcDbDictionary
  0
ENDSEC
  0
EOF
