  0
SECTION
  2
HEADER
  9
$ACADVER
  1
AC1014
  9
$HANDSEED
  5
FFFF
  9
$MEASUREMENT
 70
     1
  0
ENDSEC
  0
SECTION
  2
TABLES
  0
TABLE
  2
VPORT
  5
8
330
0
100
AcDbSymbolTable
 70
     4
  0
VPORT
  5
2E
330
8
100
AcDbSymbolTableRecord
100
AcDbViewportTableRecord
  2
*ACTIVE
 70
     0
 10
0.0
 20
0.0
 11
1.0
 21
1.0
 12
210.0
 22
148.5
 13
0.0
 23
0.0
 14
10.0
 24
10.0
 15
10.0
 25
10.0
 16
0.0
 26
0.0
 36
1.0
 17
0.0
 27
0.0
 37
0.0
 40
341.0
 41
1.24
 42
50.0
 43
0.0
 44
0.0
 50
0.0
 51
0.0
 71
     0
 72
   100
 73
     1
 74
     3
 75
     0
 76
     0
 77
     0
 78
     0
  0
ENDTAB
  0
TABLE
  2
LTYPE
  5
5
330
0
100
AcDbSymbolTable
 70
     1
  0
LTYPE
  5
14
330
5
100
AcDbSymbolTableRecord
100
AcDbLinetypeTableRecord
  2
BYBLOCK
 70
     0
  3

 72
    65
 73
     0
 40
0.0
  0
LTYPE
  5
15
330
5
100
AcDbSymbolTableRecord
100
AcDbLinetypeTableRecord
  2
BYLAYER
 70
     0
  3

 72
    65
 73
     0
 40
0.0
  0
LTYPE
  5
16
330
5
100
AcDbSymbolTableRecord
100
AcDbLinetypeTableRecord
  2
CONTINUOUS
 70
     0
  3
Solid line
 72
    65
 73
     0
 40
0.0
  0
ENDTAB
  0
TABLE
  2
LAYER
  5
2
100
AcDbSymbolTable
 70
2
  0
LAYER
  5
50
100
AcDbSymbolTableRecord
100
AcDbLayerTableRecord
  2
0
 70
0
  6
CONTINUOUS
  0
LAYER
  5
51
100
AcDbSymbolTableRecord
100
AcDbLayerTableRecord
  2
Layer_1
 70
0
  6
CONTINUOUS
  0
ENDTAB
  0
TABLE
  2
STYLE
  5
3
330
0
100
AcDbSymbolTable
 70
     1
  0
STYLE
  5
11
330
3
100
AcDbSymbolTableRecord
100
AcDbTextStyleTableRecord
  2
STANDARD
 70
     0
 40
0.0
 41
1.0
 50
0.0
 71
     0
 42
2.5
  3
txt
  4

  0
ENDTAB
  0
TABLE
  2
VIEW
  5
6
330
0
100
AcDbSymbolTable
 70
     0
  0
ENDTAB
  0
TABLE
  2
UCS
  5
7
330
0
100
AcDbSymbolTable
 70
     0
  0
ENDTAB
  0
TABLE
  2
APPID
  5
9
330
0
100
AcDbSymbolTable
 70
     2
  0
APPID
  5
12
330
9
100
AcDbSymbolTableRecord
100
AcDbRegAppTableRecord
  2
ACAD
 70
     0
  0
ENDTAB
  0
TABLE
  2
DIMSTYLE
  5
A
330
0
100
AcDbSymbolTable
 70
     1
  0
DIMSTYLE
105
27
330
A
100
AcDbSymbolTableRecord
100
AcDbDimStyleTableRecord
  2
ISO-25
 70
     0
  3

  4

  5

  6

  7

 40
1.0
 41
2.5
 42
0.625
 43
3.75
 44
1.25
 45
0.0
 46
0.0
 47
0.0
 48
0.0
140
2.5
141
2.5
142
0.0
143
0.03937007874016
144
1.0
145
0.0
146
1.0
147
0.625
 71
     0
 72
     0
 73
     0
 74
     0
 75
     0
 76
     0
 77
     1
 78
     8
170
     0
171
     3
172
     1
173
     0
174
     0
175
     0
176
     0
177
     0
178
     0
270
     2
271
     2
272
     2
273
     2
274
     3
340
11
275
     0
280
     0
281
     0
282
     0
283
     0
284
     8
285
     0
286
     0
287
     3
288
     0
  0
ENDTAB
  0
TABLE
  2
BLOCK_RECORD
  5
1
330
0
100
AcDbSymbolTable
 70
     1
  0
BLOCK_RECORD
  5
1F
330
1
100
AcDbSymbolTableRecord
100
AcDbBlockTableRecord
  2
*MODEL_SPACE
  0
BLOCK_RECORD
  5
1B
330
1
100
AcDbSymbolTableRecord
100
AcDbBlockTableRecord
  2
*PAPER_SPACE
  0
ENDTAB
  0
ENDSEC
  0
SECTION
  2
BLOCKS
  0
BLOCK
  5
20
330
1F
100
AcDbEntity
  8
0
100
AcDbBlockBegin
  2
*MODEL_SPACE
 70
     0
 10
0.0
 20
0.0
 30
0.0
  3
*MODEL_SPACE
  1

  0
ENDBLK
  5
21
330
1F
100
AcDbEntity
  8
0
100
AcDbBlockEnd
  0
BLOCK
  5
1C
330
1B
100
AcDbEntity
 67
     1
  8
0
100
AcDbBlockBegin
  2
*PAPER_SPACE
  1

  0
ENDBLK
  5
1D
330
1B
100
AcDbEntity
 67
     1
  8
0
100
AcDbBlockEnd
  0
ENDSEC
  0
SECTION
  2
ENTITIES
  0
SPLINE
  5
100
100
AcDbEntity
  8
Layer_1
 62
7
100
AcDbSpline
 70
8
 71
3
 72
8
 73
4
 74
0
 40
0
 40
0
 40
0
 40
0
 40
1
 40
1
 40
1
 40
1
 10
21.405224
 20
103.414699
 30
0.0
 10
20.445943
 20
103.532482
 30
0.0
 10
19.572803
 20
102.850319
 30
0.0
 10
19.455003
 20
101.891037
 30
0.0
  0
LWPOLYLINE
  5
101
100
AcDbEntity
  8
Layer_1
 62
7
100
AcDbPolyline
 90
2
 70
0
 10
38.328130
 20
101.336830
 30
0.0
 10
21.405224
 20
103.414699
 30
0.0
  0
SPLINE
  5
102
100
AcDbEntity
  8
Layer_1
 62
7
100
AcDbSpline
 70
8
 71
3
 72
8
 73
4
 74
0
 40
0
 40
0
 40
0
 40
0
 40
1
 40
1
 40
1
 40
1
 10
12.130642
 20
42.238988
 30
0.0
 10
12.012832
 20
41.279794
 30
0.0
 10
12.694822
 20
40.406676
 30
0.0
 10
13.654002
 20
40.288727
 30
0.0
  0
LWPOLYLINE
  5
103
100
AcDbEntity
  8
Layer_1
 62
7
100
AcDbPolyline
 90
2
 70
0
 10
19.455003
 20
101.891037
 30
0.0
 10
12.130642
 20
42.238988
 30
0.0
  0
SPLINE
  5
104
100
AcDbEntity
  8
Layer_1
 62
7
100
AcDbSpline
 70
8
 71
3
 72
8
 73
4
 74
0
 40
0
 40
0
 40
0
 40
0
 40
1
 40
1
 40
1
 40
1
 10
44.144105
 20
36.545081
 30
0.0
 10
44.281139
 20
36.528271
 30
0.0
 10
44.378604
 20
36.403562
 30
0.0
 10
44.361807
 20
36.266526
 30
0.0
  0
LWPOLYLINE
  5
105
100
AcDbEntity
  8
Layer_1
 62
7
100
AcDbPolyline
 90
2
 70
0
 10
13.654002
 20
40.288727
 30
0.0
 10
44.144105
 20
36.545081
 30
0.0
  0
SPLINE
  5
106
100
AcDbEntity
  8
Layer_1
 62
7
100
AcDbSpline
 70
8
 71
3
 72
8
 73
4
 74
0
 40
0
 40
0
 40
0
 40
0
 40
1
 40
1
 40
1
 40
1
 10
42.864000
 20
24.068083
 30
0.0
 10
42.746195
 20
23.108769
 30
0.0
 10
43.428390
 20
22.235599
 30
0.0
 10
44.387707
 20
22.117824
 30
0.0
  0
LWPOLYLINE
  5
107
100
AcDbEntity
  8
Layer_1
 62
7
100
AcDbPolyline
 90
2
 70
0
 10
44.361807
 20
36.266526
 30
0.0
 10
42.864000
 20
24.068083
 30
0.0
  0
SPLINE
  5
108
100
AcDbEntity
  8
Layer_1
 62
7
100
AcDbSpline
 70
8
 71
3
 72
8
 73
4
 74
0
 40
0
 40
0
 40
0
 40
0
 40
1
 40
1
 40
1
 40
1
 10
218.268359
 20
22.117856
 30
0.0
 10
219.227669
 20
22.235645
 30
0.0
 10
219.909848
 20
23.108817
 30
0.0
 10
219.792037
 20
24.068124
 30
0.0
  0
LWPOLYLINE
  5
109
100
AcDbEntity
  8
Layer_1
 62
7
100
AcDbPolyline
 90
5
 70
0
 10
44.387707
 20
22.117824
 30
0.0
 10
109.472261
 20
14.126470
 30
0.0
 10
131.328022
 20
15.874654
 30
0.0
 10
153.183783
 20
14.126470
 30
0.0
 10
218.268359
 20
22.117856
 30
0.0
  0
SPLINE
  5
10a
100
AcDbEntity
  8
Layer_1
 62
7
100
AcDbSpline
 70
8
 71
3
 72
8
 73
4
 74
0
 40
0
 40
0
 40
0
 40
0
 40
1
 40
1
 40
1
 40
1
 10
218.294269
 20
36.266477
 30
0.0
 10
218.277419
 20
36.403535
 30
0.0
 10
218.374879
 20
36.528299
 30
0.0
 10
218.511937
 20
36.545126
 30
0.0
  0
LWPOLYLINE
  5
10b
100
AcDbEntity
  8
Layer_1
 62
7
100
AcDbPolyline
 90
2
 70
0
 10
219.792037
 20
24.068124
 30
0.0
 10
218.294269
 20
36.266477
 30
0.0
  0
SPLINE
  5
10c
100
AcDbEntity
  8
Layer_1
 62
7
100
AcDbSpline
 70
8
 71
3
 72
8
 73
4
 74
0
 40
0
 40
0
 40
0
 40
0
 40
1
 40
1
 40
1
 40
1
 10
249.001712
 20
40.288755
 30
0.0
 10
249.960882
 20
40.406719
 30
0.0
 10
250.642862
 20
41.279839
 30
0.0
 10
250.525042
 20
42.239027
 30
0.0
  0
LWPOLYLINE
  5
10d
100
AcDbEntity
  8
Layer_1
 62
7
100
AcDbPolyline
 90
2
 70
0
 10
218.511937
 20
36.545126
 30
0.0
 10
249.001712
 20
40.288755
 30
0.0
  0
SPLINE
  5
10e
100
AcDbEntity
  8
Layer_1
 62
7
100
AcDbSpline
 70
8
 71
3
 72
8
 73
4
 74
0
 40
0
 40
0
 40
0
 40
0
 40
1
 40
1
 40
1
 40
1
 10
243.201061
 20
101.891010
 30
0.0
 10
243.083291
 20
102.850230
 30
0.0
 10
242.210271
 20
103.532399
 30
0.0
 10
241.251040
 20
103.414737
 30
0.0
  0
LWPOLYLINE
  5
10f
100
AcDbEntity
  8
Layer_1
 62
7
100
AcDbPolyline
 90
2
 70
0
 10
250.525042
 20
42.239027
 30
0.0
 10
243.201061
 20
101.891010
 30
0.0
  0
SPLINE
  5
110
100
AcDbEntity
  8
Layer_1
 62
7
100
AcDbSpline
 70
8
 71
3
 72
8
 73
4
 74
0
 40
0
 40
0
 40
0
 40
0
 40
1
 40
1
 40
1
 40
1
 10
224.327914
 20
101.336830
 30
0.0
 10
224.190869
 20
101.320020
 30
0.0
 10
224.066146
 20
101.417490
 30
0.0
 10
224.049338
 20
101.554537
 30
0.0
  0
LWPOLYLINE
  5
111
100
AcDbEntity
  8
Layer_1
 62
7
100
AcDbPolyline
 90
2
 70
0
 10
241.251040
 20
103.414737
 30
0.0
 10
224.327914
 20
101.336830
 30
0.0
  0
SPLINE
  5
112
100
AcDbEntity
  8
Layer_1
 62
7
100
AcDbSpline
 70
8
 71
3
 72
8
 73
4
 74
0
 40
0
 40
0
 40
0
 40
0
 40
1
 40
1
 40
1
 40
1
 10
223.712952
 20
104.293926
 30
0.0
 10
223.595179
 20
105.253227
 30
0.0
 10
222.722036
 20
105.935417
 30
0.0
 10
221.762737
 20
105.817638
 30
0.0
  0
LWPOLYLINE
  5
113
100
AcDbEntity
  8
Layer_1
 62
7
100
AcDbPolyline
 90
2
 70
0
 10
224.049338
 20
101.554537
 30
0.0
 10
223.712952
 20
104.293926
 30
0.0
  0
SPLINE
  5
114
100
AcDbEntity
  8
Layer_1
 62
7
100
AcDbSpline
 70
8
 71
3
 72
8
 73
4
 74
0
 40
0
 40
0
 40
0
 40
0
 40
1
 40
1
 40
1
 40
1
 10
204.839808
 20
103.739743
 30
0.0
 10
204.702768
 20
103.722933
 30
0.0
 10
204.578046
 20
103.820393
 30
0.0
 10
204.561234
 20
103.957437
 30
0.0
  0
LWPOLYLINE
  5
115
100
AcDbEntity
  8
Layer_1
 62
7
100
AcDbPolyline
 90
2
 70
0
 10
221.762737
 20
105.817638
 30
0.0
 10
204.839808
 20
103.739743
 30
0.0
  0
SPLINE
  5
116
100
AcDbEntity
  8
Layer_1
 62
7
100
AcDbSpline
 70
8
 71
3
 72
8
 73
4
 74
0
 40
0
 40
0
 40
0
 40
0
 40
1
 40
1
 40
1
 40
1
 10
204.224850
 20
106.696836
 30
0.0
 10
204.107072
 20
107.656132
 30
0.0
 10
203.233930
 20
108.338317
 30
0.0
 10
202.274634
 20
108.220538
 30
0.0
  0
LWPOLYLINE
  5
117
100
AcDbEntity
  8
Layer_1
 62
7
100
AcDbPolyline
 90
2
 70
0
 10
204.561234
 20
103.957437
 30
0.0
 10
204.224850
 20
106.696836
 30
0.0
  0
SPLINE
  5
118
100
AcDbEntity
  8
Layer_1
 62
7
100
AcDbSpline
 70
8
 71
3
 72
8
 73
4
 74
0
 40
0
 40
0
 40
0
 40
0
 40
1
 40
1
 40
1
 40
1
 10
180.438597
 20
105.539403
 30
0.0
 10
179.479296
 20
105.421603
 30
0.0
 10
178.797126
 20
104.548438
 30
0.0
 10
178.914930
 20
103.589137
 30
0.0
  0
LWPOLYLINE
  5
119
100
AcDbEntity
  8
Layer_1
 62
7
100
AcDbPolyline
 90
2
 70
0
 10
202.274634
 20
108.220538
 30
0.0
 10
180.438597
 20
105.539403
 30
0.0
  0
SPLINE
  5
11a
100
AcDbEntity
  8
Layer_1
 62
7
100
AcDbSpline
 70
8
 71
3
 72
8
 73
4
 74
0
 40
0
 40
0
 40
0
 40
0
 40
1
 40
1
 40
1
 40
1
 10
179.251264
 20
100.849737
 30
0.0
 10
179.268094
 20
100.712707
 30
0.0
 10
179.170664
 20
100.587977
 30
0.0
 10
179.033630
 20
100.571137
 30
0.0
  0
LWPOLYLINE
  5
11b
100
AcDbEntity
  8
Layer_1
 62
7
100
AcDbPolyline
 90
2
 70
0
 10
178.914930
 20
103.589137
 30
0.0
 10
179.251264
 20
100.849737
 30
0.0
  0
SPLINE
  5
11c
100
AcDbEntity
  8
Layer_1
 62
7
100
AcDbSpline
 70
8
 71
3
 72
8
 73
4
 74
0
 40
0
 40
0
 40
0
 40
0
 40
1
 40
1
 40
1
 40
1
 10
140.577262
 20
95.849307
 30
0.0
 10
139.534015
 20
95.721208
 30
0.0
 10
138.613999
 20
96.535153
 30
0.0
 10
138.613983
 20
97.586236
 30
0.0
  0
LWPOLYLINE
  5
11d
100
AcDbEntity
  8
Layer_1
 62
7
100
AcDbPolyline
 90
2
 70
0
 10
179.033630
 20
100.571137
 30
0.0
 10
140.577262
 20
95.849307
 30
0.0
  0
SPLINE
  5
11e
100
AcDbEntity
  8
Layer_1
 62
7
100
AcDbSpline
 70
8
 71
3
 72
8
 73
4
 74
0
 40
0
 40
0
 40
0
 40
0
 40
1
 40
1
 40
1
 40
1
 10
138.613985
 20
109.175613
 30
0.0
 10
138.613972
 20
111.937062
 30
0.0
 10
140.852575
 20
114.175660
 30
0.0
 10
143.614024
 20
114.175639
 30
0.0
  0
LWPOLYLINE
  5
11f
100
AcDbEntity
  8
Layer_1
 62
7
100
AcDbPolyline
 90
2
 70
0
 10
138.613983
 20
97.586236
 30
0.0
 10
138.613985
 20
109.175613
 30
0.0
  0
SPLINE
  5
120
100
AcDbEntity
  8
Layer_1
 62
7
100
AcDbSpline
 70
8
 71
3
 72
8
 73
4
 74
0
 40
0
 40
0
 40
0
 40
0
 40
1
 40
1
 40
1
 40
1
 10
248.980502
 20
114.175614
 30
0.0
 10
253.674733
 20
114.175360
 30
0.0
 10
257.480033
 20
110.369869
 30
0.0
 10
257.480043
 20
105.675638
 30
0.0
  0
LWPOLYLINE
  5
121
100
AcDbEntity
  8
Layer_1
 62
7
100
AcDbPolyline
 90
2
 70
0
 10
143.614024
 20
114.175639
 30
0.0
 10
248.980502
 20
114.175614
 30
0.0
  0
SPLINE
  5
122
100
AcDbEntity
  8
Layer_1
 62
7
100
AcDbSpline
 70
8
 71
3
 72
8
 73
4
 74
0
 40
0
 40
0
 40
0
 40
0
 40
1
 40
1
 40
1
 40
1
 10
257.480503
 20
13.682604
 30
0.0
 10
257.480493
 20
8.988011
 30
0.0
 10
253.674633
 20
5.182367
 30
0.0
 10
248.980042
 20
5.182621
 30
0.0
  0
LWPOLYLINE
  5
123
100
AcDbEntity
  8
Layer_1
 62
7
100
AcDbPolyline
 90
2
 70
0
 10
257.480043
 20
105.675638
 30
0.0
 10
257.480503
 20
13.682604
 30
0.0
  0
SPLINE
  5
124
100
AcDbEntity
  8
Layer_1
 62
7
100
AcDbSpline
 70
8
 71
3
 72
8
 73
4
 74
0
 40
0
 40
0
 40
0
 40
0
 40
1
 40
1
 40
1
 40
1
 10
13.675542
 20
5.182603
 30
0.0
 10
8.981292
 20
5.182857
 30
0.0
 10
5.175991
 20
8.988374
 30
0.0
 10
5.176001
 20
13.682622
 30
0.0
  0
LWPOLYLINE
  5
125
100
AcDbEntity
  8
Layer_1
 62
7
100
AcDbPolyline
 90
2
 70
0
 10
248.980042
 20
5.182621
 30
0.0
 10
13.675542
 20
5.182603
 30
0.0
  0
SPLINE
  5
126
100
AcDbEntity
  8
Layer_1
 62
7
100
AcDbSpline
 70
8
 71
3
 72
8
 73
4
 74
0
 40
0
 40
0
 40
0
 40
0
 40
1
 40
1
 40
1
 40
1
 10
5.175541
 20
105.675613
 30
0.0
 10
5.175531
 20
110.370223
 30
0.0
 10
8.981392
 20
114.175893
 30
0.0
 10
13.676002
 20
114.175639
 30
0.0
  0
LWPOLYLINE
  5
127
100
AcDbEntity
  8
Layer_1
 62
7
100
AcDbPolyline
 90
2
 70
0
 10
5.176001
 20
13.682622
 30
0.0
 10
5.175541
 20
105.675613
 30
0.0
  0
SPLINE
  5
128
100
AcDbEntity
  8
Layer_1
 62
7
100
AcDbSpline
 70
8
 71
3
 72
8
 73
4
 74
0
 40
0
 40
0
 40
0
 40
0
 40
1
 40
1
 40
1
 40
1
 10
119.042058
 20
114.175614
 30
0.0
 10
121.803473
 20
114.175615
 30
0.0
 10
124.042047
 20
111.937054
 30
0.0
 10
124.042061
 20
109.175638
 30
0.0
  0
LWPOLYLINE
  5
129
100
AcDbEntity
  8
Layer_1
 62
7
100
AcDbPolyline
 90
2
 70
0
 10
13.676002
 20
114.175639
 30
0.0
 10
119.042058
 20
114.175614
 30
0.0
  0
SPLINE
  5
12a
100
AcDbEntity
  8
Layer_1
 62
7
100
AcDbSpline
 70
8
 71
3
 72
8
 73
4
 74
0
 40
0
 40
0
 40
0
 40
0
 40
1
 40
1
 40
1
 40
1
 10
124.042059
 20
97.586268
 30
0.0
 10
124.042045
 20
96.535185
 30
0.0
 10
123.122029
 20
95.721237
 30
0.0
 10
122.078780
 20
95.849336
 30
0.0
  0
LWPOLYLINE
  5
12b
100
AcDbEntity
  8
Layer_1
 62
7
100
AcDbPolyline
 90
2
 70
0
 10
124.042061
 20
109.175638
 30
0.0
 10
124.042059
 20
97.586268
 30
0.0
  0
SPLINE
  5
12c
100
AcDbEntity
  8
Layer_1
 62
7
100
AcDbSpline
 70
8
 71
3
 72
8
 73
4
 74
0
 40
0
 40
0
 40
0
 40
0
 40
1
 40
1
 40
1
 40
1
 10
83.751469
 20
101.509545
 30
0.0
 10
83.614446
 20
101.526385
 30
0.0
 10
83.518056
 20
101.650989
 30
0.0
 10
83.533842
 20
101.788138
 30
0.0
  0
LWPOLYLINE
  5
12d
100
AcDbEntity
  8
Layer_1
 62
7
100
AcDbPolyline
 90
3
 70
0
 10
122.078780
 20
95.849336
 30
0.0
 10
94.861518
 20
99.406937
 30
0.0
 10
83.751469
 20
101.509545
 30
0.0
  0
SPLINE
  5
12e
100
AcDbEntity
  8
Layer_1
 62
7
100
AcDbSpline
 70
8
 71
3
 72
8
 73
4
 74
0
 40
0
 40
0
 40
0
 40
0
 40
1
 40
1
 40
1
 40
1
 10
83.741139
 20
103.589165
 30
0.0
 10
83.851656
 20
104.549356
 30
0.0
 10
83.176741
 20
105.421667
 30
0.0
 10
82.217414
 20
105.539438
 30
0.0
  0
LWPOLYLINE
  5
12f
100
AcDbEntity
  8
Layer_1
 62
7
100
AcDbPolyline
 90
2
 70
0
 10
83.533842
 20
101.788138
 30
0.0
 10
83.741139
 20
103.589165
 30
0.0
  0
SPLINE
  5
130
100
AcDbEntity
  8
Layer_1
 62
7
100
AcDbSpline
 70
8
 71
3
 72
8
 73
4
 74
0
 40
0
 40
0
 40
0
 40
0
 40
1
 40
1
 40
1
 40
1
 10
60.381427
 20
108.220525
 30
0.0
 10
59.422136
 20
108.338305
 30
0.0
 10
58.548995
 20
107.656129
 30
0.0
 10
58.431210
 20
106.696838
 30
0.0
  0
LWPOLYLINE
  5
131
100
AcDbEntity
  8
Layer_1
 62
7
100
AcDbPolyline
 90
2
 70
0
 10
82.217414
 20
105.539438
 30
0.0
 10
60.381427
 20
108.220525
 30
0.0
  0
SPLINE
  5
132
100
AcDbEntity
  8
Layer_1
 62
7
100
AcDbSpline
 70
8
 71
3
 72
8
 73
4
 74
0
 40
0
 40
0
 40
0
 40
0
 40
1
 40
1
 40
1
 40
1
 10
58.094835
 20
103.957407
 30
0.0
 10
58.078015
 20
103.820354
 30
0.0
 10
57.953261
 20
103.722895
 30
0.0
 10
57.816210
 20
103.739737
 30
0.0
  0
LWPOLYLINE
  5
133
100
AcDbEntity
  8
Layer_1
 62
7
100
AcDbPolyline
 90
2
 70
0
 10
58.431210
 20
106.696838
 30
0.0
 10
58.094835
 20
103.957407
 30
0.0
  0
SPLINE
  5
134
100
AcDbEntity
  8
Layer_1
 62
7
100
AcDbSpline
 70
8
 71
3
 72
8
 73
4
 74
0
 40
0
 40
0
 40
0
 40
0
 40
1
 40
1
 40
1
 40
1
 10
40.893321
 20
105.817612
 30
0.0
 10
39.934035
 20
105.935391
 30
0.0
 10
39.060899
 20
105.253222
 30
0.0
 10
38.943107
 20
104.293937
 30
0.0
  0
LWPOLYLINE
  5
135
100
AcDbEntity
  8
Layer_1
 62
7
100
AcDbPolyline
 90
2
 70
0
 10
57.816210
 20
103.739737
 30
0.0
 10
40.893321
 20
105.817612
 30
0.0
  0
SPLINE
  5
136
100
AcDbEntity
  8
Layer_1
 62
7
100
AcDbSpline
 70
8
 71
3
 72
8
 73
4
 74
0
 40
0
 40
0
 40
0
 40
0
 40
1
 40
1
 40
1
 40
1
 10
38.606732
 20
101.554498
 30
0.0
 10
38.589902
 20
101.417449
 30
0.0
 10
38.465153
 20
101.319996
 30
0.0
 10
38.328106
 20
101.336837
 30
0.0
  0
SPLINE
  5
137
100
AcDbEntity
  8
Layer_1
 62
1
100
AcDbSpline
 70
8
 71
3
 72
8
 73
4
 74
0
 40
0
 40
0
 40
0
 40
0
 40
1
 40
1
 40
1
 40
1
 10
17.875543
 20
102.175612
 30
0.0
 10
17.875543
 20
102.626480
 30
0.0
 10
17.696436
 20
103.058882
 30
0.0
 10
17.377624
 20
103.377694
 30
0.0
  0
SPLINE
  5
138
100
AcDbEntity
  8
Layer_1
 62
1
100
AcDbSpline
 70
8
 71
3
 72
8
 73
4
 74
0
 40
0
 40
0
 40
0
 40
0
 40
1
 40
1
 40
1
 40
1
 10
17.377624
 20
103.377694
 30
0.0
 10
17.058813
 20
103.696506
 30
0.0
 10
16.626411
 20
103.875612
 30
0.0
 10
16.175543
 20
103.875612
 30
0.0
  0
SPLINE
  5
139
100
AcDbEntity
  8
Layer_1
 62
1
100
AcDbSpline
 70
8
 71
3
 72
8
 73
4
 74
0
 40
0
 40
0
 40
0
 40
0
 40
1
 40
1
 40
1
 40
1
 10
16.175543
 20
103.875612
 30
0.0
 10
15.724675
 20
103.875612
 30
0.0
 10
15.292273
 20
103.696506
 30
0.0
 10
14.973461
 20
103.377694
 30
0.0
  0
SPLINE
  5
13a
100
AcDbEntity
  8
Layer_1
 62
1
100
AcDbSpline
 70
8
 71
3
 72
8
 73
4
 74
0
 40
0
 40
0
 40
0
 40
0
 40
1
 40
1
 40
1
 40
1
 10
14.973461
 20
103.377694
 30
0.0
 10
14.654649
 20
103.058882
 30
0.0
 10
14.475542
 20
102.626480
 30
0.0
 10
14.475542
 20
102.175612
 30
0.0
  0
SPLINE
  5
13b
100
AcDbEntity
  8
Layer_1
 62
1
100
AcDbSpline
 70
8
 71
3
 72
8
 73
4
 74
0
 40
0
 40
0
 40
0
 40
0
 40
1
 40
1
 40
1
 40
1
 10
14.475542
 20
102.175612
 30
0.0
 10
14.475542
 20
101.724744
 30
0.0
 10
14.654649
 20
101.292342
 30
0.0
 10
14.973461
 20
100.973530
 30
0.0
  0
SPLINE
  5
13c
100
AcDbEntity
  8
Layer_1
 62
1
100
AcDbSpline
 70
8
 71
3
 72
8
 73
4
 74
0
 40
0
 40
0
 40
0
 40
0
 40
1
 40
1
 40
1
 40
1
 10
14.973461
 20
100.973530
 30
0.0
 10
15.292273
 20
100.654718
 30
0.0
 10
15.724675
 20
100.475612
 30
0.0
 10
16.175543
 20
100.475612
 30
0.0
  0
SPLINE
  5
13d
100
AcDbEntity
  8
Layer_1
 62
1
100
AcDbSpline
 70
8
 71
3
 72
8
 73
4
 74
0
 40
0
 40
0
 40
0
 40
0
 40
1
 40
1
 40
1
 40
1
 10
16.175543
 20
100.475612
 30
0.0
 10
16.626411
 20
100.475612
 30
0.0
 10
17.058813
 20
100.654718
 30
0.0
 10
17.377624
 20
100.973530
 30
0.0
  0
SPLINE
  5
13e
100
AcDbEntity
  8
Layer_1
 62
1
100
AcDbSpline
 70
8
 71
3
 72
8
 73
4
 74
0
 40
0
 40
0
 40
0
 40
0
 40
1
 40
1
 40
1
 40
1
 10
17.377624
 20
100.973530
 30
0.0
 10
17.696436
 20
101.292342
 30
0.0
 10
17.875543
 20
101.724744
 30
0.0
 10
17.875543
 20
102.175612
 30
0.0
  0
LWPOLYLINE
  5
13f
100
AcDbEntity
  8
Layer_1
 62
7
100
AcDbPolyline
 90
2
 70
0
 10
38.943107
 20
104.293937
 30
0.0
 10
38.606732
 20
101.554498
 30
0.0
  0
SPLINE
  5
140
100
AcDbEntity
  8
Layer_1
 62
1
100
AcDbSpline
 70
8
 71
3
 72
8
 73
4
 74
0
 40
0
 40
0
 40
0
 40
0
 40
1
 40
1
 40
1
 40
1
 10
17.875543
 20
12.682605
 30
0.0
 10
17.875543
 20
13.133473
 30
0.0
 10
17.696436
 20
13.565875
 30
0.0
 10
17.377624
 20
13.884687
 30
0.0
  0
SPLINE
  5
141
100
AcDbEntity
  8
Layer_1
 62
1
100
AcDbSpline
 70
8
 71
3
 72
8
 73
4
 74
0
 40
0
 40
0
 40
0
 40
0
 40
1
 40
1
 40
1
 40
1
 10
17.377624
 20
13.884687
 30
0.0
 10
17.058813
 20
14.203499
 30
0.0
 10
16.626411
 20
14.382605
 30
0.0
 10
16.175543
 20
14.382605
 30
0.0
  0
SPLINE
  5
142
100
AcDbEntity
  8
Layer_1
 62
1
100
AcDbSpline
 70
8
 71
3
 72
8
 73
4
 74
0
 40
0
 40
0
 40
0
 40
0
 40
1
 40
1
 40
1
 40
1
 10
16.175543
 20
14.382605
 30
0.0
 10
15.724675
 20
14.382605
 30
0.0
 10
15.292273
 20
14.203499
 30
0.0
 10
14.973461
 20
13.884687
 30
0.0
  0
SPLINE
  5
143
100
AcDbEntity
  8
Layer_1
 62
1
100
AcDbSpline
 70
8
 71
3
 72
8
 73
4
 74
0
 40
0
 40
0
 40
0
 40
0
 40
1
 40
1
 40
1
 40
1
 10
14.973461
 20
13.884687
 30
0.0
 10
14.654649
 20
13.565875
 30
0.0
 10
14.475542
 20
13.133473
 30
0.0
 10
14.475542
 20
12.682605
 30
0.0
  0
SPLINE
  5
144
100
AcDbEntity
  8
Layer_1
 62
1
100
AcDbSpline
 70
8
 71
3
 72
8
 73
4
 74
0
 40
0
 40
0
 40
0
 40
0
 40
1
 40
1
 40
1
 40
1
 10
14.475542
 20
12.682605
 30
0.0
 10
14.475542
 20
12.231737
 30
0.0
 10
14.654649
 20
11.799335
 30
0.0
 10
14.973461
 20
11.480523
 30
0.0
  0
SPLINE
  5
145
100
AcDbEntity
  8
Layer_1
 62
1
100
AcDbSpline
 70
8
 71
3
 72
8
 73
4
 74
0
 40
0
 40
0
 40
0
 40
0
 40
1
 40
1
 40
1
 40
1
 10
14.973461
 20
11.480523
 30
0.0
 10
15.292273
 20
11.161711
 30
0.0
 10
15.724675
 20
10.982605
 30
0.0
 10
16.175543
 20
10.982605
 30
0.0
  0
SPLINE
  5
146
100
AcDbEntity
  8
Layer_1
 62
1
100
AcDbSpline
 70
8
 71
3
 72
8
 73
4
 74
0
 40
0
 40
0
 40
0
 40
0
 40
1
 40
1
 40
1
 40
1
 10
16.175543
 20
10.982605
 30
0.0
 10
16.626411
 20
10.982605
 30
0.0
 10
17.058813
 20
11.161711
 30
0.0
 10
17.377624
 20
11.480523
 30
0.0
  0
SPLINE
  5
147
100
AcDbEntity
  8
Layer_1
 62
1
100
AcDbSpline
 70
8
 71
3
 72
8
 73
4
 74
0
 40
0
 40
0
 40
0
 40
0
 40
1
 40
1
 40
1
 40
1
 10
17.377624
 20
11.480523
 30
0.0
 10
17.696436
 20
11.799335
 30
0.0
 10
17.875543
 20
12.231737
 30
0.0
 10
17.875543
 20
12.682605
 30
0.0
  0
LWPOLYLINE
  5
148
100
AcDbEntity
  8
Layer_1
 62
1
100
AcDbPolyline
 90
1
 70
1
 10
17.875543
 20
102.175612
 30
0.0
  0
SPLINE
  5
149
100
AcDbEntity
  8
Layer_1
 62
1
100
AcDbSpline
 70
8
 71
3
 72
8
 73
4
 74
0
 40
0
 40
0
 40
0
 40
0
 40
1
 40
1
 40
1
 40
1
 10
248.180502
 20
102.175612
 30
0.0
 10
248.180502
 20
102.626480
 30
0.0
 10
248.001395
 20
103.058882
 30
0.0
 10
247.682583
 20
103.377694
 30
0.0
  0
SPLINE
  5
14a
100
AcDbEntity
  8
Layer_1
 62
1
100
AcDbSpline
 70
8
 71
3
 72
8
 73
4
 74
0
 40
0
 40
0
 40
0
 40
0
 40
1
 40
1
 40
1
 40
1
 10
247.682583
 20
103.377694
 30
0.0
 10
247.363771
 20
103.696506
 30
0.0
 10
246.931369
 20
103.875612
 30
0.0
 10
246.480501
 20
103.875612
 30
0.0
  0
SPLINE
  5
14b
100
AcDbEntity
  8
Layer_1
 62
1
100
AcDbSpline
 70
8
 71
3
 72
8
 73
4
 74
0
 40
0
 40
0
 40
0
 40
0
 40
1
 40
1
 40
1
 40
1
 10
246.480501
 20
103.875612
 30
0.0
 10
246.029633
 20
103.875612
 30
0.0
 10
245.597231
 20
103.696506
 30
0.0
 10
245.278420
 20
103.377694
 30
0.0
  0
SPLINE
  5
14c
100
AcDbEntity
  8
Layer_1
 62
1
100
AcDbSpline
 70
8
 71
3
 72
8
 73
4
 74
0
 40
0
 40
0
 40
0
 40
0
 40
1
 40
1
 40
1
 40
1
 10
245.278420
 20
103.377694
 30
0.0
 10
244.959608
 20
103.058882
 30
0.0
 10
244.780501
 20
102.626480
 30
0.0
 10
244.780501
 20
102.175612
 30
0.0
  0
SPLINE
  5
14d
100
AcDbEntity
  8
Layer_1
 62
1
100
AcDbSpline
 70
8
 71
3
 72
8
 73
4
 74
0
 40
0
 40
0
 40
0
 40
0
 40
1
 40
1
 40
1
 40
1
 10
244.780501
 20
102.175612
 30
0.0
 10
244.780501
 20
101.724744
 30
0.0
 10
244.959608
 20
101.292342
 30
0.0
 10
245.278420
 20
100.973530
 30
0.0
  0
SPLINE
  5
14e
100
AcDbEntity
  8
Layer_1
 62
1
100
AcDbSpline
 70
8
 71
3
 72
8
 73
4
 74
0
 40
0
 40
0
 40
0
 40
0
 40
1
 40
1
 40
1
 40
1
 10
245.278420
 20
100.973530
 30
0.0
 10
245.597231
 20
100.654718
 30
0.0
 10
246.029633
 20
100.475612
 30
0.0
 10
246.480501
 20
100.475612
 30
0.0
  0
SPLINE
  5
14f
100
AcDbEntity
  8
Layer_1
 62
1
100
AcDbSpline
 70
8
 71
3
 72
8
 73
4
 74
0
 40
0
 40
0
 40
0
 40
0
 40
1
 40
1
 40
1
 40
1
 10
246.480501
 20
100.475612
 30
0.0
 10
246.931369
 20
100.475612
 30
0.0
 10
247.363771
 20
100.654718
 30
0.0
 10
247.682583
 20
100.973530
 30
0.0
  0
SPLINE
  5
150
100
AcDbEntity
  8
Layer_1
 62
1
100
AcDbSpline
 70
8
 71
3
 72
8
 73
4
 74
0
 40
0
 40
0
 40
0
 40
0
 40
1
 40
1
 40
1
 40
1
 10
247.682583
 20
100.973530
 30
0.0
 10
248.001395
 20
101.292342
 30
0.0
 10
248.180502
 20
101.724744
 30
0.0
 10
248.180502
 20
102.175612
 30
0.0
  0
LWPOLYLINE
  5
151
100
AcDbEntity
  8
Layer_1
 62
1
100
AcDbPolyline
 90
1
 70
1
 10
17.875543
 20
12.682605
 30
0.0
  0
SPLINE
  5
152
100
AcDbEntity
  8
Layer_1
 62
1
100
AcDbSpline
 70
8
 71
3
 72
8
 73
4
 74
0
 40
0
 40
0
 40
0
 40
0
 40
1
 40
1
 40
1
 40
1
 10
248.180502
 20
12.682605
 30
0.0
 10
248.180502
 20
13.133473
 30
0.0
 10
248.001395
 20
13.565875
 30
0.0
 10
247.682583
 20
13.884687
 30
0.0
  0
SPLINE
  5
153
100
AcDbEntity
  8
Layer_1
 62
1
100
AcDbSpline
 70
8
 71
3
 72
8
 73
4
 74
0
 40
0
 40
0
 40
0
 40
0
 40
1
 40
1
 40
1
 40
1
 10
247.682583
 20
13.884687
 30
0.0
 10
247.363771
 20
14.203499
 30
0.0
 10
246.931369
 20
14.382605
 30
0.0
 10
246.480501
 20
14.382605
 30
0.0
  0
SPLINE
  5
154
100
AcDbEntity
  8
Layer_1
 62
1
100
AcDbSpline
 70
8
 71
3
 72
8
 73
4
 74
0
 40
0
 40
0
 40
0
 40
0
 40
1
 40
1
 40
1
 40
1
 10
246.480501
 20
14.382605
 30
0.0
 10
246.029633
 20
14.382605
 30
0.0
 10
245.597231
 20
14.203499
 30
0.0
 10
245.278420
 20
13.884687
 30
0.0
  0
SPLINE
  5
155
100
AcDbEntity
  8
Layer_1
 62
1
100
AcDbSpline
 70
8
 71
3
 72
8
 73
4
 74
0
 40
0
 40
0
 40
0
 40
0
 40
1
 40
1
 40
1
 40
1
 10
245.278420
 20
13.884687
 30
0.0
 10
244.959608
 20
13.565875
 30
0.0
 10
244.780501
 20
13.133473
 30
0.0
 10
244.780501
 20
12.682605
 30
0.0
  0
SPLINE
  5
156
100
AcDbEntity
  8
Layer_1
 62
1
100
AcDbSpline
 70
8
 71
3
 72
8
 73
4
 74
0
 40
0
 40
0
 40
0
 40
0
 40
1
 40
1
 40
1
 40
1
 10
244.780501
 20
12.682605
 30
0.0
 10
244.780501
 20
12.231737
 30
0.0
 10
244.959608
 20
11.799335
 30
0.0
 10
245.278420
 20
11.480523
 30
0.0
  0
SPLINE
  5
157
100
AcDbEntity
  8
Layer_1
 62
1
100
AcDbSpline
 70
8
 71
3
 72
8
 73
4
 74
0
 40
0
 40
0
 40
0
 40
0
 40
1
 40
1
 40
1
 40
1
 10
245.278420
 20
11.480523
 30
0.0
 10
245.597231
 20
11.161711
 30
0.0
 10
246.029633
 20
10.982605
 30
0.0
 10
246.480501
 20
10.982605
 30
0.0
  0
SPLINE
  5
158
100
AcDbEntity
  8
Layer_1
 62
1
100
AcDbSpline
 70
8
 71
3
 72
8
 73
4
 74
0
 40
0
 40
0
 40
0
 40
0
 40
1
 40
1
 40
1
 40
1
 10
246.480501
 20
10.982605
 30
0.0
 10
246.931369
 20
10.982605
 30
0.0
 10
247.363771
 20
11.161711
 30
0.0
 10
247.682583
 20
11.480523
 30
0.0
  0
SPLINE
  5
159
100
AcDbEntity
  8
Layer_1
 62
1
100
AcDbSpline
 70
8
 71
3
 72
8
 73
4
 74
0
 40
0
 40
0
 40
0
 40
0
 40
1
 40
1
 40
1
 40
1
 10
247.682583
 20
11.480523
 30
0.0
 10
248.001395
 20
11.799335
 30
0.0
 10
248.180502
 20
12.231737
 30
0.0
 10
248.180502
 20
12.682605
 30
0.0
  0
LWPOLYLINE
  5
15a
100
AcDbEntity
  8
Layer_1
 62
1
100
AcDbPolyline
 90
1
 70
1
 10
248.180502
 20
102.175612
 30
0.0
  0
SPLINE
  5
15b
100
AcDbEntity
  8
Layer_1
 62
1
100
AcDbSpline
 70
8
 71
3
 72
8
 73
4
 74
0
 40
0
 40
0
 40
0
 40
0
 40
1
 40
1
 40
1
 40
1
 10
98.028016
 20
102.175612
 30
0.0
 10
98.028016
 20
102.626480
 30
0.0
 10
97.848910
 20
103.058882
 30
0.0
 10
97.530098
 20
103.377694
 30
0.0
  0
SPLINE
  5
15c
100
AcDbEntity
  8
Layer_1
 62
1
100
AcDbSpline
 70
8
 71
3
 72
8
 73
4
 74
0
 40
0
 40
0
 40
0
 40
0
 40
1
 40
1
 40
1
 40
1
 10
97.530098
 20
103.377694
 30
0.0
 10
97.211286
 20
103.696506
 30
0.0
 10
96.778884
 20
103.875612
 30
0.0
 10
96.328016
 20
103.875612
 30
0.0
  0
SPLINE
  5
15d
100
AcDbEntity
  8
Layer_1
 62
1
100
AcDbSpline
 70
8
 71
3
 72
8
 73
4
 74
0
 40
0
 40
0
 40
0
 40
0
 40
1
 40
1
 40
1
 40
1
 10
96.328016
 20
103.875612
 30
0.0
 10
95.877148
 20
103.875612
 30
0.0
 10
95.444746
 20
103.696506
 30
0.0
 10
95.125934
 20
103.377694
 30
0.0
  0
SPLINE
  5
15e
100
AcDbEntity
  8
Layer_1
 62
1
100
AcDbSpline
 70
8
 71
3
 72
8
 73
4
 74
0
 40
0
 40
0
 40
0
 40
0
 40
1
 40
1
 40
1
 40
1
 10
95.125934
 20
103.377694
 30
0.0
 10
94.807123
 20
103.058882
 30
0.0
 10
94.628016
 20
102.626480
 30
0.0
 10
94.628016
 20
102.175612
 30
0.0
  0
SPLINE
  5
15f
100
AcDbEntity
  8
Layer_1
 62
1
100
AcDbSpline
 70
8
 71
3
 72
8
 73
4
 74
0
 40
0
 40
0
 40
0
 40
0
 40
1
 40
1
 40
1
 40
1
 10
94.628016
 20
102.175612
 30
0.0
 10
94.628016
 20
101.724744
 30
0.0
 10
94.807123
 20
101.292342
 30
0.0
 10
95.125934
 20
100.973530
 30
0.0
  0
SPLINE
  5
160
100
AcDbEntity
  8
Layer_1
 62
1
100
AcDbSpline
 70
8
 71
3
 72
8
 73
4
 74
0
 40
0
 40
0
 40
0
 40
0
 40
1
 40
1
 40
1
 40
1
 10
95.125934
 20
100.973530
 30
0.0
 10
95.444746
 20
100.654718
 30
0.0
 10
95.877148
 20
100.475612
 30
0.0
 10
96.328016
 20
100.475612
 30
0.0
  0
SPLINE
  5
161
100
AcDbEntity
  8
Layer_1
 62
1
100
AcDbSpline
 70
8
 71
3
 72
8
 73
4
 74
0
 40
0
 40
0
 40
0
 40
0
 40
1
 40
1
 40
1
 40
1
 10
96.328016
 20
100.475612
 30
0.0
 10
96.778884
 20
100.475612
 30
0.0
 10
97.211286
 20
100.654718
 30
0.0
 10
97.530098
 20
100.973530
 30
0.0
  0
SPLINE
  5
162
100
AcDbEntity
  8
Layer_1
 62
1
100
AcDbSpline
 70
8
 71
3
 72
8
 73
4
 74
0
 40
0
 40
0
 40
0
 40
0
 40
1
 40
1
 40
1
 40
1
 10
97.530098
 20
100.973530
 30
0.0
 10
97.848910
 20
101.292342
 30
0.0
 10
98.028016
 20
101.724744
 30
0.0
 10
98.028016
 20
102.175612
 30
0.0
  0
LWPOLYLINE
  5
163
100
AcDbEntity
  8
Layer_1
 62
1
100
AcDbPolyline
 90
1
 70
1
 10
248.180502
 20
12.682605
 30
0.0
  0
SPLINE
  5
164
100
AcDbEntity
  8
Layer_1
 62
1
100
AcDbSpline
 70
8
 71
3
 72
8
 73
4
 74
0
 40
0
 40
0
 40
0
 40
0
 40
1
 40
1
 40
1
 40
1
 10
168.028028
 20
102.175612
 30
0.0
 10
168.028028
 20
102.626480
 30
0.0
 10
167.848922
 20
103.058882
 30
0.0
 10
167.530110
 20
103.377694
 30
0.0
  0
SPLINE
  5
165
100
AcDbEntity
  8
Layer_1
 62
1
100
AcDbSpline
 70
8
 71
3
 72
8
 73
4
 74
0
 40
0
 40
0
 40
0
 40
0
 40
1
 40
1
 40
1
 40
1
 10
167.530110
 20
103.377694
 30
0.0
 10
167.211298
 20
103.696506
 30
0.0
 10
166.778896
 20
103.875612
 30
0.0
 10
166.328028
 20
103.875612
 30
0.0
  0
SPLINE
  5
166
100
AcDbEntity
  8
Layer_1
 62
1
100
AcDbSpline
 70
8
 71
3
 72
8
 73
4
 74
0
 40
0
 40
0
 40
0
 40
0
 40
1
 40
1
 40
1
 40
1
 10
166.328028
 20
103.875612
 30
0.0
 10
165.877160
 20
103.875612
 30
0.0
 10
165.444758
 20
103.696506
 30
0.0
 10
165.125946
 20
103.377694
 30
0.0
  0
SPLINE
  5
167
100
AcDbEntity
  8
Layer_1
 62
1
100
AcDbSpline
 70
8
 71
3
 72
8
 73
4
 74
0
 40
0
 40
0
 40
0
 40
0
 40
1
 40
1
 40
1
 40
1
 10
165.125946
 20
103.377694
 30
0.0
 10
164.807134
 20
103.058882
 30
0.0
 10
164.628028
 20
102.626480
 30
0.0
 10
164.628028
 20
102.175612
 30
0.0
  0
SPLINE
  5
168
100
AcDbEntity
  8
Layer_1
 62
1
100
AcDbSpline
 70
8
 71
3
 72
8
 73
4
 74
0
 40
0
 40
0
 40
0
 40
0
 40
1
 40
1
 40
1
 40
1
 10
164.628028
 20
102.175612
 30
0.0
 10
164.628028
 20
101.724744
 30
0.0
 10
164.807134
 20
101.292342
 30
0.0
 10
165.125946
 20
100.973530
 30
0.0
  0
SPLINE
  5
169
100
AcDbEntity
  8
Layer_1
 62
1
100
AcDbSpline
 70
8
 71
3
 72
8
 73
4
 74
0
 40
0
 40
0
 40
0
 40
0
 40
1
 40
1
 40
1
 40
1
 10
165.125946
 20
100.973530
 30
0.0
 10
165.444758
 20
100.654718
 30
0.0
 10
165.877160
 20
100.475612
 30
0.0
 10
166.328028
 20
100.475612
 30
0.0
  0
SPLINE
  5
16a
100
AcDbEntity
  8
Layer_1
 62
1
100
AcDbSpline
 70
8
 71
3
 72
8
 73
4
 74
0
 40
0
 40
0
 40
0
 40
0
 40
1
 40
1
 40
1
 40
1
 10
166.328028
 20
100.475612
 30
0.0
 10
166.778896
 20
100.475612
 30
0.0
 10
167.211298
 20
100.654718
 30
0.0
 10
167.530110
 20
100.973530
 30
0.0
  0
SPLINE
  5
16b
100
AcDbEntity
  8
Layer_1
 62
1
100
AcDbSpline
 70
8
 71
3
 72
8
 73
4
 74
0
 40
0
 40
0
 40
0
 40
0
 40
1
 40
1
 40
1
 40
1
 10
167.530110
 20
100.973530
 30
0.0
 10
167.848922
 20
101.292342
 30
0.0
 10
168.028028
 20
101.724744
 30
0.0
 10
168.028028
 20
102.175612
 30
0.0
  0
LWPOLYLINE
  5
16c
100
AcDbEntity
  8
Layer_1
 62
1
100
AcDbPolyline
 90
1
 70
1
 10
98.028016
 20
102.175612
 30
0.0
  0
SPLINE
  5
16d
100
AcDbEntity
  8
Layer_1
 62
7
100
AcDbSpline
 70
8
 71
3
 72
8
 73
4
 74
0
 40
0
 40
0
 40
0
 40
0
 40
1
 40
1
 40
1
 40
1
 10
131.328022
 20
14.382604
 30
0.0
 10
130.391302
 20
14.379556
 30
0.0
 10
129.633553
 20
13.619338
 30
0.0
 10
129.633553
 20
12.682613
 30
0.0
  0
SPLINE
  5
16e
100
AcDbEntity
  8
Layer_1
 62
7
100
AcDbSpline
 70
8
 71
3
 72
8
 73
4
 74
0
 40
0
 40
0
 40
0
 40
0
 40
1
 40
1
 40
1
 40
1
 10
129.633553
 20
12.682613
 30
0.0
 10
129.633553
 20
11.745888
 30
0.0
 10
130.391302
 20
10.985670
 30
0.0
 10
131.328022
 20
10.982622
 30
0.0
  0
SPLINE
  5
16f
100
AcDbEntity
  8
Layer_1
 62
7
100
AcDbSpline
 70
8
 71
3
 72
8
 73
4
 74
0
 40
0
 40
0
 40
0
 40
0
 40
1
 40
1
 40
1
 40
1
 10
131.328022
 20
10.982622
 30
0.0
 10
131.935374
 20
10.982622
 30
0.0
 10
132.496590
 20
11.306640
 30
0.0
 10
132.800265
 20
11.832622
 30
0.0
  0
SPLINE
  5
170
100
AcDbEntity
  8
Layer_1
 62
7
100
AcDbSpline
 70
8
 71
3
 72
8
 73
4
 74
0
 40
0
 40
0
 40
0
 40
0
 40
1
 40
1
 40
1
 40
1
 10
132.800265
 20
11.832622
 30
0.0
 10
133.103941
 20
12.358604
 30
0.0
 10
133.103941
 20
13.006640
 30
0.0
 10
132.800265
 20
13.532622
 30
0.0
  0
SPLINE
  5
171
100
AcDbEntity
  8
Layer_1
 62
7
100
AcDbSpline
 70
8
 71
3
 72
8
 73
4
 74
0
 40
0
 40
0
 40
0
 40
0
 40
1
 40
1
 40
1
 40
1
 10
132.800265
 20
13.532622
 30
0.0
 10
132.496590
 20
14.058604
 30
0.0
 10
131.935374
 20
14.382622
 30
0.0
 10
131.328022
 20
14.382622
 30
0.0
  0
LWPOLYLINE
  5
172
100
AcDbEntity
  8
Layer_1
 62
1
100
AcDbPolyline
 90
1
 70
1
 10
168.028028
 20
102.175612
 30
0.0
  0
ENDSEC
  0
SECTION
  2
OBJECTS
  0
DICTIONARY
  5
C
330
0
100
AcDbDictionary
  3
ACAD_GROUP
350
D
  3
ACAD_MLINESTYLE
350
17
  0
DICTIONARY
  5
D
330
C
100
AcDbDictionary
  0
DICTIONARY
  5
1A
330
C
100
AcDbDictionary
  0
DICTIONARY
  5
17
330
C
100
AcDbDictionary
  3
STANDARD
350
18
  0
DICTIONARY
  5
19
330
C
100
AcDbDictionary
  0
ENDSEC
  0
EOF
