  0
SECTION
  2
HEADER
  9
$ACADVER
  1
AC1014
  9
$HANDSEED
  5
FFFF
  9
$MEASUREMENT
 70
     1
  0
ENDSEC
  0
SECTION
  2
TABLES
  0
TABLE
  2
VPORT
  5
8
330
0
100
AcDbSymbolTable
 70
     4
  0
VPORT
  5
2E
330
8
100
AcDbSymbolTableRecord
100
AcDbViewportTableRecord
  2
*ACTIVE
 70
     0
 10
0.0
 20
0.0
 11
1.0
 21
1.0
 12
210.0
 22
148.5
 13
0.0
 23
0.0
 14
10.0
 24
10.0
 15
10.0
 25
10.0
 16
0.0
 26
0.0
 36
1.0
 17
0.0
 27
0.0
 37
0.0
 40
341.0
 41
1.24
 42
50.0
 43
0.0
 44
0.0
 50
0.0
 51
0.0
 71
     0
 72
   100
 73
     1
 74
     3
 75
     0
 76
     0
 77
     0
 78
     0
  0
ENDTAB
  0
TABLE
  2
LTYPE
  5
5
330
0
100
AcDbSymbolTable
 70
     1
  0
LTYPE
  5
14
330
5
100
AcDbSymbolTableRecord
100
AcDbLinetypeTableRecord
  2
BYBLOCK
 70
     0
  3

 72
    65
 73
     0
 40
0.0
  0
LTYPE
  5
15
330
5
100
AcDbSymbolTableRecord
100
AcDbLinetypeTableRecord
  2
BYLAYER
 70
     0
  3

 72
    65
 73
     0
 40
0.0
  0
LTYPE
  5
16
330
5
100
AcDbSymbolTableRecord
100
AcDbLinetypeTableRecord
  2
CONTINUOUS
 70
     0
  3
Solid line
 72
    65
 73
     0
 40
0.0
  0
ENDTAB
  0
TABLE
  2
LAYER
  5
2
100
AcDbSymbolTable
 70
2
  0
LAYER
  5
50
100
AcDbSymbolTableRecord
100
AcDbLayerTableRecord
  2
0
 70
0
  6
CONTINUOUS
  0
LAYER
  5
51
100
AcDbSymbolTableRecord
100
AcDbLayerTableRecord
  2
Layer_1
 70
0
  6
CONTINUOUS
  0
ENDTAB
  0
TABLE
  2
STYLE
  5
3
330
0
100
AcDbSymbolTable
 70
     1
  0
STYLE
  5
11
330
3
100
AcDbSymbolTableRecord
100
AcDbTextStyleTableRecord
  2
STANDARD
 70
     0
 40
0.0
 41
1.0
 50
0.0
 71
     0
 42
2.5
  3
txt
  4

  0
ENDTAB
  0
TABLE
  2
VIEW
  5
6
330
0
100
AcDbSymbolTable
 70
     0
  0
ENDTAB
  0
TABLE
  2
UCS
  5
7
330
0
100
AcDbSymbolTable
 70
     0
  0
ENDTAB
  0
TABLE
  2
APPID
  5
9
330
0
100
AcDbSymbolTable
 70
     2
  0
APPID
  5
12
330
9
100
AcDbSymbolTableRecord
100
AcDbRegAppTableRecord
  2
ACAD
 70
     0
  0
ENDTAB
  0
TABLE
  2
DIMSTYLE
  5
A
330
0
100
AcDbSymbolTable
 70
     1
  0
DIMSTYLE
105
27
330
A
100
AcDbSymbolTableRecord
100
AcDbDimStyleTableRecord
  2
ISO-25
 70
     0
  3

  4

  5

  6

  7

 40
1.0
 41
2.5
 42
0.625
 43
3.75
 44
1.25
 45
0.0
 46
0.0
 47
0.0
 48
0.0
140
2.5
141
2.5
142
0.0
143
0.03937007874016
144
1.0
145
0.0
146
1.0
147
0.625
 71
     0
 72
     0
 73
     0
 74
     0
 75
     0
 76
     0
 77
     1
 78
     8
170
     0
171
     3
172
     1
173
     0
174
     0
175
     0
176
     0
177
     0
178
     0
270
     2
271
     2
272
     2
273
     2
274
     3
340
11
275
     0
280
     0
281
     0
282
     0
283
     0
284
     8
285
     0
286
     0
287
     3
288
     0
  0
ENDTAB
  0
TABLE
  2
BLOCK_RECORD
  5
1
330
0
100
AcDbSymbolTable
 70
     1
  0
BLOCK_RECORD
  5
1F
330
1
100
AcDbSymbolTableRecord
100
AcDbBlockTableRecord
  2
*MODEL_SPACE
  0
BLOCK_RECORD
  5
1B
330
1
100
AcDbSymbolTableRecord
100
AcDbBlockTableRecord
  2
*PAPER_SPACE
  0
ENDTAB
  0
ENDSEC
  0
SECTION
  2
BLOCKS
  0
BLOCK
  5
20
330
1F
100
AcDbEntity
  8
0
100
AcDbBlockBegin
  2
*MODEL_SPACE
 70
     0
 10
0.0
 20
0.0
 30
0.0
  3
*MODEL_SPACE
  1

  0
ENDBLK
  5
21
330
1F
100
AcDbEntity
  8
0
100
AcDbBlockEnd
  0
BLOCK
  5
1C
330
1B
100
AcDbEntity
 67
     1
  8
0
100
AcDbBlockBegin
  2
*PAPER_SPACE
  1

  0
ENDBLK
  5
1D
330
1B
100
AcDbEntity
 67
     1
  8
0
100
AcDbBlockEnd
  0
ENDSEC
  0
SECTION
  2
ENTITIES
  0
SPLINE
  5
100
100
AcDbEntity
  8
Layer_1
 62
7
100
AcDbSpline
 70
8
 71
3
 72
8
 73
4
 74
0
 40
0
 40
0
 40
0
 40
0
 40
1
 40
1
 40
1
 40
1
 10
21.409224
 20
103.404699
 30
0.0
 10
20.449943
 20
103.522482
 30
0.0
 10
19.576803
 20
102.840319
 30
0.0
 10
19.459003
 20
101.881037
 30
0.0
  0
LWPOLYLINE
  5
101
100
AcDbEntity
  8
Layer_1
 62
7
100
AcDbPolyline
 90
2
 70
0
 10
38.332130
 20
101.326830
 30
0.0
 10
21.409224
 20
103.404699
 30
0.0
  0
SPLINE
  5
102
100
AcDbEntity
  8
Layer_1
 62
7
100
AcDbSpline
 70
8
 71
3
 72
8
 73
4
 74
0
 40
0
 40
0
 40
0
 40
0
 40
1
 40
1
 40
1
 40
1
 10
12.134642
 20
42.228988
 30
0.0
 10
12.016832
 20
41.269794
 30
0.0
 10
12.698822
 20
40.396676
 30
0.0
 10
13.658002
 20
40.278727
 30
0.0
  0
LWPOLYLINE
  5
103
100
AcDbEntity
  8
Layer_1
 62
7
100
AcDbPolyline
 90
2
 70
0
 10
19.459003
 20
101.881037
 30
0.0
 10
12.134642
 20
42.228988
 30
0.0
  0
SPLINE
  5
104
100
AcDbEntity
  8
Layer_1
 62
7
100
AcDbSpline
 70
8
 71
3
 72
8
 73
4
 74
0
 40
0
 40
0
 40
0
 40
0
 40
1
 40
1
 40
1
 40
1
 10
44.148105
 20
36.535081
 30
0.0
 10
44.285139
 20
36.518271
 30
0.0
 10
44.382604
 20
36.393562
 30
0.0
 10
44.365807
 20
36.256526
 30
0.0
  0
LWPOLYLINE
  5
105
100
AcDbEntity
  8
Layer_1
 62
7
100
AcDbPolyline
 90
2
 70
0
 10
13.658002
 20
40.278727
 30
0.0
 10
44.148105
 20
36.535081
 30
0.0
  0
SPLINE
  5
106
100
AcDbEntity
  8
Layer_1
 62
7
100
AcDbSpline
 70
8
 71
3
 72
8
 73
4
 74
0
 40
0
 40
0
 40
0
 40
0
 40
1
 40
1
 40
1
 40
1
 10
42.868000
 20
24.058083
 30
0.0
 10
42.750195
 20
23.098769
 30
0.0
 10
43.432390
 20
22.225599
 30
0.0
 10
44.391707
 20
22.107824
 30
0.0
  0
LWPOLYLINE
  5
107
100
AcDbEntity
  8
Layer_1
 62
7
100
AcDbPolyline
 90
2
 70
0
 10
44.365807
 20
36.256526
 30
0.0
 10
42.868000
 20
24.058083
 30
0.0
  0
SPLINE
  5
108
100
AcDbEntity
  8
Layer_1
 62
7
100
AcDbSpline
 70
8
 71
3
 72
8
 73
4
 74
0
 40
0
 40
0
 40
0
 40
0
 40
1
 40
1
 40
1
 40
1
 10
218.272359
 20
22.107856
 30
0.0
 10
219.231669
 20
22.225645
 30
0.0
 10
219.913848
 20
23.098817
 30
0.0
 10
219.796037
 20
24.058124
 30
0.0
  0
LWPOLYLINE
  5
109
100
AcDbEntity
  8
Layer_1
 62
7
100
AcDbPolyline
 90
5
 70
0
 10
44.391707
 20
22.107824
 30
0.0
 10
109.476261
 20
14.116470
 30
0.0
 10
131.332022
 20
15.864654
 30
0.0
 10
153.187783
 20
14.116470
 30
0.0
 10
218.272359
 20
22.107856
 30
0.0
  0
SPLINE
  5
10a
100
AcDbEntity
  8
Layer_1
 62
7
100
AcDbSpline
 70
8
 71
3
 72
8
 73
4
 74
0
 40
0
 40
0
 40
0
 40
0
 40
1
 40
1
 40
1
 40
1
 10
218.298269
 20
36.256477
 30
0.0
 10
218.281419
 20
36.393535
 30
0.0
 10
218.378879
 20
36.518299
 30
0.0
 10
218.515937
 20
36.535126
 30
0.0
  0
LWPOLYLINE
  5
10b
100
AcDbEntity
  8
Layer_1
 62
7
100
AcDbPolyline
 90
2
 70
0
 10
219.796037
 20
24.058124
 30
0.0
 10
218.298269
 20
36.256477
 30
0.0
  0
SPLINE
  5
10c
100
AcDbEntity
  8
Layer_1
 62
7
100
AcDbSpline
 70
8
 71
3
 72
8
 73
4
 74
0
 40
0
 40
0
 40
0
 40
0
 40
1
 40
1
 40
1
 40
1
 10
249.005712
 20
40.278755
 30
0.0
 10
249.964882
 20
40.396719
 30
0.0
 10
250.646862
 20
41.269839
 30
0.0
 10
250.529042
 20
42.229027
 30
0.0
  0
LWPOLYLINE
  5
10d
100
AcDbEntity
  8
Layer_1
 62
7
100
AcDbPolyline
 90
2
 70
0
 10
218.515937
 20
36.535126
 30
0.0
 10
249.005712
 20
40.278755
 30
0.0
  0
SPLINE
  5
10e
100
AcDbEntity
  8
Layer_1
 62
7
100
AcDbSpline
 70
8
 71
3
 72
8
 73
4
 74
0
 40
0
 40
0
 40
0
 40
0
 40
1
 40
1
 40
1
 40
1
 10
243.205061
 20
101.881010
 30
0.0
 10
243.087291
 20
102.840230
 30
0.0
 10
242.214271
 20
103.522399
 30
0.0
 10
241.255040
 20
103.404737
 30
0.0
  0
LWPOLYLINE
  5
10f
100
AcDbEntity
  8
Layer_1
 62
7
100
AcDbPolyline
 90
2
 70
0
 10
250.529042
 20
42.229027
 30
0.0
 10
243.205061
 20
101.881010
 30
0.0
  0
SPLINE
  5
110
100
AcDbEntity
  8
Layer_1
 62
7
100
AcDbSpline
 70
8
 71
3
 72
8
 73
4
 74
0
 40
0
 40
0
 40
0
 40
0
 40
1
 40
1
 40
1
 40
1
 10
224.331914
 20
101.326830
 30
0.0
 10
224.194869
 20
101.310020
 30
0.0
 10
224.070146
 20
101.407490
 30
0.0
 10
224.053338
 20
101.544537
 30
0.0
  0
LWPOLYLINE
  5
111
100
AcDbEntity
  8
Layer_1
 62
7
100
AcDbPolyline
 90
2
 70
0
 10
241.255040
 20
103.404737
 30
0.0
 10
224.331914
 20
101.326830
 30
0.0
  0
SPLINE
  5
112
100
AcDbEntity
  8
Layer_1
 62
7
100
AcDbSpline
 70
8
 71
3
 72
8
 73
4
 74
0
 40
0
 40
0
 40
0
 40
0
 40
1
 40
1
 40
1
 40
1
 10
223.716952
 20
104.283926
 30
0.0
 10
223.599179
 20
105.243227
 30
0.0
 10
222.726036
 20
105.925417
 30
0.0
 10
221.766737
 20
105.807638
 30
0.0
  0
LWPOLYLINE
  5
113
100
AcDbEntity
  8
Layer_1
 62
7
100
AcDbPolyline
 90
2
 70
0
 10
224.053338
 20
101.544537
 30
0.0
 10
223.716952
 20
104.283926
 30
0.0
  0
SPLINE
  5
114
100
AcDbEntity
  8
Layer_1
 62
7
100
AcDbSpline
 70
8
 71
3
 72
8
 73
4
 74
0
 40
0
 40
0
 40
0
 40
0
 40
1
 40
1
 40
1
 40
1
 10
204.843808
 20
103.729743
 30
0.0
 10
204.706768
 20
103.712933
 30
0.0
 10
204.582046
 20
103.810393
 30
0.0
 10
204.565234
 20
103.947437
 30
0.0
  0
LWPOLYLINE
  5
115
100
AcDbEntity
  8
Layer_1
 62
7
100
AcDbPolyline
 90
2
 70
0
 10
221.766737
 20
105.807638
 30
0.0
 10
204.843808
 20
103.729743
 30
0.0
  0
SPLINE
  5
116
100
AcDbEntity
  8
Layer_1
 62
7
100
AcDbSpline
 70
8
 71
3
 72
8
 73
4
 74
0
 40
0
 40
0
 40
0
 40
0
 40
1
 40
1
 40
1
 40
1
 10
204.228850
 20
106.686836
 30
0.0
 10
204.111072
 20
107.646132
 30
0.0
 10
203.237930
 20
108.328317
 30
0.0
 10
202.278634
 20
108.210538
 30
0.0
  0
LWPOLYLINE
  5
117
100
AcDbEntity
  8
Layer_1
 62
7
100
AcDbPolyline
 90
2
 70
0
 10
204.565234
 20
103.947437
 30
0.0
 10
204.228850
 20
106.686836
 30
0.0
  0
SPLINE
  5
118
100
AcDbEntity
  8
Layer_1
 62
7
100
AcDbSpline
 70
8
 71
3
 72
8
 73
4
 74
0
 40
0
 40
0
 40
0
 40
0
 40
1
 40
1
 40
1
 40
1
 10
180.442597
 20
105.529403
 30
0.0
 10
179.483296
 20
105.411603
 30
0.0
 10
178.801126
 20
104.538438
 30
0.0
 10
178.918930
 20
103.579137
 30
0.0
  0
LWPOLYLINE
  5
119
100
AcDbEntity
  8
Layer_1
 62
7
100
AcDbPolyline
 90
2
 70
0
 10
202.278634
 20
108.210538
 30
0.0
 10
180.442597
 20
105.529403
 30
0.0
  0
SPLINE
  5
11a
100
AcDbEntity
  8
Layer_1
 62
7
100
AcDbSpline
 70
8
 71
3
 72
8
 73
4
 74
0
 40
0
 40
0
 40
0
 40
0
 40
1
 40
1
 40
1
 40
1
 10
179.126209
 20
101.778165
 30
0.0
 10
179.143039
 20
101.641135
 30
0.0
 10
179.045609
 20
101.516405
 30
0.0
 10
178.908575
 20
101.499565
 30
0.0
  0
LWPOLYLINE
  5
11b
100
AcDbEntity
  8
Layer_1
 62
7
100
AcDbPolyline
 90
2
 70
0
 10
178.918930
 20
103.579137
 30
0.0
 10
179.126209
 20
101.778165
 30
0.0
  0
SPLINE
  5
11c
100
AcDbEntity
  8
Layer_1
 62
7
100
AcDbSpline
 70
8
 71
3
 72
8
 73
4
 74
0
 40
0
 40
0
 40
0
 40
0
 40
1
 40
1
 40
1
 40
1
 10
140.581262
 20
95.839307
 30
0.0
 10
139.538015
 20
95.711208
 30
0.0
 10
138.617999
 20
96.525153
 30
0.0
 10
138.617983
 20
97.576236
 30
0.0
  0
LWPOLYLINE
  5
11d
100
AcDbEntity
  8
Layer_1
 62
7
100
AcDbPolyline
 90
3
 70
0
 10
178.908575
 20
101.499565
 30
0.0
 10
167.798526
 20
99.396957
 30
0.0
 10
140.581262
 20
95.839307
 30
0.0
  0
SPLINE
  5
11e
100
AcDbEntity
  8
Layer_1
 62
7
100
AcDbSpline
 70
8
 71
3
 72
8
 73
4
 74
0
 40
0
 40
0
 40
0
 40
0
 40
1
 40
1
 40
1
 40
1
 10
138.617985
 20
109.165613
 30
0.0
 10
138.617972
 20
111.927062
 30
0.0
 10
140.856575
 20
114.165660
 30
0.0
 10
143.618024
 20
114.165639
 30
0.0
  0
LWPOLYLINE
  5
11f
100
AcDbEntity
  8
Layer_1
 62
7
100
AcDbPolyline
 90
2
 70
0
 10
138.617983
 20
97.576236
 30
0.0
 10
138.617985
 20
109.165613
 30
0.0
  0
SPLINE
  5
120
100
AcDbEntity
  8
Layer_1
 62
7
100
AcDbSpline
 70
8
 71
3
 72
8
 73
4
 74
0
 40
0
 40
0
 40
0
 40
0
 40
1
 40
1
 40
1
 40
1
 10
248.984502
 20
114.165614
 30
0.0
 10
253.678733
 20
114.165360
 30
0.0
 10
257.484033
 20
110.359869
 30
0.0
 10
257.484043
 20
105.665638
 30
0.0
  0
LWPOLYLINE
  5
121
100
AcDbEntity
  8
Layer_1
 62
7
100
AcDbPolyline
 90
2
 70
0
 10
143.618024
 20
114.165639
 30
0.0
 10
248.984502
 20
114.165614
 30
0.0
  0
SPLINE
  5
122
100
AcDbEntity
  8
Layer_1
 62
7
100
AcDbSpline
 70
8
 71
3
 72
8
 73
4
 74
0
 40
0
 40
0
 40
0
 40
0
 40
1
 40
1
 40
1
 40
1
 10
257.484503
 20
13.672604
 30
0.0
 10
257.484493
 20
8.978011
 30
0.0
 10
253.678633
 20
5.172367
 30
0.0
 10
248.984042
 20
5.172621
 30
0.0
  0
LWPOLYLINE
  5
123
100
AcDbEntity
  8
Layer_1
 62
7
100
AcDbPolyline
 90
2
 70
0
 10
257.484043
 20
105.665638
 30
0.0
 10
257.484503
 20
13.672604
 30
0.0
  0
SPLINE
  5
124
100
AcDbEntity
  8
Layer_1
 62
7
100
AcDbSpline
 70
8
 71
3
 72
8
 73
4
 74
0
 40
0
 40
0
 40
0
 40
0
 40
1
 40
1
 40
1
 40
1
 10
13.679542
 20
5.172603
 30
0.0
 10
8.985292
 20
5.172857
 30
0.0
 10
5.179991
 20
8.978374
 30
0.0
 10
5.180001
 20
13.672622
 30
0.0
  0
LWPOLYLINE
  5
125
100
AcDbEntity
  8
Layer_1
 62
7
100
AcDbPolyline
 90
2
 70
0
 10
248.984042
 20
5.172621
 30
0.0
 10
13.679542
 20
5.172603
 30
0.0
  0
SPLINE
  5
126
100
AcDbEntity
  8
Layer_1
 62
7
100
AcDbSpline
 70
8
 71
3
 72
8
 73
4
 74
0
 40
0
 40
0
 40
0
 40
0
 40
1
 40
1
 40
1
 40
1
 10
5.179541
 20
105.665613
 30
0.0
 10
5.179531
 20
110.360223
 30
0.0
 10
8.985392
 20
114.165893
 30
0.0
 10
13.680002
 20
114.165639
 30
0.0
  0
LWPOLYLINE
  5
127
100
AcDbEntity
  8
Layer_1
 62
7
100
AcDbPolyline
 90
2
 70
0
 10
5.180001
 20
13.672622
 30
0.0
 10
5.179541
 20
105.665613
 30
0.0
  0
SPLINE
  5
128
100
AcDbEntity
  8
Layer_1
 62
7
100
AcDbSpline
 70
8
 71
3
 72
8
 73
4
 74
0
 40
0
 40
0
 40
0
 40
0
 40
1
 40
1
 40
1
 40
1
 10
119.046058
 20
114.165614
 30
0.0
 10
121.807473
 20
114.165615
 30
0.0
 10
124.046047
 20
111.927054
 30
0.0
 10
124.046061
 20
109.165638
 30
0.0
  0
LWPOLYLINE
  5
129
100
AcDbEntity
  8
Layer_1
 62
7
100
AcDbPolyline
 90
2
 70
0
 10
13.680002
 20
114.165639
 30
0.0
 10
119.046058
 20
114.165614
 30
0.0
  0
SPLINE
  5
12a
100
AcDbEntity
  8
Layer_1
 62
7
100
AcDbSpline
 70
8
 71
3
 72
8
 73
4
 74
0
 40
0
 40
0
 40
0
 40
0
 40
1
 40
1
 40
1
 40
1
 10
124.046059
 20
97.576268
 30
0.0
 10
124.046045
 20
96.525185
 30
0.0
 10
123.126029
 20
95.711237
 30
0.0
 10
122.082780
 20
95.839336
 30
0.0
  0
LWPOLYLINE
  5
12b
100
AcDbEntity
  8
Layer_1
 62
7
100
AcDbPolyline
 90
2
 70
0
 10
124.046061
 20
109.165638
 30
0.0
 10
124.046059
 20
97.576268
 30
0.0
  0
SPLINE
  5
12c
100
AcDbEntity
  8
Layer_1
 62
7
100
AcDbSpline
 70
8
 71
3
 72
8
 73
4
 74
0
 40
0
 40
0
 40
0
 40
0
 40
1
 40
1
 40
1
 40
1
 10
83.755469
 20
101.499545
 30
0.0
 10
83.618446
 20
101.516385
 30
0.0
 10
83.522056
 20
101.640989
 30
0.0
 10
83.537842
 20
101.778138
 30
0.0
  0
LWPOLYLINE
  5
12d
100
AcDbEntity
  8
Layer_1
 62
7
100
AcDbPolyline
 90
3
 70
0
 10
122.082780
 20
95.839336
 30
0.0
 10
94.865518
 20
99.396937
 30
0.0
 10
83.755469
 20
101.499545
 30
0.0
  0
SPLINE
  5
12e
100
AcDbEntity
  8
Layer_1
 62
7
100
AcDbSpline
 70
8
 71
3
 72
8
 73
4
 74
0
 40
0
 40
0
 40
0
 40
0
 40
1
 40
1
 40
1
 40
1
 10
83.745139
 20
103.579165
 30
0.0
 10
83.855656
 20
104.539356
 30
0.0
 10
83.180741
 20
105.411667
 30
0.0
 10
82.221414
 20
105.529438
 30
0.0
  0
LWPOLYLINE
  5
12f
100
AcDbEntity
  8
Layer_1
 62
7
100
AcDbPolyline
 90
2
 70
0
 10
83.537842
 20
101.778138
 30
0.0
 10
83.745139
 20
103.579165
 30
0.0
  0
SPLINE
  5
130
100
AcDbEntity
  8
Layer_1
 62
7
100
AcDbSpline
 70
8
 71
3
 72
8
 73
4
 74
0
 40
0
 40
0
 40
0
 40
0
 40
1
 40
1
 40
1
 40
1
 10
60.385427
 20
108.210525
 30
0.0
 10
59.426136
 20
108.328305
 30
0.0
 10
58.552995
 20
107.646129
 30
0.0
 10
58.435210
 20
106.686838
 30
0.0
  0
LWPOLYLINE
  5
131
100
AcDbEntity
  8
Layer_1
 62
7
100
AcDbPolyline
 90
2
 70
0
 10
82.221414
 20
105.529438
 30
0.0
 10
60.385427
 20
108.210525
 30
0.0
  0
SPLINE
  5
132
100
AcDbEntity
  8
Layer_1
 62
7
100
AcDbSpline
 70
8
 71
3
 72
8
 73
4
 74
0
 40
0
 40
0
 40
0
 40
0
 40
1
 40
1
 40
1
 40
1
 10
58.098835
 20
103.947407
 30
0.0
 10
58.082015
 20
103.810354
 30
0.0
 10
57.957261
 20
103.712895
 30
0.0
 10
57.820210
 20
103.729737
 30
0.0
  0
LWPOLYLINE
  5
133
100
AcDbEntity
  8
Layer_1
 62
7
100
AcDbPolyline
 90
2
 70
0
 10
58.435210
 20
106.686838
 30
0.0
 10
58.098835
 20
103.947407
 30
0.0
  0
SPLINE
  5
134
100
AcDbEntity
  8
Layer_1
 62
7
100
AcDbSpline
 70
8
 71
3
 72
8
 73
4
 74
0
 40
0
 40
0
 40
0
 40
0
 40
1
 40
1
 40
1
 40
1
 10
40.897321
 20
105.807612
 30
0.0
 10
39.938035
 20
105.925391
 30
0.0
 10
39.064899
 20
105.243222
 30
0.0
 10
38.947107
 20
104.283937
 30
0.0
  0
LWPOLYLINE
  5
135
100
AcDbEntity
  8
Layer_1
 62
7
100
AcDbPolyline
 90
2
 70
0
 10
57.820210
 20
103.729737
 30
0.0
 10
40.897321
 20
105.807612
 30
0.0
  0
SPLINE
  5
136
100
AcDbEntity
  8
Layer_1
 62
7
100
AcDbSpline
 70
8
 71
3
 72
8
 73
4
 74
0
 40
0
 40
0
 40
0
 40
0
 40
1
 40
1
 40
1
 40
1
 10
38.610732
 20
101.544498
 30
0.0
 10
38.593902
 20
101.407449
 30
0.0
 10
38.469153
 20
101.309996
 30
0.0
 10
38.332106
 20
101.326837
 30
0.0
  0
SPLINE
  5
137
100
AcDbEntity
  8
Layer_1
 62
1
100
AcDbSpline
 70
8
 71
3
 72
8
 73
4
 74
0
 40
0
 40
0
 40
0
 40
0
 40
1
 40
1
 40
1
 40
1
 10
17.879543
 20
102.165612
 30
0.0
 10
17.879543
 20
102.616480
 30
0.0
 10
17.700436
 20
103.048882
 30
0.0
 10
17.381624
 20
103.367694
 30
0.0
  0
SPLINE
  5
138
100
AcDbEntity
  8
Layer_1
 62
1
100
AcDbSpline
 70
8
 71
3
 72
8
 73
4
 74
0
 40
0
 40
0
 40
0
 40
0
 40
1
 40
1
 40
1
 40
1
 10
17.381624
 20
103.367694
 30
0.0
 10
17.062813
 20
103.686506
 30
0.0
 10
16.630411
 20
103.865612
 30
0.0
 10
16.179543
 20
103.865612
 30
0.0
  0
SPLINE
  5
139
100
AcDbEntity
  8
Layer_1
 62
1
100
AcDbSpline
 70
8
 71
3
 72
8
 73
4
 74
0
 40
0
 40
0
 40
0
 40
0
 40
1
 40
1
 40
1
 40
1
 10
16.179543
 20
103.865612
 30
0.0
 10
15.728675
 20
103.865612
 30
0.0
 10
15.296273
 20
103.686506
 30
0.0
 10
14.977461
 20
103.367694
 30
0.0
  0
SPLINE
  5
13a
100
AcDbEntity
  8
Layer_1
 62
1
100
AcDbSpline
 70
8
 71
3
 72
8
 73
4
 74
0
 40
0
 40
0
 40
0
 40
0
 40
1
 40
1
 40
1
 40
1
 10
14.977461
 20
103.367694
 30
0.0
 10
14.658649
 20
103.048882
 30
0.0
 10
14.479542
 20
102.616480
 30
0.0
 10
14.479542
 20
102.165612
 30
0.0
  0
SPLINE
  5
13b
100
AcDbEntity
  8
Layer_1
 62
1
100
AcDbSpline
 70
8
 71
3
 72
8
 73
4
 74
0
 40
0
 40
0
 40
0
 40
0
 40
1
 40
1
 40
1
 40
1
 10
14.479542
 20
102.165612
 30
0.0
 10
14.479542
 20
101.714744
 30
0.0
 10
14.658649
 20
101.282342
 30
0.0
 10
14.977461
 20
100.963530
 30
0.0
  0
SPLINE
  5
13c
100
AcDbEntity
  8
Layer_1
 62
1
100
AcDbSpline
 70
8
 71
3
 72
8
 73
4
 74
0
 40
0
 40
0
 40
0
 40
0
 40
1
 40
1
 40
1
 40
1
 10
14.977461
 20
100.963530
 30
0.0
 10
15.296273
 20
100.644718
 30
0.0
 10
15.728675
 20
100.465612
 30
0.0
 10
16.179543
 20
100.465612
 30
0.0
  0
SPLINE
  5
13d
100
AcDbEntity
  8
Layer_1
 62
1
100
AcDbSpline
 70
8
 71
3
 72
8
 73
4
 74
0
 40
0
 40
0
 40
0
 40
0
 40
1
 40
1
 40
1
 40
1
 10
16.179543
 20
100.465612
 30
0.0
 10
16.630411
 20
100.465612
 30
0.0
 10
17.062813
 20
100.644718
 30
0.0
 10
17.381624
 20
100.963530
 30
0.0
  0
SPLINE
  5
13e
100
AcDbEntity
  8
Layer_1
 62
1
100
AcDbSpline
 70
8
 71
3
 72
8
 73
4
 74
0
 40
0
 40
0
 40
0
 40
0
 40
1
 40
1
 40
1
 40
1
 10
17.381624
 20
100.963530
 30
0.0
 10
17.700436
 20
101.282342
 30
0.0
 10
17.879543
 20
101.714744
 30
0.0
 10
17.879543
 20
102.165612
 30
0.0
  0
LWPOLYLINE
  5
13f
100
AcDbEntity
  8
Layer_1
 62
7
100
AcDbPolyline
 90
2
 70
0
 10
38.947107
 20
104.283937
 30
0.0
 10
38.610732
 20
101.544498
 30
0.0
  0
SPLINE
  5
140
100
AcDbEntity
  8
Layer_1
 62
1
100
AcDbSpline
 70
8
 71
3
 72
8
 73
4
 74
0
 40
0
 40
0
 40
0
 40
0
 40
1
 40
1
 40
1
 40
1
 10
17.879543
 20
12.672605
 30
0.0
 10
17.879543
 20
13.123473
 30
0.0
 10
17.700436
 20
13.555875
 30
0.0
 10
17.381624
 20
13.874687
 30
0.0
  0
SPLINE
  5
141
100
AcDbEntity
  8
Layer_1
 62
1
100
AcDbSpline
 70
8
 71
3
 72
8
 73
4
 74
0
 40
0
 40
0
 40
0
 40
0
 40
1
 40
1
 40
1
 40
1
 10
17.381624
 20
13.874687
 30
0.0
 10
17.062813
 20
14.193499
 30
0.0
 10
16.630411
 20
14.372605
 30
0.0
 10
16.179543
 20
14.372605
 30
0.0
  0
SPLINE
  5
142
100
AcDbEntity
  8
Layer_1
 62
1
100
AcDbSpline
 70
8
 71
3
 72
8
 73
4
 74
0
 40
0
 40
0
 40
0
 40
0
 40
1
 40
1
 40
1
 40
1
 10
16.179543
 20
14.372605
 30
0.0
 10
15.728675
 20
14.372605
 30
0.0
 10
15.296273
 20
14.193499
 30
0.0
 10
14.977461
 20
13.874687
 30
0.0
  0
SPLINE
  5
143
100
AcDbEntity
  8
Layer_1
 62
1
100
AcDbSpline
 70
8
 71
3
 72
8
 73
4
 74
0
 40
0
 40
0
 40
0
 40
0
 40
1
 40
1
 40
1
 40
1
 10
14.977461
 20
13.874687
 30
0.0
 10
14.658649
 20
13.555875
 30
0.0
 10
14.479542
 20
13.123473
 30
0.0
 10
14.479542
 20
12.672605
 30
0.0
  0
SPLINE
  5
144
100
AcDbEntity
  8
Layer_1
 62
1
100
AcDbSpline
 70
8
 71
3
 72
8
 73
4
 74
0
 40
0
 40
0
 40
0
 40
0
 40
1
 40
1
 40
1
 40
1
 10
14.479542
 20
12.672605
 30
0.0
 10
14.479542
 20
12.221737
 30
0.0
 10
14.658649
 20
11.789335
 30
0.0
 10
14.977461
 20
11.470523
 30
0.0
  0
SPLINE
  5
145
100
AcDbEntity
  8
Layer_1
 62
1
100
AcDbSpline
 70
8
 71
3
 72
8
 73
4
 74
0
 40
0
 40
0
 40
0
 40
0
 40
1
 40
1
 40
1
 40
1
 10
14.977461
 20
11.470523
 30
0.0
 10
15.296273
 20
11.151711
 30
0.0
 10
15.728675
 20
10.972605
 30
0.0
 10
16.179543
 20
10.972605
 30
0.0
  0
SPLINE
  5
146
100
AcDbEntity
  8
Layer_1
 62
1
100
AcDbSpline
 70
8
 71
3
 72
8
 73
4
 74
0
 40
0
 40
0
 40
0
 40
0
 40
1
 40
1
 40
1
 40
1
 10
16.179543
 20
10.972605
 30
0.0
 10
16.630411
 20
10.972605
 30
0.0
 10
17.062813
 20
11.151711
 30
0.0
 10
17.381624
 20
11.470523
 30
0.0
  0
SPLINE
  5
147
100
AcDbEntity
  8
Layer_1
 62
1
100
AcDbSpline
 70
8
 71
3
 72
8
 73
4
 74
0
 40
0
 40
0
 40
0
 40
0
 40
1
 40
1
 40
1
 40
1
 10
17.381624
 20
11.470523
 30
0.0
 10
17.700436
 20
11.789335
 30
0.0
 10
17.879543
 20
12.221737
 30
0.0
 10
17.879543
 20
12.672605
 30
0.0
  0
LWPOLYLINE
  5
148
100
AcDbEntity
  8
Layer_1
 62
1
100
AcDbPolyline
 90
1
 70
1
 10
17.879543
 20
102.165612
 30
0.0
  0
SPLINE
  5
149
100
AcDbEntity
  8
Layer_1
 62
1
100
AcDbSpline
 70
8
 71
3
 72
8
 73
4
 74
0
 40
0
 40
0
 40
0
 40
0
 40
1
 40
1
 40
1
 40
1
 10
248.184502
 20
102.165612
 30
0.0
 10
248.184502
 20
102.616480
 30
0.0
 10
248.005395
 20
103.048882
 30
0.0
 10
247.686583
 20
103.367694
 30
0.0
  0
SPLINE
  5
14a
100
AcDbEntity
  8
Layer_1
 62
1
100
AcDbSpline
 70
8
 71
3
 72
8
 73
4
 74
0
 40
0
 40
0
 40
0
 40
0
 40
1
 40
1
 40
1
 40
1
 10
247.686583
 20
103.367694
 30
0.0
 10
247.367771
 20
103.686506
 30
0.0
 10
246.935369
 20
103.865612
 30
0.0
 10
246.484501
 20
103.865612
 30
0.0
  0
SPLINE
  5
14b
100
AcDbEntity
  8
Layer_1
 62
1
100
AcDbSpline
 70
8
 71
3
 72
8
 73
4
 74
0
 40
0
 40
0
 40
0
 40
0
 40
1
 40
1
 40
1
 40
1
 10
246.484501
 20
103.865612
 30
0.0
 10
246.033633
 20
103.865612
 30
0.0
 10
245.601231
 20
103.686506
 30
0.0
 10
245.282420
 20
103.367694
 30
0.0
  0
SPLINE
  5
14c
100
AcDbEntity
  8
Layer_1
 62
1
100
AcDbSpline
 70
8
 71
3
 72
8
 73
4
 74
0
 40
0
 40
0
 40
0
 40
0
 40
1
 40
1
 40
1
 40
1
 10
245.282420
 20
103.367694
 30
0.0
 10
244.963608
 20
103.048882
 30
0.0
 10
244.784501
 20
102.616480
 30
0.0
 10
244.784501
 20
102.165612
 30
0.0
  0
SPLINE
  5
14d
100
AcDbEntity
  8
Layer_1
 62
1
100
AcDbSpline
 70
8
 71
3
 72
8
 73
4
 74
0
 40
0
 40
0
 40
0
 40
0
 40
1
 40
1
 40
1
 40
1
 10
244.784501
 20
102.165612
 30
0.0
 10
244.784501
 20
101.714744
 30
0.0
 10
244.963608
 20
101.282342
 30
0.0
 10
245.282420
 20
100.963530
 30
0.0
  0
SPLINE
  5
14e
100
AcDbEntity
  8
Layer_1
 62
1
100
AcDbSpline
 70
8
 71
3
 72
8
 73
4
 74
0
 40
0
 40
0
 40
0
 40
0
 40
1
 40
1
 40
1
 40
1
 10
245.282420
 20
100.963530
 30
0.0
 10
245.601231
 20
100.644718
 30
0.0
 10
246.033633
 20
100.465612
 30
0.0
 10
246.484501
 20
100.465612
 30
0.0
  0
SPLINE
  5
14f
100
AcDbEntity
  8
Layer_1
 62
1
100
AcDbSpline
 70
8
 71
3
 72
8
 73
4
 74
0
 40
0
 40
0
 40
0
 40
0
 40
1
 40
1
 40
1
 40
1
 10
246.484501
 20
100.465612
 30
0.0
 10
246.935369
 20
100.465612
 30
0.0
 10
247.367771
 20
100.644718
 30
0.0
 10
247.686583
 20
100.963530
 30
0.0
  0
SPLINE
  5
150
100
AcDbEntity
  8
Layer_1
 62
1
100
AcDbSpline
 70
8
 71
3
 72
8
 73
4
 74
0
 40
0
 40
0
 40
0
 40
0
 40
1
 40
1
 40
1
 40
1
 10
247.686583
 20
100.963530
 30
0.0
 10
248.005395
 20
101.282342
 30
0.0
 10
248.184502
 20
101.714744
 30
0.0
 10
248.184502
 20
102.165612
 30
0.0
  0
LWPOLYLINE
  5
151
100
AcDbEntity
  8
Layer_1
 62
1
100
AcDbPolyline
 90
1
 70
1
 10
17.879543
 20
12.672605
 30
0.0
  0
SPLINE
  5
152
100
AcDbEntity
  8
Layer_1
 62
1
100
AcDbSpline
 70
8
 71
3
 72
8
 73
4
 74
0
 40
0
 40
0
 40
0
 40
0
 40
1
 40
1
 40
1
 40
1
 10
248.184502
 20
12.672605
 30
0.0
 10
248.184502
 20
13.123473
 30
0.0
 10
248.005395
 20
13.555875
 30
0.0
 10
247.686583
 20
13.874687
 30
0.0
  0
SPLINE
  5
153
100
AcDbEntity
  8
Layer_1
 62
1
100
AcDbSpline
 70
8
 71
3
 72
8
 73
4
 74
0
 40
0
 40
0
 40
0
 40
0
 40
1
 40
1
 40
1
 40
1
 10
247.686583
 20
13.874687
 30
0.0
 10
247.367771
 20
14.193499
 30
0.0
 10
246.935369
 20
14.372605
 30
0.0
 10
246.484501
 20
14.372605
 30
0.0
  0
SPLINE
  5
154
100
AcDbEntity
  8
Layer_1
 62
1
100
AcDbSpline
 70
8
 71
3
 72
8
 73
4
 74
0
 40
0
 40
0
 40
0
 40
0
 40
1
 40
1
 40
1
 40
1
 10
246.484501
 20
14.372605
 30
0.0
 10
246.033633
 20
14.372605
 30
0.0
 10
245.601231
 20
14.193499
 30
0.0
 10
245.282420
 20
13.874687
 30
0.0
  0
SPLINE
  5
155
100
AcDbEntity
  8
Layer_1
 62
1
100
AcDbSpline
 70
8
 71
3
 72
8
 73
4
 74
0
 40
0
 40
0
 40
0
 40
0
 40
1
 40
1
 40
1
 40
1
 10
245.282420
 20
13.874687
 30
0.0
 10
244.963608
 20
13.555875
 30
0.0
 10
244.784501
 20
13.123473
 30
0.0
 10
244.784501
 20
12.672605
 30
0.0
  0
SPLINE
  5
156
100
AcDbEntity
  8
Layer_1
 62
1
100
AcDbSpline
 70
8
 71
3
 72
8
 73
4
 74
0
 40
0
 40
0
 40
0
 40
0
 40
1
 40
1
 40
1
 40
1
 10
244.784501
 20
12.672605
 30
0.0
 10
244.784501
 20
12.221737
 30
0.0
 10
244.963608
 20
11.789335
 30
0.0
 10
245.282420
 20
11.470523
 30
0.0
  0
SPLINE
  5
157
100
AcDbEntity
  8
Layer_1
 62
1
100
AcDbSpline
 70
8
 71
3
 72
8
 73
4
 74
0
 40
0
 40
0
 40
0
 40
0
 40
1
 40
1
 40
1
 40
1
 10
245.282420
 20
11.470523
 30
0.0
 10
245.601231
 20
11.151711
 30
0.0
 10
246.033633
 20
10.972605
 30
0.0
 10
246.484501
 20
10.972605
 30
0.0
  0
SPLINE
  5
158
100
AcDbEntity
  8
Layer_1
 62
1
100
AcDbSpline
 70
8
 71
3
 72
8
 73
4
 74
0
 40
0
 40
0
 40
0
 40
0
 40
1
 40
1
 40
1
 40
1
 10
246.484501
 20
10.972605
 30
0.0
 10
246.935369
 20
10.972605
 30
0.0
 10
247.367771
 20
11.151711
 30
0.0
 10
247.686583
 20
11.470523
 30
0.0
  0
SPLINE
  5
159
100
AcDbEntity
  8
Layer_1
 62
1
100
AcDbSpline
 70
8
 71
3
 72
8
 73
4
 74
0
 40
0
 40
0
 40
0
 40
0
 40
1
 40
1
 40
1
 40
1
 10
247.686583
 20
11.470523
 30
0.0
 10
248.005395
 20
11.789335
 30
0.0
 10
248.184502
 20
12.221737
 30
0.0
 10
248.184502
 20
12.672605
 30
0.0
  0
LWPOLYLINE
  5
15a
100
AcDbEntity
  8
Layer_1
 62
1
100
AcDbPolyline
 90
1
 70
1
 10
248.184502
 20
102.165612
 30
0.0
  0
SPLINE
  5
15b
100
AcDbEntity
  8
Layer_1
 62
1
100
AcDbSpline
 70
8
 71
3
 72
8
 73
4
 74
0
 40
0
 40
0
 40
0
 40
0
 40
1
 40
1
 40
1
 40
1
 10
98.032016
 20
102.165612
 30
0.0
 10
98.032016
 20
102.616480
 30
0.0
 10
97.852910
 20
103.048882
 30
0.0
 10
97.534098
 20
103.367694
 30
0.0
  0
SPLINE
  5
15c
100
AcDbEntity
  8
Layer_1
 62
1
100
AcDbSpline
 70
8
 71
3
 72
8
 73
4
 74
0
 40
0
 40
0
 40
0
 40
0
 40
1
 40
1
 40
1
 40
1
 10
97.534098
 20
103.367694
 30
0.0
 10
97.215286
 20
103.686506
 30
0.0
 10
96.782884
 20
103.865612
 30
0.0
 10
96.332016
 20
103.865612
 30
0.0
  0
SPLINE
  5
15d
100
AcDbEntity
  8
Layer_1
 62
1
100
AcDbSpline
 70
8
 71
3
 72
8
 73
4
 74
0
 40
0
 40
0
 40
0
 40
0
 40
1
 40
1
 40
1
 40
1
 10
96.332016
 20
103.865612
 30
0.0
 10
95.881148
 20
103.865612
 30
0.0
 10
95.448746
 20
103.686506
 30
0.0
 10
95.129934
 20
103.367694
 30
0.0
  0
SPLINE
  5
15e
100
AcDbEntity
  8
Layer_1
 62
1
100
AcDbSpline
 70
8
 71
3
 72
8
 73
4
 74
0
 40
0
 40
0
 40
0
 40
0
 40
1
 40
1
 40
1
 40
1
 10
95.129934
 20
103.367694
 30
0.0
 10
94.811123
 20
103.048882
 30
0.0
 10
94.632016
 20
102.616480
 30
0.0
 10
94.632016
 20
102.165612
 30
0.0
  0
SPLINE
  5
15f
100
AcDbEntity
  8
Layer_1
 62
1
100
AcDbSpline
 70
8
 71
3
 72
8
 73
4
 74
0
 40
0
 40
0
 40
0
 40
0
 40
1
 40
1
 40
1
 40
1
 10
94.632016
 20
102.165612
 30
0.0
 10
94.632016
 20
101.714744
 30
0.0
 10
94.811123
 20
101.282342
 30
0.0
 10
95.129934
 20
100.963530
 30
0.0
  0
SPLINE
  5
160
100
AcDbEntity
  8
Layer_1
 62
1
100
AcDbSpline
 70
8
 71
3
 72
8
 73
4
 74
0
 40
0
 40
0
 40
0
 40
0
 40
1
 40
1
 40
1
 40
1
 10
95.129934
 20
100.963530
 30
0.0
 10
95.448746
 20
100.644718
 30
0.0
 10
95.881148
 20
100.465612
 30
0.0
 10
96.332016
 20
100.465612
 30
0.0
  0
SPLINE
  5
161
100
AcDbEntity
  8
Layer_1
 62
1
100
AcDbSpline
 70
8
 71
3
 72
8
 73
4
 74
0
 40
0
 40
0
 40
0
 40
0
 40
1
 40
1
 40
1
 40
1
 10
96.332016
 20
100.465612
 30
0.0
 10
96.782884
 20
100.465612
 30
0.0
 10
97.215286
 20
100.644718
 30
0.0
 10
97.534098
 20
100.963530
 30
0.0
  0
SPLINE
  5
162
100
AcDbEntity
  8
Layer_1
 62
1
100
AcDbSpline
 70
8
 71
3
 72
8
 73
4
 74
0
 40
0
 40
0
 40
0
 40
0
 40
1
 40
1
 40
1
 40
1
 10
97.534098
 20
100.963530
 30
0.0
 10
97.852910
 20
101.282342
 30
0.0
 10
98.032016
 20
101.714744
 30
0.0
 10
98.032016
 20
102.165612
 30
0.0
  0
LWPOLYLINE
  5
163
100
AcDbEntity
  8
Layer_1
 62
1
100
AcDbPolyline
 90
1
 70
1
 10
248.184502
 20
12.672605
 30
0.0
  0
SPLINE
  5
164
100
AcDbEntity
  8
Layer_1
 62
1
100
AcDbSpline
 70
8
 71
3
 72
8
 73
4
 74
0
 40
0
 40
0
 40
0
 40
0
 40
1
 40
1
 40
1
 40
1
 10
168.032028
 20
102.165612
 30
0.0
 10
168.032028
 20
102.616480
 30
0.0
 10
167.852922
 20
103.048882
 30
0.0
 10
167.534110
 20
103.367694
 30
0.0
  0
SPLINE
  5
165
100
AcDbEntity
  8
Layer_1
 62
1
100
AcDbSpline
 70
8
 71
3
 72
8
 73
4
 74
0
 40
0
 40
0
 40
0
 40
0
 40
1
 40
1
 40
1
 40
1
 10
167.534110
 20
103.367694
 30
0.0
 10
167.215298
 20
103.686506
 30
0.0
 10
166.782896
 20
103.865612
 30
0.0
 10
166.332028
 20
103.865612
 30
0.0
  0
SPLINE
  5
166
100
AcDbEntity
  8
Layer_1
 62
1
100
AcDbSpline
 70
8
 71
3
 72
8
 73
4
 74
0
 40
0
 40
0
 40
0
 40
0
 40
1
 40
1
 40
1
 40
1
 10
166.332028
 20
103.865612
 30
0.0
 10
165.881160
 20
103.865612
 30
0.0
 10
165.448758
 20
103.686506
 30
0.0
 10
165.129946
 20
103.367694
 30
0.0
  0
SPLINE
  5
167
100
AcDbEntity
  8
Layer_1
 62
1
100
AcDbSpline
 70
8
 71
3
 72
8
 73
4
 74
0
 40
0
 40
0
 40
0
 40
0
 40
1
 40
1
 40
1
 40
1
 10
165.129946
 20
103.367694
 30
0.0
 10
164.811134
 20
103.048882
 30
0.0
 10
164.632028
 20
102.616480
 30
0.0
 10
164.632028
 20
102.165612
 30
0.0
  0
SPLINE
  5
168
100
AcDbEntity
  8
Layer_1
 62
1
100
AcDbSpline
 70
8
 71
3
 72
8
 73
4
 74
0
 40
0
 40
0
 40
0
 40
0
 40
1
 40
1
 40
1
 40
1
 10
164.632028
 20
102.165612
 30
0.0
 10
164.632028
 20
101.714744
 30
0.0
 10
164.811134
 20
101.282342
 30
0.0
 10
165.129946
 20
100.963530
 30
0.0
  0
SPLINE
  5
169
100
AcDbEntity
  8
Layer_1
 62
1
100
AcDbSpline
 70
8
 71
3
 72
8
 73
4
 74
0
 40
0
 40
0
 40
0
 40
0
 40
1
 40
1
 40
1
 40
1
 10
165.129946
 20
100.963530
 30
0.0
 10
165.448758
 20
100.644718
 30
0.0
 10
165.881160
 20
100.465612
 30
0.0
 10
166.332028
 20
100.465612
 30
0.0
  0
SPLINE
  5
16a
100
AcDbEntity
  8
Layer_1
 62
1
100
AcDbSpline
 70
8
 71
3
 72
8
 73
4
 74
0
 40
0
 40
0
 40
0
 40
0
 40
1
 40
1
 40
1
 40
1
 10
166.332028
 20
100.465612
 30
0.0
 10
166.782896
 20
100.465612
 30
0.0
 10
167.215298
 20
100.644718
 30
0.0
 10
167.534110
 20
100.963530
 30
0.0
  0
SPLINE
  5
16b
100
AcDbEntity
  8
Layer_1
 62
1
100
AcDbSpline
 70
8
 71
3
 72
8
 73
4
 74
0
 40
0
 40
0
 40
0
 40
0
 40
1
 40
1
 40
1
 40
1
 10
167.534110
 20
100.963530
 30
0.0
 10
167.852922
 20
101.282342
 30
0.0
 10
168.032028
 20
101.714744
 30
0.0
 10
168.032028
 20
102.165612
 30
0.0
  0
LWPOLYLINE
  5
16c
100
AcDbEntity
  8
Layer_1
 62
1
100
AcDbPolyline
 90
1
 70
1
 10
98.032016
 20
102.165612
 30
0.0
  0
SPLINE
  5
16d
100
AcDbEntity
  8
Layer_1
 62
7
100
AcDbSpline
 70
8
 71
3
 72
8
 73
4
 74
0
 40
0
 40
0
 40
0
 40
0
 40
1
 40
1
 40
1
 40
1
 10
131.332022
 20
14.372604
 30
0.0
 10
130.395302
 20
14.369556
 30
0.0
 10
129.637553
 20
13.609338
 30
0.0
 10
129.637553
 20
12.672613
 30
0.0
  0
SPLINE
  5
16e
100
AcDbEntity
  8
Layer_1
 62
7
100
AcDbSpline
 70
8
 71
3
 72
8
 73
4
 74
0
 40
0
 40
0
 40
0
 40
0
 40
1
 40
1
 40
1
 40
1
 10
129.637553
 20
12.672613
 30
0.0
 10
129.637553
 20
11.735888
 30
0.0
 10
130.395302
 20
10.975670
 30
0.0
 10
131.332022
 20
10.972622
 30
0.0
  0
SPLINE
  5
16f
100
AcDbEntity
  8
Layer_1
 62
7
100
AcDbSpline
 70
8
 71
3
 72
8
 73
4
 74
0
 40
0
 40
0
 40
0
 40
0
 40
1
 40
1
 40
1
 40
1
 10
131.332022
 20
10.972622
 30
0.0
 10
131.939374
 20
10.972622
 30
0.0
 10
132.500590
 20
11.296640
 30
0.0
 10
132.804265
 20
11.822622
 30
0.0
  0
SPLINE
  5
170
100
AcDbEntity
  8
Layer_1
 62
7
100
AcDbSpline
 70
8
 71
3
 72
8
 73
4
 74
0
 40
0
 40
0
 40
0
 40
0
 40
1
 40
1
 40
1
 40
1
 10
132.804265
 20
11.822622
 30
0.0
 10
133.107941
 20
12.348604
 30
0.0
 10
133.107941
 20
12.996640
 30
0.0
 10
132.804265
 20
13.522622
 30
0.0
  0
SPLINE
  5
171
100
AcDbEntity
  8
Layer_1
 62
7
100
AcDbSpline
 70
8
 71
3
 72
8
 73
4
 74
0
 40
0
 40
0
 40
0
 40
0
 40
1
 40
1
 40
1
 40
1
 10
132.804265
 20
13.522622
 30
0.0
 10
132.500590
 20
14.048604
 30
0.0
 10
131.939374
 20
14.372622
 30
0.0
 10
131.332022
 20
14.372622
 30
0.0
  0
LWPOLYLINE
  5
172
100
AcDbEntity
  8
Layer_1
 62
1
100
AcDbPolyline
 90
1
 70
1
 10
168.032028
 20
102.165612
 30
0.0
  0
ENDSEC
  0
SECTION
  2
OBJECTS
  0
DICTIONARY
  5
C
330
0
100
AcDbDictionary
  3
ACAD_GROUP
350
D
  3
ACAD_MLINESTYLE
350
17
  0
DICTIONARY
  5
D
330
C
100
AcDbDictionary
  0
DICTIONARY
  5
1A
330
C
100
AcDbDictionary
  0
DICTIONARY
  5
17
330
C
100
AcDbDictionary
  3
STANDARD
350
18
  0
DICTIONARY
  5
19
330
C
100
AcDbDictionary
  0
ENDSEC
  0
EOF
