  0
SECTION
  2
HEADER
  9
$ACADVER
  1
AC1014
  9
$HANDSEED
  5
FFFF
  9
$MEASUREMENT
 70
     1
  0
ENDSEC
  0
SECTION
  2
TABLES
  0
TABLE
  2
VPORT
  5
8
330
0
100
AcDbSymbolTable
 70
     4
  0
VPORT
  5
2E
330
8
100
AcDbSymbolTableRecord
100
AcDbViewportTableRecord
  2
*ACTIVE
 70
     0
 10
0.0
 20
0.0
 11
1.0
 21
1.0
 12
210.0
 22
148.5
 13
0.0
 23
0.0
 14
10.0
 24
10.0
 15
10.0
 25
10.0
 16
0.0
 26
0.0
 36
1.0
 17
0.0
 27
0.0
 37
0.0
 40
341.0
 41
1.24
 42
50.0
 43
0.0
 44
0.0
 50
0.0
 51
0.0
 71
     0
 72
   100
 73
     1
 74
     3
 75
     0
 76
     0
 77
     0
 78
     0
  0
ENDTAB
  0
TABLE
  2
LTYPE
  5
5
330
0
100
AcDbSymbolTable
 70
     1
  0
LTYPE
  5
14
330
5
100
AcDbSymbolTableRecord
100
AcDbLinetypeTableRecord
  2
BYBLOCK
 70
     0
  3

 72
    65
 73
     0
 40
0.0
  0
LTYPE
  5
15
330
5
100
AcDbSymbolTableRecord
100
AcDbLinetypeTableRecord
  2
BYLAYER
 70
     0
  3

 72
    65
 73
     0
 40
0.0
  0
LTYPE
  5
16
330
5
100
AcDbSymbolTableRecord
100
AcDbLinetypeTableRecord
  2
CONTINUOUS
 70
     0
  3
Solid line
 72
    65
 73
     0
 40
0.0
  0
ENDTAB
  0
TABLE
  2
LAYER
  5
2
100
AcDbSymbolTable
 70
2
  0
LAYER
  5
50
100
AcDbSymbolTableRecord
100
AcDbLayerTableRecord
  2
0
 70
0
  6
CONTINUOUS
  0
LAYER
  5
51
100
AcDbSymbolTableRecord
100
AcDbLayerTableRecord
  2
Layer_1
 70
0
  6
CONTINUOUS
  0
ENDTAB
  0
TABLE
  2
STYLE
  5
3
330
0
100
AcDbSymbolTable
 70
     1
  0
STYLE
  5
11
330
3
100
AcDbSymbolTableRecord
100
AcDbTextStyleTableRecord
  2
STANDARD
 70
     0
 40
0.0
 41
1.0
 50
0.0
 71
     0
 42
2.5
  3
txt
  4

  0
ENDTAB
  0
TABLE
  2
VIEW
  5
6
330
0
100
AcDbSymbolTable
 70
     0
  0
ENDTAB
  0
TABLE
  2
UCS
  5
7
330
0
100
AcDbSymbolTable
 70
     0
  0
ENDTAB
  0
TABLE
  2
APPID
  5
9
330
0
100
AcDbSymbolTable
 70
     2
  0
APPID
  5
12
330
9
100
AcDbSymbolTableRecord
100
AcDbRegAppTableRecord
  2
ACAD
 70
     0
  0
ENDTAB
  0
TABLE
  2
DIMSTYLE
  5
A
330
0
100
AcDbSymbolTable
 70
     1
  0
DIMSTYLE
105
27
330
A
100
AcDbSymbolTableRecord
100
AcDbDimStyleTableRecord
  2
ISO-25
 70
     0
  3

  4

  5

  6

  7

 40
1.0
 41
2.5
 42
0.625
 43
3.75
 44
1.25
 45
0.0
 46
0.0
 47
0.0
 48
0.0
140
2.5
141
2.5
142
0.0
143
0.03937007874016
144
1.0
145
0.0
146
1.0
147
0.625
 71
     0
 72
     0
 73
     0
 74
     0
 75
     0
 76
     0
 77
     1
 78
     8
170
     0
171
     3
172
     1
173
     0
174
     0
175
     0
176
     0
177
     0
178
     0
270
     2
271
     2
272
     2
273
     2
274
     3
340
11
275
     0
280
     0
281
     0
282
     0
283
     0
284
     8
285
     0
286
     0
287
     3
288
     0
  0
ENDTAB
  0
TABLE
  2
BLOCK_RECORD
  5
1
330
0
100
AcDbSymbolTable
 70
     1
  0
BLOCK_RECORD
  5
1F
330
1
100
AcDbSymbolTableRecord
100
AcDbBlockTableRecord
  2
*MODEL_SPACE
  0
BLOCK_RECORD
  5
1B
330
1
100
AcDbSymbolTableRecord
100
AcDbBlockTableRecord
  2
*PAPER_SPACE
  0
ENDTAB
  0
ENDSEC
  0
SECTION
  2
BLOCKS
  0
BLOCK
  5
20
330
1F
100
AcDbEntity
  8
0
100
AcDbBlockBegin
  2
*MODEL_SPACE
 70
     0
 10
0.0
 20
0.0
 30
0.0
  3
*MODEL_SPACE
  1

  0
ENDBLK
  5
21
330
1F
100
AcDbEntity
  8
0
100
AcDbBlockEnd
  0
BLOCK
  5
1C
330
1B
100
AcDbEntity
 67
     1
  8
0
100
AcDbBlockBegin
  2
*PAPER_SPACE
  1

  0
ENDBLK
  5
1D
330
1B
100
AcDbEntity
 67
     1
  8
0
100
AcDbBlockEnd
  0
ENDSEC
  0
SECTION
  2
ENTITIES
  0
SPLINE
  5
100
100
AcDbEntity
  8
Layer_1
 62
7
100
AcDbSpline
 70
8
 71
3
 72
8
 73
4
 74
0
 40
0
 40
0
 40
0
 40
0
 40
1
 40
1
 40
1
 40
1
 10
13.675542
 20
114.165614
 30
0.0
 10
8.981311
 20
114.165360
 30
0.0
 10
5.176015
 20
110.359869
 30
0.0
 10
5.176001
 20
105.665638
 30
0.0
  0
SPLINE
  5
101
100
AcDbEntity
  8
Layer_1
 62
7
100
AcDbSpline
 70
8
 71
3
 72
8
 73
4
 74
0
 40
0
 40
0
 40
0
 40
0
 40
1
 40
1
 40
1
 40
1
 10
5.175541
 20
13.672604
 30
0.0
 10
5.175546
 20
11.418187
 30
0.0
 10
6.071144
 20
9.256113
 30
0.0
 10
7.665303
 20
7.662045
 30
0.0
  0
SPLINE
  5
102
100
AcDbEntity
  8
Layer_1
 62
7
100
AcDbSpline
 70
8
 71
3
 72
8
 73
4
 74
0
 40
0
 40
0
 40
0
 40
0
 40
1
 40
1
 40
1
 40
1
 10
7.665303
 20
7.662045
 30
0.0
 10
9.259461
 20
6.067976
 30
0.0
 10
11.421585
 20
5.172499
 30
0.0
 10
13.676002
 20
5.172621
 30
0.0
  0
LWPOLYLINE
  5
103
100
AcDbEntity
  8
Layer_1
 62
7
100
AcDbPolyline
 90
2
 70
0
 10
5.176001
 20
105.665638
 30
0.0
 10
5.175541
 20
13.672604
 30
0.0
  0
SPLINE
  5
104
100
AcDbEntity
  8
Layer_1
 62
7
100
AcDbSpline
 70
8
 71
3
 72
8
 73
4
 74
0
 40
0
 40
0
 40
0
 40
0
 40
1
 40
1
 40
1
 40
1
 10
248.980502
 20
5.172603
 30
0.0
 10
253.674750
 20
5.172857
 30
0.0
 10
257.480053
 20
8.978374
 30
0.0
 10
257.480043
 20
13.672622
 30
0.0
  0
LWPOLYLINE
  5
105
100
AcDbEntity
  8
Layer_1
 62
7
100
AcDbPolyline
 90
2
 70
0
 10
13.676002
 20
5.172621
 30
0.0
 10
248.980502
 20
5.172603
 30
0.0
  0
SPLINE
  5
106
100
AcDbEntity
  8
Layer_1
 62
7
100
AcDbSpline
 70
8
 71
3
 72
8
 73
4
 74
0
 40
0
 40
0
 40
0
 40
0
 40
1
 40
1
 40
1
 40
1
 10
257.480503
 20
105.665613
 30
0.0
 10
257.480510
 20
107.920037
 30
0.0
 10
256.584916
 20
110.082122
 30
0.0
 10
254.990757
 20
111.676200
 30
0.0
  0
SPLINE
  5
107
100
AcDbEntity
  8
Layer_1
 62
7
100
AcDbSpline
 70
8
 71
3
 72
8
 73
4
 74
0
 40
0
 40
0
 40
0
 40
0
 40
1
 40
1
 40
1
 40
1
 10
254.990757
 20
111.676200
 30
0.0
 10
253.396597
 20
113.270278
 30
0.0
 10
251.234466
 20
114.165761
 30
0.0
 10
248.980042
 20
114.165639
 30
0.0
  0
LWPOLYLINE
  5
108
100
AcDbEntity
  8
Layer_1
 62
7
100
AcDbPolyline
 90
2
 70
0
 10
257.480043
 20
13.672622
 30
0.0
 10
257.480503
 20
105.665613
 30
0.0
  0
LWPOLYLINE
  5
109
100
AcDbEntity
  8
Layer_1
 62
7
100
AcDbPolyline
 90
2
 70
0
 10
248.980042
 20
114.165639
 30
0.0
 10
13.675542
 20
114.165614
 30
0.0
  0
SPLINE
  5
10a
100
AcDbEntity
  8
Layer_1
 62
7
100
AcDbSpline
 70
8
 71
3
 72
8
 73
4
 74
0
 40
0
 40
0
 40
0
 40
0
 40
1
 40
1
 40
1
 40
1
 10
22.935574
 20
35.864754
 30
0.0
 10
22.817814
 20
34.905291
 30
0.0
 10
21.944434
 20
34.223036
 30
0.0
 10
20.985004
 20
34.341026
 30
0.0
  0
LWPOLYLINE
  5
10b
100
AcDbEntity
  8
Layer_1
 62
7
100
AcDbPolyline
 90
2
 70
0
 10
23.301184
 20
38.842393
 30
0.0
 10
22.935574
 20
35.864754
 30
0.0
  0
SPLINE
  5
10c
100
AcDbEntity
  8
Layer_1
 62
7
100
AcDbSpline
 70
8
 71
3
 72
8
 73
4
 74
0
 40
0
 40
0
 40
0
 40
0
 40
1
 40
1
 40
1
 40
1
 10
13.044972
 20
35.316024
 30
0.0
 10
12.085572
 20
35.433667
 30
0.0
 10
11.403242
 20
36.306842
 30
0.0
 10
11.521002
 20
37.266226
 30
0.0
  0
LWPOLYLINE
  5
10d
100
AcDbEntity
  8
Layer_1
 62
7
100
AcDbPolyline
 90
2
 70
0
 10
20.985004
 20
34.341026
 30
0.0
 10
13.044972
 20
35.316024
 30
0.0
  0
SPLINE
  5
10e
100
AcDbEntity
  8
Layer_1
 62
7
100
AcDbSpline
 70
8
 71
3
 72
8
 73
4
 74
0
 40
0
 40
0
 40
0
 40
0
 40
1
 40
1
 40
1
 40
1
 10
20.064333
 20
106.843749
 30
0.0
 10
20.182113
 20
107.803240
 30
0.0
 10
21.055544
 20
108.485489
 30
0.0
 10
22.015004
 20
108.367438
 30
0.0
  0
LWPOLYLINE
  5
10f
100
AcDbEntity
  8
Layer_1
 62
7
100
AcDbPolyline
 90
2
 70
0
 10
11.521002
 20
37.266226
 30
0.0
 10
20.064333
 20
106.843749
 30
0.0
  0
SPLINE
  5
110
100
AcDbEntity
  8
Layer_1
 62
7
100
AcDbSpline
 70
8
 71
3
 72
8
 73
4
 74
0
 40
0
 40
0
 40
0
 40
0
 40
1
 40
1
 40
1
 40
1
 10
29.954935
 20
107.392478
 30
0.0
 10
30.914225
 20
107.274684
 30
0.0
 10
31.596400
 20
106.401532
 30
0.0
 10
31.478605
 20
105.442238
 30
0.0
  0
LWPOLYLINE
  5
111
100
AcDbEntity
  8
Layer_1
 62
7
100
AcDbPolyline
 90
2
 70
0
 10
22.015004
 20
108.367438
 30
0.0
 10
29.954935
 20
107.392478
 30
0.0
  0
SPLINE
  5
112
100
AcDbEntity
  8
Layer_1
 62
7
100
AcDbSpline
 70
8
 71
3
 72
8
 73
4
 74
0
 40
0
 40
0
 40
0
 40
0
 40
1
 40
1
 40
1
 40
1
 10
31.113005
 20
102.464612
 30
0.0
 10
31.096205
 20
102.327570
 30
0.0
 10
31.193705
 20
102.202849
 30
0.0
 10
31.330705
 20
102.186037
 30
0.0
  0
LWPOLYLINE
  5
113
100
AcDbEntity
  8
Layer_1
 62
7
100
AcDbPolyline
 90
2
 70
0
 10
31.478605
 20
105.442238
 30
0.0
 10
31.113005
 20
102.464612
 30
0.0
  0
SPLINE
  5
114
100
AcDbEntity
  8
Layer_1
 62
7
100
AcDbSpline
 70
8
 71
3
 72
8
 73
4
 74
0
 40
0
 40
0
 40
0
 40
0
 40
1
 40
1
 40
1
 40
1
 10
38.328130
 20
101.326830
 30
0.0
 10
38.465175
 20
101.310020
 30
0.0
 10
38.589898
 20
101.407490
 30
0.0
 10
38.606706
 20
101.544537
 30
0.0
  0
LWPOLYLINE
  5
115
100
AcDbEntity
  8
Layer_1
 62
7
100
AcDbPolyline
 90
2
 70
0
 10
31.330705
 20
102.186037
 30
0.0
 10
38.328130
 20
101.326830
 30
0.0
  0
SPLINE
  5
116
100
AcDbEntity
  8
Layer_1
 62
7
100
AcDbSpline
 70
8
 71
3
 72
8
 73
4
 74
0
 40
0
 40
0
 40
0
 40
0
 40
1
 40
1
 40
1
 40
1
 10
38.943092
 20
104.283926
 30
0.0
 10
39.060865
 20
105.243227
 30
0.0
 10
39.934008
 20
105.925417
 30
0.0
 10
40.893307
 20
105.807638
 30
0.0
  0
LWPOLYLINE
  5
117
100
AcDbEntity
  8
Layer_1
 62
7
100
AcDbPolyline
 90
2
 70
0
 10
38.606706
 20
101.544537
 30
0.0
 10
38.943092
 20
104.283926
 30
0.0
  0
SPLINE
  5
118
100
AcDbEntity
  8
Layer_1
 62
7
100
AcDbSpline
 70
8
 71
3
 72
8
 73
4
 74
0
 40
0
 40
0
 40
0
 40
0
 40
1
 40
1
 40
1
 40
1
 10
57.816236
 20
103.729743
 30
0.0
 10
57.953276
 20
103.712933
 30
0.0
 10
58.077998
 20
103.810393
 30
0.0
 10
58.094810
 20
103.947437
 30
0.0
  0
LWPOLYLINE
  5
119
100
AcDbEntity
  8
Layer_1
 62
7
100
AcDbPolyline
 90
2
 70
0
 10
40.893307
 20
105.807638
 30
0.0
 10
57.816236
 20
103.729743
 30
0.0
  0
SPLINE
  5
11a
100
AcDbEntity
  8
Layer_1
 62
7
100
AcDbSpline
 70
8
 71
3
 72
8
 73
4
 74
0
 40
0
 40
0
 40
0
 40
0
 40
1
 40
1
 40
1
 40
1
 10
58.431194
 20
106.686836
 30
0.0
 10
58.548972
 20
107.646132
 30
0.0
 10
59.422114
 20
108.328317
 30
0.0
 10
60.381410
 20
108.210538
 30
0.0
  0
LWPOLYLINE
  5
11b
100
AcDbEntity
  8
Layer_1
 62
7
100
AcDbPolyline
 90
2
 70
0
 10
58.094810
 20
103.947437
 30
0.0
 10
58.431194
 20
106.686836
 30
0.0
  0
SPLINE
  5
11c
100
AcDbEntity
  8
Layer_1
 62
7
100
AcDbSpline
 70
8
 71
3
 72
8
 73
4
 74
0
 40
0
 40
0
 40
0
 40
0
 40
1
 40
1
 40
1
 40
1
 10
82.217447
 20
105.529403
 30
0.0
 10
83.176748
 20
105.411603
 30
0.0
 10
83.851621
 20
104.539306
 30
0.0
 10
83.741114
 20
103.579137
 30
0.0
  0
LWPOLYLINE
  5
11d
100
AcDbEntity
  8
Layer_1
 62
7
100
AcDbPolyline
 90
2
 70
0
 10
60.381410
 20
108.210538
 30
0.0
 10
82.217447
 20
105.529403
 30
0.0
  0
SPLINE
  5
11e
100
AcDbEntity
  8
Layer_1
 62
7
100
AcDbSpline
 70
8
 71
3
 72
8
 73
4
 74
0
 40
0
 40
0
 40
0
 40
0
 40
1
 40
1
 40
1
 40
1
 10
83.533835
 20
101.778145
 30
0.0
 10
83.518045
 20
101.640991
 30
0.0
 10
83.614435
 20
101.516385
 30
0.0
 10
83.751469
 20
101.499545
 30
0.0
  0
LWPOLYLINE
  5
11f
100
AcDbEntity
  8
Layer_1
 62
7
100
AcDbPolyline
 90
2
 70
0
 10
83.741114
 20
103.579137
 30
0.0
 10
83.533835
 20
101.778145
 30
0.0
  0
SPLINE
  5
120
100
AcDbEntity
  8
Layer_1
 62
7
100
AcDbSpline
 70
8
 71
3
 72
8
 73
4
 74
0
 40
0
 40
0
 40
0
 40
0
 40
1
 40
1
 40
1
 40
1
 10
109.527900
 20
97.380359
 30
0.0
 10
109.664952
 20
97.363519
 30
0.0
 10
109.789703
 20
97.460979
 30
0.0
 10
109.806518
 20
97.598036
 30
0.0
  0
LWPOLYLINE
  5
121
100
AcDbEntity
  8
Layer_1
 62
7
100
AcDbPolyline
 90
3
 70
0
 10
83.751469
 20
101.499545
 30
0.0
 10
94.861518
 20
99.396937
 30
0.0
 10
109.527900
 20
97.380359
 30
0.0
  0
SPLINE
  5
122
100
AcDbEntity
  8
Layer_1
 62
7
100
AcDbSpline
 70
8
 71
3
 72
8
 73
4
 74
0
 40
0
 40
0
 40
0
 40
0
 40
1
 40
1
 40
1
 40
1
 10
110.142847
 20
100.337443
 30
0.0
 10
110.260633
 20
101.296757
 30
0.0
 10
111.133807
 20
101.978944
 30
0.0
 10
112.093119
 20
101.861137
 30
0.0
  0
LWPOLYLINE
  5
123
100
AcDbEntity
  8
Layer_1
 62
7
100
AcDbPolyline
 90
2
 70
0
 10
109.806518
 20
97.598036
 30
0.0
 10
110.142847
 20
100.337443
 30
0.0
  0
SPLINE
  5
124
100
AcDbEntity
  8
Layer_1
 62
7
100
AcDbSpline
 70
8
 71
3
 72
8
 73
4
 74
0
 40
0
 40
0
 40
0
 40
0
 40
1
 40
1
 40
1
 40
1
 10
123.042059
 20
100.897410
 30
0.0
 10
123.594355
 20
100.897409
 30
0.0
 10
124.042076
 20
101.345141
 30
0.0
 10
124.042061
 20
101.897437
 30
0.0
  0
LWPOLYLINE
  5
125
100
AcDbEntity
  8
Layer_1
 62
7
100
AcDbPolyline
 90
3
 70
0
 10
112.093119
 20
101.861137
 30
0.0
 10
119.942058
 20
100.897410
 30
0.0
 10
123.042059
 20
100.897410
 30
0.0
  0
SPLINE
  5
126
100
AcDbEntity
  8
Layer_1
 62
7
100
AcDbSpline
 70
8
 71
3
 72
8
 73
4
 74
0
 40
0
 40
0
 40
0
 40
0
 40
1
 40
1
 40
1
 40
1
 10
124.042059
 20
104.897411
 30
0.0
 10
124.042044
 20
105.449707
 30
0.0
 10
124.489765
 20
105.897439
 30
0.0
 10
125.042061
 20
105.897438
 30
0.0
  0
LWPOLYLINE
  5
127
100
AcDbEntity
  8
Layer_1
 62
7
100
AcDbPolyline
 90
2
 70
0
 10
124.042061
 20
101.897437
 30
0.0
 10
124.042059
 20
104.897411
 30
0.0
  0
SPLINE
  5
128
100
AcDbEntity
  8
Layer_1
 62
7
100
AcDbSpline
 70
8
 71
3
 72
8
 73
4
 74
0
 40
0
 40
0
 40
0
 40
0
 40
1
 40
1
 40
1
 40
1
 10
137.613985
 20
105.897411
 30
0.0
 10
138.166259
 20
105.897410
 30
0.0
 10
138.613968
 20
105.449711
 30
0.0
 10
138.613983
 20
104.897438
 30
0.0
  0
LWPOLYLINE
  5
129
100
AcDbEntity
  8
Layer_1
 62
7
100
AcDbPolyline
 90
2
 70
0
 10
125.042061
 20
105.897438
 30
0.0
 10
137.613985
 20
105.897411
 30
0.0
  0
SPLINE
  5
12a
100
AcDbEntity
  8
Layer_1
 62
7
100
AcDbSpline
 70
8
 71
3
 72
8
 73
4
 74
0
 40
0
 40
0
 40
0
 40
0
 40
1
 40
1
 40
1
 40
1
 10
138.613985
 20
101.897410
 30
0.0
 10
138.614000
 20
101.345137
 30
0.0
 10
139.061710
 20
100.897438
 30
0.0
 10
139.613983
 20
100.897437
 30
0.0
  0
LWPOLYLINE
  5
12b
100
AcDbEntity
  8
Layer_1
 62
7
100
AcDbPolyline
 90
2
 70
0
 10
138.613983
 20
104.897438
 30
0.0
 10
138.613985
 20
101.897410
 30
0.0
  0
SPLINE
  5
12c
100
AcDbEntity
  8
Layer_1
 62
7
100
AcDbSpline
 70
8
 71
3
 72
8
 73
4
 74
0
 40
0
 40
0
 40
0
 40
0
 40
1
 40
1
 40
1
 40
1
 10
150.562953
 20
101.861141
 30
0.0
 10
151.522269
 20
101.978948
 30
0.0
 10
152.395445
 20
101.296756
 30
0.0
 10
152.513226
 20
100.337437
 30
0.0
  0
LWPOLYLINE
  5
12d
100
AcDbEntity
  8
Layer_1
 62
7
100
AcDbPolyline
 90
3
 70
0
 10
139.613983
 20
100.897437
 30
0.0
 10
142.713986
 20
100.897410
 30
0.0
 10
150.562953
 20
101.861141
 30
0.0
  0
SPLINE
  5
12e
100
AcDbEntity
  8
Layer_1
 62
7
100
AcDbSpline
 70
8
 71
3
 72
8
 73
4
 74
0
 40
0
 40
0
 40
0
 40
0
 40
1
 40
1
 40
1
 40
1
 10
152.849557
 20
97.598015
 30
0.0
 10
152.866367
 20
97.460980
 30
0.0
 10
152.991091
 20
97.363522
 30
0.0
 10
153.128126
 20
97.380336
 30
0.0
  0
LWPOLYLINE
  5
12f
100
AcDbEntity
  8
Layer_1
 62
7
100
AcDbPolyline
 90
2
 70
0
 10
152.513226
 20
100.337437
 30
0.0
 10
152.849557
 20
97.598015
 30
0.0
  0
SPLINE
  5
130
100
AcDbEntity
  8
Layer_1
 62
7
100
AcDbSpline
 70
8
 71
3
 72
8
 73
4
 74
0
 40
0
 40
0
 40
0
 40
0
 40
1
 40
1
 40
1
 40
1
 10
179.033603
 20
100.561144
 30
0.0
 10
179.170626
 20
100.577984
 30
0.0
 10
179.268056
 20
100.702712
 30
0.0
 10
179.251230
 20
100.839737
 30
0.0
  0
LWPOLYLINE
  5
131
100
AcDbEntity
  8
Layer_1
 62
7
100
AcDbPolyline
 90
2
 70
0
 10
153.128126
 20
97.380336
 30
0.0
 10
179.033603
 20
100.561144
 30
0.0
  0
SPLINE
  5
132
100
AcDbEntity
  8
Layer_1
 62
7
100
AcDbSpline
 70
8
 71
3
 72
8
 73
4
 74
0
 40
0
 40
0
 40
0
 40
0
 40
1
 40
1
 40
1
 40
1
 10
178.914905
 20
103.579165
 30
0.0
 10
178.797098
 20
104.538489
 30
0.0
 10
179.479303
 20
105.411667
 30
0.0
 10
180.438630
 20
105.529438
 30
0.0
  0
LWPOLYLINE
  5
133
100
AcDbEntity
  8
Layer_1
 62
7
100
AcDbPolyline
 90
2
 70
0
 10
179.251230
 20
100.839737
 30
0.0
 10
178.914905
 20
103.579165
 30
0.0
  0
SPLINE
  5
134
100
AcDbEntity
  8
Layer_1
 62
7
100
AcDbSpline
 70
8
 71
3
 72
8
 73
4
 74
0
 40
0
 40
0
 40
0
 40
0
 40
1
 40
1
 40
1
 40
1
 10
202.274617
 20
108.210525
 30
0.0
 10
203.233908
 20
108.328305
 30
0.0
 10
204.107049
 20
107.646129
 30
0.0
 10
204.224834
 20
106.686838
 30
0.0
  0
LWPOLYLINE
  5
135
100
AcDbEntity
  8
Layer_1
 62
7
100
AcDbPolyline
 90
2
 70
0
 10
180.438630
 20
105.529438
 30
0.0
 10
202.274617
 20
108.210525
 30
0.0
  0
SPLINE
  5
136
100
AcDbEntity
  8
Layer_1
 62
7
100
AcDbSpline
 70
8
 71
3
 72
8
 73
4
 74
0
 40
0
 40
0
 40
0
 40
0
 40
1
 40
1
 40
1
 40
1
 10
204.561209
 20
103.947407
 30
0.0
 10
204.578029
 20
103.810354
 30
0.0
 10
204.702783
 20
103.712895
 30
0.0
 10
204.839834
 20
103.729737
 30
0.0
  0
LWPOLYLINE
  5
137
100
AcDbEntity
  8
Layer_1
 62
7
100
AcDbPolyline
 90
2
 70
0
 10
204.224834
 20
106.686838
 30
0.0
 10
204.561209
 20
103.947407
 30
0.0
  0
SPLINE
  5
138
100
AcDbEntity
  8
Layer_1
 62
7
100
AcDbSpline
 70
8
 71
3
 72
8
 73
4
 74
0
 40
0
 40
0
 40
0
 40
0
 40
1
 40
1
 40
1
 40
1
 10
221.762723
 20
105.807612
 30
0.0
 10
222.722009
 20
105.925391
 30
0.0
 10
223.595145
 20
105.243222
 30
0.0
 10
223.712937
 20
104.283937
 30
0.0
  0
LWPOLYLINE
  5
139
100
AcDbEntity
  8
Layer_1
 62
7
100
AcDbPolyline
 90
2
 70
0
 10
204.839834
 20
103.729737
 30
0.0
 10
221.762723
 20
105.807612
 30
0.0
  0
SPLINE
  5
13a
100
AcDbEntity
  8
Layer_1
 62
7
100
AcDbSpline
 70
8
 71
3
 72
8
 73
4
 74
0
 40
0
 40
0
 40
0
 40
0
 40
1
 40
1
 40
1
 40
1
 10
224.049312
 20
101.544498
 30
0.0
 10
224.066142
 20
101.407449
 30
0.0
 10
224.190891
 20
101.309996
 30
0.0
 10
224.327938
 20
101.326837
 30
0.0
  0
LWPOLYLINE
  5
13b
100
AcDbEntity
  8
Layer_1
 62
7
100
AcDbPolyline
 90
2
 70
0
 10
223.712937
 20
104.283937
 30
0.0
 10
224.049312
 20
101.544498
 30
0.0
  0
SPLINE
  5
13c
100
AcDbEntity
  8
Layer_1
 62
7
100
AcDbSpline
 70
8
 71
3
 72
8
 73
4
 74
0
 40
0
 40
0
 40
0
 40
0
 40
1
 40
1
 40
1
 40
1
 10
231.325366
 20
102.186008
 30
0.0
 10
231.462419
 20
102.202828
 30
0.0
 10
231.559879
 20
102.327584
 30
0.0
 10
231.543039
 20
102.464637
 30
0.0
  0
LWPOLYLINE
  5
13d
100
AcDbEntity
  8
Layer_1
 62
7
100
AcDbPolyline
 90
2
 70
0
 10
224.327938
 20
101.326837
 30
0.0
 10
231.325366
 20
102.186008
 30
0.0
  0
SPLINE
  5
13e
100
AcDbEntity
  8
Layer_1
 62
7
100
AcDbSpline
 70
8
 71
3
 72
8
 73
4
 74
0
 40
0
 40
0
 40
0
 40
0
 40
1
 40
1
 40
1
 40
1
 10
231.177427
 20
105.442251
 30
0.0
 10
231.059663
 20
106.401505
 30
0.0
 10
231.741789
 20
107.274615
 30
0.0
 10
232.701039
 20
107.392438
 30
0.0
  0
LWPOLYLINE
  5
13f
100
AcDbEntity
  8
Layer_1
 62
7
100
AcDbPolyline
 90
2
 70
0
 10
231.543039
 20
102.464637
 30
0.0
 10
231.177427
 20
105.442251
 30
0.0
  0
SPLINE
  5
140
100
AcDbEntity
  8
Layer_1
 62
7
100
AcDbSpline
 70
8
 71
3
 72
8
 73
4
 74
0
 40
0
 40
0
 40
0
 40
0
 40
1
 40
1
 40
1
 40
1
 10
240.641480
 20
108.367433
 30
0.0
 10
241.600900
 20
108.485418
 30
0.0
 10
242.474261
 20
107.803183
 30
0.0
 10
242.592041
 20
106.843738
 30
0.0
  0
LWPOLYLINE
  5
141
100
AcDbEntity
  8
Layer_1
 62
7
100
AcDbPolyline
 90
2
 70
0
 10
232.701039
 20
107.392438
 30
0.0
 10
240.641480
 20
108.367433
 30
0.0
  0
SPLINE
  5
142
100
AcDbEntity
  8
Layer_1
 62
7
100
AcDbSpline
 70
8
 71
3
 72
8
 73
4
 74
0
 40
0
 40
0
 40
0
 40
0
 40
1
 40
1
 40
1
 40
1
 10
251.134752
 20
37.266251
 30
0.0
 10
251.252532
 20
36.306949
 30
0.0
 10
250.570342
 20
35.433800
 30
0.0
 10
249.611042
 20
35.316026
 30
0.0
  0
LWPOLYLINE
  5
143
100
AcDbEntity
  8
Layer_1
 62
7
100
AcDbPolyline
 90
2
 70
0
 10
242.592041
 20
106.843738
 30
0.0
 10
251.134752
 20
37.266251
 30
0.0
  0
SPLINE
  5
144
100
AcDbEntity
  8
Layer_1
 62
7
100
AcDbSpline
 70
8
 71
3
 72
8
 73
4
 74
0
 40
0
 40
0
 40
0
 40
0
 40
1
 40
1
 40
1
 40
1
 10
241.670701
 20
34.341070
 30
0.0
 10
240.711260
 20
34.223024
 30
0.0
 10
239.837830
 20
34.905253
 30
0.0
 10
239.720040
 20
35.864726
 30
0.0
  0
LWPOLYLINE
  5
145
100
AcDbEntity
  8
Layer_1
 62
7
100
AcDbPolyline
 90
2
 70
0
 10
249.611042
 20
35.316026
 30
0.0
 10
241.670701
 20
34.341070
 30
0.0
  0
SPLINE
  5
146
100
AcDbEntity
  8
Layer_1
 62
7
100
AcDbSpline
 70
8
 71
3
 72
8
 73
4
 74
0
 40
0
 40
0
 40
0
 40
0
 40
1
 40
1
 40
1
 40
1
 10
239.354860
 20
38.842393
 30
0.0
 10
239.338060
 20
38.979516
 30
0.0
 10
239.213150
 20
39.076984
 30
0.0
 10
239.076040
 20
39.060027
 30
0.0
  0
LWPOLYLINE
  5
147
100
AcDbEntity
  8
Layer_1
 62
7
100
AcDbPolyline
 90
2
 70
0
 10
239.720040
 20
35.864726
 30
0.0
 10
239.354860
 20
38.842393
 30
0.0
  0
SPLINE
  5
148
100
AcDbEntity
  8
Layer_1
 62
7
100
AcDbSpline
 70
8
 71
3
 72
8
 73
4
 74
0
 40
0
 40
0
 40
0
 40
0
 40
1
 40
1
 40
1
 40
1
 10
218.511939
 20
36.535081
 30
0.0
 10
218.374905
 20
36.518271
 30
0.0
 10
218.277440
 20
36.393562
 30
0.0
 10
218.294237
 20
36.256526
 30
0.0
  0
LWPOLYLINE
  5
149
100
AcDbEntity
  8
Layer_1
 62
7
100
AcDbPolyline
 90
2
 70
0
 10
239.076040
 20
39.060027
 30
0.0
 10
218.511939
 20
36.535081
 30
0.0
  0
SPLINE
  5
14a
100
AcDbEntity
  8
Layer_1
 62
7
100
AcDbSpline
 70
8
 71
3
 72
8
 73
4
 74
0
 40
0
 40
0
 40
0
 40
0
 40
1
 40
1
 40
1
 40
1
 10
219.792044
 20
24.058083
 30
0.0
 10
219.909849
 20
23.098769
 30
0.0
 10
219.227654
 20
22.225599
 30
0.0
 10
218.268337
 20
22.107824
 30
0.0
  0
LWPOLYLINE
  5
14b
100
AcDbEntity
  8
Layer_1
 62
7
100
AcDbPolyline
 90
2
 70
0
 10
218.294237
 20
36.256526
 30
0.0
 10
219.792044
 20
24.058083
 30
0.0
  0
SPLINE
  5
14c
100
AcDbEntity
  8
Layer_1
 62
7
100
AcDbSpline
 70
8
 71
3
 72
8
 73
4
 74
0
 40
0
 40
0
 40
0
 40
0
 40
1
 40
1
 40
1
 40
1
 10
175.111204
 20
16.808824
 30
0.0
 10
174.974161
 20
16.792004
 30
0.0
 10
174.876704
 20
16.667266
 30
0.0
 10
174.893529
 20
16.530223
 30
0.0
  0
LWPOLYLINE
  5
14d
100
AcDbEntity
  8
Layer_1
 62
7
100
AcDbPolyline
 90
2
 70
0
 10
218.268337
 20
22.107824
 30
0.0
 10
175.111204
 20
16.808824
 30
0.0
  0
SPLINE
  5
14e
100
AcDbEntity
  8
Layer_1
 62
7
100
AcDbSpline
 70
8
 71
3
 72
8
 73
4
 74
0
 40
0
 40
0
 40
0
 40
0
 40
1
 40
1
 40
1
 40
1
 10
175.259143
 20
13.552580
 30
0.0
 10
175.376947
 20
12.593264
 30
0.0
 10
174.694749
 20
11.720093
 30
0.0
 10
173.735429
 20
11.602322
 30
0.0
  0
LWPOLYLINE
  5
14f
100
AcDbEntity
  8
Layer_1
 62
7
100
AcDbPolyline
 90
2
 70
0
 10
174.893529
 20
16.530223
 30
0.0
 10
175.259143
 20
13.552580
 30
0.0
  0
SPLINE
  5
150
100
AcDbEntity
  8
Layer_1
 62
7
100
AcDbSpline
 70
8
 71
3
 72
8
 73
4
 74
0
 40
0
 40
0
 40
0
 40
0
 40
1
 40
1
 40
1
 40
1
 10
165.795088
 20
10.627398
 30
0.0
 10
164.835768
 20
10.509593
 30
0.0
 10
163.962593
 20
11.191797
 30
0.0
 10
163.844827
 20
12.151122
 30
0.0
  0
LWPOLYLINE
  5
151
100
AcDbEntity
  8
Layer_1
 62
7
100
AcDbPolyline
 90
2
 70
0
 10
173.735429
 20
11.602322
 30
0.0
 10
165.795088
 20
10.627398
 30
0.0
  0
SPLINE
  5
152
100
AcDbEntity
  8
Layer_1
 62
7
100
AcDbSpline
 70
8
 71
3
 72
8
 73
4
 74
0
 40
0
 40
0
 40
0
 40
0
 40
1
 40
1
 40
1
 40
1
 10
163.479252
 20
15.128722
 30
0.0
 10
163.462442
 20
15.265786
 30
0.0
 10
163.337688
 20
15.363261
 30
0.0
 10
163.200627
 20
15.346423
 30
0.0
  0
LWPOLYLINE
  5
153
100
AcDbEntity
  8
Layer_1
 62
7
100
AcDbPolyline
 90
2
 70
0
 10
163.844827
 20
12.151122
 30
0.0
 10
163.479252
 20
15.128722
 30
0.0
  0
SPLINE
  5
154
100
AcDbEntity
  8
Layer_1
 62
7
100
AcDbSpline
 70
8
 71
3
 72
8
 73
4
 74
0
 40
0
 40
0
 40
0
 40
0
 40
1
 40
1
 40
1
 40
1
 10
99.455396
 20
15.346391
 30
0.0
 10
99.318363
 20
15.363201
 30
0.0
 10
99.193645
 20
15.265751
 30
0.0
 10
99.176817
 20
15.128723
 30
0.0
  0
LWPOLYLINE
  5
155
100
AcDbEntity
  8
Layer_1
 62
7
100
AcDbPolyline
 90
5
 70
0
 10
163.200627
 20
15.346423
 30
0.0
 10
153.183783
 20
14.116470
 30
0.0
 10
131.328022
 20
15.864654
 30
0.0
 10
109.472261
 20
14.116470
 30
0.0
 10
99.455396
 20
15.346391
 30
0.0
  0
SPLINE
  5
156
100
AcDbEntity
  8
Layer_1
 62
7
100
AcDbSpline
 70
8
 71
3
 72
8
 73
4
 74
0
 40
0
 40
0
 40
0
 40
0
 40
1
 40
1
 40
1
 40
1
 10
98.811184
 20
12.151083
 30
0.0
 10
98.693386
 20
11.191781
 30
0.0
 10
97.820217
 20
10.509611
 30
0.0
 10
96.860916
 20
10.627422
 30
0.0
  0
LWPOLYLINE
  5
157
100
AcDbEntity
  8
Layer_1
 62
7
100
AcDbPolyline
 90
2
 70
0
 10
99.176817
 20
15.128723
 30
0.0
 10
98.811184
 20
12.151083
 30
0.0
  0
SPLINE
  5
158
100
AcDbEntity
  8
Layer_1
 62
7
100
AcDbSpline
 70
8
 71
3
 72
8
 73
4
 74
0
 40
0
 40
0
 40
0
 40
0
 40
1
 40
1
 40
1
 40
1
 10
88.920586
 20
11.602353
 30
0.0
 10
87.961279
 20
11.720146
 30
0.0
 10
87.279103
 20
12.593317
 30
0.0
 10
87.396915
 20
13.552622
 30
0.0
  0
LWPOLYLINE
  5
159
100
AcDbEntity
  8
Layer_1
 62
7
100
AcDbPolyline
 90
2
 70
0
 10
96.860916
 20
10.627422
 30
0.0
 10
88.920586
 20
11.602353
 30
0.0
  0
SPLINE
  5
15a
100
AcDbEntity
  8
Layer_1
 62
7
100
AcDbSpline
 70
8
 71
3
 72
8
 73
4
 74
0
 40
0
 40
0
 40
0
 40
0
 40
1
 40
1
 40
1
 40
1
 10
87.762509
 20
16.530220
 30
0.0
 10
87.779329
 20
16.667270
 30
0.0
 10
87.681869
 20
16.792009
 30
0.0
 10
87.544815
 20
16.808823
 30
0.0
  0
LWPOLYLINE
  5
15b
100
AcDbEntity
  8
Layer_1
 62
7
100
AcDbPolyline
 90
2
 70
0
 10
87.396915
 20
13.552622
 30
0.0
 10
87.762509
 20
16.530220
 30
0.0
  0
SPLINE
  5
15c
100
AcDbEntity
  8
Layer_1
 62
7
100
AcDbSpline
 70
8
 71
3
 72
8
 73
4
 74
0
 40
0
 40
0
 40
0
 40
0
 40
1
 40
1
 40
1
 40
1
 10
44.387685
 20
22.107856
 30
0.0
 10
43.428375
 20
22.225645
 30
0.0
 10
42.746196
 20
23.098817
 30
0.0
 10
42.864007
 20
24.058124
 30
0.0
  0
LWPOLYLINE
  5
15d
100
AcDbEntity
  8
Layer_1
 62
7
100
AcDbPolyline
 90
2
 70
0
 10
87.544815
 20
16.808823
 30
0.0
 10
44.387685
 20
22.107856
 30
0.0
  0
SPLINE
  5
15e
100
AcDbEntity
  8
Layer_1
 62
7
100
AcDbSpline
 70
8
 71
3
 72
8
 73
4
 74
0
 40
0
 40
0
 40
0
 40
0
 40
1
 40
1
 40
1
 40
1
 10
44.361775
 20
36.256477
 30
0.0
 10
44.378625
 20
36.393535
 30
0.0
 10
44.281165
 20
36.518299
 30
0.0
 10
44.144107
 20
36.535126
 30
0.0
  0
LWPOLYLINE
  5
15f
100
AcDbEntity
  8
Layer_1
 62
7
100
AcDbPolyline
 90
2
 70
0
 10
42.864007
 20
24.058124
 30
0.0
 10
44.361775
 20
36.256477
 30
0.0
  0
SPLINE
  5
160
100
AcDbEntity
  8
Layer_1
 62
7
100
AcDbSpline
 70
8
 71
3
 72
8
 73
4
 74
0
 40
0
 40
0
 40
0
 40
0
 40
1
 40
1
 40
1
 40
1
 10
23.579784
 20
39.060063
 30
0.0
 10
23.442694
 20
39.076993
 30
0.0
 10
23.317844
 20
38.979533
 30
0.0
 10
23.301004
 20
38.842427
 30
0.0
  0
SPLINE
  5
161
100
AcDbEntity
  8
Layer_1
 62
1
100
AcDbSpline
 70
8
 71
3
 72
8
 73
4
 74
0
 40
0
 40
0
 40
0
 40
0
 40
1
 40
1
 40
1
 40
1
 10
17.225543
 20
102.165612
 30
0.0
 10
17.225543
 20
102.444089
 30
0.0
 10
17.114918
 20
102.711161
 30
0.0
 10
16.918005
 20
102.908074
 30
0.0
  0
SPLINE
  5
162
100
AcDbEntity
  8
Layer_1
 62
1
100
AcDbSpline
 70
8
 71
3
 72
8
 73
4
 74
0
 40
0
 40
0
 40
0
 40
0
 40
1
 40
1
 40
1
 40
1
 10
16.918005
 20
102.908074
 30
0.0
 10
16.721092
 20
103.104988
 30
0.0
 10
16.454020
 20
103.215612
 30
0.0
 10
16.175543
 20
103.215612
 30
0.0
  0
SPLINE
  5
163
100
AcDbEntity
  8
Layer_1
 62
1
100
AcDbSpline
 70
8
 71
3
 72
8
 73
4
 74
0
 40
0
 40
0
 40
0
 40
0
 40
1
 40
1
 40
1
 40
1
 10
16.175543
 20
103.215612
 30
0.0
 10
15.897065
 20
103.215612
 30
0.0
 10
15.629994
 20
103.104988
 30
0.0
 10
15.433080
 20
102.908074
 30
0.0
  0
SPLINE
  5
164
100
AcDbEntity
  8
Layer_1
 62
1
100
AcDbSpline
 70
8
 71
3
 72
8
 73
4
 74
0
 40
0
 40
0
 40
0
 40
0
 40
1
 40
1
 40
1
 40
1
 10
15.433080
 20
102.908074
 30
0.0
 10
15.236167
 20
102.711161
 30
0.0
 10
15.125543
 20
102.444089
 30
0.0
 10
15.125543
 20
102.165612
 30
0.0
  0
SPLINE
  5
165
100
AcDbEntity
  8
Layer_1
 62
1
100
AcDbSpline
 70
8
 71
3
 72
8
 73
4
 74
0
 40
0
 40
0
 40
0
 40
0
 40
1
 40
1
 40
1
 40
1
 10
15.125543
 20
102.165612
 30
0.0
 10
15.125543
 20
101.887135
 30
0.0
 10
15.236167
 20
101.620063
 30
0.0
 10
15.433080
 20
101.423150
 30
0.0
  0
SPLINE
  5
166
100
AcDbEntity
  8
Layer_1
 62
1
100
AcDbSpline
 70
8
 71
3
 72
8
 73
4
 74
0
 40
0
 40
0
 40
0
 40
0
 40
1
 40
1
 40
1
 40
1
 10
15.433080
 20
101.423150
 30
0.0
 10
15.629994
 20
101.226237
 30
0.0
 10
15.897065
 20
101.115612
 30
0.0
 10
16.175543
 20
101.115612
 30
0.0
  0
SPLINE
  5
167
100
AcDbEntity
  8
Layer_1
 62
1
100
AcDbSpline
 70
8
 71
3
 72
8
 73
4
 74
0
 40
0
 40
0
 40
0
 40
0
 40
1
 40
1
 40
1
 40
1
 10
16.175543
 20
101.115612
 30
0.0
 10
16.454020
 20
101.115612
 30
0.0
 10
16.721092
 20
101.226237
 30
0.0
 10
16.918005
 20
101.423150
 30
0.0
  0
SPLINE
  5
168
100
AcDbEntity
  8
Layer_1
 62
1
100
AcDbSpline
 70
8
 71
3
 72
8
 73
4
 74
0
 40
0
 40
0
 40
0
 40
0
 40
1
 40
1
 40
1
 40
1
 10
16.918005
 20
101.423150
 30
0.0
 10
17.114918
 20
101.620063
 30
0.0
 10
17.225543
 20
101.887135
 30
0.0
 10
17.225543
 20
102.165612
 30
0.0
  0
LWPOLYLINE
  5
169
100
AcDbEntity
  8
Layer_1
 62
7
100
AcDbPolyline
 90
2
 70
0
 10
44.144107
 20
36.535126
 30
0.0
 10
23.579784
 20
39.060063
 30
0.0
  0
SPLINE
  5
16a
100
AcDbEntity
  8
Layer_1
 62
1
100
AcDbSpline
 70
8
 71
3
 72
8
 73
4
 74
0
 40
0
 40
0
 40
0
 40
0
 40
1
 40
1
 40
1
 40
1
 10
17.225543
 20
12.672605
 30
0.0
 10
17.225543
 20
12.951082
 30
0.0
 10
17.114918
 20
13.218154
 30
0.0
 10
16.918005
 20
13.415067
 30
0.0
  0
SPLINE
  5
16b
100
AcDbEntity
  8
Layer_1
 62
1
100
AcDbSpline
 70
8
 71
3
 72
8
 73
4
 74
0
 40
0
 40
0
 40
0
 40
0
 40
1
 40
1
 40
1
 40
1
 10
16.918005
 20
13.415067
 30
0.0
 10
16.721092
 20
13.611981
 30
0.0
 10
16.454020
 20
13.722605
 30
0.0
 10
16.175543
 20
13.722605
 30
0.0
  0
SPLINE
  5
16c
100
AcDbEntity
  8
Layer_1
 62
1
100
AcDbSpline
 70
8
 71
3
 72
8
 73
4
 74
0
 40
0
 40
0
 40
0
 40
0
 40
1
 40
1
 40
1
 40
1
 10
16.175543
 20
13.722605
 30
0.0
 10
15.897065
 20
13.722605
 30
0.0
 10
15.629994
 20
13.611981
 30
0.0
 10
15.433080
 20
13.415067
 30
0.0
  0
SPLINE
  5
16d
100
AcDbEntity
  8
Layer_1
 62
1
100
AcDbSpline
 70
8
 71
3
 72
8
 73
4
 74
0
 40
0
 40
0
 40
0
 40
0
 40
1
 40
1
 40
1
 40
1
 10
15.433080
 20
13.415067
 30
0.0
 10
15.236167
 20
13.218154
 30
0.0
 10
15.125543
 20
12.951082
 30
0.0
 10
15.125543
 20
12.672605
 30
0.0
  0
SPLINE
  5
16e
100
AcDbEntity
  8
Layer_1
 62
1
100
AcDbSpline
 70
8
 71
3
 72
8
 73
4
 74
0
 40
0
 40
0
 40
0
 40
0
 40
1
 40
1
 40
1
 40
1
 10
15.125543
 20
12.672605
 30
0.0
 10
15.125543
 20
12.394128
 30
0.0
 10
15.236167
 20
12.127056
 30
0.0
 10
15.433080
 20
11.930143
 30
0.0
  0
SPLINE
  5
16f
100
AcDbEntity
  8
Layer_1
 62
1
100
AcDbSpline
 70
8
 71
3
 72
8
 73
4
 74
0
 40
0
 40
0
 40
0
 40
0
 40
1
 40
1
 40
1
 40
1
 10
15.433080
 20
11.930143
 30
0.0
 10
15.629994
 20
11.733230
 30
0.0
 10
15.897065
 20
11.622605
 30
0.0
 10
16.175543
 20
11.622605
 30
0.0
  0
SPLINE
  5
170
100
AcDbEntity
  8
Layer_1
 62
1
100
AcDbSpline
 70
8
 71
3
 72
8
 73
4
 74
0
 40
0
 40
0
 40
0
 40
0
 40
1
 40
1
 40
1
 40
1
 10
16.175543
 20
11.622605
 30
0.0
 10
16.454020
 20
11.622605
 30
0.0
 10
16.721092
 20
11.733230
 30
0.0
 10
16.918005
 20
11.930143
 30
0.0
  0
SPLINE
  5
171
100
AcDbEntity
  8
Layer_1
 62
1
100
AcDbSpline
 70
8
 71
3
 72
8
 73
4
 74
0
 40
0
 40
0
 40
0
 40
0
 40
1
 40
1
 40
1
 40
1
 10
16.918005
 20
11.930143
 30
0.0
 10
17.114918
 20
12.127056
 30
0.0
 10
17.225543
 20
12.394128
 30
0.0
 10
17.225543
 20
12.672605
 30
0.0
  0
LWPOLYLINE
  5
172
100
AcDbEntity
  8
Layer_1
 62
1
100
AcDbPolyline
 90
1
 70
1
 10
17.225543
 20
102.165612
 30
0.0
  0
SPLINE
  5
173
100
AcDbEntity
  8
Layer_1
 62
1
100
AcDbSpline
 70
8
 71
3
 72
8
 73
4
 74
0
 40
0
 40
0
 40
0
 40
0
 40
1
 40
1
 40
1
 40
1
 10
247.530501
 20
102.165612
 30
0.0
 10
247.530501
 20
102.444089
 30
0.0
 10
247.419877
 20
102.711161
 30
0.0
 10
247.222964
 20
102.908074
 30
0.0
  0
SPLINE
  5
174
100
AcDbEntity
  8
Layer_1
 62
1
100
AcDbSpline
 70
8
 71
3
 72
8
 73
4
 74
0
 40
0
 40
0
 40
0
 40
0
 40
1
 40
1
 40
1
 40
1
 10
247.222964
 20
102.908074
 30
0.0
 10
247.026050
 20
103.104988
 30
0.0
 10
246.758979
 20
103.215612
 30
0.0
 10
246.480501
 20
103.215612
 30
0.0
  0
SPLINE
  5
175
100
AcDbEntity
  8
Layer_1
 62
1
100
AcDbSpline
 70
8
 71
3
 72
8
 73
4
 74
0
 40
0
 40
0
 40
0
 40
0
 40
1
 40
1
 40
1
 40
1
 10
246.480501
 20
103.215612
 30
0.0
 10
246.202024
 20
103.215612
 30
0.0
 10
245.934952
 20
103.104988
 30
0.0
 10
245.738039
 20
102.908074
 30
0.0
  0
SPLINE
  5
176
100
AcDbEntity
  8
Layer_1
 62
1
100
AcDbSpline
 70
8
 71
3
 72
8
 73
4
 74
0
 40
0
 40
0
 40
0
 40
0
 40
1
 40
1
 40
1
 40
1
 10
245.738039
 20
102.908074
 30
0.0
 10
245.541126
 20
102.711161
 30
0.0
 10
245.430501
 20
102.444089
 30
0.0
 10
245.430501
 20
102.165612
 30
0.0
  0
SPLINE
  5
177
100
AcDbEntity
  8
Layer_1
 62
1
100
AcDbSpline
 70
8
 71
3
 72
8
 73
4
 74
0
 40
0
 40
0
 40
0
 40
0
 40
1
 40
1
 40
1
 40
1
 10
245.430501
 20
102.165612
 30
0.0
 10
245.430501
 20
101.887135
 30
0.0
 10
245.541126
 20
101.620063
 30
0.0
 10
245.738039
 20
101.423150
 30
0.0
  0
SPLINE
  5
178
100
AcDbEntity
  8
Layer_1
 62
1
100
AcDbSpline
 70
8
 71
3
 72
8
 73
4
 74
0
 40
0
 40
0
 40
0
 40
0
 40
1
 40
1
 40
1
 40
1
 10
245.738039
 20
101.423150
 30
0.0
 10
245.934952
 20
101.226237
 30
0.0
 10
246.202024
 20
101.115612
 30
0.0
 10
246.480501
 20
101.115612
 30
0.0
  0
SPLINE
  5
179
100
AcDbEntity
  8
Layer_1
 62
1
100
AcDbSpline
 70
8
 71
3
 72
8
 73
4
 74
0
 40
0
 40
0
 40
0
 40
0
 40
1
 40
1
 40
1
 40
1
 10
246.480501
 20
101.115612
 30
0.0
 10
246.758979
 20
101.115612
 30
0.0
 10
247.026050
 20
101.226237
 30
0.0
 10
247.222964
 20
101.423150
 30
0.0
  0
SPLINE
  5
17a
100
AcDbEntity
  8
Layer_1
 62
1
100
AcDbSpline
 70
8
 71
3
 72
8
 73
4
 74
0
 40
0
 40
0
 40
0
 40
0
 40
1
 40
1
 40
1
 40
1
 10
247.222964
 20
101.423150
 30
0.0
 10
247.419877
 20
101.620063
 30
0.0
 10
247.530501
 20
101.887135
 30
0.0
 10
247.530501
 20
102.165612
 30
0.0
  0
LWPOLYLINE
  5
17b
100
AcDbEntity
  8
Layer_1
 62
1
100
AcDbPolyline
 90
1
 70
1
 10
17.225543
 20
12.672605
 30
0.0
  0
SPLINE
  5
17c
100
AcDbEntity
  8
Layer_1
 62
1
100
AcDbSpline
 70
8
 71
3
 72
8
 73
4
 74
0
 40
0
 40
0
 40
0
 40
0
 40
1
 40
1
 40
1
 40
1
 10
247.530501
 20
12.672605
 30
0.0
 10
247.530501
 20
12.951082
 30
0.0
 10
247.419877
 20
13.218154
 30
0.0
 10
247.222964
 20
13.415067
 30
0.0
  0
SPLINE
  5
17d
100
AcDbEntity
  8
Layer_1
 62
1
100
AcDbSpline
 70
8
 71
3
 72
8
 73
4
 74
0
 40
0
 40
0
 40
0
 40
0
 40
1
 40
1
 40
1
 40
1
 10
247.222964
 20
13.415067
 30
0.0
 10
247.026050
 20
13.611981
 30
0.0
 10
246.758979
 20
13.722605
 30
0.0
 10
246.480501
 20
13.722605
 30
0.0
  0
SPLINE
  5
17e
100
AcDbEntity
  8
Layer_1
 62
1
100
AcDbSpline
 70
8
 71
3
 72
8
 73
4
 74
0
 40
0
 40
0
 40
0
 40
0
 40
1
 40
1
 40
1
 40
1
 10
246.480501
 20
13.722605
 30
0.0
 10
246.202024
 20
13.722605
 30
0.0
 10
245.934952
 20
13.611981
 30
0.0
 10
245.738039
 20
13.415067
 30
0.0
  0
SPLINE
  5
17f
100
AcDbEntity
  8
Layer_1
 62
1
100
AcDbSpline
 70
8
 71
3
 72
8
 73
4
 74
0
 40
0
 40
0
 40
0
 40
0
 40
1
 40
1
 40
1
 40
1
 10
245.738039
 20
13.415067
 30
0.0
 10
245.541126
 20
13.218154
 30
0.0
 10
245.430501
 20
12.951082
 30
0.0
 10
245.430501
 20
12.672605
 30
0.0
  0
SPLINE
  5
180
100
AcDbEntity
  8
Layer_1
 62
1
100
AcDbSpline
 70
8
 71
3
 72
8
 73
4
 74
0
 40
0
 40
0
 40
0
 40
0
 40
1
 40
1
 40
1
 40
1
 10
245.430501
 20
12.672605
 30
0.0
 10
245.430501
 20
12.394128
 30
0.0
 10
245.541126
 20
12.127056
 30
0.0
 10
245.738039
 20
11.930143
 30
0.0
  0
SPLINE
  5
181
100
AcDbEntity
  8
Layer_1
 62
1
100
AcDbSpline
 70
8
 71
3
 72
8
 73
4
 74
0
 40
0
 40
0
 40
0
 40
0
 40
1
 40
1
 40
1
 40
1
 10
245.738039
 20
11.930143
 30
0.0
 10
245.934952
 20
11.733230
 30
0.0
 10
246.202024
 20
11.622605
 30
0.0
 10
246.480501
 20
11.622605
 30
0.0
  0
SPLINE
  5
182
100
AcDbEntity
  8
Layer_1
 62
1
100
AcDbSpline
 70
8
 71
3
 72
8
 73
4
 74
0
 40
0
 40
0
 40
0
 40
0
 40
1
 40
1
 40
1
 40
1
 10
246.480501
 20
11.622605
 30
0.0
 10
246.758979
 20
11.622605
 30
0.0
 10
247.026050
 20
11.733230
 30
0.0
 10
247.222964
 20
11.930143
 30
0.0
  0
SPLINE
  5
183
100
AcDbEntity
  8
Layer_1
 62
1
100
AcDbSpline
 70
8
 71
3
 72
8
 73
4
 74
0
 40
0
 40
0
 40
0
 40
0
 40
1
 40
1
 40
1
 40
1
 10
247.222964
 20
11.930143
 30
0.0
 10
247.419877
 20
12.127056
 30
0.0
 10
247.530501
 20
12.394128
 30
0.0
 10
247.530501
 20
12.672605
 30
0.0
  0
LWPOLYLINE
  5
184
100
AcDbEntity
  8
Layer_1
 62
1
100
AcDbPolyline
 90
1
 70
1
 10
247.530501
 20
102.165612
 30
0.0
  0
SPLINE
  5
185
100
AcDbEntity
  8
Layer_1
 62
1
100
AcDbSpline
 70
8
 71
3
 72
8
 73
4
 74
0
 40
0
 40
0
 40
0
 40
0
 40
1
 40
1
 40
1
 40
1
 10
97.378016
 20
102.165612
 30
0.0
 10
97.378016
 20
102.444089
 30
0.0
 10
97.267392
 20
102.711161
 30
0.0
 10
97.070478
 20
102.908074
 30
0.0
  0
SPLINE
  5
186
100
AcDbEntity
  8
Layer_1
 62
1
100
AcDbSpline
 70
8
 71
3
 72
8
 73
4
 74
0
 40
0
 40
0
 40
0
 40
0
 40
1
 40
1
 40
1
 40
1
 10
97.070478
 20
102.908074
 30
0.0
 10
96.873565
 20
103.104988
 30
0.0
 10
96.606494
 20
103.215612
 30
0.0
 10
96.328016
 20
103.215612
 30
0.0
  0
SPLINE
  5
187
100
AcDbEntity
  8
Layer_1
 62
1
100
AcDbSpline
 70
8
 71
3
 72
8
 73
4
 74
0
 40
0
 40
0
 40
0
 40
0
 40
1
 40
1
 40
1
 40
1
 10
96.328016
 20
103.215612
 30
0.0
 10
96.049539
 20
103.215612
 30
0.0
 10
95.782467
 20
103.104988
 30
0.0
 10
95.585554
 20
102.908074
 30
0.0
  0
SPLINE
  5
188
100
AcDbEntity
  8
Layer_1
 62
1
100
AcDbSpline
 70
8
 71
3
 72
8
 73
4
 74
0
 40
0
 40
0
 40
0
 40
0
 40
1
 40
1
 40
1
 40
1
 10
95.585554
 20
102.908074
 30
0.0
 10
95.388641
 20
102.711161
 30
0.0
 10
95.278016
 20
102.444089
 30
0.0
 10
95.278016
 20
102.165612
 30
0.0
  0
SPLINE
  5
189
100
AcDbEntity
  8
Layer_1
 62
1
100
AcDbSpline
 70
8
 71
3
 72
8
 73
4
 74
0
 40
0
 40
0
 40
0
 40
0
 40
1
 40
1
 40
1
 40
1
 10
95.278016
 20
102.165612
 30
0.0
 10
95.278016
 20
101.887135
 30
0.0
 10
95.388641
 20
101.620063
 30
0.0
 10
95.585554
 20
101.423150
 30
0.0
  0
SPLINE
  5
18a
100
AcDbEntity
  8
Layer_1
 62
1
100
AcDbSpline
 70
8
 71
3
 72
8
 73
4
 74
0
 40
0
 40
0
 40
0
 40
0
 40
1
 40
1
 40
1
 40
1
 10
95.585554
 20
101.423150
 30
0.0
 10
95.782467
 20
101.226237
 30
0.0
 10
96.049539
 20
101.115612
 30
0.0
 10
96.328016
 20
101.115612
 30
0.0
  0
SPLINE
  5
18b
100
AcDbEntity
  8
Layer_1
 62
1
100
AcDbSpline
 70
8
 71
3
 72
8
 73
4
 74
0
 40
0
 40
0
 40
0
 40
0
 40
1
 40
1
 40
1
 40
1
 10
96.328016
 20
101.115612
 30
0.0
 10
96.606494
 20
101.115612
 30
0.0
 10
96.873565
 20
101.226237
 30
0.0
 10
97.070478
 20
101.423150
 30
0.0
  0
SPLINE
  5
18c
100
AcDbEntity
  8
Layer_1
 62
1
100
AcDbSpline
 70
8
 71
3
 72
8
 73
4
 74
0
 40
0
 40
0
 40
0
 40
0
 40
1
 40
1
 40
1
 40
1
 10
97.070478
 20
101.423150
 30
0.0
 10
97.267392
 20
101.620063
 30
0.0
 10
97.378016
 20
101.887135
 30
0.0
 10
97.378016
 20
102.165612
 30
0.0
  0
LWPOLYLINE
  5
18d
100
AcDbEntity
  8
Layer_1
 62
1
100
AcDbPolyline
 90
1
 70
1
 10
247.530501
 20
12.672605
 30
0.0
  0
SPLINE
  5
18e
100
AcDbEntity
  8
Layer_1
 62
1
100
AcDbSpline
 70
8
 71
3
 72
8
 73
4
 74
0
 40
0
 40
0
 40
0
 40
0
 40
1
 40
1
 40
1
 40
1
 10
167.378028
 20
102.165612
 30
0.0
 10
167.378028
 20
102.444089
 30
0.0
 10
167.267403
 20
102.711161
 30
0.0
 10
167.070490
 20
102.908074
 30
0.0
  0
SPLINE
  5
18f
100
AcDbEntity
  8
Layer_1
 62
1
100
AcDbSpline
 70
8
 71
3
 72
8
 73
4
 74
0
 40
0
 40
0
 40
0
 40
0
 40
1
 40
1
 40
1
 40
1
 10
167.070490
 20
102.908074
 30
0.0
 10
166.873577
 20
103.104988
 30
0.0
 10
166.606505
 20
103.215612
 30
0.0
 10
166.328028
 20
103.215612
 30
0.0
  0
SPLINE
  5
190
100
AcDbEntity
  8
Layer_1
 62
1
100
AcDbSpline
 70
8
 71
3
 72
8
 73
4
 74
0
 40
0
 40
0
 40
0
 40
0
 40
1
 40
1
 40
1
 40
1
 10
166.328028
 20
103.215612
 30
0.0
 10
166.049551
 20
103.215612
 30
0.0
 10
165.782479
 20
103.104988
 30
0.0
 10
165.585566
 20
102.908074
 30
0.0
  0
SPLINE
  5
191
100
AcDbEntity
  8
Layer_1
 62
1
100
AcDbSpline
 70
8
 71
3
 72
8
 73
4
 74
0
 40
0
 40
0
 40
0
 40
0
 40
1
 40
1
 40
1
 40
1
 10
165.585566
 20
102.908074
 30
0.0
 10
165.388652
 20
102.711161
 30
0.0
 10
165.278028
 20
102.444089
 30
0.0
 10
165.278028
 20
102.165612
 30
0.0
  0
SPLINE
  5
192
100
AcDbEntity
  8
Layer_1
 62
1
100
AcDbSpline
 70
8
 71
3
 72
8
 73
4
 74
0
 40
0
 40
0
 40
0
 40
0
 40
1
 40
1
 40
1
 40
1
 10
165.278028
 20
102.165612
 30
0.0
 10
165.278028
 20
101.887135
 30
0.0
 10
165.388652
 20
101.620063
 30
0.0
 10
165.585566
 20
101.423150
 30
0.0
  0
SPLINE
  5
193
100
AcDbEntity
  8
Layer_1
 62
1
100
AcDbSpline
 70
8
 71
3
 72
8
 73
4
 74
0
 40
0
 40
0
 40
0
 40
0
 40
1
 40
1
 40
1
 40
1
 10
165.585566
 20
101.423150
 30
0.0
 10
165.782479
 20
101.226237
 30
0.0
 10
166.049551
 20
101.115612
 30
0.0
 10
166.328028
 20
101.115612
 30
0.0
  0
SPLINE
  5
194
100
AcDbEntity
  8
Layer_1
 62
1
100
AcDbSpline
 70
8
 71
3
 72
8
 73
4
 74
0
 40
0
 40
0
 40
0
 40
0
 40
1
 40
1
 40
1
 40
1
 10
166.328028
 20
101.115612
 30
0.0
 10
166.606505
 20
101.115612
 30
0.0
 10
166.873577
 20
101.226237
 30
0.0
 10
167.070490
 20
101.423150
 30
0.0
  0
SPLINE
  5
195
100
AcDbEntity
  8
Layer_1
 62
1
100
AcDbSpline
 70
8
 71
3
 72
8
 73
4
 74
0
 40
0
 40
0
 40
0
 40
0
 40
1
 40
1
 40
1
 40
1
 10
167.070490
 20
101.423150
 30
0.0
 10
167.267403
 20
101.620063
 30
0.0
 10
167.378028
 20
101.887135
 30
0.0
 10
167.378028
 20
102.165612
 30
0.0
  0
LWPOLYLINE
  5
196
100
AcDbEntity
  8
Layer_1
 62
1
100
AcDbPolyline
 90
1
 70
1
 10
97.378016
 20
102.165612
 30
0.0
  0
SPLINE
  5
197
100
AcDbEntity
  8
Layer_1
 62
7
100
AcDbSpline
 70
8
 71
3
 72
8
 73
4
 74
0
 40
0
 40
0
 40
0
 40
0
 40
1
 40
1
 40
1
 40
1
 10
131.328022
 20
13.722604
 30
0.0
 10
130.749825
 20
13.720210
 30
0.0
 10
130.282369
 20
13.250815
 30
0.0
 10
130.282369
 20
12.672613
 30
0.0
  0
SPLINE
  5
198
100
AcDbEntity
  8
Layer_1
 62
7
100
AcDbSpline
 70
8
 71
3
 72
8
 73
4
 74
0
 40
0
 40
0
 40
0
 40
0
 40
1
 40
1
 40
1
 40
1
 10
130.282369
 20
12.672613
 30
0.0
 10
130.282369
 20
12.094411
 30
0.0
 10
130.749825
 20
11.625016
 30
0.0
 10
131.328022
 20
11.622622
 30
0.0
  0
SPLINE
  5
199
100
AcDbEntity
  8
Layer_1
 62
7
100
AcDbSpline
 70
8
 71
3
 72
8
 73
4
 74
0
 40
0
 40
0
 40
0
 40
0
 40
1
 40
1
 40
1
 40
1
 10
131.328022
 20
11.622622
 30
0.0
 10
131.703151
 20
11.622622
 30
0.0
 10
132.049784
 20
11.822751
 30
0.0
 10
132.237349
 20
12.147622
 30
0.0
  0
SPLINE
  5
19a
100
AcDbEntity
  8
Layer_1
 62
7
100
AcDbSpline
 70
8
 71
3
 72
8
 73
4
 74
0
 40
0
 40
0
 40
0
 40
0
 40
1
 40
1
 40
1
 40
1
 10
132.237349
 20
12.147622
 30
0.0
 10
132.424913
 20
12.472493
 30
0.0
 10
132.424913
 20
12.872751
 30
0.0
 10
132.237349
 20
13.197622
 30
0.0
  0
SPLINE
  5
19b
100
AcDbEntity
  8
Layer_1
 62
7
100
AcDbSpline
 70
8
 71
3
 72
8
 73
4
 74
0
 40
0
 40
0
 40
0
 40
0
 40
1
 40
1
 40
1
 40
1
 10
132.237349
 20
13.197622
 30
0.0
 10
132.049784
 20
13.522493
 30
0.0
 10
131.703151
 20
13.722622
 30
0.0
 10
131.328022
 20
13.722622
 30
0.0
  0
LWPOLYLINE
  5
19c
100
AcDbEntity
  8
Layer_1
 62
1
100
AcDbPolyline
 90
1
 70
1
 10
167.378028
 20
102.165612
 30
0.0
  0
ENDSEC
  0
SECTION
  2
OBJECTS
  0
DICTIONARY
  5
C
330
0
100
AcDbDictionary
  3
ACAD_GROUP
350
D
  3
ACAD_MLINESTYLE
350
17
  0
DICTIONARY
  5
D
330
C
100
AcDbDictionary
  0
DICTIONARY
  5
1A
330
C
100
AcDbDictionary
  0
DICTIONARY
  5
17
330
C
100
AcDbDictionary
  3
STANDARD
350
18
  0
DICTIONARY
  5
19
330
C
100
AcDbDictionary
  0
ENDSEC
  0
EOF
