  0
SECTION
  2
HEADER
  9
$ACADVER
  1
AC1014
  9
$HANDSEED
  5
FFFF
  9
$MEASUREMENT
 70
     1
  0
ENDSEC
  0
SECTION
  2
TABLES
  0
TABLE
  2
VPORT
  5
8
330
0
100
AcDbSymbolTable
 70
     4
  0
VPORT
  5
2E
330
8
100
AcDbSymbolTableRecord
100
AcDbViewportTableRecord
  2
*ACTIVE
 70
     0
 10
0.0
 20
0.0
 11
1.0
 21
1.0
 12
210.0
 22
148.5
 13
0.0
 23
0.0
 14
10.0
 24
10.0
 15
10.0
 25
10.0
 16
0.0
 26
0.0
 36
1.0
 17
0.0
 27
0.0
 37
0.0
 40
341.0
 41
1.24
 42
50.0
 43
0.0
 44
0.0
 50
0.0
 51
0.0
 71
     0
 72
   100
 73
     1
 74
     3
 75
     0
 76
     0
 77
     0
 78
     0
  0
ENDTAB
  0
TABLE
  2
LTYPE
  5
5
330
0
100
AcDbSymbolTable
 70
     1
  0
LTYPE
  5
14
330
5
100
AcDbSymbolTableRecord
100
AcDbLinetypeTableRecord
  2
BYBLOCK
 70
     0
  3

 72
    65
 73
     0
 40
0.0
  0
LTYPE
  5
15
330
5
100
AcDbSymbolTableRecord
100
AcDbLinetypeTableRecord
  2
BYLAYER
 70
     0
  3

 72
    65
 73
     0
 40
0.0
  0
LTYPE
  5
16
330
5
100
AcDbSymbolTableRecord
100
AcDbLinetypeTableRecord
  2
CONTINUOUS
 70
     0
  3
Solid line
 72
    65
 73
     0
 40
0.0
  0
ENDTAB
  0
TABLE
  2
LAYER
  5
2
100
AcDbSymbolTable
 70
2
  0
LAYER
  5
50
100
AcDbSymbolTableRecord
100
AcDbLayerTableRecord
  2
0
 70
0
  6
CONTINUOUS
  0
LAYER
  5
51
100
AcDbSymbolTableRecord
100
AcDbLayerTableRecord
  2
Layer_1
 70
0
  6
CONTINUOUS
  0
ENDTAB
  0
TABLE
  2
STYLE
  5
3
330
0
100
AcDbSymbolTable
 70
     1
  0
STYLE
  5
11
330
3
100
AcDbSymbolTableRecord
100
AcDbTextStyleTableRecord
  2
STANDARD
 70
     0
 40
0.0
 41
1.0
 50
0.0
 71
     0
 42
2.5
  3
txt
  4

  0
ENDTAB
  0
TABLE
  2
VIEW
  5
6
330
0
100
AcDbSymbolTable
 70
     0
  0
ENDTAB
  0
TABLE
  2
UCS
  5
7
330
0
100
AcDbSymbolTable
 70
     0
  0
ENDTAB
  0
TABLE
  2
APPID
  5
9
330
0
100
AcDbSymbolTable
 70
     2
  0
APPID
  5
12
330
9
100
AcDbSymbolTableRecord
100
AcDbRegAppTableRecord
  2
ACAD
 70
     0
  0
ENDTAB
  0
TABLE
  2
DIMSTYLE
  5
A
330
0
100
AcDbSymbolTable
 70
     1
  0
DIMSTYLE
105
27
330
A
100
AcDbSymbolTableRecord
100
AcDbDimStyleTableRecord
  2
ISO-25
 70
     0
  3

  4

  5

  6

  7

 40
1.0
 41
2.5
 42
0.625
 43
3.75
 44
1.25
 45
0.0
 46
0.0
 47
0.0
 48
0.0
140
2.5
141
2.5
142
0.0
143
0.03937007874016
144
1.0
145
0.0
146
1.0
147
0.625
 71
     0
 72
     0
 73
     0
 74
     0
 75
     0
 76
     0
 77
     1
 78
     8
170
     0
171
     3
172
     1
173
     0
174
     0
175
     0
176
     0
177
     0
178
     0
270
     2
271
     2
272
     2
273
     2
274
     3
340
11
275
     0
280
     0
281
     0
282
     0
283
     0
284
     8
285
     0
286
     0
287
     3
288
     0
  0
ENDTAB
  0
TABLE
  2
BLOCK_RECORD
  5
1
330
0
100
AcDbSymbolTable
 70
     1
  0
BLOCK_RECORD
  5
1F
330
1
100
AcDbSymbolTableRecord
100
AcDbBlockTableRecord
  2
*MODEL_SPACE
  0
BLOCK_RECORD
  5
1B
330
1
100
AcDbSymbolTableRecord
100
AcDbBlockTableRecord
  2
*PAPER_SPACE
  0
ENDTAB
  0
ENDSEC
  0
SECTION
  2
BLOCKS
  0
BLOCK
  5
20
330
1F
100
AcDbEntity
  8
0
100
AcDbBlockBegin
  2
*MODEL_SPACE
 70
     0
 10
0.0
 20
0.0
 30
0.0
  3
*MODEL_SPACE
  1

  0
ENDBLK
  5
21
330
1F
100
AcDbEntity
  8
0
100
AcDbBlockEnd
  0
BLOCK
  5
1C
330
1B
100
AcDbEntity
 67
     1
  8
0
100
AcDbBlockBegin
  2
*PAPER_SPACE
  1

  0
ENDBLK
  5
1D
330
1B
100
AcDbEntity
 67
     1
  8
0
100
AcDbBlockEnd
  0
ENDSEC
  0
SECTION
  2
ENTITIES
  0
SPLINE
  5
100
100
AcDbEntity
  8
Layer_1
 62
7
100
AcDbSpline
 70
8
 71
3
 72
8
 73
4
 74
0
 40
0
 40
0
 40
0
 40
0
 40
1
 40
1
 40
1
 40
1
 10
11.924542
 20
110.675614
 30
0.0
 10
8.196809
 20
110.675360
 30
0.0
 10
5.175015
 20
107.653371
 30
0.0
 10
5.175001
 20
103.925638
 30
0.0
  0
SPLINE
  5
101
100
AcDbEntity
  8
Layer_1
 62
7
100
AcDbSpline
 70
8
 71
3
 72
8
 73
4
 74
0
 40
0
 40
0
 40
0
 40
0
 40
1
 40
1
 40
1
 40
1
 10
5.174541
 20
11.932604
 30
0.0
 10
5.174546
 20
10.142316
 30
0.0
 10
5.885770
 20
8.425362
 30
0.0
 10
7.151739
 20
7.159481
 30
0.0
  0
SPLINE
  5
102
100
AcDbEntity
  8
Layer_1
 62
7
100
AcDbSpline
 70
8
 71
3
 72
8
 73
4
 74
0
 40
0
 40
0
 40
0
 40
0
 40
1
 40
1
 40
1
 40
1
 10
7.151739
 20
7.159481
 30
0.0
 10
8.417709
 20
5.893601
 30
0.0
 10
10.134714
 20
5.182499
 30
0.0
 10
11.925002
 20
5.182621
 30
0.0
  0
LWPOLYLINE
  5
103
100
AcDbEntity
  8
Layer_1
 62
7
100
AcDbPolyline
 90
2
 70
0
 10
5.175001
 20
103.925638
 30
0.0
 10
5.174541
 20
11.932604
 30
0.0
  0
SPLINE
  5
104
100
AcDbEntity
  8
Layer_1
 62
7
100
AcDbSpline
 70
8
 71
3
 72
8
 73
4
 74
0
 40
0
 40
0
 40
0
 40
0
 40
1
 40
1
 40
1
 40
1
 10
247.229503
 20
5.182603
 30
0.0
 10
250.957253
 20
5.182857
 30
0.0
 10
253.979054
 20
8.204872
 30
0.0
 10
253.979044
 20
11.932622
 30
0.0
  0
LWPOLYLINE
  5
105
100
AcDbEntity
  8
Layer_1
 62
7
100
AcDbPolyline
 90
2
 70
0
 10
11.925002
 20
5.182621
 30
0.0
 10
247.229503
 20
5.182603
 30
0.0
  0
SPLINE
  5
106
100
AcDbEntity
  8
Layer_1
 62
7
100
AcDbSpline
 70
8
 71
3
 72
8
 73
4
 74
0
 40
0
 40
0
 40
0
 40
0
 40
1
 40
1
 40
1
 40
1
 10
253.979504
 20
103.925613
 30
0.0
 10
253.979510
 20
105.715909
 30
0.0
 10
253.268291
 20
107.432874
 30
0.0
 10
252.002320
 20
108.698763
 30
0.0
  0
SPLINE
  5
107
100
AcDbEntity
  8
Layer_1
 62
7
100
AcDbSpline
 70
8
 71
3
 72
8
 73
4
 74
0
 40
0
 40
0
 40
0
 40
0
 40
1
 40
1
 40
1
 40
1
 10
252.002320
 20
108.698763
 30
0.0
 10
250.736350
 20
109.964653
 30
0.0
 10
249.019338
 20
110.675761
 30
0.0
 10
247.229043
 20
110.675639
 30
0.0
  0
LWPOLYLINE
  5
108
100
AcDbEntity
  8
Layer_1
 62
7
100
AcDbPolyline
 90
2
 70
0
 10
253.979044
 20
11.932622
 30
0.0
 10
253.979504
 20
103.925613
 30
0.0
  0
SPLINE
  5
109
100
AcDbEntity
  8
Layer_1
 62
7
100
AcDbSpline
 70
8
 71
3
 72
8
 73
4
 74
0
 40
0
 40
0
 40
0
 40
0
 40
1
 40
1
 40
1
 40
1
 10
44.363448
 20
23.405055
 30
0.0
 10
44.312955
 20
22.993938
 30
0.0
 10
44.605292
 20
22.619728
 30
0.0
 10
45.016408
 20
22.569224
 30
0.0
  0
LWPOLYLINE
  5
10a
100
AcDbEntity
  8
Layer_1
 62
7
100
AcDbPolyline
 90
2
 70
0
 10
247.229043
 20
110.675639
 30
0.0
 10
11.924542
 20
110.675614
 30
0.0
  0
SPLINE
  5
10b
100
AcDbEntity
  8
Layer_1
 62
7
100
AcDbSpline
 70
8
 71
3
 72
8
 73
4
 74
0
 40
0
 40
0
 40
0
 40
0
 40
1
 40
1
 40
1
 40
1
 10
106.467480
 20
15.024007
 30
0.0
 10
106.664916
 20
14.999758
 30
0.0
 10
106.863897
 20
15.054936
 30
0.0
 10
107.020648
 20
15.177401
 30
0.0
  0
SPLINE
  5
10c
100
AcDbEntity
  8
Layer_1
 62
7
100
AcDbSpline
 70
8
 71
3
 72
8
 73
4
 74
0
 40
0
 40
0
 40
0
 40
0
 40
1
 40
1
 40
1
 40
1
 10
107.020648
 20
15.177401
 30
0.0
 10
107.177399
 20
15.299866
 30
0.0
 10
107.279079
 20
15.479586
 30
0.0
 10
107.303319
 20
15.677023
 30
0.0
  0
LWPOLYLINE
  5
10d
100
AcDbEntity
  8
Layer_1
 62
7
100
AcDbPolyline
 90
2
 70
0
 10
45.016408
 20
22.569224
 30
0.0
 10
106.467480
 20
15.024007
 30
0.0
  0
SPLINE
  5
10e
100
AcDbEntity
  8
Layer_1
 62
7
100
AcDbSpline
 70
8
 71
3
 72
8
 73
4
 74
0
 40
0
 40
0
 40
0
 40
0
 40
1
 40
1
 40
1
 40
1
 10
116.589737
 20
91.309044
 30
0.0
 10
116.640205
 20
91.720166
 30
0.0
 10
116.347841
 20
92.094360
 30
0.0
 10
115.936720
 20
92.144836
 30
0.0
  0
LWPOLYLINE
  5
10f
100
AcDbEntity
  8
Layer_1
 62
7
100
AcDbPolyline
 90
2
 70
0
 10
107.303319
 20
15.677023
 30
0.0
 10
116.589737
 20
91.309044
 30
0.0
  0
SPLINE
  5
110
100
AcDbEntity
  8
Layer_1
 62
7
100
AcDbSpline
 70
8
 71
3
 72
8
 73
4
 74
0
 40
0
 40
0
 40
0
 40
0
 40
1
 40
1
 40
1
 40
1
 10
79.609534
 20
96.605275
 30
0.0
 10
79.198424
 20
96.655749
 30
0.0
 10
78.906064
 20
97.029925
 30
0.0
 10
78.956514
 20
97.441037
 30
0.0
  0
LWPOLYLINE
  5
111
100
AcDbEntity
  8
Layer_1
 62
7
100
AcDbPolyline
 90
2
 70
0
 10
115.936720
 20
92.144836
 30
0.0
 10
79.609534
 20
96.605275
 30
0.0
  0
SPLINE
  5
112
100
AcDbEntity
  8
Layer_1
 62
7
100
AcDbSpline
 70
8
 71
3
 72
8
 73
4
 74
0
 40
0
 40
0
 40
0
 40
0
 40
1
 40
1
 40
1
 40
1
 10
79.353821
 20
100.676787
 30
0.0
 10
79.378073
 20
100.874223
 30
0.0
 10
79.322898
 20
101.073206
 30
0.0
 10
79.200434
 20
101.229960
 30
0.0
  0
SPLINE
  5
113
100
AcDbEntity
  8
Layer_1
 62
7
100
AcDbSpline
 70
8
 71
3
 72
8
 73
4
 74
0
 40
0
 40
0
 40
0
 40
0
 40
1
 40
1
 40
1
 40
1
 10
79.200434
 20
101.229960
 30
0.0
 10
79.077971
 20
101.386714
 30
0.0
 10
78.898251
 20
101.488396
 30
0.0
 10
78.700814
 20
101.512638
 30
0.0
  0
LWPOLYLINE
  5
114
100
AcDbEntity
  8
Layer_1
 62
7
100
AcDbPolyline
 90
2
 70
0
 10
78.956514
 20
97.441037
 30
0.0
 10
79.353821
 20
100.676787
 30
0.0
  0
SPLINE
  5
115
100
AcDbEntity
  8
Layer_1
 62
7
100
AcDbSpline
 70
8
 71
3
 72
8
 73
4
 74
0
 40
0
 40
0
 40
0
 40
0
 40
1
 40
1
 40
1
 40
1
 10
59.792805
 20
103.834211
 30
0.0
 10
59.381697
 20
103.884682
 30
0.0
 10
59.007508
 20
103.592343
 30
0.0
 10
58.957010
 20
103.181238
 30
0.0
  0
LWPOLYLINE
  5
116
100
AcDbEntity
  8
Layer_1
 62
7
100
AcDbPolyline
 90
2
 70
0
 10
78.700814
 20
101.512638
 30
0.0
 10
59.792805
 20
103.834211
 30
0.0
  0
SPLINE
  5
117
100
AcDbEntity
  8
Layer_1
 62
7
100
AcDbSpline
 70
8
 71
3
 72
8
 73
4
 74
0
 40
0
 40
0
 40
0
 40
0
 40
1
 40
1
 40
1
 40
1
 10
58.559699
 20
99.945502
 30
0.0
 10
58.509197
 20
99.534403
 30
0.0
 10
58.135013
 20
99.242070
 30
0.0
 10
57.723910
 20
99.292537
 30
0.0
  0
LWPOLYLINE
  5
118
100
AcDbEntity
  8
Layer_1
 62
7
100
AcDbPolyline
 90
2
 70
0
 10
58.957010
 20
103.181238
 30
0.0
 10
58.559699
 20
99.945502
 30
0.0
  0
SPLINE
  5
119
100
AcDbEntity
  8
Layer_1
 62
7
100
AcDbSpline
 70
8
 71
3
 72
8
 73
4
 74
0
 40
0
 40
0
 40
0
 40
0
 40
1
 40
1
 40
1
 40
1
 10
40.304700
 20
101.431302
 30
0.0
 10
39.893596
 20
101.481771
 30
0.0
 10
39.519409
 20
101.189438
 30
0.0
 10
39.468907
 20
100.778337
 30
0.0
  0
LWPOLYLINE
  5
11a
100
AcDbEntity
  8
Layer_1
 62
7
100
AcDbPolyline
 90
2
 70
0
 10
57.723910
 20
99.292537
 30
0.0
 10
40.304700
 20
101.431302
 30
0.0
  0
SPLINE
  5
11b
100
AcDbEntity
  8
Layer_1
 62
7
100
AcDbSpline
 70
8
 71
3
 72
8
 73
4
 74
0
 40
0
 40
0
 40
0
 40
0
 40
1
 40
1
 40
1
 40
1
 10
39.071594
 20
97.542593
 30
0.0
 10
39.047364
 20
97.345159
 30
0.0
 10
38.945695
 20
97.165437
 30
0.0
 10
38.788954
 20
97.042965
 30
0.0
  0
SPLINE
  5
11c
100
AcDbEntity
  8
Layer_1
 62
7
100
AcDbSpline
 70
8
 71
3
 72
8
 73
4
 74
0
 40
0
 40
0
 40
0
 40
0
 40
1
 40
1
 40
1
 40
1
 10
38.788954
 20
97.042965
 30
0.0
 10
38.632213
 20
96.920493
 30
0.0
 10
38.433240
 20
96.865303
 30
0.0
 10
38.235807
 20
96.889537
 30
0.0
  0
LWPOLYLINE
  5
11d
100
AcDbEntity
  8
Layer_1
 62
7
100
AcDbPolyline
 90
2
 70
0
 10
39.468907
 20
100.778337
 30
0.0
 10
39.071594
 20
97.542593
 30
0.0
  0
SPLINE
  5
11e
100
AcDbEntity
  8
Layer_1
 62
7
100
AcDbSpline
 70
8
 71
3
 72
8
 73
4
 74
0
 40
0
 40
0
 40
0
 40
0
 40
1
 40
1
 40
1
 40
1
 10
20.816594
 20
99.028392
 30
0.0
 10
20.405532
 20
99.078739
 30
0.0
 10
20.031463
 20
98.786385
 30
0.0
 10
19.981003
 20
98.375337
 30
0.0
  0
LWPOLYLINE
  5
11f
100
AcDbEntity
  8
Layer_1
 62
7
100
AcDbPolyline
 90
2
 70
0
 10
38.235807
 20
96.889537
 30
0.0
 10
20.816594
 20
99.028392
 30
0.0
  0
SPLINE
  5
120
100
AcDbEntity
  8
Layer_1
 62
7
100
AcDbSpline
 70
8
 71
3
 72
8
 73
4
 74
0
 40
0
 40
0
 40
0
 40
0
 40
1
 40
1
 40
1
 40
1
 10
13.015952
 20
41.651362
 30
0.0
 10
12.991705
 20
41.453922
 30
0.0
 10
13.046888
 20
41.254937
 30
0.0
 10
13.169360
 20
41.098185
 30
0.0
  0
SPLINE
  5
121
100
AcDbEntity
  8
Layer_1
 62
7
100
AcDbSpline
 70
8
 71
3
 72
8
 73
4
 74
0
 40
0
 40
0
 40
0
 40
0
 40
1
 40
1
 40
1
 40
1
 10
13.169360
 20
41.098185
 30
0.0
 10
13.291832
 20
40.941434
 30
0.0
 10
13.471560
 20
40.839758
 30
0.0
 10
13.669002
 20
40.815527
 30
0.0
  0
LWPOLYLINE
  5
122
100
AcDbEntity
  8
Layer_1
 62
7
100
AcDbPolyline
 90
2
 70
0
 10
19.981003
 20
98.375337
 30
0.0
 10
13.015952
 20
41.651362
 30
0.0
  0
SPLINE
  5
123
100
AcDbEntity
  8
Layer_1
 62
7
100
AcDbSpline
 70
8
 71
3
 72
8
 73
4
 74
0
 40
0
 40
0
 40
0
 40
0
 40
1
 40
1
 40
1
 40
1
 10
32.576964
 20
38.493939
 30
0.0
 10
32.774395
 20
38.469688
 30
0.0
 10
32.973374
 20
38.524862
 30
0.0
 10
33.130125
 20
38.647321
 30
0.0
  0
SPLINE
  5
124
100
AcDbEntity
  8
Layer_1
 62
7
100
AcDbSpline
 70
8
 71
3
 72
8
 73
4
 74
0
 40
0
 40
0
 40
0
 40
0
 40
1
 40
1
 40
1
 40
1
 10
33.130125
 20
38.647321
 30
0.0
 10
33.286876
 20
38.769781
 30
0.0
 10
33.388560
 20
38.949495
 30
0.0
 10
33.412806
 20
39.146927
 30
0.0
  0
LWPOLYLINE
  5
125
100
AcDbEntity
  8
Layer_1
 62
7
100
AcDbPolyline
 90
2
 70
0
 10
13.669002
 20
40.815527
 30
0.0
 10
32.576964
 20
38.493939
 30
0.0
  0
SPLINE
  5
126
100
AcDbEntity
  8
Layer_1
 62
7
100
AcDbSpline
 70
8
 71
3
 72
8
 73
4
 74
0
 40
0
 40
0
 40
0
 40
0
 40
1
 40
1
 40
1
 40
1
 10
33.810069
 20
42.382648
 30
0.0
 10
33.834317
 20
42.580078
 30
0.0
 10
33.936001
 20
42.759789
 30
0.0
 10
34.092751
 20
42.882246
 30
0.0
  0
SPLINE
  5
127
100
AcDbEntity
  8
Layer_1
 62
7
100
AcDbSpline
 70
8
 71
3
 72
8
 73
4
 74
0
 40
0
 40
0
 40
0
 40
0
 40
1
 40
1
 40
1
 40
1
 10
34.092751
 20
42.882246
 30
0.0
 10
34.249501
 20
43.004703
 30
0.0
 10
34.448477
 20
43.059876
 30
0.0
 10
34.645906
 20
43.035627
 30
0.0
  0
LWPOLYLINE
  5
128
100
AcDbEntity
  8
Layer_1
 62
7
100
AcDbPolyline
 90
2
 70
0
 10
33.412806
 20
39.146927
 30
0.0
 10
33.810069
 20
42.382648
 30
0.0
  0
SPLINE
  5
129
100
AcDbEntity
  8
Layer_1
 62
7
100
AcDbSpline
 70
8
 71
3
 72
8
 73
4
 74
0
 40
0
 40
0
 40
0
 40
0
 40
1
 40
1
 40
1
 40
1
 10
45.849248
 20
41.660055
 30
0.0
 10
46.260362
 20
41.609552
 30
0.0
 10
46.552699
 20
41.235343
 30
0.0
 10
46.502208
 20
40.824227
 30
0.0
  0
LWPOLYLINE
  5
12a
100
AcDbEntity
  8
Layer_1
 62
7
100
AcDbPolyline
 90
2
 70
0
 10
34.645906
 20
43.035627
 30
0.0
 10
45.849248
 20
41.660055
 30
0.0
  0
SPLINE
  5
12b
100
AcDbEntity
  8
Layer_1
 62
7
100
AcDbSpline
 70
8
 71
3
 72
8
 73
4
 74
0
 40
0
 40
0
 40
0
 40
0
 40
1
 40
1
 40
1
 40
1
 10
214.137589
 20
22.569244
 30
0.0
 10
214.548718
 20
22.619704
 30
0.0
 10
214.841097
 20
22.993895
 30
0.0
 10
214.790637
 20
23.405024
 30
0.0
  0
LWPOLYLINE
  5
12c
100
AcDbEntity
  8
Layer_1
 62
7
100
AcDbPolyline
 90
2
 70
0
 10
46.502208
 20
40.824227
 30
0.0
 10
44.363448
 20
23.405055
 30
0.0
  0
SPLINE
  5
12d
100
AcDbEntity
  8
Layer_1
 62
7
100
AcDbSpline
 70
8
 71
3
 72
8
 73
4
 74
0
 40
0
 40
0
 40
0
 40
0
 40
1
 40
1
 40
1
 40
1
 10
212.651790
 20
40.824243
 30
0.0
 10
212.627557
 20
41.021674
 30
0.0
 10
212.682746
 20
41.220646
 30
0.0
 10
212.805216
 20
41.377386
 30
0.0
  0
SPLINE
  5
12e
100
AcDbEntity
  8
Layer_1
 62
7
100
AcDbSpline
 70
8
 71
3
 72
8
 73
4
 74
0
 40
0
 40
0
 40
0
 40
0
 40
1
 40
1
 40
1
 40
1
 10
212.805216
 20
41.377386
 30
0.0
 10
212.927686
 20
41.534126
 30
0.0
 10
213.107405
 20
41.635795
 30
0.0
 10
213.304837
 20
41.660027
 30
0.0
  0
LWPOLYLINE
  5
12f
100
AcDbEntity
  8
Layer_1
 62
7
100
AcDbPolyline
 90
2
 70
0
 10
214.790637
 20
23.405024
 30
0.0
 10
212.651790
 20
40.824243
 30
0.0
  0
SPLINE
  5
130
100
AcDbEntity
  8
Layer_1
 62
7
100
AcDbSpline
 70
8
 71
3
 72
8
 73
4
 74
0
 40
0
 40
0
 40
0
 40
0
 40
1
 40
1
 40
1
 40
1
 10
224.508164
 20
43.035655
 30
0.0
 10
224.919284
 20
43.086113
 30
0.0
 10
225.293469
 20
42.793746
 30
0.0
 10
225.343939
 20
42.382627
 30
0.0
  0
LWPOLYLINE
  5
131
100
AcDbEntity
  8
Layer_1
 62
7
100
AcDbPolyline
 90
2
 70
0
 10
213.304837
 20
41.660027
 30
0.0
 10
224.508164
 20
43.035655
 30
0.0
  0
SPLINE
  5
132
100
AcDbEntity
  8
Layer_1
 62
7
100
AcDbSpline
 70
8
 71
3
 72
8
 73
4
 74
0
 40
0
 40
0
 40
0
 40
0
 40
1
 40
1
 40
1
 40
1
 10
225.741270
 20
39.146947
 30
0.0
 10
225.791744
 20
38.735834
 30
0.0
 10
226.165924
 20
38.443472
 30
0.0
 10
226.577039
 20
38.493927
 30
0.0
  0
LWPOLYLINE
  5
133
100
AcDbEntity
  8
Layer_1
 62
7
100
AcDbPolyline
 90
2
 70
0
 10
225.343939
 20
42.382627
 30
0.0
 10
225.741270
 20
39.146947
 30
0.0
  0
SPLINE
  5
134
100
AcDbEntity
  8
Layer_1
 62
7
100
AcDbSpline
 70
8
 71
3
 72
8
 73
4
 74
0
 40
0
 40
0
 40
0
 40
0
 40
1
 40
1
 40
1
 40
1
 10
245.485092
 20
40.815550
 30
0.0
 10
245.896180
 20
40.866059
 30
0.0
 10
246.188503
 20
41.240234
 30
0.0
 10
246.138042
 20
41.651327
 30
0.0
  0
LWPOLYLINE
  5
135
100
AcDbEntity
  8
Layer_1
 62
7
100
AcDbPolyline
 90
2
 70
0
 10
226.577039
 20
38.493927
 30
0.0
 10
245.485092
 20
40.815550
 30
0.0
  0
SPLINE
  5
136
100
AcDbEntity
  8
Layer_1
 62
7
100
AcDbSpline
 70
8
 71
3
 72
8
 73
4
 74
0
 40
0
 40
0
 40
0
 40
0
 40
1
 40
1
 40
1
 40
1
 10
239.173261
 20
98.375385
 30
0.0
 10
239.149034
 20
98.572903
 30
0.0
 10
239.047303
 20
98.752695
 30
0.0
 10
238.890466
 20
98.875179
 30
0.0
  0
SPLINE
  5
137
100
AcDbEntity
  8
Layer_1
 62
7
100
AcDbSpline
 70
8
 71
3
 72
8
 73
4
 74
0
 40
0
 40
0
 40
0
 40
0
 40
1
 40
1
 40
1
 40
1
 10
238.890466
 20
98.875179
 30
0.0
 10
238.733628
 20
98.997662
 30
0.0
 10
238.534543
 20
99.052794
 30
0.0
 10
238.337041
 20
99.028437
 30
0.0
  0
LWPOLYLINE
  5
138
100
AcDbEntity
  8
Layer_1
 62
7
100
AcDbPolyline
 90
2
 70
0
 10
246.138042
 20
41.651327
 30
0.0
 10
239.173261
 20
98.375385
 30
0.0
  0
SPLINE
  5
139
100
AcDbEntity
  8
Layer_1
 62
7
100
AcDbSpline
 70
8
 71
3
 72
8
 73
4
 74
0
 40
0
 40
0
 40
0
 40
0
 40
1
 40
1
 40
1
 40
1
 10
220.918262
 20
96.889585
 30
0.0
 10
220.720824
 20
96.865340
 30
0.0
 10
220.521841
 20
96.920525
 30
0.0
 10
220.365092
 20
97.042997
 30
0.0
  0
SPLINE
  5
13a
100
AcDbEntity
  8
Layer_1
 62
7
100
AcDbSpline
 70
8
 71
3
 72
8
 73
4
 74
0
 40
0
 40
0
 40
0
 40
0
 40
1
 40
1
 40
1
 40
1
 10
220.365092
 20
97.042997
 30
0.0
 10
220.208343
 20
97.165470
 30
0.0
 10
220.106668
 20
97.345197
 30
0.0
 10
220.082438
 20
97.542637
 30
0.0
  0
LWPOLYLINE
  5
13b
100
AcDbEntity
  8
Layer_1
 62
7
100
AcDbPolyline
 90
2
 70
0
 10
238.337041
 20
99.028437
 30
0.0
 10
220.918262
 20
96.889585
 30
0.0
  0
SPLINE
  5
13c
100
AcDbEntity
  8
Layer_1
 62
7
100
AcDbSpline
 70
8
 71
3
 72
8
 73
4
 74
0
 40
0
 40
0
 40
0
 40
0
 40
1
 40
1
 40
1
 40
1
 10
219.685157
 20
100.778293
 30
0.0
 10
219.660925
 20
100.975731
 30
0.0
 10
219.559250
 20
101.155455
 30
0.0
 10
219.402502
 20
101.277926
 30
0.0
  0
SPLINE
  5
13d
100
AcDbEntity
  8
Layer_1
 62
7
100
AcDbSpline
 70
8
 71
3
 72
8
 73
4
 74
0
 40
0
 40
0
 40
0
 40
0
 40
1
 40
1
 40
1
 40
1
 10
219.402502
 20
101.277926
 30
0.0
 10
219.245755
 20
101.400396
 30
0.0
 10
219.046774
 20
101.455580
 30
0.0
 10
218.849338
 20
101.431338
 30
0.0
  0
LWPOLYLINE
  5
13e
100
AcDbEntity
  8
Layer_1
 62
7
100
AcDbPolyline
 90
2
 70
0
 10
220.082438
 20
97.542637
 30
0.0
 10
219.685157
 20
100.778293
 30
0.0
  0
SPLINE
  5
13f
100
AcDbEntity
  8
Layer_1
 62
7
100
AcDbSpline
 70
8
 71
3
 72
8
 73
4
 74
0
 40
0
 40
0
 40
0
 40
0
 40
1
 40
1
 40
1
 40
1
 10
201.430157
 20
99.292494
 30
0.0
 10
201.232720
 20
99.268250
 30
0.0
 10
201.033739
 20
99.323434
 30
0.0
 10
200.876991
 20
99.445904
 30
0.0
  0
SPLINE
  5
140
100
AcDbEntity
  8
Layer_1
 62
7
100
AcDbSpline
 70
8
 71
3
 72
8
 73
4
 74
0
 40
0
 40
0
 40
0
 40
0
 40
1
 40
1
 40
1
 40
1
 10
200.876991
 20
99.445904
 30
0.0
 10
200.720242
 20
99.568375
 30
0.0
 10
200.618567
 20
99.748099
 30
0.0
 10
200.594335
 20
99.945537
 30
0.0
  0
LWPOLYLINE
  5
141
100
AcDbEntity
  8
Layer_1
 62
7
100
AcDbPolyline
 90
2
 70
0
 10
218.849338
 20
101.431338
 30
0.0
 10
201.430157
 20
99.292494
 30
0.0
  0
SPLINE
  5
142
100
AcDbEntity
  8
Layer_1
 62
7
100
AcDbSpline
 70
8
 71
3
 72
8
 73
4
 74
0
 40
0
 40
0
 40
0
 40
0
 40
1
 40
1
 40
1
 40
1
 10
200.197052
 20
103.181203
 30
0.0
 10
200.172817
 20
103.378639
 30
0.0
 10
200.071142
 20
103.558360
 30
0.0
 10
199.914395
 20
103.680829
 30
0.0
  0
SPLINE
  5
143
100
AcDbEntity
  8
Layer_1
 62
7
100
AcDbSpline
 70
8
 71
3
 72
8
 73
4
 74
0
 40
0
 40
0
 40
0
 40
0
 40
1
 40
1
 40
1
 40
1
 10
199.914395
 20
103.680829
 30
0.0
 10
199.757648
 20
103.803297
 30
0.0
 10
199.558669
 20
103.858480
 30
0.0
 10
199.361234
 20
103.834238
 30
0.0
  0
LWPOLYLINE
  5
144
100
AcDbEntity
  8
Layer_1
 62
7
100
AcDbPolyline
 90
2
 70
0
 10
200.594335
 20
99.945537
 30
0.0
 10
200.197052
 20
103.181203
 30
0.0
  0
SPLINE
  5
145
100
AcDbEntity
  8
Layer_1
 62
7
100
AcDbSpline
 70
8
 71
3
 72
8
 73
4
 74
0
 40
0
 40
0
 40
0
 40
0
 40
1
 40
1
 40
1
 40
1
 10
180.453232
 20
101.512600
 30
0.0
 10
180.042131
 20
101.462116
 30
0.0
 10
179.749781
 20
101.087943
 30
0.0
 10
179.800231
 20
100.676837
 30
0.0
  0
LWPOLYLINE
  5
146
100
AcDbEntity
  8
Layer_1
 62
7
100
AcDbPolyline
 90
2
 70
0
 10
199.361234
 20
103.834238
 30
0.0
 10
180.453232
 20
101.512600
 30
0.0
  0
SPLINE
  5
147
100
AcDbEntity
  8
Layer_1
 62
7
100
AcDbSpline
 70
8
 71
3
 72
8
 73
4
 74
0
 40
0
 40
0
 40
0
 40
0
 40
1
 40
1
 40
1
 40
1
 10
180.197518
 20
97.441087
 30
0.0
 10
180.221771
 20
97.243654
 30
0.0
 10
180.166598
 20
97.044674
 30
0.0
 10
180.044139
 20
96.887921
 30
0.0
  0
SPLINE
  5
148
100
AcDbEntity
  8
Layer_1
 62
7
100
AcDbSpline
 70
8
 71
3
 72
8
 73
4
 74
0
 40
0
 40
0
 40
0
 40
0
 40
1
 40
1
 40
1
 40
1
 10
180.044139
 20
96.887921
 30
0.0
 10
179.921679
 20
96.731167
 30
0.0
 10
179.741964
 20
96.629483
 30
0.0
 10
179.544531
 20
96.605237
 30
0.0
  0
LWPOLYLINE
  5
149
100
AcDbEntity
  8
Layer_1
 62
7
100
AcDbPolyline
 90
2
 70
0
 10
179.800231
 20
100.676837
 30
0.0
 10
180.197518
 20
97.441087
 30
0.0
  0
SPLINE
  5
14a
100
AcDbEntity
  8
Layer_1
 62
7
100
AcDbSpline
 70
8
 71
3
 72
8
 73
4
 74
0
 40
0
 40
0
 40
0
 40
0
 40
1
 40
1
 40
1
 40
1
 10
143.217315
 20
92.144856
 30
0.0
 10
142.806192
 20
92.094367
 30
0.0
 10
142.513839
 20
91.720159
 30
0.0
 10
142.564325
 20
91.309036
 30
0.0
  0
LWPOLYLINE
  5
14b
100
AcDbEntity
  8
Layer_1
 62
7
100
AcDbPolyline
 90
2
 70
0
 10
179.544531
 20
96.605237
 30
0.0
 10
143.217315
 20
92.144856
 30
0.0
  0
SPLINE
  5
14c
100
AcDbEntity
  8
Layer_1
 62
7
100
AcDbSpline
 70
8
 71
3
 72
8
 73
4
 74
0
 40
0
 40
0
 40
0
 40
0
 40
1
 40
1
 40
1
 40
1
 10
151.850753
 20
15.677015
 30
0.0
 10
151.901242
 20
15.265912
 30
0.0
 10
152.275420
 20
14.973565
 30
0.0
 10
152.686526
 20
15.024023
 30
0.0
  0
LWPOLYLINE
  5
14d
100
AcDbEntity
  8
Layer_1
 62
7
100
AcDbPolyline
 90
2
 70
0
 10
142.564325
 20
91.309036
 30
0.0
 10
151.850753
 20
15.677015
 30
0.0
  0
SPLINE
  5
14e
100
AcDbEntity
  8
Layer_1
 62
7
100
AcDbSpline
 70
8
 71
3
 72
8
 73
4
 74
0
 40
0
 40
0
 40
0
 40
0
 40
1
 40
1
 40
1
 40
1
 10
123.977021
 20
37.147240
 30
0.0
 10
123.977018
 20
37.014630
 30
0.0
 10
124.029694
 20
36.887449
 30
0.0
 10
124.123463
 20
36.793678
 30
0.0
  0
SPLINE
  5
14f
100
AcDbEntity
  8
Layer_1
 62
7
100
AcDbSpline
 70
8
 71
3
 72
8
 73
4
 74
0
 40
0
 40
0
 40
0
 40
0
 40
1
 40
1
 40
1
 40
1
 10
124.123463
 20
36.793678
 30
0.0
 10
124.217232
 20
36.699907
 30
0.0
 10
124.344411
 20
36.647226
 30
0.0
 10
124.477021
 20
36.647226
 30
0.0
  0
LWPOLYLINE
  5
150
100
AcDbEntity
  8
Layer_1
 62
7
100
AcDbPolyline
 90
2
 70
0
 10
152.686526
 20
15.024023
 30
0.0
 10
214.137589
 20
22.569244
 30
0.0
  0
SPLINE
  5
151
100
AcDbEntity
  8
Layer_1
 62
7
100
AcDbSpline
 70
8
 71
3
 72
8
 73
4
 74
0
 40
0
 40
0
 40
0
 40
0
 40
1
 40
1
 40
1
 40
1
 10
134.677023
 20
36.647240
 30
0.0
 10
134.953160
 20
36.647240
 30
0.0
 10
135.177016
 20
36.871089
 30
0.0
 10
135.177023
 20
37.147226
 30
0.0
  0
LWPOLYLINE
  5
152
100
AcDbEntity
  8
Layer_1
 62
7
100
AcDbPolyline
 90
2
 70
0
 10
124.477021
 20
36.647226
 30
0.0
 10
134.677023
 20
36.647240
 30
0.0
  0
SPLINE
  5
153
100
AcDbEntity
  8
Layer_1
 62
7
100
AcDbSpline
 70
8
 71
3
 72
8
 73
4
 74
0
 40
0
 40
0
 40
0
 40
0
 40
1
 40
1
 40
1
 40
1
 10
135.177023
 20
62.147245
 30
0.0
 10
135.177021
 20
62.423385
 30
0.0
 10
134.953164
 20
62.647241
 30
0.0
 10
134.677023
 20
62.647241
 30
0.0
  0
LWPOLYLINE
  5
154
100
AcDbEntity
  8
Layer_1
 62
7
100
AcDbPolyline
 90
2
 70
0
 10
135.177023
 20
37.147226
 30
0.0
 10
135.177023
 20
62.147245
 30
0.0
  0
SPLINE
  5
155
100
AcDbEntity
  8
Layer_1
 62
7
100
AcDbSpline
 70
8
 71
3
 72
8
 73
4
 74
0
 40
0
 40
0
 40
0
 40
0
 40
1
 40
1
 40
1
 40
1
 10
124.477021
 20
62.647245
 30
0.0
 10
124.344413
 20
62.647245
 30
0.0
 10
124.217235
 20
62.594566
 30
0.0
 10
124.123467
 20
62.500797
 30
0.0
  0
SPLINE
  5
156
100
AcDbEntity
  8
Layer_1
 62
7
100
AcDbSpline
 70
8
 71
3
 72
8
 73
4
 74
0
 40
0
 40
0
 40
0
 40
0
 40
1
 40
1
 40
1
 40
1
 10
124.123467
 20
62.500797
 30
0.0
 10
124.029698
 20
62.407028
 30
0.0
 10
123.977020
 20
62.279850
 30
0.0
 10
123.977021
 20
62.147241
 30
0.0
  0
LWPOLYLINE
  5
157
100
AcDbEntity
  8
Layer_1
 62
7
100
AcDbPolyline
 90
2
 70
0
 10
134.677023
 20
62.647241
 30
0.0
 10
124.477021
 20
62.647245
 30
0.0
  0
LWPOLYLINE
  5
158
100
AcDbEntity
  8
Layer_1
 62
7
100
AcDbPolyline
 90
2
 70
0
 10
123.977021
 20
62.147241
 30
0.0
 10
123.977021
 20
37.147240
 30
0.0
  0
SPLINE
  5
159
100
AcDbEntity
  8
Layer_1
 62
1
100
AcDbSpline
 70
8
 71
3
 72
8
 73
4
 74
0
 40
0
 40
0
 40
0
 40
0
 40
1
 40
1
 40
1
 40
1
 10
16.624543
 20
10.932605
 30
0.0
 10
16.624543
 20
11.516081
 30
0.0
 10
16.392758
 20
12.075660
 30
0.0
 10
15.980178
 20
12.488240
 30
0.0
  0
SPLINE
  5
15a
100
AcDbEntity
  8
Layer_1
 62
1
100
AcDbSpline
 70
8
 71
3
 72
8
 73
4
 74
0
 40
0
 40
0
 40
0
 40
0
 40
1
 40
1
 40
1
 40
1
 10
15.980178
 20
12.488240
 30
0.0
 10
15.567598
 20
12.900820
 30
0.0
 10
15.008019
 20
13.132605
 30
0.0
 10
14.424542
 20
13.132605
 30
0.0
  0
SPLINE
  5
15b
100
AcDbEntity
  8
Layer_1
 62
1
100
AcDbSpline
 70
8
 71
3
 72
8
 73
4
 74
0
 40
0
 40
0
 40
0
 40
0
 40
1
 40
1
 40
1
 40
1
 10
14.424542
 20
13.132605
 30
0.0
 10
13.841066
 20
13.132605
 30
0.0
 10
13.281487
 20
12.900820
 30
0.0
 10
12.868907
 20
12.488240
 30
0.0
  0
SPLINE
  5
15c
100
AcDbEntity
  8
Layer_1
 62
1
100
AcDbSpline
 70
8
 71
3
 72
8
 73
4
 74
0
 40
0
 40
0
 40
0
 40
0
 40
1
 40
1
 40
1
 40
1
 10
12.868907
 20
12.488240
 30
0.0
 10
12.456327
 20
12.075660
 30
0.0
 10
12.224542
 20
11.516081
 30
0.0
 10
12.224542
 20
10.932605
 30
0.0
  0
SPLINE
  5
15d
100
AcDbEntity
  8
Layer_1
 62
1
100
AcDbSpline
 70
8
 71
3
 72
8
 73
4
 74
0
 40
0
 40
0
 40
0
 40
0
 40
1
 40
1
 40
1
 40
1
 10
12.224542
 20
10.932605
 30
0.0
 10
12.224542
 20
10.349129
 30
0.0
 10
12.456327
 20
9.789550
 30
0.0
 10
12.868907
 20
9.376970
 30
0.0
  0
SPLINE
  5
15e
100
AcDbEntity
  8
Layer_1
 62
1
100
AcDbSpline
 70
8
 71
3
 72
8
 73
4
 74
0
 40
0
 40
0
 40
0
 40
0
 40
1
 40
1
 40
1
 40
1
 10
12.868907
 20
9.376970
 30
0.0
 10
13.281487
 20
8.964390
 30
0.0
 10
13.841066
 20
8.732605
 30
0.0
 10
14.424542
 20
8.732605
 30
0.0
  0
SPLINE
  5
15f
100
AcDbEntity
  8
Layer_1
 62
1
100
AcDbSpline
 70
8
 71
3
 72
8
 73
4
 74
0
 40
0
 40
0
 40
0
 40
0
 40
1
 40
1
 40
1
 40
1
 10
14.424542
 20
8.732605
 30
0.0
 10
15.008019
 20
8.732605
 30
0.0
 10
15.567598
 20
8.964390
 30
0.0
 10
15.980178
 20
9.376970
 30
0.0
  0
SPLINE
  5
160
100
AcDbEntity
  8
Layer_1
 62
1
100
AcDbSpline
 70
8
 71
3
 72
8
 73
4
 74
0
 40
0
 40
0
 40
0
 40
0
 40
1
 40
1
 40
1
 40
1
 10
15.980178
 20
9.376970
 30
0.0
 10
16.392758
 20
9.789550
 30
0.0
 10
16.624543
 20
10.349129
 30
0.0
 10
16.624543
 20
10.932605
 30
0.0
  0
LWPOLYLINE
  5
161
100
AcDbEntity
  8
Layer_1
 62
7
100
AcDbPolyline
 90
4
 70
1
 10
122.577021
 20
84.897249
 30
0.0
 10
122.577021
 20
70.897246
 30
0.0
 10
136.577024
 20
70.897246
 30
0.0
 10
136.577024
 20
84.897249
 30
0.0
  0
SPLINE
  5
162
100
AcDbEntity
  8
Layer_1
 62
1
100
AcDbSpline
 70
8
 71
3
 72
8
 73
4
 74
0
 40
0
 40
0
 40
0
 40
0
 40
1
 40
1
 40
1
 40
1
 10
16.624543
 20
100.425612
 30
0.0
 10
16.624543
 20
101.009089
 30
0.0
 10
16.392758
 20
101.568667
 30
0.0
 10
15.980178
 20
101.981248
 30
0.0
  0
SPLINE
  5
163
100
AcDbEntity
  8
Layer_1
 62
1
100
AcDbSpline
 70
8
 71
3
 72
8
 73
4
 74
0
 40
0
 40
0
 40
0
 40
0
 40
1
 40
1
 40
1
 40
1
 10
15.980178
 20
101.981248
 30
0.0
 10
15.567598
 20
102.393828
 30
0.0
 10
15.008019
 20
102.625613
 30
0.0
 10
14.424542
 20
102.625613
 30
0.0
  0
SPLINE
  5
164
100
AcDbEntity
  8
Layer_1
 62
1
100
AcDbSpline
 70
8
 71
3
 72
8
 73
4
 74
0
 40
0
 40
0
 40
0
 40
0
 40
1
 40
1
 40
1
 40
1
 10
14.424542
 20
102.625613
 30
0.0
 10
13.841066
 20
102.625613
 30
0.0
 10
13.281487
 20
102.393828
 30
0.0
 10
12.868907
 20
101.981248
 30
0.0
  0
SPLINE
  5
165
100
AcDbEntity
  8
Layer_1
 62
1
100
AcDbSpline
 70
8
 71
3
 72
8
 73
4
 74
0
 40
0
 40
0
 40
0
 40
0
 40
1
 40
1
 40
1
 40
1
 10
12.868907
 20
101.981248
 30
0.0
 10
12.456327
 20
101.568667
 30
0.0
 10
12.224542
 20
101.009089
 30
0.0
 10
12.224542
 20
100.425612
 30
0.0
  0
SPLINE
  5
166
100
AcDbEntity
  8
Layer_1
 62
1
100
AcDbSpline
 70
8
 71
3
 72
8
 73
4
 74
0
 40
0
 40
0
 40
0
 40
0
 40
1
 40
1
 40
1
 40
1
 10
12.224542
 20
100.425612
 30
0.0
 10
12.224542
 20
99.842136
 30
0.0
 10
12.456327
 20
99.282557
 30
0.0
 10
12.868907
 20
98.869977
 30
0.0
  0
SPLINE
  5
167
100
AcDbEntity
  8
Layer_1
 62
1
100
AcDbSpline
 70
8
 71
3
 72
8
 73
4
 74
0
 40
0
 40
0
 40
0
 40
0
 40
1
 40
1
 40
1
 40
1
 10
12.868907
 20
98.869977
 30
0.0
 10
13.281487
 20
98.457397
 30
0.0
 10
13.841066
 20
98.225612
 30
0.0
 10
14.424542
 20
98.225612
 30
0.0
  0
SPLINE
  5
168
100
AcDbEntity
  8
Layer_1
 62
1
100
AcDbSpline
 70
8
 71
3
 72
8
 73
4
 74
0
 40
0
 40
0
 40
0
 40
0
 40
1
 40
1
 40
1
 40
1
 10
14.424542
 20
98.225612
 30
0.0
 10
15.008019
 20
98.225612
 30
0.0
 10
15.567598
 20
98.457397
 30
0.0
 10
15.980178
 20
98.869977
 30
0.0
  0
SPLINE
  5
169
100
AcDbEntity
  8
Layer_1
 62
1
100
AcDbSpline
 70
8
 71
3
 72
8
 73
4
 74
0
 40
0
 40
0
 40
0
 40
0
 40
1
 40
1
 40
1
 40
1
 10
15.980178
 20
98.869977
 30
0.0
 10
16.392758
 20
99.282557
 30
0.0
 10
16.624543
 20
99.842136
 30
0.0
 10
16.624543
 20
100.425612
 30
0.0
  0
LWPOLYLINE
  5
16a
100
AcDbEntity
  8
Layer_1
 62
1
100
AcDbPolyline
 90
1
 70
1
 10
16.624543
 20
10.932605
 30
0.0
  0
SPLINE
  5
16b
100
AcDbEntity
  8
Layer_1
 62
7
100
AcDbSpline
 70
8
 71
3
 72
8
 73
4
 74
0
 40
0
 40
0
 40
0
 40
0
 40
1
 40
1
 40
1
 40
1
 10
129.577022
 20
13.132604
 30
0.0
 10
128.364457
 20
13.129136
 30
0.0
 10
127.383315
 20
12.145183
 30
0.0
 10
127.383315
 20
10.932613
 30
0.0
  0
SPLINE
  5
16c
100
AcDbEntity
  8
Layer_1
 62
7
100
AcDbSpline
 70
8
 71
3
 72
8
 73
4
 74
0
 40
0
 40
0
 40
0
 40
0
 40
1
 40
1
 40
1
 40
1
 10
127.383315
 20
10.932613
 30
0.0
 10
127.383315
 20
9.720043
 30
0.0
 10
128.364457
 20
8.736090
 30
0.0
 10
129.577022
 20
8.732622
 30
0.0
  0
SPLINE
  5
16d
100
AcDbEntity
  8
Layer_1
 62
7
100
AcDbSpline
 70
8
 71
3
 72
8
 73
4
 74
0
 40
0
 40
0
 40
0
 40
0
 40
1
 40
1
 40
1
 40
1
 10
129.577022
 20
8.732622
 30
0.0
 10
130.363007
 20
8.732622
 30
0.0
 10
131.089286
 20
9.151939
 30
0.0
 10
131.482279
 20
9.832622
 30
0.0
  0
SPLINE
  5
16e
100
AcDbEntity
  8
Layer_1
 62
7
100
AcDbSpline
 70
8
 71
3
 72
8
 73
4
 74
0
 40
0
 40
0
 40
0
 40
0
 40
1
 40
1
 40
1
 40
1
 10
131.482279
 20
9.832622
 30
0.0
 10
131.875271
 20
10.513304
 30
0.0
 10
131.875271
 20
11.351940
 30
0.0
 10
131.482279
 20
12.032622
 30
0.0
  0
SPLINE
  5
16f
100
AcDbEntity
  8
Layer_1
 62
7
100
AcDbSpline
 70
8
 71
3
 72
8
 73
4
 74
0
 40
0
 40
0
 40
0
 40
0
 40
1
 40
1
 40
1
 40
1
 10
131.482279
 20
12.032622
 30
0.0
 10
131.089286
 20
12.713305
 30
0.0
 10
130.363007
 20
13.132622
 30
0.0
 10
129.577022
 20
13.132622
 30
0.0
  0
SPLINE
  5
170
100
AcDbEntity
  8
Layer_1
 62
1
100
AcDbSpline
 70
8
 71
3
 72
8
 73
4
 74
0
 40
0
 40
0
 40
0
 40
0
 40
1
 40
1
 40
1
 40
1
 10
246.929503
 20
10.932605
 30
0.0
 10
246.929503
 20
11.516081
 30
0.0
 10
246.697718
 20
12.075660
 30
0.0
 10
246.285137
 20
12.488240
 30
0.0
  0
SPLINE
  5
171
100
AcDbEntity
  8
Layer_1
 62
1
100
AcDbSpline
 70
8
 71
3
 72
8
 73
4
 74
0
 40
0
 40
0
 40
0
 40
0
 40
1
 40
1
 40
1
 40
1
 10
246.285137
 20
12.488240
 30
0.0
 10
245.872557
 20
12.900820
 30
0.0
 10
245.312979
 20
13.132605
 30
0.0
 10
244.729502
 20
13.132605
 30
0.0
  0
SPLINE
  5
172
100
AcDbEntity
  8
Layer_1
 62
1
100
AcDbSpline
 70
8
 71
3
 72
8
 73
4
 74
0
 40
0
 40
0
 40
0
 40
0
 40
1
 40
1
 40
1
 40
1
 10
244.729502
 20
13.132605
 30
0.0
 10
244.146026
 20
13.132605
 30
0.0
 10
243.586447
 20
12.900820
 30
0.0
 10
243.173867
 20
12.488240
 30
0.0
  0
SPLINE
  5
173
100
AcDbEntity
  8
Layer_1
 62
1
100
AcDbSpline
 70
8
 71
3
 72
8
 73
4
 74
0
 40
0
 40
0
 40
0
 40
0
 40
1
 40
1
 40
1
 40
1
 10
243.173867
 20
12.488240
 30
0.0
 10
242.761287
 20
12.075660
 30
0.0
 10
242.529502
 20
11.516081
 30
0.0
 10
242.529502
 20
10.932605
 30
0.0
  0
SPLINE
  5
174
100
AcDbEntity
  8
Layer_1
 62
1
100
AcDbSpline
 70
8
 71
3
 72
8
 73
4
 74
0
 40
0
 40
0
 40
0
 40
0
 40
1
 40
1
 40
1
 40
1
 10
242.529502
 20
10.932605
 30
0.0
 10
242.529502
 20
10.349129
 30
0.0
 10
242.761287
 20
9.789550
 30
0.0
 10
243.173867
 20
9.376970
 30
0.0
  0
SPLINE
  5
175
100
AcDbEntity
  8
Layer_1
 62
1
100
AcDbSpline
 70
8
 71
3
 72
8
 73
4
 74
0
 40
0
 40
0
 40
0
 40
0
 40
1
 40
1
 40
1
 40
1
 10
243.173867
 20
9.376970
 30
0.0
 10
243.586447
 20
8.964390
 30
0.0
 10
244.146026
 20
8.732605
 30
0.0
 10
244.729502
 20
8.732605
 30
0.0
  0
SPLINE
  5
176
100
AcDbEntity
  8
Layer_1
 62
1
100
AcDbSpline
 70
8
 71
3
 72
8
 73
4
 74
0
 40
0
 40
0
 40
0
 40
0
 40
1
 40
1
 40
1
 40
1
 10
244.729502
 20
8.732605
 30
0.0
 10
245.312979
 20
8.732605
 30
0.0
 10
245.872557
 20
8.964390
 30
0.0
 10
246.285137
 20
9.376970
 30
0.0
  0
SPLINE
  5
177
100
AcDbEntity
  8
Layer_1
 62
1
100
AcDbSpline
 70
8
 71
3
 72
8
 73
4
 74
0
 40
0
 40
0
 40
0
 40
0
 40
1
 40
1
 40
1
 40
1
 10
246.285137
 20
9.376970
 30
0.0
 10
246.697718
 20
9.789550
 30
0.0
 10
246.929503
 20
10.349129
 30
0.0
 10
246.929503
 20
10.932605
 30
0.0
  0
LWPOLYLINE
  5
178
100
AcDbEntity
  8
Layer_1
 62
1
100
AcDbPolyline
 90
1
 70
1
 10
16.624543
 20
100.425612
 30
0.0
  0
SPLINE
  5
179
100
AcDbEntity
  8
Layer_1
 62
1
100
AcDbSpline
 70
8
 71
3
 72
8
 73
4
 74
0
 40
0
 40
0
 40
0
 40
0
 40
1
 40
1
 40
1
 40
1
 10
246.929503
 20
100.425612
 30
0.0
 10
246.929503
 20
101.009089
 30
0.0
 10
246.697718
 20
101.568667
 30
0.0
 10
246.285137
 20
101.981248
 30
0.0
  0
SPLINE
  5
17a
100
AcDbEntity
  8
Layer_1
 62
1
100
AcDbSpline
 70
8
 71
3
 72
8
 73
4
 74
0
 40
0
 40
0
 40
0
 40
0
 40
1
 40
1
 40
1
 40
1
 10
246.285137
 20
101.981248
 30
0.0
 10
245.872557
 20
102.393828
 30
0.0
 10
245.312979
 20
102.625613
 30
0.0
 10
244.729502
 20
102.625613
 30
0.0
  0
SPLINE
  5
17b
100
AcDbEntity
  8
Layer_1
 62
1
100
AcDbSpline
 70
8
 71
3
 72
8
 73
4
 74
0
 40
0
 40
0
 40
0
 40
0
 40
1
 40
1
 40
1
 40
1
 10
244.729502
 20
102.625613
 30
0.0
 10
244.146026
 20
102.625613
 30
0.0
 10
243.586447
 20
102.393828
 30
0.0
 10
243.173867
 20
101.981248
 30
0.0
  0
SPLINE
  5
17c
100
AcDbEntity
  8
Layer_1
 62
1
100
AcDbSpline
 70
8
 71
3
 72
8
 73
4
 74
0
 40
0
 40
0
 40
0
 40
0
 40
1
 40
1
 40
1
 40
1
 10
243.173867
 20
101.981248
 30
0.0
 10
242.761287
 20
101.568667
 30
0.0
 10
242.529502
 20
101.009089
 30
0.0
 10
242.529502
 20
100.425612
 30
0.0
  0
SPLINE
  5
17d
100
AcDbEntity
  8
Layer_1
 62
1
100
AcDbSpline
 70
8
 71
3
 72
8
 73
4
 74
0
 40
0
 40
0
 40
0
 40
0
 40
1
 40
1
 40
1
 40
1
 10
242.529502
 20
100.425612
 30
0.0
 10
242.529502
 20
99.842136
 30
0.0
 10
242.761287
 20
99.282557
 30
0.0
 10
243.173867
 20
98.869977
 30
0.0
  0
SPLINE
  5
17e
100
AcDbEntity
  8
Layer_1
 62
1
100
AcDbSpline
 70
8
 71
3
 72
8
 73
4
 74
0
 40
0
 40
0
 40
0
 40
0
 40
1
 40
1
 40
1
 40
1
 10
243.173867
 20
98.869977
 30
0.0
 10
243.586447
 20
98.457397
 30
0.0
 10
244.146026
 20
98.225612
 30
0.0
 10
244.729502
 20
98.225612
 30
0.0
  0
SPLINE
  5
17f
100
AcDbEntity
  8
Layer_1
 62
1
100
AcDbSpline
 70
8
 71
3
 72
8
 73
4
 74
0
 40
0
 40
0
 40
0
 40
0
 40
1
 40
1
 40
1
 40
1
 10
244.729502
 20
98.225612
 30
0.0
 10
245.312979
 20
98.225612
 30
0.0
 10
245.872557
 20
98.457397
 30
0.0
 10
246.285137
 20
98.869977
 30
0.0
  0
SPLINE
  5
180
100
AcDbEntity
  8
Layer_1
 62
1
100
AcDbSpline
 70
8
 71
3
 72
8
 73
4
 74
0
 40
0
 40
0
 40
0
 40
0
 40
1
 40
1
 40
1
 40
1
 10
246.285137
 20
98.869977
 30
0.0
 10
246.697718
 20
99.282557
 30
0.0
 10
246.929503
 20
99.842136
 30
0.0
 10
246.929503
 20
100.425612
 30
0.0
  0
LWPOLYLINE
  5
181
100
AcDbEntity
  8
Layer_1
 62
1
100
AcDbPolyline
 90
1
 70
1
 10
246.929503
 20
10.932605
 30
0.0
  0
SPLINE
  5
182
100
AcDbEntity
  8
Layer_1
 62
1
100
AcDbSpline
 70
8
 71
3
 72
8
 73
4
 74
0
 40
0
 40
0
 40
0
 40
0
 40
1
 40
1
 40
1
 40
1
 10
96.777017
 20
100.425612
 30
0.0
 10
96.777017
 20
101.009089
 30
0.0
 10
96.545232
 20
101.568667
 30
0.0
 10
96.132652
 20
101.981248
 30
0.0
  0
SPLINE
  5
183
100
AcDbEntity
  8
Layer_1
 62
1
100
AcDbSpline
 70
8
 71
3
 72
8
 73
4
 74
0
 40
0
 40
0
 40
0
 40
0
 40
1
 40
1
 40
1
 40
1
 10
96.132652
 20
101.981248
 30
0.0
 10
95.720071
 20
102.393828
 30
0.0
 10
95.160493
 20
102.625613
 30
0.0
 10
94.577016
 20
102.625613
 30
0.0
  0
SPLINE
  5
184
100
AcDbEntity
  8
Layer_1
 62
1
100
AcDbSpline
 70
8
 71
3
 72
8
 73
4
 74
0
 40
0
 40
0
 40
0
 40
0
 40
1
 40
1
 40
1
 40
1
 10
94.577016
 20
102.625613
 30
0.0
 10
93.993540
 20
102.625613
 30
0.0
 10
93.433961
 20
102.393828
 30
0.0
 10
93.021381
 20
101.981248
 30
0.0
  0
SPLINE
  5
185
100
AcDbEntity
  8
Layer_1
 62
1
100
AcDbSpline
 70
8
 71
3
 72
8
 73
4
 74
0
 40
0
 40
0
 40
0
 40
0
 40
1
 40
1
 40
1
 40
1
 10
93.021381
 20
101.981248
 30
0.0
 10
92.608801
 20
101.568667
 30
0.0
 10
92.377016
 20
101.009089
 30
0.0
 10
92.377016
 20
100.425612
 30
0.0
  0
SPLINE
  5
186
100
AcDbEntity
  8
Layer_1
 62
1
100
AcDbSpline
 70
8
 71
3
 72
8
 73
4
 74
0
 40
0
 40
0
 40
0
 40
0
 40
1
 40
1
 40
1
 40
1
 10
92.377016
 20
100.425612
 30
0.0
 10
92.377016
 20
99.842136
 30
0.0
 10
92.608801
 20
99.282557
 30
0.0
 10
93.021381
 20
98.869977
 30
0.0
  0
SPLINE
  5
187
100
AcDbEntity
  8
Layer_1
 62
1
100
AcDbSpline
 70
8
 71
3
 72
8
 73
4
 74
0
 40
0
 40
0
 40
0
 40
0
 40
1
 40
1
 40
1
 40
1
 10
93.021381
 20
98.869977
 30
0.0
 10
93.433961
 20
98.457397
 30
0.0
 10
93.993540
 20
98.225612
 30
0.0
 10
94.577016
 20
98.225612
 30
0.0
  0
SPLINE
  5
188
100
AcDbEntity
  8
Layer_1
 62
1
100
AcDbSpline
 70
8
 71
3
 72
8
 73
4
 74
0
 40
0
 40
0
 40
0
 40
0
 40
1
 40
1
 40
1
 40
1
 10
94.577016
 20
98.225612
 30
0.0
 10
95.160493
 20
98.225612
 30
0.0
 10
95.720071
 20
98.457397
 30
0.0
 10
96.132652
 20
98.869977
 30
0.0
  0
SPLINE
  5
189
100
AcDbEntity
  8
Layer_1
 62
1
100
AcDbSpline
 70
8
 71
3
 72
8
 73
4
 74
0
 40
0
 40
0
 40
0
 40
0
 40
1
 40
1
 40
1
 40
1
 10
96.132652
 20
98.869977
 30
0.0
 10
96.545232
 20
99.282557
 30
0.0
 10
96.777017
 20
99.842136
 30
0.0
 10
96.777017
 20
100.425612
 30
0.0
  0
LWPOLYLINE
  5
18a
100
AcDbEntity
  8
Layer_1
 62
1
100
AcDbPolyline
 90
1
 70
1
 10
246.929503
 20
100.425612
 30
0.0
  0
SPLINE
  5
18b
100
AcDbEntity
  8
Layer_1
 62
1
100
AcDbSpline
 70
8
 71
3
 72
8
 73
4
 74
0
 40
0
 40
0
 40
0
 40
0
 40
1
 40
1
 40
1
 40
1
 10
166.777029
 20
100.425612
 30
0.0
 10
166.777029
 20
101.009089
 30
0.0
 10
166.545244
 20
101.568667
 30
0.0
 10
166.132664
 20
101.981248
 30
0.0
  0
SPLINE
  5
18c
100
AcDbEntity
  8
Layer_1
 62
1
100
AcDbSpline
 70
8
 71
3
 72
8
 73
4
 74
0
 40
0
 40
0
 40
0
 40
0
 40
1
 40
1
 40
1
 40
1
 10
166.132664
 20
101.981248
 30
0.0
 10
165.720083
 20
102.393828
 30
0.0
 10
165.160505
 20
102.625613
 30
0.0
 10
164.577028
 20
102.625613
 30
0.0
  0
SPLINE
  5
18d
100
AcDbEntity
  8
Layer_1
 62
1
100
AcDbSpline
 70
8
 71
3
 72
8
 73
4
 74
0
 40
0
 40
0
 40
0
 40
0
 40
1
 40
1
 40
1
 40
1
 10
164.577028
 20
102.625613
 30
0.0
 10
163.993552
 20
102.625613
 30
0.0
 10
163.433973
 20
102.393828
 30
0.0
 10
163.021393
 20
101.981248
 30
0.0
  0
SPLINE
  5
18e
100
AcDbEntity
  8
Layer_1
 62
1
100
AcDbSpline
 70
8
 71
3
 72
8
 73
4
 74
0
 40
0
 40
0
 40
0
 40
0
 40
1
 40
1
 40
1
 40
1
 10
163.021393
 20
101.981248
 30
0.0
 10
162.608813
 20
101.568667
 30
0.0
 10
162.377028
 20
101.009089
 30
0.0
 10
162.377028
 20
100.425612
 30
0.0
  0
SPLINE
  5
18f
100
AcDbEntity
  8
Layer_1
 62
1
100
AcDbSpline
 70
8
 71
3
 72
8
 73
4
 74
0
 40
0
 40
0
 40
0
 40
0
 40
1
 40
1
 40
1
 40
1
 10
162.377028
 20
100.425612
 30
0.0
 10
162.377028
 20
99.842136
 30
0.0
 10
162.608813
 20
99.282557
 30
0.0
 10
163.021393
 20
98.869977
 30
0.0
  0
SPLINE
  5
190
100
AcDbEntity
  8
Layer_1
 62
1
100
AcDbSpline
 70
8
 71
3
 72
8
 73
4
 74
0
 40
0
 40
0
 40
0
 40
0
 40
1
 40
1
 40
1
 40
1
 10
163.021393
 20
98.869977
 30
0.0
 10
163.433973
 20
98.457397
 30
0.0
 10
163.993552
 20
98.225612
 30
0.0
 10
164.577028
 20
98.225612
 30
0.0
  0
SPLINE
  5
191
100
AcDbEntity
  8
Layer_1
 62
1
100
AcDbSpline
 70
8
 71
3
 72
8
 73
4
 74
0
 40
0
 40
0
 40
0
 40
0
 40
1
 40
1
 40
1
 40
1
 10
164.577028
 20
98.225612
 30
0.0
 10
165.160505
 20
98.225612
 30
0.0
 10
165.720083
 20
98.457397
 30
0.0
 10
166.132664
 20
98.869977
 30
0.0
  0
SPLINE
  5
192
100
AcDbEntity
  8
Layer_1
 62
1
100
AcDbSpline
 70
8
 71
3
 72
8
 73
4
 74
0
 40
0
 40
0
 40
0
 40
0
 40
1
 40
1
 40
1
 40
1
 10
166.132664
 20
98.869977
 30
0.0
 10
166.545244
 20
99.282557
 30
0.0
 10
166.777029
 20
99.842136
 30
0.0
 10
166.777029
 20
100.425612
 30
0.0
  0
LWPOLYLINE
  5
193
100
AcDbEntity
  8
Layer_1
 62
1
100
AcDbPolyline
 90
1
 70
1
 10
96.777017
 20
100.425612
 30
0.0
  0
LWPOLYLINE
  5
194
100
AcDbEntity
  8
Layer_1
 62
1
100
AcDbPolyline
 90
1
 70
1
 10
166.777029
 20
100.425612
 30
0.0
  0
ENDSEC
  0
SECTION
  2
OBJECTS
  0
DICTIONARY
  5
C
330
0
100
AcDbDictionary
  3
ACAD_GROUP
350
D
  3
ACAD_MLINESTYLE
350
17
  0
DICTIONARY
  5
D
330
C
100
AcDbDictionary
  0
DICTIONARY
  5
1A
330
C
100
AcDbDictionary
  0
DICTIONARY
  5
17
330
C
100
AcDbDictionary
  3
STANDARD
350
18
  0
DICTIONARY
  5
19
330
C
100
AcDbDictionary
  0
ENDSEC
  0
EOF
