  0
SECTION
  2
HEADER
  9
$ACADVER
  1
AC1014
  9
$HANDSEED
  5
FFFF
  9
$MEASUREMENT
 70
     1
  0
ENDSEC
  0
SECTION
  2
TABLES
  0
TABLE
  2
VPORT
  5
8
330
0
100
AcDbSymbolTable
 70
     4
  0
VPORT
  5
2E
330
8
100
AcDbSymbolTableRecord
100
AcDbViewportTableRecord
  2
*ACTIVE
 70
     0
 10
0.0
 20
0.0
 11
1.0
 21
1.0
 12
210.0
 22
148.5
 13
0.0
 23
0.0
 14
10.0
 24
10.0
 15
10.0
 25
10.0
 16
0.0
 26
0.0
 36
1.0
 17
0.0
 27
0.0
 37
0.0
 40
341.0
 41
1.24
 42
50.0
 43
0.0
 44
0.0
 50
0.0
 51
0.0
 71
     0
 72
   100
 73
     1
 74
     3
 75
     0
 76
     0
 77
     0
 78
     0
  0
ENDTAB
  0
TABLE
  2
LTYPE
  5
5
330
0
100
AcDbSymbolTable
 70
     1
  0
LTYPE
  5
14
330
5
100
AcDbSymbolTableRecord
100
AcDbLinetypeTableRecord
  2
BYBLOCK
 70
     0
  3

 72
    65
 73
     0
 40
0.0
  0
LTYPE
  5
15
330
5
100
AcDbSymbolTableRecord
100
AcDbLinetypeTableRecord
  2
BYLAYER
 70
     0
  3

 72
    65
 73
     0
 40
0.0
  0
LTYPE
  5
16
330
5
100
AcDbSymbolTableRecord
100
AcDbLinetypeTableRecord
  2
CONTINUOUS
 70
     0
  3
Solid line
 72
    65
 73
     0
 40
0.0
  0
ENDTAB
  0
TABLE
  2
LAYER
  5
2
100
AcDbSymbolTable
 70
2
  0
LAYER
  5
50
100
AcDbSymbolTableRecord
100
AcDbLayerTableRecord
  2
0
 70
0
  6
CONTINUOUS
  0
LAYER
  5
51
100
AcDbSymbolTableRecord
100
AcDbLayerTableRecord
  2
Layer_1
 70
0
  6
CONTINUOUS
  0
ENDTAB
  0
TABLE
  2
STYLE
  5
3
330
0
100
AcDbSymbolTable
 70
     1
  0
STYLE
  5
11
330
3
100
AcDbSymbolTableRecord
100
AcDbTextStyleTableRecord
  2
STANDARD
 70
     0
 40
0.0
 41
1.0
 50
0.0
 71
     0
 42
2.5
  3
txt
  4

  0
ENDTAB
  0
TABLE
  2
VIEW
  5
6
330
0
100
AcDbSymbolTable
 70
     0
  0
ENDTAB
  0
TABLE
  2
UCS
  5
7
330
0
100
AcDbSymbolTable
 70
     0
  0
ENDTAB
  0
TABLE
  2
APPID
  5
9
330
0
100
AcDbSymbolTable
 70
     2
  0
APPID
  5
12
330
9
100
AcDbSymbolTableRecord
100
AcDbRegAppTableRecord
  2
ACAD
 70
     0
  0
ENDTAB
  0
TABLE
  2
DIMSTYLE
  5
A
330
0
100
AcDbSymbolTable
 70
     1
  0
DIMSTYLE
105
27
330
A
100
AcDbSymbolTableRecord
100
AcDbDimStyleTableRecord
  2
ISO-25
 70
     0
  3

  4

  5

  6

  7

 40
1.0
 41
2.5
 42
0.625
 43
3.75
 44
1.25
 45
0.0
 46
0.0
 47
0.0
 48
0.0
140
2.5
141
2.5
142
0.0
143
0.03937007874016
144
1.0
145
0.0
146
1.0
147
0.625
 71
     0
 72
     0
 73
     0
 74
     0
 75
     0
 76
     0
 77
     1
 78
     8
170
     0
171
     3
172
     1
173
     0
174
     0
175
     0
176
     0
177
     0
178
     0
270
     2
271
     2
272
     2
273
     2
274
     3
340
11
275
     0
280
     0
281
     0
282
     0
283
     0
284
     8
285
     0
286
     0
287
     3
288
     0
  0
ENDTAB
  0
TABLE
  2
BLOCK_RECORD
  5
1
330
0
100
AcDbSymbolTable
 70
     1
  0
BLOCK_RECORD
  5
1F
330
1
100
AcDbSymbolTableRecord
100
AcDbBlockTableRecord
  2
*MODEL_SPACE
  0
BLOCK_RECORD
  5
1B
330
1
100
AcDbSymbolTableRecord
100
AcDbBlockTableRecord
  2
*PAPER_SPACE
  0
ENDTAB
  0
ENDSEC
  0
SECTION
  2
BLOCKS
  0
BLOCK
  5
20
330
1F
100
AcDbEntity
  8
0
100
AcDbBlockBegin
  2
*MODEL_SPACE
 70
     0
 10
0.0
 20
0.0
 30
0.0
  3
*MODEL_SPACE
  1

  0
ENDBLK
  5
21
330
1F
100
AcDbEntity
  8
0
100
AcDbBlockEnd
  0
BLOCK
  5
1C
330
1B
100
AcDbEntity
 67
     1
  8
0
100
AcDbBlockBegin
  2
*PAPER_SPACE
  1

  0
ENDBLK
  5
1D
330
1B
100
AcDbEntity
 67
     1
  8
0
100
AcDbBlockEnd
  0
ENDSEC
  0
SECTION
  2
ENTITIES
  0
SPLINE
  5
100
100
AcDbEntity
  8
Layer_1
 62
7
100
AcDbSpline
 70
8
 71
3
 72
8
 73
4
 74
0
 40
0
 40
0
 40
0
 40
0
 40
1
 40
1
 40
1
 40
1
 10
11.925442
 20
5.182603
 30
0.0
 10
8.197691
 20
5.182857
 30
0.0
 10
5.175891
 20
8.204872
 30
0.0
 10
5.175901
 20
11.932622
 30
0.0
  0
LWPOLYLINE
  5
101
100
AcDbEntity
  8
Layer_1
 62
7
100
AcDbPolyline
 90
2
 70
0
 10
247.230403
 20
5.182603
 30
0.0
 10
11.925442
 20
5.182603
 30
0.0
  0
SPLINE
  5
102
100
AcDbEntity
  8
Layer_1
 62
7
100
AcDbSpline
 70
8
 71
3
 72
8
 73
4
 74
0
 40
0
 40
0
 40
0
 40
0
 40
1
 40
1
 40
1
 40
1
 10
5.175441
 20
103.925613
 30
0.0
 10
5.175431
 20
107.653725
 30
0.0
 10
8.197791
 20
110.675893
 30
0.0
 10
11.925902
 20
110.675639
 30
0.0
  0
LWPOLYLINE
  5
103
100
AcDbEntity
  8
Layer_1
 62
7
100
AcDbPolyline
 90
2
 70
0
 10
5.175901
 20
11.932622
 30
0.0
 10
5.175441
 20
103.925613
 30
0.0
  0
SPLINE
  5
104
100
AcDbEntity
  8
Layer_1
 62
7
100
AcDbSpline
 70
8
 71
3
 72
8
 73
4
 74
0
 40
0
 40
0
 40
0
 40
0
 40
1
 40
1
 40
1
 40
1
 10
119.041959
 20
110.675614
 30
0.0
 10
120.836875
 20
110.675615
 30
0.0
 10
122.291947
 20
109.220555
 30
0.0
 10
122.291961
 20
107.425639
 30
0.0
  0
LWPOLYLINE
  5
105
100
AcDbEntity
  8
Layer_1
 62
7
100
AcDbPolyline
 90
2
 70
0
 10
11.925902
 20
110.675639
 30
0.0
 10
119.041959
 20
110.675614
 30
0.0
  0
SPLINE
  5
106
100
AcDbEntity
  8
Layer_1
 62
7
100
AcDbSpline
 70
8
 71
3
 72
8
 73
4
 74
0
 40
0
 40
0
 40
0
 40
0
 40
1
 40
1
 40
1
 40
1
 10
122.291959
 20
95.836269
 30
0.0
 10
122.291945
 20
94.785185
 30
0.0
 10
121.371929
 20
93.971237
 30
0.0
 10
120.328681
 20
94.099336
 30
0.0
  0
LWPOLYLINE
  5
107
100
AcDbEntity
  8
Layer_1
 62
7
100
AcDbPolyline
 90
2
 70
0
 10
122.291961
 20
107.425639
 30
0.0
 10
122.291959
 20
95.836269
 30
0.0
  0
SPLINE
  5
108
100
AcDbEntity
  8
Layer_1
 62
7
100
AcDbSpline
 70
8
 71
3
 72
8
 73
4
 74
0
 40
0
 40
0
 40
0
 40
0
 40
1
 40
1
 40
1
 40
1
 10
82.001369
 20
99.759545
 30
0.0
 10
81.864346
 20
99.776385
 30
0.0
 10
81.767956
 20
99.900990
 30
0.0
 10
81.783742
 20
100.038138
 30
0.0
  0
LWPOLYLINE
  5
109
100
AcDbEntity
  8
Layer_1
 62
7
100
AcDbPolyline
 90
3
 70
0
 10
120.328681
 20
94.099336
 30
0.0
 10
93.111418
 20
97.656937
 30
0.0
 10
82.001369
 20
99.759545
 30
0.0
  0
SPLINE
  5
10a
100
AcDbEntity
  8
Layer_1
 62
7
100
AcDbSpline
 70
8
 71
3
 72
8
 73
4
 74
0
 40
0
 40
0
 40
0
 40
0
 40
1
 40
1
 40
1
 40
1
 10
81.991039
 20
101.839166
 30
0.0
 10
82.101556
 20
102.799356
 30
0.0
 10
81.426641
 20
103.671667
 30
0.0
 10
80.467314
 20
103.789438
 30
0.0
  0
LWPOLYLINE
  5
10b
100
AcDbEntity
  8
Layer_1
 62
7
100
AcDbPolyline
 90
2
 70
0
 10
81.783742
 20
100.038138
 30
0.0
 10
81.991039
 20
101.839166
 30
0.0
  0
SPLINE
  5
10c
100
AcDbEntity
  8
Layer_1
 62
7
100
AcDbSpline
 70
8
 71
3
 72
8
 73
4
 74
0
 40
0
 40
0
 40
0
 40
0
 40
1
 40
1
 40
1
 40
1
 10
58.631327
 20
106.470525
 30
0.0
 10
57.672036
 20
106.588305
 30
0.0
 10
56.798895
 20
105.906129
 30
0.0
 10
56.681110
 20
104.946838
 30
0.0
  0
LWPOLYLINE
  5
10d
100
AcDbEntity
  8
Layer_1
 62
7
100
AcDbPolyline
 90
2
 70
0
 10
80.467314
 20
103.789438
 30
0.0
 10
58.631327
 20
106.470525
 30
0.0
  0
SPLINE
  5
10e
100
AcDbEntity
  8
Layer_1
 62
7
100
AcDbSpline
 70
8
 71
3
 72
8
 73
4
 74
0
 40
0
 40
0
 40
0
 40
0
 40
1
 40
1
 40
1
 40
1
 10
56.344735
 20
102.207408
 30
0.0
 10
56.327915
 20
102.070355
 30
0.0
 10
56.203161
 20
101.972896
 30
0.0
 10
56.066110
 20
101.989738
 30
0.0
  0
LWPOLYLINE
  5
10f
100
AcDbEntity
  8
Layer_1
 62
7
100
AcDbPolyline
 90
2
 70
0
 10
56.681110
 20
104.946838
 30
0.0
 10
56.344735
 20
102.207408
 30
0.0
  0
SPLINE
  5
110
100
AcDbEntity
  8
Layer_1
 62
7
100
AcDbSpline
 70
8
 71
3
 72
8
 73
4
 74
0
 40
0
 40
0
 40
0
 40
0
 40
1
 40
1
 40
1
 40
1
 10
39.143221
 20
104.067612
 30
0.0
 10
38.183935
 20
104.185391
 30
0.0
 10
37.310798
 20
103.503222
 30
0.0
 10
37.193006
 20
102.543938
 30
0.0
  0
LWPOLYLINE
  5
111
100
AcDbEntity
  8
Layer_1
 62
7
100
AcDbPolyline
 90
2
 70
0
 10
56.066110
 20
101.989738
 30
0.0
 10
39.143221
 20
104.067612
 30
0.0
  0
SPLINE
  5
112
100
AcDbEntity
  8
Layer_1
 62
7
100
AcDbSpline
 70
8
 71
3
 72
8
 73
4
 74
0
 40
0
 40
0
 40
0
 40
0
 40
1
 40
1
 40
1
 40
1
 10
36.856632
 20
99.804498
 30
0.0
 10
36.839802
 20
99.667449
 30
0.0
 10
36.715053
 20
99.569996
 30
0.0
 10
36.578006
 20
99.586837
 30
0.0
  0
LWPOLYLINE
  5
113
100
AcDbEntity
  8
Layer_1
 62
7
100
AcDbPolyline
 90
2
 70
0
 10
37.193006
 20
102.543938
 30
0.0
 10
36.856632
 20
99.804498
 30
0.0
  0
SPLINE
  5
114
100
AcDbEntity
  8
Layer_1
 62
7
100
AcDbSpline
 70
8
 71
3
 72
8
 73
4
 74
0
 40
0
 40
0
 40
0
 40
0
 40
1
 40
1
 40
1
 40
1
 10
19.655123
 20
101.664700
 30
0.0
 10
18.695843
 20
101.782483
 30
0.0
 10
17.822703
 20
101.100319
 30
0.0
 10
17.704903
 20
100.141037
 30
0.0
  0
LWPOLYLINE
  5
115
100
AcDbEntity
  8
Layer_1
 62
7
100
AcDbPolyline
 90
2
 70
0
 10
36.578006
 20
99.586837
 30
0.0
 10
19.655123
 20
101.664700
 30
0.0
  0
SPLINE
  5
116
100
AcDbEntity
  8
Layer_1
 62
7
100
AcDbSpline
 70
8
 71
3
 72
8
 73
4
 74
0
 40
0
 40
0
 40
0
 40
0
 40
1
 40
1
 40
1
 40
1
 10
10.380542
 20
40.488988
 30
0.0
 10
10.262732
 20
39.529794
 30
0.0
 10
10.944722
 20
38.656676
 30
0.0
 10
11.903902
 20
38.538727
 30
0.0
  0
LWPOLYLINE
  5
117
100
AcDbEntity
  8
Layer_1
 62
7
100
AcDbPolyline
 90
2
 70
0
 10
17.704903
 20
100.141037
 30
0.0
 10
10.380542
 20
40.488988
 30
0.0
  0
SPLINE
  5
118
100
AcDbEntity
  8
Layer_1
 62
7
100
AcDbSpline
 70
8
 71
3
 72
8
 73
4
 74
0
 40
0
 40
0
 40
0
 40
0
 40
1
 40
1
 40
1
 40
1
 10
42.394005
 20
34.795081
 30
0.0
 10
42.531039
 20
34.778271
 30
0.0
 10
42.628504
 20
34.653562
 30
0.0
 10
42.611707
 20
34.516526
 30
0.0
  0
LWPOLYLINE
  5
119
100
AcDbEntity
  8
Layer_1
 62
7
100
AcDbPolyline
 90
2
 70
0
 10
11.903902
 20
38.538727
 30
0.0
 10
42.394005
 20
34.795081
 30
0.0
  0
SPLINE
  5
11a
100
AcDbEntity
  8
Layer_1
 62
7
100
AcDbSpline
 70
8
 71
3
 72
8
 73
4
 74
0
 40
0
 40
0
 40
0
 40
0
 40
1
 40
1
 40
1
 40
1
 10
41.113900
 20
22.318083
 30
0.0
 10
40.996095
 20
21.358769
 30
0.0
 10
41.678290
 20
20.485599
 30
0.0
 10
42.637607
 20
20.367824
 30
0.0
  0
LWPOLYLINE
  5
11b
100
AcDbEntity
  8
Layer_1
 62
7
100
AcDbPolyline
 90
2
 70
0
 10
42.611707
 20
34.516526
 30
0.0
 10
41.113900
 20
22.318083
 30
0.0
  0
SPLINE
  5
11c
100
AcDbEntity
  8
Layer_1
 62
7
100
AcDbSpline
 70
8
 71
3
 72
8
 73
4
 74
0
 40
0
 40
0
 40
0
 40
0
 40
1
 40
1
 40
1
 40
1
 10
216.518259
 20
20.367856
 30
0.0
 10
217.477570
 20
20.485645
 30
0.0
 10
218.159749
 20
21.358817
 30
0.0
 10
218.041938
 20
22.318124
 30
0.0
  0
LWPOLYLINE
  5
11d
100
AcDbEntity
  8
Layer_1
 62
7
100
AcDbPolyline
 90
10
 70
0
 10
42.637607
 20
20.367824
 30
0.0
 10
105.077918
 20
12.701142
 30
0.0
 10
105.077918
 20
34.514056
 30
0.0
 10
109.077919
 20
34.514056
 30
0.0
 10
109.077919
 20
14.514053
 30
0.0
 10
150.077926
 20
14.514053
 30
0.0
 10
150.077926
 20
34.514056
 30
0.0
 10
154.077927
 20
34.514056
 30
0.0
 10
154.077927
 20
12.701142
 30
0.0
 10
216.518259
 20
20.367856
 30
0.0
  0
SPLINE
  5
11e
100
AcDbEntity
  8
Layer_1
 62
7
100
AcDbSpline
 70
8
 71
3
 72
8
 73
4
 74
0
 40
0
 40
0
 40
0
 40
0
 40
1
 40
1
 40
1
 40
1
 10
216.544169
 20
34.516477
 30
0.0
 10
216.527319
 20
34.653535
 30
0.0
 10
216.624779
 20
34.778299
 30
0.0
 10
216.761837
 20
34.795126
 30
0.0
  0
LWPOLYLINE
  5
11f
100
AcDbEntity
  8
Layer_1
 62
7
100
AcDbPolyline
 90
2
 70
0
 10
218.041938
 20
22.318124
 30
0.0
 10
216.544169
 20
34.516477
 30
0.0
  0
SPLINE
  5
120
100
AcDbEntity
  8
Layer_1
 62
7
100
AcDbSpline
 70
8
 71
3
 72
8
 73
4
 74
0
 40
0
 40
0
 40
0
 40
0
 40
1
 40
1
 40
1
 40
1
 10
247.251613
 20
38.538755
 30
0.0
 10
248.210783
 20
38.656719
 30
0.0
 10
248.892763
 20
39.529839
 30
0.0
 10
248.774943
 20
40.489027
 30
0.0
  0
LWPOLYLINE
  5
121
100
AcDbEntity
  8
Layer_1
 62
7
100
AcDbPolyline
 90
2
 70
0
 10
216.761837
 20
34.795126
 30
0.0
 10
247.251613
 20
38.538755
 30
0.0
  0
SPLINE
  5
122
100
AcDbEntity
  8
Layer_1
 62
7
100
AcDbSpline
 70
8
 71
3
 72
8
 73
4
 74
0
 40
0
 40
0
 40
0
 40
0
 40
1
 40
1
 40
1
 40
1
 10
241.450962
 20
100.141010
 30
0.0
 10
241.333192
 20
101.100230
 30
0.0
 10
240.460172
 20
101.782400
 30
0.0
 10
239.500941
 20
101.664738
 30
0.0
  0
LWPOLYLINE
  5
123
100
AcDbEntity
  8
Layer_1
 62
7
100
AcDbPolyline
 90
2
 70
0
 10
248.774943
 20
40.489027
 30
0.0
 10
241.450962
 20
100.141010
 30
0.0
  0
SPLINE
  5
124
100
AcDbEntity
  8
Layer_1
 62
7
100
AcDbSpline
 70
8
 71
3
 72
8
 73
4
 74
0
 40
0
 40
0
 40
0
 40
0
 40
1
 40
1
 40
1
 40
1
 10
222.577814
 20
99.586830
 30
0.0
 10
222.440769
 20
99.570020
 30
0.0
 10
222.316046
 20
99.667490
 30
0.0
 10
222.299238
 20
99.804537
 30
0.0
  0
LWPOLYLINE
  5
125
100
AcDbEntity
  8
Layer_1
 62
7
100
AcDbPolyline
 90
2
 70
0
 10
239.500941
 20
101.664738
 30
0.0
 10
222.577814
 20
99.586830
 30
0.0
  0
SPLINE
  5
126
100
AcDbEntity
  8
Layer_1
 62
7
100
AcDbSpline
 70
8
 71
3
 72
8
 73
4
 74
0
 40
0
 40
0
 40
0
 40
0
 40
1
 40
1
 40
1
 40
1
 10
221.962853
 20
102.543927
 30
0.0
 10
221.845080
 20
103.503227
 30
0.0
 10
220.971937
 20
104.185417
 30
0.0
 10
220.012638
 20
104.067638
 30
0.0
  0
LWPOLYLINE
  5
127
100
AcDbEntity
  8
Layer_1
 62
7
100
AcDbPolyline
 90
2
 70
0
 10
222.299238
 20
99.804537
 30
0.0
 10
221.962853
 20
102.543927
 30
0.0
  0
SPLINE
  5
128
100
AcDbEntity
  8
Layer_1
 62
7
100
AcDbSpline
 70
8
 71
3
 72
8
 73
4
 74
0
 40
0
 40
0
 40
0
 40
0
 40
1
 40
1
 40
1
 40
1
 10
203.089709
 20
101.989744
 30
0.0
 10
202.952669
 20
101.972934
 30
0.0
 10
202.827947
 20
102.070394
 30
0.0
 10
202.811135
 20
102.207438
 30
0.0
  0
LWPOLYLINE
  5
129
100
AcDbEntity
  8
Layer_1
 62
7
100
AcDbPolyline
 90
2
 70
0
 10
220.012638
 20
104.067638
 30
0.0
 10
203.089709
 20
101.989744
 30
0.0
  0
SPLINE
  5
12a
100
AcDbEntity
  8
Layer_1
 62
7
100
AcDbSpline
 70
8
 71
3
 72
8
 73
4
 74
0
 40
0
 40
0
 40
0
 40
0
 40
1
 40
1
 40
1
 40
1
 10
202.474751
 20
104.946836
 30
0.0
 10
202.356973
 20
105.906132
 30
0.0
 10
201.483831
 20
106.588317
 30
0.0
 10
200.524535
 20
106.470538
 30
0.0
  0
LWPOLYLINE
  5
12b
100
AcDbEntity
  8
Layer_1
 62
7
100
AcDbPolyline
 90
2
 70
0
 10
202.811135
 20
102.207438
 30
0.0
 10
202.474751
 20
104.946836
 30
0.0
  0
SPLINE
  5
12c
100
AcDbEntity
  8
Layer_1
 62
7
100
AcDbSpline
 70
8
 71
3
 72
8
 73
4
 74
0
 40
0
 40
0
 40
0
 40
0
 40
1
 40
1
 40
1
 40
1
 10
178.688498
 20
103.789403
 30
0.0
 10
177.729197
 20
103.671603
 30
0.0
 10
177.047027
 20
102.798438
 30
0.0
 10
177.164831
 20
101.839138
 30
0.0
  0
LWPOLYLINE
  5
12d
100
AcDbEntity
  8
Layer_1
 62
7
100
AcDbPolyline
 90
2
 70
0
 10
200.524535
 20
106.470538
 30
0.0
 10
178.688498
 20
103.789403
 30
0.0
  0
SPLINE
  5
12e
100
AcDbEntity
  8
Layer_1
 62
7
100
AcDbSpline
 70
8
 71
3
 72
8
 73
4
 74
0
 40
0
 40
0
 40
0
 40
0
 40
1
 40
1
 40
1
 40
1
 10
177.501165
 20
99.099737
 30
0.0
 10
177.517995
 20
98.962707
 30
0.0
 10
177.420565
 20
98.837977
 30
0.0
 10
177.283531
 20
98.821137
 30
0.0
  0
LWPOLYLINE
  5
12f
100
AcDbEntity
  8
Layer_1
 62
7
100
AcDbPolyline
 90
2
 70
0
 10
177.164831
 20
101.839138
 30
0.0
 10
177.501165
 20
99.099737
 30
0.0
  0
SPLINE
  5
130
100
AcDbEntity
  8
Layer_1
 62
7
100
AcDbSpline
 70
8
 71
3
 72
8
 73
4
 74
0
 40
0
 40
0
 40
0
 40
0
 40
1
 40
1
 40
1
 40
1
 10
138.827163
 20
94.099307
 30
0.0
 10
137.783915
 20
93.971208
 30
0.0
 10
136.863899
 20
94.785153
 30
0.0
 10
136.863884
 20
95.836237
 30
0.0
  0
LWPOLYLINE
  5
131
100
AcDbEntity
  8
Layer_1
 62
7
100
AcDbPolyline
 90
2
 70
0
 10
177.283531
 20
98.821137
 30
0.0
 10
138.827163
 20
94.099307
 30
0.0
  0
SPLINE
  5
132
100
AcDbEntity
  8
Layer_1
 62
7
100
AcDbSpline
 70
8
 71
3
 72
8
 73
4
 74
0
 40
0
 40
0
 40
0
 40
0
 40
1
 40
1
 40
1
 40
1
 10
136.863886
 20
107.425614
 30
0.0
 10
136.863872
 20
109.220564
 30
0.0
 10
138.318974
 20
110.675660
 30
0.0
 10
140.113924
 20
110.675639
 30
0.0
  0
LWPOLYLINE
  5
133
100
AcDbEntity
  8
Layer_1
 62
7
100
AcDbPolyline
 90
2
 70
0
 10
136.863884
 20
95.836237
 30
0.0
 10
136.863886
 20
107.425614
 30
0.0
  0
SPLINE
  5
134
100
AcDbEntity
  8
Layer_1
 62
7
100
AcDbSpline
 70
8
 71
3
 72
8
 73
4
 74
0
 40
0
 40
0
 40
0
 40
0
 40
1
 40
1
 40
1
 40
1
 10
247.230403
 20
110.675614
 30
0.0
 10
250.958133
 20
110.675360
 30
0.0
 10
253.979934
 20
107.653372
 30
0.0
 10
253.979944
 20
103.925638
 30
0.0
  0
LWPOLYLINE
  5
135
100
AcDbEntity
  8
Layer_1
 62
7
100
AcDbPolyline
 90
2
 70
0
 10
140.113924
 20
110.675639
 30
0.0
 10
247.230403
 20
110.675614
 30
0.0
  0
SPLINE
  5
136
100
AcDbEntity
  8
Layer_1
 62
7
100
AcDbSpline
 70
8
 71
3
 72
8
 73
4
 74
0
 40
0
 40
0
 40
0
 40
0
 40
1
 40
1
 40
1
 40
1
 10
253.980404
 20
11.932604
 30
0.0
 10
253.980394
 20
8.204508
 30
0.0
 10
250.958033
 20
5.182367
 30
0.0
 10
247.229943
 20
5.182621
 30
0.0
  0
SPLINE
  5
137
100
AcDbEntity
  8
Layer_1
 62
1
100
AcDbSpline
 70
8
 71
3
 72
8
 73
4
 74
0
 40
0
 40
0
 40
0
 40
0
 40
1
 40
1
 40
1
 40
1
 10
16.125443
 20
10.932605
 30
0.0
 10
16.125443
 20
11.383473
 30
0.0
 10
15.946336
 20
11.815875
 30
0.0
 10
15.627524
 20
12.134687
 30
0.0
  0
SPLINE
  5
138
100
AcDbEntity
  8
Layer_1
 62
1
100
AcDbSpline
 70
8
 71
3
 72
8
 73
4
 74
0
 40
0
 40
0
 40
0
 40
0
 40
1
 40
1
 40
1
 40
1
 10
15.627524
 20
12.134687
 30
0.0
 10
15.308712
 20
12.453499
 30
0.0
 10
14.876311
 20
12.632605
 30
0.0
 10
14.425442
 20
12.632605
 30
0.0
  0
SPLINE
  5
139
100
AcDbEntity
  8
Layer_1
 62
1
100
AcDbSpline
 70
8
 71
3
 72
8
 73
4
 74
0
 40
0
 40
0
 40
0
 40
0
 40
1
 40
1
 40
1
 40
1
 10
14.425442
 20
12.632605
 30
0.0
 10
13.974574
 20
12.632605
 30
0.0
 10
13.542173
 20
12.453499
 30
0.0
 10
13.223361
 20
12.134687
 30
0.0
  0
SPLINE
  5
13a
100
AcDbEntity
  8
Layer_1
 62
1
100
AcDbSpline
 70
8
 71
3
 72
8
 73
4
 74
0
 40
0
 40
0
 40
0
 40
0
 40
1
 40
1
 40
1
 40
1
 10
13.223361
 20
12.134687
 30
0.0
 10
12.904549
 20
11.815875
 30
0.0
 10
12.725442
 20
11.383473
 30
0.0
 10
12.725442
 20
10.932605
 30
0.0
  0
SPLINE
  5
13b
100
AcDbEntity
  8
Layer_1
 62
1
100
AcDbSpline
 70
8
 71
3
 72
8
 73
4
 74
0
 40
0
 40
0
 40
0
 40
0
 40
1
 40
1
 40
1
 40
1
 10
12.725442
 20
10.932605
 30
0.0
 10
12.725442
 20
10.481737
 30
0.0
 10
12.904549
 20
10.049335
 30
0.0
 10
13.223361
 20
9.730523
 30
0.0
  0
SPLINE
  5
13c
100
AcDbEntity
  8
Layer_1
 62
1
100
AcDbSpline
 70
8
 71
3
 72
8
 73
4
 74
0
 40
0
 40
0
 40
0
 40
0
 40
1
 40
1
 40
1
 40
1
 10
13.223361
 20
9.730523
 30
0.0
 10
13.542173
 20
9.411711
 30
0.0
 10
13.974574
 20
9.232605
 30
0.0
 10
14.425442
 20
9.232605
 30
0.0
  0
SPLINE
  5
13d
100
AcDbEntity
  8
Layer_1
 62
1
100
AcDbSpline
 70
8
 71
3
 72
8
 73
4
 74
0
 40
0
 40
0
 40
0
 40
0
 40
1
 40
1
 40
1
 40
1
 10
14.425442
 20
9.232605
 30
0.0
 10
14.876311
 20
9.232605
 30
0.0
 10
15.308712
 20
9.411711
 30
0.0
 10
15.627524
 20
9.730523
 30
0.0
  0
SPLINE
  5
13e
100
AcDbEntity
  8
Layer_1
 62
1
100
AcDbSpline
 70
8
 71
3
 72
8
 73
4
 74
0
 40
0
 40
0
 40
0
 40
0
 40
1
 40
1
 40
1
 40
1
 10
15.627524
 20
9.730523
 30
0.0
 10
15.946336
 20
10.049335
 30
0.0
 10
16.125443
 20
10.481737
 30
0.0
 10
16.125443
 20
10.932605
 30
0.0
  0
LWPOLYLINE
  5
13f
100
AcDbEntity
  8
Layer_1
 62
7
100
AcDbPolyline
 90
2
 70
0
 10
253.979944
 20
103.925638
 30
0.0
 10
253.980404
 20
11.932604
 30
0.0
  0
SPLINE
  5
140
100
AcDbEntity
  8
Layer_1
 62
1
100
AcDbSpline
 70
8
 71
3
 72
8
 73
4
 74
0
 40
0
 40
0
 40
0
 40
0
 40
1
 40
1
 40
1
 40
1
 10
96.277917
 20
100.425612
 30
0.0
 10
96.277917
 20
100.876480
 30
0.0
 10
96.098810
 20
101.308882
 30
0.0
 10
95.779998
 20
101.627694
 30
0.0
  0
SPLINE
  5
141
100
AcDbEntity
  8
Layer_1
 62
1
100
AcDbSpline
 70
8
 71
3
 72
8
 73
4
 74
0
 40
0
 40
0
 40
0
 40
0
 40
1
 40
1
 40
1
 40
1
 10
95.779998
 20
101.627694
 30
0.0
 10
95.461186
 20
101.946506
 30
0.0
 10
95.028784
 20
102.125613
 30
0.0
 10
94.577916
 20
102.125613
 30
0.0
  0
SPLINE
  5
142
100
AcDbEntity
  8
Layer_1
 62
1
100
AcDbSpline
 70
8
 71
3
 72
8
 73
4
 74
0
 40
0
 40
0
 40
0
 40
0
 40
1
 40
1
 40
1
 40
1
 10
94.577916
 20
102.125613
 30
0.0
 10
94.127048
 20
102.125613
 30
0.0
 10
93.694646
 20
101.946506
 30
0.0
 10
93.375835
 20
101.627694
 30
0.0
  0
SPLINE
  5
143
100
AcDbEntity
  8
Layer_1
 62
1
100
AcDbSpline
 70
8
 71
3
 72
8
 73
4
 74
0
 40
0
 40
0
 40
0
 40
0
 40
1
 40
1
 40
1
 40
1
 10
93.375835
 20
101.627694
 30
0.0
 10
93.057023
 20
101.308882
 30
0.0
 10
92.877916
 20
100.876480
 30
0.0
 10
92.877916
 20
100.425612
 30
0.0
  0
SPLINE
  5
144
100
AcDbEntity
  8
Layer_1
 62
1
100
AcDbSpline
 70
8
 71
3
 72
8
 73
4
 74
0
 40
0
 40
0
 40
0
 40
0
 40
1
 40
1
 40
1
 40
1
 10
92.877916
 20
100.425612
 30
0.0
 10
92.877916
 20
99.974744
 30
0.0
 10
93.057023
 20
99.542343
 30
0.0
 10
93.375835
 20
99.223531
 30
0.0
  0
SPLINE
  5
145
100
AcDbEntity
  8
Layer_1
 62
1
100
AcDbSpline
 70
8
 71
3
 72
8
 73
4
 74
0
 40
0
 40
0
 40
0
 40
0
 40
1
 40
1
 40
1
 40
1
 10
93.375835
 20
99.223531
 30
0.0
 10
93.694646
 20
98.904719
 30
0.0
 10
94.127048
 20
98.725612
 30
0.0
 10
94.577916
 20
98.725612
 30
0.0
  0
SPLINE
  5
146
100
AcDbEntity
  8
Layer_1
 62
1
100
AcDbSpline
 70
8
 71
3
 72
8
 73
4
 74
0
 40
0
 40
0
 40
0
 40
0
 40
1
 40
1
 40
1
 40
1
 10
94.577916
 20
98.725612
 30
0.0
 10
95.028784
 20
98.725612
 30
0.0
 10
95.461186
 20
98.904719
 30
0.0
 10
95.779998
 20
99.223531
 30
0.0
  0
SPLINE
  5
147
100
AcDbEntity
  8
Layer_1
 62
1
100
AcDbSpline
 70
8
 71
3
 72
8
 73
4
 74
0
 40
0
 40
0
 40
0
 40
0
 40
1
 40
1
 40
1
 40
1
 10
95.779998
 20
99.223531
 30
0.0
 10
96.098810
 20
99.542343
 30
0.0
 10
96.277917
 20
99.974744
 30
0.0
 10
96.277917
 20
100.425612
 30
0.0
  0
LWPOLYLINE
  5
148
100
AcDbEntity
  8
Layer_1
 62
1
100
AcDbPolyline
 90
1
 70
1
 10
16.125443
 20
10.932605
 30
0.0
  0
SPLINE
  5
149
100
AcDbEntity
  8
Layer_1
 62
1
100
AcDbSpline
 70
8
 71
3
 72
8
 73
4
 74
0
 40
0
 40
0
 40
0
 40
0
 40
1
 40
1
 40
1
 40
1
 10
16.125443
 20
100.425612
 30
0.0
 10
16.125443
 20
100.876480
 30
0.0
 10
15.946336
 20
101.308882
 30
0.0
 10
15.627524
 20
101.627694
 30
0.0
  0
SPLINE
  5
14a
100
AcDbEntity
  8
Layer_1
 62
1
100
AcDbSpline
 70
8
 71
3
 72
8
 73
4
 74
0
 40
0
 40
0
 40
0
 40
0
 40
1
 40
1
 40
1
 40
1
 10
15.627524
 20
101.627694
 30
0.0
 10
15.308712
 20
101.946506
 30
0.0
 10
14.876311
 20
102.125613
 30
0.0
 10
14.425442
 20
102.125613
 30
0.0
  0
SPLINE
  5
14b
100
AcDbEntity
  8
Layer_1
 62
1
100
AcDbSpline
 70
8
 71
3
 72
8
 73
4
 74
0
 40
0
 40
0
 40
0
 40
0
 40
1
 40
1
 40
1
 40
1
 10
14.425442
 20
102.125613
 30
0.0
 10
13.974574
 20
102.125613
 30
0.0
 10
13.542173
 20
101.946506
 30
0.0
 10
13.223361
 20
101.627694
 30
0.0
  0
SPLINE
  5
14c
100
AcDbEntity
  8
Layer_1
 62
1
100
AcDbSpline
 70
8
 71
3
 72
8
 73
4
 74
0
 40
0
 40
0
 40
0
 40
0
 40
1
 40
1
 40
1
 40
1
 10
13.223361
 20
101.627694
 30
0.0
 10
12.904549
 20
101.308882
 30
0.0
 10
12.725442
 20
100.876480
 30
0.0
 10
12.725442
 20
100.425612
 30
0.0
  0
SPLINE
  5
14d
100
AcDbEntity
  8
Layer_1
 62
1
100
AcDbSpline
 70
8
 71
3
 72
8
 73
4
 74
0
 40
0
 40
0
 40
0
 40
0
 40
1
 40
1
 40
1
 40
1
 10
12.725442
 20
100.425612
 30
0.0
 10
12.725442
 20
99.974744
 30
0.0
 10
12.904549
 20
99.542343
 30
0.0
 10
13.223361
 20
99.223531
 30
0.0
  0
SPLINE
  5
14e
100
AcDbEntity
  8
Layer_1
 62
1
100
AcDbSpline
 70
8
 71
3
 72
8
 73
4
 74
0
 40
0
 40
0
 40
0
 40
0
 40
1
 40
1
 40
1
 40
1
 10
13.223361
 20
99.223531
 30
0.0
 10
13.542173
 20
98.904719
 30
0.0
 10
13.974574
 20
98.725612
 30
0.0
 10
14.425442
 20
98.725612
 30
0.0
  0
SPLINE
  5
14f
100
AcDbEntity
  8
Layer_1
 62
1
100
AcDbSpline
 70
8
 71
3
 72
8
 73
4
 74
0
 40
0
 40
0
 40
0
 40
0
 40
1
 40
1
 40
1
 40
1
 10
14.425442
 20
98.725612
 30
0.0
 10
14.876311
 20
98.725612
 30
0.0
 10
15.308712
 20
98.904719
 30
0.0
 10
15.627524
 20
99.223531
 30
0.0
  0
SPLINE
  5
150
100
AcDbEntity
  8
Layer_1
 62
1
100
AcDbSpline
 70
8
 71
3
 72
8
 73
4
 74
0
 40
0
 40
0
 40
0
 40
0
 40
1
 40
1
 40
1
 40
1
 10
15.627524
 20
99.223531
 30
0.0
 10
15.946336
 20
99.542343
 30
0.0
 10
16.125443
 20
99.974744
 30
0.0
 10
16.125443
 20
100.425612
 30
0.0
  0
LWPOLYLINE
  5
151
100
AcDbEntity
  8
Layer_1
 62
1
100
AcDbPolyline
 90
1
 70
1
 10
96.277917
 20
100.425612
 30
0.0
  0
SPLINE
  5
152
100
AcDbEntity
  8
Layer_1
 62
1
100
AcDbSpline
 70
8
 71
3
 72
8
 73
4
 74
0
 40
0
 40
0
 40
0
 40
0
 40
1
 40
1
 40
1
 40
1
 10
246.430403
 20
10.932605
 30
0.0
 10
246.430403
 20
11.383473
 30
0.0
 10
246.251296
 20
11.815875
 30
0.0
 10
245.932484
 20
12.134687
 30
0.0
  0
SPLINE
  5
153
100
AcDbEntity
  8
Layer_1
 62
1
100
AcDbSpline
 70
8
 71
3
 72
8
 73
4
 74
0
 40
0
 40
0
 40
0
 40
0
 40
1
 40
1
 40
1
 40
1
 10
245.932484
 20
12.134687
 30
0.0
 10
245.613672
 20
12.453499
 30
0.0
 10
245.181270
 20
12.632605
 30
0.0
 10
244.730402
 20
12.632605
 30
0.0
  0
SPLINE
  5
154
100
AcDbEntity
  8
Layer_1
 62
1
100
AcDbSpline
 70
8
 71
3
 72
8
 73
4
 74
0
 40
0
 40
0
 40
0
 40
0
 40
1
 40
1
 40
1
 40
1
 10
244.730402
 20
12.632605
 30
0.0
 10
244.279534
 20
12.632605
 30
0.0
 10
243.847132
 20
12.453499
 30
0.0
 10
243.528321
 20
12.134687
 30
0.0
  0
SPLINE
  5
155
100
AcDbEntity
  8
Layer_1
 62
1
100
AcDbSpline
 70
8
 71
3
 72
8
 73
4
 74
0
 40
0
 40
0
 40
0
 40
0
 40
1
 40
1
 40
1
 40
1
 10
243.528321
 20
12.134687
 30
0.0
 10
243.209509
 20
11.815875
 30
0.0
 10
243.030402
 20
11.383473
 30
0.0
 10
243.030402
 20
10.932605
 30
0.0
  0
SPLINE
  5
156
100
AcDbEntity
  8
Layer_1
 62
1
100
AcDbSpline
 70
8
 71
3
 72
8
 73
4
 74
0
 40
0
 40
0
 40
0
 40
0
 40
1
 40
1
 40
1
 40
1
 10
243.030402
 20
10.932605
 30
0.0
 10
243.030402
 20
10.481737
 30
0.0
 10
243.209509
 20
10.049335
 30
0.0
 10
243.528321
 20
9.730523
 30
0.0
  0
SPLINE
  5
157
100
AcDbEntity
  8
Layer_1
 62
1
100
AcDbSpline
 70
8
 71
3
 72
8
 73
4
 74
0
 40
0
 40
0
 40
0
 40
0
 40
1
 40
1
 40
1
 40
1
 10
243.528321
 20
9.730523
 30
0.0
 10
243.847132
 20
9.411711
 30
0.0
 10
244.279534
 20
9.232605
 30
0.0
 10
244.730402
 20
9.232605
 30
0.0
  0
SPLINE
  5
158
100
AcDbEntity
  8
Layer_1
 62
1
100
AcDbSpline
 70
8
 71
3
 72
8
 73
4
 74
0
 40
0
 40
0
 40
0
 40
0
 40
1
 40
1
 40
1
 40
1
 10
244.730402
 20
9.232605
 30
0.0
 10
245.181270
 20
9.232605
 30
0.0
 10
245.613672
 20
9.411711
 30
0.0
 10
245.932484
 20
9.730523
 30
0.0
  0
SPLINE
  5
159
100
AcDbEntity
  8
Layer_1
 62
1
100
AcDbSpline
 70
8
 71
3
 72
8
 73
4
 74
0
 40
0
 40
0
 40
0
 40
0
 40
1
 40
1
 40
1
 40
1
 10
245.932484
 20
9.730523
 30
0.0
 10
246.251296
 20
10.049335
 30
0.0
 10
246.430403
 20
10.481737
 30
0.0
 10
246.430403
 20
10.932605
 30
0.0
  0
LWPOLYLINE
  5
15a
100
AcDbEntity
  8
Layer_1
 62
1
100
AcDbPolyline
 90
1
 70
1
 10
16.125443
 20
100.425612
 30
0.0
  0
SPLINE
  5
15b
100
AcDbEntity
  8
Layer_1
 62
1
100
AcDbSpline
 70
8
 71
3
 72
8
 73
4
 74
0
 40
0
 40
0
 40
0
 40
0
 40
1
 40
1
 40
1
 40
1
 10
166.277929
 20
100.425612
 30
0.0
 10
166.277929
 20
100.876480
 30
0.0
 10
166.098822
 20
101.308882
 30
0.0
 10
165.780010
 20
101.627694
 30
0.0
  0
SPLINE
  5
15c
100
AcDbEntity
  8
Layer_1
 62
1
100
AcDbSpline
 70
8
 71
3
 72
8
 73
4
 74
0
 40
0
 40
0
 40
0
 40
0
 40
1
 40
1
 40
1
 40
1
 10
165.780010
 20
101.627694
 30
0.0
 10
165.461198
 20
101.946506
 30
0.0
 10
165.028797
 20
102.125613
 30
0.0
 10
164.577928
 20
102.125613
 30
0.0
  0
SPLINE
  5
15d
100
AcDbEntity
  8
Layer_1
 62
1
100
AcDbSpline
 70
8
 71
3
 72
8
 73
4
 74
0
 40
0
 40
0
 40
0
 40
0
 40
1
 40
1
 40
1
 40
1
 10
164.577928
 20
102.125613
 30
0.0
 10
164.127060
 20
102.125613
 30
0.0
 10
163.694659
 20
101.946506
 30
0.0
 10
163.375847
 20
101.627694
 30
0.0
  0
SPLINE
  5
15e
100
AcDbEntity
  8
Layer_1
 62
1
100
AcDbSpline
 70
8
 71
3
 72
8
 73
4
 74
0
 40
0
 40
0
 40
0
 40
0
 40
1
 40
1
 40
1
 40
1
 10
163.375847
 20
101.627694
 30
0.0
 10
163.057035
 20
101.308882
 30
0.0
 10
162.877928
 20
100.876480
 30
0.0
 10
162.877928
 20
100.425612
 30
0.0
  0
SPLINE
  5
15f
100
AcDbEntity
  8
Layer_1
 62
1
100
AcDbSpline
 70
8
 71
3
 72
8
 73
4
 74
0
 40
0
 40
0
 40
0
 40
0
 40
1
 40
1
 40
1
 40
1
 10
162.877928
 20
100.425612
 30
0.0
 10
162.877928
 20
99.974744
 30
0.0
 10
163.057035
 20
99.542343
 30
0.0
 10
163.375847
 20
99.223531
 30
0.0
  0
SPLINE
  5
160
100
AcDbEntity
  8
Layer_1
 62
1
100
AcDbSpline
 70
8
 71
3
 72
8
 73
4
 74
0
 40
0
 40
0
 40
0
 40
0
 40
1
 40
1
 40
1
 40
1
 10
163.375847
 20
99.223531
 30
0.0
 10
163.694659
 20
98.904719
 30
0.0
 10
164.127060
 20
98.725612
 30
0.0
 10
164.577928
 20
98.725612
 30
0.0
  0
SPLINE
  5
161
100
AcDbEntity
  8
Layer_1
 62
1
100
AcDbSpline
 70
8
 71
3
 72
8
 73
4
 74
0
 40
0
 40
0
 40
0
 40
0
 40
1
 40
1
 40
1
 40
1
 10
164.577928
 20
98.725612
 30
0.0
 10
165.028797
 20
98.725612
 30
0.0
 10
165.461198
 20
98.904719
 30
0.0
 10
165.780010
 20
99.223531
 30
0.0
  0
SPLINE
  5
162
100
AcDbEntity
  8
Layer_1
 62
1
100
AcDbSpline
 70
8
 71
3
 72
8
 73
4
 74
0
 40
0
 40
0
 40
0
 40
0
 40
1
 40
1
 40
1
 40
1
 10
165.780010
 20
99.223531
 30
0.0
 10
166.098822
 20
99.542343
 30
0.0
 10
166.277929
 20
99.974744
 30
0.0
 10
166.277929
 20
100.425612
 30
0.0
  0
LWPOLYLINE
  5
163
100
AcDbEntity
  8
Layer_1
 62
1
100
AcDbPolyline
 90
1
 70
1
 10
246.430403
 20
10.932605
 30
0.0
  0
SPLINE
  5
164
100
AcDbEntity
  8
Layer_1
 62
1
100
AcDbSpline
 70
8
 71
3
 72
8
 73
4
 74
0
 40
0
 40
0
 40
0
 40
0
 40
1
 40
1
 40
1
 40
1
 10
246.430403
 20
100.425612
 30
0.0
 10
246.430403
 20
100.876480
 30
0.0
 10
246.251296
 20
101.308882
 30
0.0
 10
245.932484
 20
101.627694
 30
0.0
  0
SPLINE
  5
165
100
AcDbEntity
  8
Layer_1
 62
1
100
AcDbSpline
 70
8
 71
3
 72
8
 73
4
 74
0
 40
0
 40
0
 40
0
 40
0
 40
1
 40
1
 40
1
 40
1
 10
245.932484
 20
101.627694
 30
0.0
 10
245.613672
 20
101.946506
 30
0.0
 10
245.181270
 20
102.125613
 30
0.0
 10
244.730402
 20
102.125613
 30
0.0
  0
SPLINE
  5
166
100
AcDbEntity
  8
Layer_1
 62
1
100
AcDbSpline
 70
8
 71
3
 72
8
 73
4
 74
0
 40
0
 40
0
 40
0
 40
0
 40
1
 40
1
 40
1
 40
1
 10
244.730402
 20
102.125613
 30
0.0
 10
244.279534
 20
102.125613
 30
0.0
 10
243.847132
 20
101.946506
 30
0.0
 10
243.528321
 20
101.627694
 30
0.0
  0
SPLINE
  5
167
100
AcDbEntity
  8
Layer_1
 62
1
100
AcDbSpline
 70
8
 71
3
 72
8
 73
4
 74
0
 40
0
 40
0
 40
0
 40
0
 40
1
 40
1
 40
1
 40
1
 10
243.528321
 20
101.627694
 30
0.0
 10
243.209509
 20
101.308882
 30
0.0
 10
243.030402
 20
100.876480
 30
0.0
 10
243.030402
 20
100.425612
 30
0.0
  0
SPLINE
  5
168
100
AcDbEntity
  8
Layer_1
 62
1
100
AcDbSpline
 70
8
 71
3
 72
8
 73
4
 74
0
 40
0
 40
0
 40
0
 40
0
 40
1
 40
1
 40
1
 40
1
 10
243.030402
 20
100.425612
 30
0.0
 10
243.030402
 20
99.974744
 30
0.0
 10
243.209509
 20
99.542343
 30
0.0
 10
243.528321
 20
99.223531
 30
0.0
  0
SPLINE
  5
169
100
AcDbEntity
  8
Layer_1
 62
1
100
AcDbSpline
 70
8
 71
3
 72
8
 73
4
 74
0
 40
0
 40
0
 40
0
 40
0
 40
1
 40
1
 40
1
 40
1
 10
243.528321
 20
99.223531
 30
0.0
 10
243.847132
 20
98.904719
 30
0.0
 10
244.279534
 20
98.725612
 30
0.0
 10
244.730402
 20
98.725612
 30
0.0
  0
SPLINE
  5
16a
100
AcDbEntity
  8
Layer_1
 62
1
100
AcDbSpline
 70
8
 71
3
 72
8
 73
4
 74
0
 40
0
 40
0
 40
0
 40
0
 40
1
 40
1
 40
1
 40
1
 10
244.730402
 20
98.725612
 30
0.0
 10
245.181270
 20
98.725612
 30
0.0
 10
245.613672
 20
98.904719
 30
0.0
 10
245.932484
 20
99.223531
 30
0.0
  0
SPLINE
  5
16b
100
AcDbEntity
  8
Layer_1
 62
1
100
AcDbSpline
 70
8
 71
3
 72
8
 73
4
 74
0
 40
0
 40
0
 40
0
 40
0
 40
1
 40
1
 40
1
 40
1
 10
245.932484
 20
99.223531
 30
0.0
 10
246.251296
 20
99.542343
 30
0.0
 10
246.430403
 20
99.974744
 30
0.0
 10
246.430403
 20
100.425612
 30
0.0
  0
LWPOLYLINE
  5
16c
100
AcDbEntity
  8
Layer_1
 62
1
100
AcDbPolyline
 90
1
 70
1
 10
166.277929
 20
100.425612
 30
0.0
  0
SPLINE
  5
16d
100
AcDbEntity
  8
Layer_1
 62
7
100
AcDbSpline
 70
8
 71
3
 72
8
 73
4
 74
0
 40
0
 40
0
 40
0
 40
0
 40
1
 40
1
 40
1
 40
1
 10
129.577922
 20
12.632604
 30
0.0
 10
128.641203
 20
12.629556
 30
0.0
 10
127.883454
 20
11.869338
 30
0.0
 10
127.883454
 20
10.932613
 30
0.0
  0
SPLINE
  5
16e
100
AcDbEntity
  8
Layer_1
 62
7
100
AcDbSpline
 70
8
 71
3
 72
8
 73
4
 74
0
 40
0
 40
0
 40
0
 40
0
 40
1
 40
1
 40
1
 40
1
 10
127.883454
 20
10.932613
 30
0.0
 10
127.883454
 20
9.995888
 30
0.0
 10
128.641203
 20
9.235670
 30
0.0
 10
129.577922
 20
9.232622
 30
0.0
  0
SPLINE
  5
16f
100
AcDbEntity
  8
Layer_1
 62
7
100
AcDbSpline
 70
8
 71
3
 72
8
 73
4
 74
0
 40
0
 40
0
 40
0
 40
0
 40
1
 40
1
 40
1
 40
1
 10
129.577922
 20
9.232622
 30
0.0
 10
130.185274
 20
9.232622
 30
0.0
 10
130.746490
 20
9.556640
 30
0.0
 10
131.050166
 20
10.082622
 30
0.0
  0
SPLINE
  5
170
100
AcDbEntity
  8
Layer_1
 62
7
100
AcDbSpline
 70
8
 71
3
 72
8
 73
4
 74
0
 40
0
 40
0
 40
0
 40
0
 40
1
 40
1
 40
1
 40
1
 10
131.050166
 20
10.082622
 30
0.0
 10
131.353842
 20
10.608604
 30
0.0
 10
131.353842
 20
11.256640
 30
0.0
 10
131.050166
 20
11.782622
 30
0.0
  0
SPLINE
  5
171
100
AcDbEntity
  8
Layer_1
 62
7
100
AcDbSpline
 70
8
 71
3
 72
8
 73
4
 74
0
 40
0
 40
0
 40
0
 40
0
 40
1
 40
1
 40
1
 40
1
 10
131.050166
 20
11.782622
 30
0.0
 10
130.746490
 20
12.308604
 30
0.0
 10
130.185274
 20
12.632622
 30
0.0
 10
129.577922
 20
12.632622
 30
0.0
  0
LWPOLYLINE
  5
172
100
AcDbEntity
  8
Layer_1
 62
1
100
AcDbPolyline
 90
1
 70
1
 10
246.430403
 20
100.425612
 30
0.0
  0
ENDSEC
  0
SECTION
  2
OBJECTS
  0
DICTIONARY
  5
C
330
0
100
AcDbDictionary
  3
ACAD_GROUP
350
D
  3
ACAD_MLINESTYLE
350
17
  0
DICTIONARY
  5
D
330
C
100
AcDbDictionary
  0
DICTIONARY
  5
1A
330
C
100
AcDbDictionary
  0
DICTIONARY
  5
17
330
C
100
AcDbDictionary
  3
STANDARD
350
18
  0
DICTIONARY
  5
19
330
C
100
AcDbDictionary
  0
ENDSEC
  0
EOF
