  0
SECTION
  2
HEADER
  9
$ACADVER
  1
AC1014
  9
$HANDSEED
  5
FFFF
  9
$MEASUREMENT
 70
     1
  0
ENDSEC
  0
SECTION
  2
TABLES
  0
TABLE
  2
VPORT
  5
8
330
0
100
AcDbSymbolTable
 70
     4
  0
VPORT
  5
2E
330
8
100
AcDbSymbolTableRecord
100
AcDbViewportTableRecord
  2
*ACTIVE
 70
     0
 10
0.0
 20
0.0
 11
1.0
 21
1.0
 12
210.0
 22
148.5
 13
0.0
 23
0.0
 14
10.0
 24
10.0
 15
10.0
 25
10.0
 16
0.0
 26
0.0
 36
1.0
 17
0.0
 27
0.0
 37
0.0
 40
341.0
 41
1.24
 42
50.0
 43
0.0
 44
0.0
 50
0.0
 51
0.0
 71
     0
 72
   100
 73
     1
 74
     3
 75
     0
 76
     0
 77
     0
 78
     0
  0
ENDTAB
  0
TABLE
  2
LTYPE
  5
5
330
0
100
AcDbSymbolTable
 70
     1
  0
LTYPE
  5
14
330
5
100
AcDbSymbolTableRecord
100
AcDbLinetypeTableRecord
  2
BYBLOCK
 70
     0
  3

 72
    65
 73
     0
 40
0.0
  0
LTYPE
  5
15
330
5
100
AcDbSymbolTableRecord
100
AcDbLinetypeTableRecord
  2
BYLAYER
 70
     0
  3

 72
    65
 73
     0
 40
0.0
  0
LTYPE
  5
16
330
5
100
AcDbSymbolTableRecord
100
AcDbLinetypeTableRecord
  2
CONTINUOUS
 70
     0
  3
Solid line
 72
    65
 73
     0
 40
0.0
  0
ENDTAB
  0
TABLE
  2
LAYER
  5
2
100
AcDbSymbolTable
 70
2
  0
LAYER
  5
50
100
AcDbSymbolTableRecord
100
AcDbLayerTableRecord
  2
0
 70
0
  6
CONTINUOUS
  0
LAYER
  5
51
100
AcDbSymbolTableRecord
100
AcDbLayerTableRecord
  2
Layer_1
 70
0
  6
CONTINUOUS
  0
ENDTAB
  0
TABLE
  2
STYLE
  5
3
330
0
100
AcDbSymbolTable
 70
     1
  0
STYLE
  5
11
330
3
100
AcDbSymbolTableRecord
100
AcDbTextStyleTableRecord
  2
STANDARD
 70
     0
 40
0.0
 41
1.0
 50
0.0
 71
     0
 42
2.5
  3
txt
  4

  0
ENDTAB
  0
TABLE
  2
VIEW
  5
6
330
0
100
AcDbSymbolTable
 70
     0
  0
ENDTAB
  0
TABLE
  2
UCS
  5
7
330
0
100
AcDbSymbolTable
 70
     0
  0
ENDTAB
  0
TABLE
  2
APPID
  5
9
330
0
100
AcDbSymbolTable
 70
     2
  0
APPID
  5
12
330
9
100
AcDbSymbolTableRecord
100
AcDbRegAppTableRecord
  2
ACAD
 70
     0
  0
ENDTAB
  0
TABLE
  2
DIMSTYLE
  5
A
330
0
100
AcDbSymbolTable
 70
     1
  0
DIMSTYLE
105
27
330
A
100
AcDbSymbolTableRecord
100
AcDbDimStyleTableRecord
  2
ISO-25
 70
     0
  3

  4

  5

  6

  7

 40
1.0
 41
2.5
 42
0.625
 43
3.75
 44
1.25
 45
0.0
 46
0.0
 47
0.0
 48
0.0
140
2.5
141
2.5
142
0.0
143
0.03937007874016
144
1.0
145
0.0
146
1.0
147
0.625
 71
     0
 72
     0
 73
     0
 74
     0
 75
     0
 76
     0
 77
     1
 78
     8
170
     0
171
     3
172
     1
173
     0
174
     0
175
     0
176
     0
177
     0
178
     0
270
     2
271
     2
272
     2
273
     2
274
     3
340
11
275
     0
280
     0
281
     0
282
     0
283
     0
284
     8
285
     0
286
     0
287
     3
288
     0
  0
ENDTAB
  0
TABLE
  2
BLOCK_RECORD
  5
1
330
0
100
AcDbSymbolTable
 70
     1
  0
BLOCK_RECORD
  5
1F
330
1
100
AcDbSymbolTableRecord
100
AcDbBlockTableRecord
  2
*MODEL_SPACE
  0
BLOCK_RECORD
  5
1B
330
1
100
AcDbSymbolTableRecord
100
AcDbBlockTableRecord
  2
*PAPER_SPACE
  0
ENDTAB
  0
ENDSEC
  0
SECTION
  2
BLOCKS
  0
BLOCK
  5
20
330
1F
100
AcDbEntity
  8
0
100
AcDbBlockBegin
  2
*MODEL_SPACE
 70
     0
 10
0.0
 20
0.0
 30
0.0
  3
*MODEL_SPACE
  1

  0
ENDBLK
  5
21
330
1F
100
AcDbEntity
  8
0
100
AcDbBlockEnd
  0
BLOCK
  5
1C
330
1B
100
AcDbEntity
 67
     1
  8
0
100
AcDbBlockBegin
  2
*PAPER_SPACE
  1

  0
ENDBLK
  5
1D
330
1B
100
AcDbEntity
 67
     1
  8
0
100
AcDbBlockEnd
  0
ENDSEC
  0
SECTION
  2
ENTITIES
  0
SPLINE
  5
100
100
AcDbEntity
  8
Layer_1
 62
7
100
AcDbSpline
 70
8
 71
3
 72
8
 73
4
 74
0
 40
0
 40
0
 40
0
 40
0
 40
1
 40
1
 40
1
 40
1
 10
11.925542
 20
5.172603
 30
0.0
 10
8.197791
 20
5.172857
 30
0.0
 10
5.175991
 20
8.194872
 30
0.0
 10
5.176001
 20
11.922622
 30
0.0
  0
LWPOLYLINE
  5
101
100
AcDbEntity
  8
Layer_1
 62
7
100
AcDbPolyline
 90
2
 70
0
 10
247.230503
 20
5.172603
 30
0.0
 10
11.925542
 20
5.172603
 30
0.0
  0
SPLINE
  5
102
100
AcDbEntity
  8
Layer_1
 62
7
100
AcDbSpline
 70
8
 71
3
 72
8
 73
4
 74
0
 40
0
 40
0
 40
0
 40
0
 40
1
 40
1
 40
1
 40
1
 10
5.175541
 20
103.915613
 30
0.0
 10
5.175531
 20
107.643725
 30
0.0
 10
8.197891
 20
110.665893
 30
0.0
 10
11.926002
 20
110.665639
 30
0.0
  0
LWPOLYLINE
  5
103
100
AcDbEntity
  8
Layer_1
 62
7
100
AcDbPolyline
 90
2
 70
0
 10
5.176001
 20
11.922622
 30
0.0
 10
5.175541
 20
103.915613
 30
0.0
  0
SPLINE
  5
104
100
AcDbEntity
  8
Layer_1
 62
7
100
AcDbSpline
 70
8
 71
3
 72
8
 73
4
 74
0
 40
0
 40
0
 40
0
 40
0
 40
1
 40
1
 40
1
 40
1
 10
119.042059
 20
110.665614
 30
0.0
 10
120.836975
 20
110.665615
 30
0.0
 10
122.292047
 20
109.210555
 30
0.0
 10
122.292061
 20
107.415639
 30
0.0
  0
LWPOLYLINE
  5
105
100
AcDbEntity
  8
Layer_1
 62
7
100
AcDbPolyline
 90
2
 70
0
 10
11.926002
 20
110.665639
 30
0.0
 10
119.042059
 20
110.665614
 30
0.0
  0
SPLINE
  5
106
100
AcDbEntity
  8
Layer_1
 62
7
100
AcDbSpline
 70
8
 71
3
 72
8
 73
4
 74
0
 40
0
 40
0
 40
0
 40
0
 40
1
 40
1
 40
1
 40
1
 10
122.292059
 20
95.826269
 30
0.0
 10
122.292045
 20
94.775185
 30
0.0
 10
121.372029
 20
93.961237
 30
0.0
 10
120.328781
 20
94.089336
 30
0.0
  0
LWPOLYLINE
  5
107
100
AcDbEntity
  8
Layer_1
 62
7
100
AcDbPolyline
 90
2
 70
0
 10
122.292061
 20
107.415639
 30
0.0
 10
122.292059
 20
95.826269
 30
0.0
  0
SPLINE
  5
108
100
AcDbEntity
  8
Layer_1
 62
7
100
AcDbSpline
 70
8
 71
3
 72
8
 73
4
 74
0
 40
0
 40
0
 40
0
 40
0
 40
1
 40
1
 40
1
 40
1
 10
82.001469
 20
99.749545
 30
0.0
 10
81.864446
 20
99.766385
 30
0.0
 10
81.768056
 20
99.890990
 30
0.0
 10
81.783842
 20
100.028138
 30
0.0
  0
LWPOLYLINE
  5
109
100
AcDbEntity
  8
Layer_1
 62
7
100
AcDbPolyline
 90
3
 70
0
 10
120.328781
 20
94.089336
 30
0.0
 10
93.111518
 20
97.646937
 30
0.0
 10
82.001469
 20
99.749545
 30
0.0
  0
SPLINE
  5
10a
100
AcDbEntity
  8
Layer_1
 62
7
100
AcDbSpline
 70
8
 71
3
 72
8
 73
4
 74
0
 40
0
 40
0
 40
0
 40
0
 40
1
 40
1
 40
1
 40
1
 10
81.991139
 20
101.829166
 30
0.0
 10
82.101656
 20
102.789356
 30
0.0
 10
81.426741
 20
103.661667
 30
0.0
 10
80.467414
 20
103.779438
 30
0.0
  0
LWPOLYLINE
  5
10b
100
AcDbEntity
  8
Layer_1
 62
7
100
AcDbPolyline
 90
2
 70
0
 10
81.783842
 20
100.028138
 30
0.0
 10
81.991139
 20
101.829166
 30
0.0
  0
SPLINE
  5
10c
100
AcDbEntity
  8
Layer_1
 62
7
100
AcDbSpline
 70
8
 71
3
 72
8
 73
4
 74
0
 40
0
 40
0
 40
0
 40
0
 40
1
 40
1
 40
1
 40
1
 10
58.631427
 20
106.460525
 30
0.0
 10
57.672136
 20
106.578305
 30
0.0
 10
56.798995
 20
105.896129
 30
0.0
 10
56.681210
 20
104.936838
 30
0.0
  0
LWPOLYLINE
  5
10d
100
AcDbEntity
  8
Layer_1
 62
7
100
AcDbPolyline
 90
2
 70
0
 10
80.467414
 20
103.779438
 30
0.0
 10
58.631427
 20
106.460525
 30
0.0
  0
SPLINE
  5
10e
100
AcDbEntity
  8
Layer_1
 62
7
100
AcDbSpline
 70
8
 71
3
 72
8
 73
4
 74
0
 40
0
 40
0
 40
0
 40
0
 40
1
 40
1
 40
1
 40
1
 10
56.344835
 20
102.197408
 30
0.0
 10
56.328015
 20
102.060355
 30
0.0
 10
56.203261
 20
101.962896
 30
0.0
 10
56.066210
 20
101.979738
 30
0.0
  0
LWPOLYLINE
  5
10f
100
AcDbEntity
  8
Layer_1
 62
7
100
AcDbPolyline
 90
2
 70
0
 10
56.681210
 20
104.936838
 30
0.0
 10
56.344835
 20
102.197408
 30
0.0
  0
SPLINE
  5
110
100
AcDbEntity
  8
Layer_1
 62
7
100
AcDbSpline
 70
8
 71
3
 72
8
 73
4
 74
0
 40
0
 40
0
 40
0
 40
0
 40
1
 40
1
 40
1
 40
1
 10
39.143321
 20
104.057612
 30
0.0
 10
38.184035
 20
104.175391
 30
0.0
 10
37.310898
 20
103.493222
 30
0.0
 10
37.193106
 20
102.533938
 30
0.0
  0
LWPOLYLINE
  5
111
100
AcDbEntity
  8
Layer_1
 62
7
100
AcDbPolyline
 90
2
 70
0
 10
56.066210
 20
101.979738
 30
0.0
 10
39.143321
 20
104.057612
 30
0.0
  0
SPLINE
  5
112
100
AcDbEntity
  8
Layer_1
 62
7
100
AcDbSpline
 70
8
 71
3
 72
8
 73
4
 74
0
 40
0
 40
0
 40
0
 40
0
 40
1
 40
1
 40
1
 40
1
 10
36.856732
 20
99.794498
 30
0.0
 10
36.839902
 20
99.657449
 30
0.0
 10
36.715153
 20
99.559996
 30
0.0
 10
36.578106
 20
99.576837
 30
0.0
  0
LWPOLYLINE
  5
113
100
AcDbEntity
  8
Layer_1
 62
7
100
AcDbPolyline
 90
2
 70
0
 10
37.193106
 20
102.533938
 30
0.0
 10
36.856732
 20
99.794498
 30
0.0
  0
SPLINE
  5
114
100
AcDbEntity
  8
Layer_1
 62
7
100
AcDbSpline
 70
8
 71
3
 72
8
 73
4
 74
0
 40
0
 40
0
 40
0
 40
0
 40
1
 40
1
 40
1
 40
1
 10
19.655223
 20
101.654700
 30
0.0
 10
18.695943
 20
101.772483
 30
0.0
 10
17.822803
 20
101.090319
 30
0.0
 10
17.705003
 20
100.131037
 30
0.0
  0
LWPOLYLINE
  5
115
100
AcDbEntity
  8
Layer_1
 62
7
100
AcDbPolyline
 90
2
 70
0
 10
36.578106
 20
99.576837
 30
0.0
 10
19.655223
 20
101.654700
 30
0.0
  0
SPLINE
  5
116
100
AcDbEntity
  8
Layer_1
 62
7
100
AcDbSpline
 70
8
 71
3
 72
8
 73
4
 74
0
 40
0
 40
0
 40
0
 40
0
 40
1
 40
1
 40
1
 40
1
 10
10.380642
 20
40.478988
 30
0.0
 10
10.262832
 20
39.519794
 30
0.0
 10
10.944822
 20
38.646676
 30
0.0
 10
11.904002
 20
38.528727
 30
0.0
  0
LWPOLYLINE
  5
117
100
AcDbEntity
  8
Layer_1
 62
7
100
AcDbPolyline
 90
2
 70
0
 10
17.705003
 20
100.131037
 30
0.0
 10
10.380642
 20
40.478988
 30
0.0
  0
SPLINE
  5
118
100
AcDbEntity
  8
Layer_1
 62
7
100
AcDbSpline
 70
8
 71
3
 72
8
 73
4
 74
0
 40
0
 40
0
 40
0
 40
0
 40
1
 40
1
 40
1
 40
1
 10
42.394105
 20
34.785081
 30
0.0
 10
42.531139
 20
34.768271
 30
0.0
 10
42.628604
 20
34.643562
 30
0.0
 10
42.611807
 20
34.506526
 30
0.0
  0
LWPOLYLINE
  5
119
100
AcDbEntity
  8
Layer_1
 62
7
100
AcDbPolyline
 90
2
 70
0
 10
11.904002
 20
38.528727
 30
0.0
 10
42.394105
 20
34.785081
 30
0.0
  0
SPLINE
  5
11a
100
AcDbEntity
  8
Layer_1
 62
7
100
AcDbSpline
 70
8
 71
3
 72
8
 73
4
 74
0
 40
0
 40
0
 40
0
 40
0
 40
1
 40
1
 40
1
 40
1
 10
41.114000
 20
22.308083
 30
0.0
 10
40.996195
 20
21.348769
 30
0.0
 10
41.678390
 20
20.475599
 30
0.0
 10
42.637707
 20
20.357824
 30
0.0
  0
LWPOLYLINE
  5
11b
100
AcDbEntity
  8
Layer_1
 62
7
100
AcDbPolyline
 90
2
 70
0
 10
42.611807
 20
34.506526
 30
0.0
 10
41.114000
 20
22.308083
 30
0.0
  0
SPLINE
  5
11c
100
AcDbEntity
  8
Layer_1
 62
7
100
AcDbSpline
 70
8
 71
3
 72
8
 73
4
 74
0
 40
0
 40
0
 40
0
 40
0
 40
1
 40
1
 40
1
 40
1
 10
216.518359
 20
20.357856
 30
0.0
 10
217.477670
 20
20.475645
 30
0.0
 10
218.159849
 20
21.348817
 30
0.0
 10
218.042038
 20
22.308124
 30
0.0
  0
LWPOLYLINE
  5
11d
100
AcDbEntity
  8
Layer_1
 62
7
100
AcDbPolyline
 90
10
 70
0
 10
42.637707
 20
20.357824
 30
0.0
 10
105.078018
 20
12.691142
 30
0.0
 10
105.078018
 20
34.504056
 30
0.0
 10
109.078019
 20
34.504056
 30
0.0
 10
109.078019
 20
14.504053
 30
0.0
 10
150.078026
 20
14.504053
 30
0.0
 10
150.078026
 20
34.504056
 30
0.0
 10
154.078027
 20
34.504056
 30
0.0
 10
154.078027
 20
12.691142
 30
0.0
 10
216.518359
 20
20.357856
 30
0.0
  0
SPLINE
  5
11e
100
AcDbEntity
  8
Layer_1
 62
7
100
AcDbSpline
 70
8
 71
3
 72
8
 73
4
 74
0
 40
0
 40
0
 40
0
 40
0
 40
1
 40
1
 40
1
 40
1
 10
216.544269
 20
34.506477
 30
0.0
 10
216.527419
 20
34.643535
 30
0.0
 10
216.624879
 20
34.768299
 30
0.0
 10
216.761937
 20
34.785126
 30
0.0
  0
LWPOLYLINE
  5
11f
100
AcDbEntity
  8
Layer_1
 62
7
100
AcDbPolyline
 90
2
 70
0
 10
218.042038
 20
22.308124
 30
0.0
 10
216.544269
 20
34.506477
 30
0.0
  0
SPLINE
  5
120
100
AcDbEntity
  8
Layer_1
 62
7
100
AcDbSpline
 70
8
 71
3
 72
8
 73
4
 74
0
 40
0
 40
0
 40
0
 40
0
 40
1
 40
1
 40
1
 40
1
 10
247.251713
 20
38.528755
 30
0.0
 10
248.210883
 20
38.646719
 30
0.0
 10
248.892863
 20
39.519839
 30
0.0
 10
248.775043
 20
40.479027
 30
0.0
  0
LWPOLYLINE
  5
121
100
AcDbEntity
  8
Layer_1
 62
7
100
AcDbPolyline
 90
2
 70
0
 10
216.761937
 20
34.785126
 30
0.0
 10
247.251713
 20
38.528755
 30
0.0
  0
SPLINE
  5
122
100
AcDbEntity
  8
Layer_1
 62
7
100
AcDbSpline
 70
8
 71
3
 72
8
 73
4
 74
0
 40
0
 40
0
 40
0
 40
0
 40
1
 40
1
 40
1
 40
1
 10
241.451062
 20
100.131010
 30
0.0
 10
241.333292
 20
101.090230
 30
0.0
 10
240.460272
 20
101.772400
 30
0.0
 10
239.501041
 20
101.654738
 30
0.0
  0
LWPOLYLINE
  5
123
100
AcDbEntity
  8
Layer_1
 62
7
100
AcDbPolyline
 90
2
 70
0
 10
248.775043
 20
40.479027
 30
0.0
 10
241.451062
 20
100.131010
 30
0.0
  0
SPLINE
  5
124
100
AcDbEntity
  8
Layer_1
 62
7
100
AcDbSpline
 70
8
 71
3
 72
8
 73
4
 74
0
 40
0
 40
0
 40
0
 40
0
 40
1
 40
1
 40
1
 40
1
 10
222.577914
 20
99.576830
 30
0.0
 10
222.440869
 20
99.560020
 30
0.0
 10
222.316146
 20
99.657490
 30
0.0
 10
222.299338
 20
99.794537
 30
0.0
  0
LWPOLYLINE
  5
125
100
AcDbEntity
  8
Layer_1
 62
7
100
AcDbPolyline
 90
2
 70
0
 10
239.501041
 20
101.654738
 30
0.0
 10
222.577914
 20
99.576830
 30
0.0
  0
SPLINE
  5
126
100
AcDbEntity
  8
Layer_1
 62
7
100
AcDbSpline
 70
8
 71
3
 72
8
 73
4
 74
0
 40
0
 40
0
 40
0
 40
0
 40
1
 40
1
 40
1
 40
1
 10
221.962953
 20
102.533927
 30
0.0
 10
221.845180
 20
103.493227
 30
0.0
 10
220.972037
 20
104.175417
 30
0.0
 10
220.012738
 20
104.057638
 30
0.0
  0
LWPOLYLINE
  5
127
100
AcDbEntity
  8
Layer_1
 62
7
100
AcDbPolyline
 90
2
 70
0
 10
222.299338
 20
99.794537
 30
0.0
 10
221.962953
 20
102.533927
 30
0.0
  0
SPLINE
  5
128
100
AcDbEntity
  8
Layer_1
 62
7
100
AcDbSpline
 70
8
 71
3
 72
8
 73
4
 74
0
 40
0
 40
0
 40
0
 40
0
 40
1
 40
1
 40
1
 40
1
 10
203.089809
 20
101.979744
 30
0.0
 10
202.952769
 20
101.962934
 30
0.0
 10
202.828047
 20
102.060394
 30
0.0
 10
202.811235
 20
102.197438
 30
0.0
  0
LWPOLYLINE
  5
129
100
AcDbEntity
  8
Layer_1
 62
7
100
AcDbPolyline
 90
2
 70
0
 10
220.012738
 20
104.057638
 30
0.0
 10
203.089809
 20
101.979744
 30
0.0
  0
SPLINE
  5
12a
100
AcDbEntity
  8
Layer_1
 62
7
100
AcDbSpline
 70
8
 71
3
 72
8
 73
4
 74
0
 40
0
 40
0
 40
0
 40
0
 40
1
 40
1
 40
1
 40
1
 10
202.474851
 20
104.936836
 30
0.0
 10
202.357073
 20
105.896132
 30
0.0
 10
201.483931
 20
106.578317
 30
0.0
 10
200.524635
 20
106.460538
 30
0.0
  0
LWPOLYLINE
  5
12b
100
AcDbEntity
  8
Layer_1
 62
7
100
AcDbPolyline
 90
2
 70
0
 10
202.811235
 20
102.197438
 30
0.0
 10
202.474851
 20
104.936836
 30
0.0
  0
SPLINE
  5
12c
100
AcDbEntity
  8
Layer_1
 62
7
100
AcDbSpline
 70
8
 71
3
 72
8
 73
4
 74
0
 40
0
 40
0
 40
0
 40
0
 40
1
 40
1
 40
1
 40
1
 10
178.688598
 20
103.779403
 30
0.0
 10
177.729297
 20
103.661603
 30
0.0
 10
177.047127
 20
102.788438
 30
0.0
 10
177.164931
 20
101.829138
 30
0.0
  0
LWPOLYLINE
  5
12d
100
AcDbEntity
  8
Layer_1
 62
7
100
AcDbPolyline
 90
2
 70
0
 10
200.524635
 20
106.460538
 30
0.0
 10
178.688598
 20
103.779403
 30
0.0
  0
SPLINE
  5
12e
100
AcDbEntity
  8
Layer_1
 62
7
100
AcDbSpline
 70
8
 71
3
 72
8
 73
4
 74
0
 40
0
 40
0
 40
0
 40
0
 40
1
 40
1
 40
1
 40
1
 10
177.372210
 20
100.028165
 30
0.0
 10
177.389040
 20
99.891135
 30
0.0
 10
177.291610
 20
99.766405
 30
0.0
 10
177.154576
 20
99.749565
 30
0.0
  0
LWPOLYLINE
  5
12f
100
AcDbEntity
  8
Layer_1
 62
7
100
AcDbPolyline
 90
2
 70
0
 10
177.164931
 20
101.829138
 30
0.0
 10
177.372210
 20
100.028165
 30
0.0
  0
SPLINE
  5
130
100
AcDbEntity
  8
Layer_1
 62
7
100
AcDbSpline
 70
8
 71
3
 72
8
 73
4
 74
0
 40
0
 40
0
 40
0
 40
0
 40
1
 40
1
 40
1
 40
1
 10
138.827263
 20
94.089307
 30
0.0
 10
137.784015
 20
93.961208
 30
0.0
 10
136.863999
 20
94.775153
 30
0.0
 10
136.863984
 20
95.826237
 30
0.0
  0
LWPOLYLINE
  5
131
100
AcDbEntity
  8
Layer_1
 62
7
100
AcDbPolyline
 90
3
 70
0
 10
177.154576
 20
99.749565
 30
0.0
 10
166.044527
 20
97.646957
 30
0.0
 10
138.827263
 20
94.089307
 30
0.0
  0
SPLINE
  5
132
100
AcDbEntity
  8
Layer_1
 62
7
100
AcDbSpline
 70
8
 71
3
 72
8
 73
4
 74
0
 40
0
 40
0
 40
0
 40
0
 40
1
 40
1
 40
1
 40
1
 10
136.863986
 20
107.415614
 30
0.0
 10
136.863972
 20
109.210564
 30
0.0
 10
138.319074
 20
110.665660
 30
0.0
 10
140.114024
 20
110.665639
 30
0.0
  0
LWPOLYLINE
  5
133
100
AcDbEntity
  8
Layer_1
 62
7
100
AcDbPolyline
 90
2
 70
0
 10
136.863984
 20
95.826237
 30
0.0
 10
136.863986
 20
107.415614
 30
0.0
  0
SPLINE
  5
134
100
AcDbEntity
  8
Layer_1
 62
7
100
AcDbSpline
 70
8
 71
3
 72
8
 73
4
 74
0
 40
0
 40
0
 40
0
 40
0
 40
1
 40
1
 40
1
 40
1
 10
247.230503
 20
110.665614
 30
0.0
 10
250.958233
 20
110.665360
 30
0.0
 10
253.980034
 20
107.643372
 30
0.0
 10
253.980044
 20
103.915638
 30
0.0
  0
LWPOLYLINE
  5
135
100
AcDbEntity
  8
Layer_1
 62
7
100
AcDbPolyline
 90
2
 70
0
 10
140.114024
 20
110.665639
 30
0.0
 10
247.230503
 20
110.665614
 30
0.0
  0
SPLINE
  5
136
100
AcDbEntity
  8
Layer_1
 62
7
100
AcDbSpline
 70
8
 71
3
 72
8
 73
4
 74
0
 40
0
 40
0
 40
0
 40
0
 40
1
 40
1
 40
1
 40
1
 10
253.980504
 20
11.922604
 30
0.0
 10
253.980494
 20
8.194508
 30
0.0
 10
250.958133
 20
5.172367
 30
0.0
 10
247.230043
 20
5.172621
 30
0.0
  0
SPLINE
  5
137
100
AcDbEntity
  8
Layer_1
 62
1
100
AcDbSpline
 70
8
 71
3
 72
8
 73
4
 74
0
 40
0
 40
0
 40
0
 40
0
 40
1
 40
1
 40
1
 40
1
 10
16.125543
 20
10.922605
 30
0.0
 10
16.125543
 20
11.373473
 30
0.0
 10
15.946436
 20
11.805875
 30
0.0
 10
15.627624
 20
12.124687
 30
0.0
  0
SPLINE
  5
138
100
AcDbEntity
  8
Layer_1
 62
1
100
AcDbSpline
 70
8
 71
3
 72
8
 73
4
 74
0
 40
0
 40
0
 40
0
 40
0
 40
1
 40
1
 40
1
 40
1
 10
15.627624
 20
12.124687
 30
0.0
 10
15.308812
 20
12.443499
 30
0.0
 10
14.876411
 20
12.622605
 30
0.0
 10
14.425542
 20
12.622605
 30
0.0
  0
SPLINE
  5
139
100
AcDbEntity
  8
Layer_1
 62
1
100
AcDbSpline
 70
8
 71
3
 72
8
 73
4
 74
0
 40
0
 40
0
 40
0
 40
0
 40
1
 40
1
 40
1
 40
1
 10
14.425542
 20
12.622605
 30
0.0
 10
13.974674
 20
12.622605
 30
0.0
 10
13.542273
 20
12.443499
 30
0.0
 10
13.223461
 20
12.124687
 30
0.0
  0
SPLINE
  5
13a
100
AcDbEntity
  8
Layer_1
 62
1
100
AcDbSpline
 70
8
 71
3
 72
8
 73
4
 74
0
 40
0
 40
0
 40
0
 40
0
 40
1
 40
1
 40
1
 40
1
 10
13.223461
 20
12.124687
 30
0.0
 10
12.904649
 20
11.805875
 30
0.0
 10
12.725542
 20
11.373473
 30
0.0
 10
12.725542
 20
10.922605
 30
0.0
  0
SPLINE
  5
13b
100
AcDbEntity
  8
Layer_1
 62
1
100
AcDbSpline
 70
8
 71
3
 72
8
 73
4
 74
0
 40
0
 40
0
 40
0
 40
0
 40
1
 40
1
 40
1
 40
1
 10
12.725542
 20
10.922605
 30
0.0
 10
12.725542
 20
10.471737
 30
0.0
 10
12.904649
 20
10.039335
 30
0.0
 10
13.223461
 20
9.720523
 30
0.0
  0
SPLINE
  5
13c
100
AcDbEntity
  8
Layer_1
 62
1
100
AcDbSpline
 70
8
 71
3
 72
8
 73
4
 74
0
 40
0
 40
0
 40
0
 40
0
 40
1
 40
1
 40
1
 40
1
 10
13.223461
 20
9.720523
 30
0.0
 10
13.542273
 20
9.401711
 30
0.0
 10
13.974674
 20
9.222605
 30
0.0
 10
14.425542
 20
9.222605
 30
0.0
  0
SPLINE
  5
13d
100
AcDbEntity
  8
Layer_1
 62
1
100
AcDbSpline
 70
8
 71
3
 72
8
 73
4
 74
0
 40
0
 40
0
 40
0
 40
0
 40
1
 40
1
 40
1
 40
1
 10
14.425542
 20
9.222605
 30
0.0
 10
14.876411
 20
9.222605
 30
0.0
 10
15.308812
 20
9.401711
 30
0.0
 10
15.627624
 20
9.720523
 30
0.0
  0
SPLINE
  5
13e
100
AcDbEntity
  8
Layer_1
 62
1
100
AcDbSpline
 70
8
 71
3
 72
8
 73
4
 74
0
 40
0
 40
0
 40
0
 40
0
 40
1
 40
1
 40
1
 40
1
 10
15.627624
 20
9.720523
 30
0.0
 10
15.946436
 20
10.039335
 30
0.0
 10
16.125543
 20
10.471737
 30
0.0
 10
16.125543
 20
10.922605
 30
0.0
  0
LWPOLYLINE
  5
13f
100
AcDbEntity
  8
Layer_1
 62
7
100
AcDbPolyline
 90
2
 70
0
 10
253.980044
 20
103.915638
 30
0.0
 10
253.980504
 20
11.922604
 30
0.0
  0
SPLINE
  5
140
100
AcDbEntity
  8
Layer_1
 62
1
100
AcDbSpline
 70
8
 71
3
 72
8
 73
4
 74
0
 40
0
 40
0
 40
0
 40
0
 40
1
 40
1
 40
1
 40
1
 10
96.278017
 20
100.415612
 30
0.0
 10
96.278017
 20
100.866480
 30
0.0
 10
96.098910
 20
101.298882
 30
0.0
 10
95.780098
 20
101.617694
 30
0.0
  0
SPLINE
  5
141
100
AcDbEntity
  8
Layer_1
 62
1
100
AcDbSpline
 70
8
 71
3
 72
8
 73
4
 74
0
 40
0
 40
0
 40
0
 40
0
 40
1
 40
1
 40
1
 40
1
 10
95.780098
 20
101.617694
 30
0.0
 10
95.461286
 20
101.936506
 30
0.0
 10
95.028884
 20
102.115613
 30
0.0
 10
94.578016
 20
102.115613
 30
0.0
  0
SPLINE
  5
142
100
AcDbEntity
  8
Layer_1
 62
1
100
AcDbSpline
 70
8
 71
3
 72
8
 73
4
 74
0
 40
0
 40
0
 40
0
 40
0
 40
1
 40
1
 40
1
 40
1
 10
94.578016
 20
102.115613
 30
0.0
 10
94.127148
 20
102.115613
 30
0.0
 10
93.694746
 20
101.936506
 30
0.0
 10
93.375935
 20
101.617694
 30
0.0
  0
SPLINE
  5
143
100
AcDbEntity
  8
Layer_1
 62
1
100
AcDbSpline
 70
8
 71
3
 72
8
 73
4
 74
0
 40
0
 40
0
 40
0
 40
0
 40
1
 40
1
 40
1
 40
1
 10
93.375935
 20
101.617694
 30
0.0
 10
93.057123
 20
101.298882
 30
0.0
 10
92.878016
 20
100.866480
 30
0.0
 10
92.878016
 20
100.415612
 30
0.0
  0
SPLINE
  5
144
100
AcDbEntity
  8
Layer_1
 62
1
100
AcDbSpline
 70
8
 71
3
 72
8
 73
4
 74
0
 40
0
 40
0
 40
0
 40
0
 40
1
 40
1
 40
1
 40
1
 10
92.878016
 20
100.415612
 30
0.0
 10
92.878016
 20
99.964744
 30
0.0
 10
93.057123
 20
99.532342
 30
0.0
 10
93.375935
 20
99.213531
 30
0.0
  0
SPLINE
  5
145
100
AcDbEntity
  8
Layer_1
 62
1
100
AcDbSpline
 70
8
 71
3
 72
8
 73
4
 74
0
 40
0
 40
0
 40
0
 40
0
 40
1
 40
1
 40
1
 40
1
 10
93.375935
 20
99.213531
 30
0.0
 10
93.694746
 20
98.894719
 30
0.0
 10
94.127148
 20
98.715612
 30
0.0
 10
94.578016
 20
98.715612
 30
0.0
  0
SPLINE
  5
146
100
AcDbEntity
  8
Layer_1
 62
1
100
AcDbSpline
 70
8
 71
3
 72
8
 73
4
 74
0
 40
0
 40
0
 40
0
 40
0
 40
1
 40
1
 40
1
 40
1
 10
94.578016
 20
98.715612
 30
0.0
 10
95.028884
 20
98.715612
 30
0.0
 10
95.461286
 20
98.894719
 30
0.0
 10
95.780098
 20
99.213531
 30
0.0
  0
SPLINE
  5
147
100
AcDbEntity
  8
Layer_1
 62
1
100
AcDbSpline
 70
8
 71
3
 72
8
 73
4
 74
0
 40
0
 40
0
 40
0
 40
0
 40
1
 40
1
 40
1
 40
1
 10
95.780098
 20
99.213531
 30
0.0
 10
96.098910
 20
99.532342
 30
0.0
 10
96.278017
 20
99.964744
 30
0.0
 10
96.278017
 20
100.415612
 30
0.0
  0
LWPOLYLINE
  5
148
100
AcDbEntity
  8
Layer_1
 62
1
100
AcDbPolyline
 90
1
 70
1
 10
16.125543
 20
10.922605
 30
0.0
  0
SPLINE
  5
149
100
AcDbEntity
  8
Layer_1
 62
1
100
AcDbSpline
 70
8
 71
3
 72
8
 73
4
 74
0
 40
0
 40
0
 40
0
 40
0
 40
1
 40
1
 40
1
 40
1
 10
16.125543
 20
100.415612
 30
0.0
 10
16.125543
 20
100.866480
 30
0.0
 10
15.946436
 20
101.298882
 30
0.0
 10
15.627624
 20
101.617694
 30
0.0
  0
SPLINE
  5
14a
100
AcDbEntity
  8
Layer_1
 62
1
100
AcDbSpline
 70
8
 71
3
 72
8
 73
4
 74
0
 40
0
 40
0
 40
0
 40
0
 40
1
 40
1
 40
1
 40
1
 10
15.627624
 20
101.617694
 30
0.0
 10
15.308812
 20
101.936506
 30
0.0
 10
14.876411
 20
102.115613
 30
0.0
 10
14.425542
 20
102.115613
 30
0.0
  0
SPLINE
  5
14b
100
AcDbEntity
  8
Layer_1
 62
1
100
AcDbSpline
 70
8
 71
3
 72
8
 73
4
 74
0
 40
0
 40
0
 40
0
 40
0
 40
1
 40
1
 40
1
 40
1
 10
14.425542
 20
102.115613
 30
0.0
 10
13.974674
 20
102.115613
 30
0.0
 10
13.542273
 20
101.936506
 30
0.0
 10
13.223461
 20
101.617694
 30
0.0
  0
SPLINE
  5
14c
100
AcDbEntity
  8
Layer_1
 62
1
100
AcDbSpline
 70
8
 71
3
 72
8
 73
4
 74
0
 40
0
 40
0
 40
0
 40
0
 40
1
 40
1
 40
1
 40
1
 10
13.223461
 20
101.617694
 30
0.0
 10
12.904649
 20
101.298882
 30
0.0
 10
12.725542
 20
100.866480
 30
0.0
 10
12.725542
 20
100.415612
 30
0.0
  0
SPLINE
  5
14d
100
AcDbEntity
  8
Layer_1
 62
1
100
AcDbSpline
 70
8
 71
3
 72
8
 73
4
 74
0
 40
0
 40
0
 40
0
 40
0
 40
1
 40
1
 40
1
 40
1
 10
12.725542
 20
100.415612
 30
0.0
 10
12.725542
 20
99.964744
 30
0.0
 10
12.904649
 20
99.532342
 30
0.0
 10
13.223461
 20
99.213531
 30
0.0
  0
SPLINE
  5
14e
100
AcDbEntity
  8
Layer_1
 62
1
100
AcDbSpline
 70
8
 71
3
 72
8
 73
4
 74
0
 40
0
 40
0
 40
0
 40
0
 40
1
 40
1
 40
1
 40
1
 10
13.223461
 20
99.213531
 30
0.0
 10
13.542273
 20
98.894719
 30
0.0
 10
13.974674
 20
98.715612
 30
0.0
 10
14.425542
 20
98.715612
 30
0.0
  0
SPLINE
  5
14f
100
AcDbEntity
  8
Layer_1
 62
1
100
AcDbSpline
 70
8
 71
3
 72
8
 73
4
 74
0
 40
0
 40
0
 40
0
 40
0
 40
1
 40
1
 40
1
 40
1
 10
14.425542
 20
98.715612
 30
0.0
 10
14.876411
 20
98.715612
 30
0.0
 10
15.308812
 20
98.894719
 30
0.0
 10
15.627624
 20
99.213531
 30
0.0
  0
SPLINE
  5
150
100
AcDbEntity
  8
Layer_1
 62
1
100
AcDbSpline
 70
8
 71
3
 72
8
 73
4
 74
0
 40
0
 40
0
 40
0
 40
0
 40
1
 40
1
 40
1
 40
1
 10
15.627624
 20
99.213531
 30
0.0
 10
15.946436
 20
99.532342
 30
0.0
 10
16.125543
 20
99.964744
 30
0.0
 10
16.125543
 20
100.415612
 30
0.0
  0
LWPOLYLINE
  5
151
100
AcDbEntity
  8
Layer_1
 62
1
100
AcDbPolyline
 90
1
 70
1
 10
96.278017
 20
100.415612
 30
0.0
  0
SPLINE
  5
152
100
AcDbEntity
  8
Layer_1
 62
1
100
AcDbSpline
 70
8
 71
3
 72
8
 73
4
 74
0
 40
0
 40
0
 40
0
 40
0
 40
1
 40
1
 40
1
 40
1
 10
246.430503
 20
10.922605
 30
0.0
 10
246.430503
 20
11.373473
 30
0.0
 10
246.251396
 20
11.805875
 30
0.0
 10
245.932584
 20
12.124687
 30
0.0
  0
SPLINE
  5
153
100
AcDbEntity
  8
Layer_1
 62
1
100
AcDbSpline
 70
8
 71
3
 72
8
 73
4
 74
0
 40
0
 40
0
 40
0
 40
0
 40
1
 40
1
 40
1
 40
1
 10
245.932584
 20
12.124687
 30
0.0
 10
245.613772
 20
12.443499
 30
0.0
 10
245.181370
 20
12.622605
 30
0.0
 10
244.730502
 20
12.622605
 30
0.0
  0
SPLINE
  5
154
100
AcDbEntity
  8
Layer_1
 62
1
100
AcDbSpline
 70
8
 71
3
 72
8
 73
4
 74
0
 40
0
 40
0
 40
0
 40
0
 40
1
 40
1
 40
1
 40
1
 10
244.730502
 20
12.622605
 30
0.0
 10
244.279634
 20
12.622605
 30
0.0
 10
243.847232
 20
12.443499
 30
0.0
 10
243.528421
 20
12.124687
 30
0.0
  0
SPLINE
  5
155
100
AcDbEntity
  8
Layer_1
 62
1
100
AcDbSpline
 70
8
 71
3
 72
8
 73
4
 74
0
 40
0
 40
0
 40
0
 40
0
 40
1
 40
1
 40
1
 40
1
 10
243.528421
 20
12.124687
 30
0.0
 10
243.209609
 20
11.805875
 30
0.0
 10
243.030502
 20
11.373473
 30
0.0
 10
243.030502
 20
10.922605
 30
0.0
  0
SPLINE
  5
156
100
AcDbEntity
  8
Layer_1
 62
1
100
AcDbSpline
 70
8
 71
3
 72
8
 73
4
 74
0
 40
0
 40
0
 40
0
 40
0
 40
1
 40
1
 40
1
 40
1
 10
243.030502
 20
10.922605
 30
0.0
 10
243.030502
 20
10.471737
 30
0.0
 10
243.209609
 20
10.039335
 30
0.0
 10
243.528421
 20
9.720523
 30
0.0
  0
SPLINE
  5
157
100
AcDbEntity
  8
Layer_1
 62
1
100
AcDbSpline
 70
8
 71
3
 72
8
 73
4
 74
0
 40
0
 40
0
 40
0
 40
0
 40
1
 40
1
 40
1
 40
1
 10
243.528421
 20
9.720523
 30
0.0
 10
243.847232
 20
9.401711
 30
0.0
 10
244.279634
 20
9.222605
 30
0.0
 10
244.730502
 20
9.222605
 30
0.0
  0
SPLINE
  5
158
100
AcDbEntity
  8
Layer_1
 62
1
100
AcDbSpline
 70
8
 71
3
 72
8
 73
4
 74
0
 40
0
 40
0
 40
0
 40
0
 40
1
 40
1
 40
1
 40
1
 10
244.730502
 20
9.222605
 30
0.0
 10
245.181370
 20
9.222605
 30
0.0
 10
245.613772
 20
9.401711
 30
0.0
 10
245.932584
 20
9.720523
 30
0.0
  0
SPLINE
  5
159
100
AcDbEntity
  8
Layer_1
 62
1
100
AcDbSpline
 70
8
 71
3
 72
8
 73
4
 74
0
 40
0
 40
0
 40
0
 40
0
 40
1
 40
1
 40
1
 40
1
 10
245.932584
 20
9.720523
 30
0.0
 10
246.251396
 20
10.039335
 30
0.0
 10
246.430503
 20
10.471737
 30
0.0
 10
246.430503
 20
10.922605
 30
0.0
  0
LWPOLYLINE
  5
15a
100
AcDbEntity
  8
Layer_1
 62
1
100
AcDbPolyline
 90
1
 70
1
 10
16.125543
 20
100.415612
 30
0.0
  0
SPLINE
  5
15b
100
AcDbEntity
  8
Layer_1
 62
1
100
AcDbSpline
 70
8
 71
3
 72
8
 73
4
 74
0
 40
0
 40
0
 40
0
 40
0
 40
1
 40
1
 40
1
 40
1
 10
166.278029
 20
100.415612
 30
0.0
 10
166.278029
 20
100.866480
 30
0.0
 10
166.098922
 20
101.298882
 30
0.0
 10
165.780110
 20
101.617694
 30
0.0
  0
SPLINE
  5
15c
100
AcDbEntity
  8
Layer_1
 62
1
100
AcDbSpline
 70
8
 71
3
 72
8
 73
4
 74
0
 40
0
 40
0
 40
0
 40
0
 40
1
 40
1
 40
1
 40
1
 10
165.780110
 20
101.617694
 30
0.0
 10
165.461298
 20
101.936506
 30
0.0
 10
165.028897
 20
102.115613
 30
0.0
 10
164.578028
 20
102.115613
 30
0.0
  0
SPLINE
  5
15d
100
AcDbEntity
  8
Layer_1
 62
1
100
AcDbSpline
 70
8
 71
3
 72
8
 73
4
 74
0
 40
0
 40
0
 40
0
 40
0
 40
1
 40
1
 40
1
 40
1
 10
164.578028
 20
102.115613
 30
0.0
 10
164.127160
 20
102.115613
 30
0.0
 10
163.694759
 20
101.936506
 30
0.0
 10
163.375947
 20
101.617694
 30
0.0
  0
SPLINE
  5
15e
100
AcDbEntity
  8
Layer_1
 62
1
100
AcDbSpline
 70
8
 71
3
 72
8
 73
4
 74
0
 40
0
 40
0
 40
0
 40
0
 40
1
 40
1
 40
1
 40
1
 10
163.375947
 20
101.617694
 30
0.0
 10
163.057135
 20
101.298882
 30
0.0
 10
162.878028
 20
100.866480
 30
0.0
 10
162.878028
 20
100.415612
 30
0.0
  0
SPLINE
  5
15f
100
AcDbEntity
  8
Layer_1
 62
1
100
AcDbSpline
 70
8
 71
3
 72
8
 73
4
 74
0
 40
0
 40
0
 40
0
 40
0
 40
1
 40
1
 40
1
 40
1
 10
162.878028
 20
100.415612
 30
0.0
 10
162.878028
 20
99.964744
 30
0.0
 10
163.057135
 20
99.532342
 30
0.0
 10
163.375947
 20
99.213531
 30
0.0
  0
SPLINE
  5
160
100
AcDbEntity
  8
Layer_1
 62
1
100
AcDbSpline
 70
8
 71
3
 72
8
 73
4
 74
0
 40
0
 40
0
 40
0
 40
0
 40
1
 40
1
 40
1
 40
1
 10
163.375947
 20
99.213531
 30
0.0
 10
163.694759
 20
98.894719
 30
0.0
 10
164.127160
 20
98.715612
 30
0.0
 10
164.578028
 20
98.715612
 30
0.0
  0
SPLINE
  5
161
100
AcDbEntity
  8
Layer_1
 62
1
100
AcDbSpline
 70
8
 71
3
 72
8
 73
4
 74
0
 40
0
 40
0
 40
0
 40
0
 40
1
 40
1
 40
1
 40
1
 10
164.578028
 20
98.715612
 30
0.0
 10
165.028897
 20
98.715612
 30
0.0
 10
165.461298
 20
98.894719
 30
0.0
 10
165.780110
 20
99.213531
 30
0.0
  0
SPLINE
  5
162
100
AcDbEntity
  8
Layer_1
 62
1
100
AcDbSpline
 70
8
 71
3
 72
8
 73
4
 74
0
 40
0
 40
0
 40
0
 40
0
 40
1
 40
1
 40
1
 40
1
 10
165.780110
 20
99.213531
 30
0.0
 10
166.098922
 20
99.532342
 30
0.0
 10
166.278029
 20
99.964744
 30
0.0
 10
166.278029
 20
100.415612
 30
0.0
  0
LWPOLYLINE
  5
163
100
AcDbEntity
  8
Layer_1
 62
1
100
AcDbPolyline
 90
1
 70
1
 10
246.430503
 20
10.922605
 30
0.0
  0
SPLINE
  5
164
100
AcDbEntity
  8
Layer_1
 62
1
100
AcDbSpline
 70
8
 71
3
 72
8
 73
4
 74
0
 40
0
 40
0
 40
0
 40
0
 40
1
 40
1
 40
1
 40
1
 10
246.430503
 20
100.415612
 30
0.0
 10
246.430503
 20
100.866480
 30
0.0
 10
246.251396
 20
101.298882
 30
0.0
 10
245.932584
 20
101.617694
 30
0.0
  0
SPLINE
  5
165
100
AcDbEntity
  8
Layer_1
 62
1
100
AcDbSpline
 70
8
 71
3
 72
8
 73
4
 74
0
 40
0
 40
0
 40
0
 40
0
 40
1
 40
1
 40
1
 40
1
 10
245.932584
 20
101.617694
 30
0.0
 10
245.613772
 20
101.936506
 30
0.0
 10
245.181370
 20
102.115613
 30
0.0
 10
244.730502
 20
102.115613
 30
0.0
  0
SPLINE
  5
166
100
AcDbEntity
  8
Layer_1
 62
1
100
AcDbSpline
 70
8
 71
3
 72
8
 73
4
 74
0
 40
0
 40
0
 40
0
 40
0
 40
1
 40
1
 40
1
 40
1
 10
244.730502
 20
102.115613
 30
0.0
 10
244.279634
 20
102.115613
 30
0.0
 10
243.847232
 20
101.936506
 30
0.0
 10
243.528421
 20
101.617694
 30
0.0
  0
SPLINE
  5
167
100
AcDbEntity
  8
Layer_1
 62
1
100
AcDbSpline
 70
8
 71
3
 72
8
 73
4
 74
0
 40
0
 40
0
 40
0
 40
0
 40
1
 40
1
 40
1
 40
1
 10
243.528421
 20
101.617694
 30
0.0
 10
243.209609
 20
101.298882
 30
0.0
 10
243.030502
 20
100.866480
 30
0.0
 10
243.030502
 20
100.415612
 30
0.0
  0
SPLINE
  5
168
100
AcDbEntity
  8
Layer_1
 62
1
100
AcDbSpline
 70
8
 71
3
 72
8
 73
4
 74
0
 40
0
 40
0
 40
0
 40
0
 40
1
 40
1
 40
1
 40
1
 10
243.030502
 20
100.415612
 30
0.0
 10
243.030502
 20
99.964744
 30
0.0
 10
243.209609
 20
99.532342
 30
0.0
 10
243.528421
 20
99.213531
 30
0.0
  0
SPLINE
  5
169
100
AcDbEntity
  8
Layer_1
 62
1
100
AcDbSpline
 70
8
 71
3
 72
8
 73
4
 74
0
 40
0
 40
0
 40
0
 40
0
 40
1
 40
1
 40
1
 40
1
 10
243.528421
 20
99.213531
 30
0.0
 10
243.847232
 20
98.894719
 30
0.0
 10
244.279634
 20
98.715612
 30
0.0
 10
244.730502
 20
98.715612
 30
0.0
  0
SPLINE
  5
16a
100
AcDbEntity
  8
Layer_1
 62
1
100
AcDbSpline
 70
8
 71
3
 72
8
 73
4
 74
0
 40
0
 40
0
 40
0
 40
0
 40
1
 40
1
 40
1
 40
1
 10
244.730502
 20
98.715612
 30
0.0
 10
245.181370
 20
98.715612
 30
0.0
 10
245.613772
 20
98.894719
 30
0.0
 10
245.932584
 20
99.213531
 30
0.0
  0
SPLINE
  5
16b
100
AcDbEntity
  8
Layer_1
 62
1
100
AcDbSpline
 70
8
 71
3
 72
8
 73
4
 74
0
 40
0
 40
0
 40
0
 40
0
 40
1
 40
1
 40
1
 40
1
 10
245.932584
 20
99.213531
 30
0.0
 10
246.251396
 20
99.532342
 30
0.0
 10
246.430503
 20
99.964744
 30
0.0
 10
246.430503
 20
100.415612
 30
0.0
  0
LWPOLYLINE
  5
16c
100
AcDbEntity
  8
Layer_1
 62
1
100
AcDbPolyline
 90
1
 70
1
 10
166.278029
 20
100.415612
 30
0.0
  0
SPLINE
  5
16d
100
AcDbEntity
  8
Layer_1
 62
7
100
AcDbSpline
 70
8
 71
3
 72
8
 73
4
 74
0
 40
0
 40
0
 40
0
 40
0
 40
1
 40
1
 40
1
 40
1
 10
129.578022
 20
12.622604
 30
0.0
 10
128.641303
 20
12.619556
 30
0.0
 10
127.883554
 20
11.859338
 30
0.0
 10
127.883554
 20
10.922613
 30
0.0
  0
SPLINE
  5
16e
100
AcDbEntity
  8
Layer_1
 62
7
100
AcDbSpline
 70
8
 71
3
 72
8
 73
4
 74
0
 40
0
 40
0
 40
0
 40
0
 40
1
 40
1
 40
1
 40
1
 10
127.883554
 20
10.922613
 30
0.0
 10
127.883554
 20
9.985888
 30
0.0
 10
128.641303
 20
9.225670
 30
0.0
 10
129.578022
 20
9.222622
 30
0.0
  0
SPLINE
  5
16f
100
AcDbEntity
  8
Layer_1
 62
7
100
AcDbSpline
 70
8
 71
3
 72
8
 73
4
 74
0
 40
0
 40
0
 40
0
 40
0
 40
1
 40
1
 40
1
 40
1
 10
129.578022
 20
9.222622
 30
0.0
 10
130.185374
 20
9.222622
 30
0.0
 10
130.746590
 20
9.546640
 30
0.0
 10
131.050266
 20
10.072622
 30
0.0
  0
SPLINE
  5
170
100
AcDbEntity
  8
Layer_1
 62
7
100
AcDbSpline
 70
8
 71
3
 72
8
 73
4
 74
0
 40
0
 40
0
 40
0
 40
0
 40
1
 40
1
 40
1
 40
1
 10
131.050266
 20
10.072622
 30
0.0
 10
131.353942
 20
10.598604
 30
0.0
 10
131.353942
 20
11.246640
 30
0.0
 10
131.050266
 20
11.772622
 30
0.0
  0
SPLINE
  5
171
100
AcDbEntity
  8
Layer_1
 62
7
100
AcDbSpline
 70
8
 71
3
 72
8
 73
4
 74
0
 40
0
 40
0
 40
0
 40
0
 40
1
 40
1
 40
1
 40
1
 10
131.050266
 20
11.772622
 30
0.0
 10
130.746590
 20
12.298604
 30
0.0
 10
130.185374
 20
12.622622
 30
0.0
 10
129.578022
 20
12.622622
 30
0.0
  0
LWPOLYLINE
  5
172
100
AcDbEntity
  8
Layer_1
 62
1
100
AcDbPolyline
 90
1
 70
1
 10
246.430503
 20
100.415612
 30
0.0
  0
ENDSEC
  0
SECTION
  2
OBJECTS
  0
DICTIONARY
  5
C
330
0
100
AcDbDictionary
  3
ACAD_GROUP
350
D
  3
ACAD_MLINESTYLE
350
17
  0
DICTIONARY
  5
D
330
C
100
AcDbDictionary
  0
DICTIONARY
  5
1A
330
C
100
AcDbDictionary
  0
DICTIONARY
  5
17
330
C
100
AcDbDictionary
  3
STANDARD
350
18
  0
DICTIONARY
  5
19
330
C
100
AcDbDictionary
  0
ENDSEC
  0
EOF
