  0
SECTION
  2
HEADER
  9
$ACADVER
  1
AC1014
  9
$HANDSEED
  5
FFFF
  9
$MEASUREMENT
 70
     1
  0
ENDSEC
  0
SECTION
  2
TABLES
  0
TABLE
  2
VPORT
  5
8
330
0
100
AcDbSymbolTable
 70
     4
  0
VPORT
  5
2E
330
8
100
AcDbSymbolTableRecord
100
AcDbViewportTableRecord
  2
*ACTIVE
 70
     0
 10
0.0
 20
0.0
 11
1.0
 21
1.0
 12
210.0
 22
148.5
 13
0.0
 23
0.0
 14
10.0
 24
10.0
 15
10.0
 25
10.0
 16
0.0
 26
0.0
 36
1.0
 17
0.0
 27
0.0
 37
0.0
 40
341.0
 41
1.24
 42
50.0
 43
0.0
 44
0.0
 50
0.0
 51
0.0
 71
     0
 72
   100
 73
     1
 74
     3
 75
     0
 76
     0
 77
     0
 78
     0
  0
ENDTAB
  0
TABLE
  2
LTYPE
  5
5
330
0
100
AcDbSymbolTable
 70
     1
  0
LTYPE
  5
14
330
5
100
AcDbSymbolTableRecord
100
AcDbLinetypeTableRecord
  2
BYBLOCK
 70
     0
  3

 72
    65
 73
     0
 40
0.0
  0
LTYPE
  5
15
330
5
100
AcDbSymbolTableRecord
100
AcDbLinetypeTableRecord
  2
BYLAYER
 70
     0
  3

 72
    65
 73
     0
 40
0.0
  0
LTYPE
  5
16
330
5
100
AcDbSymbolTableRecord
100
AcDbLinetypeTableRecord
  2
CONTINUOUS
 70
     0
  3
Solid line
 72
    65
 73
     0
 40
0.0
  0
ENDTAB
  0
TABLE
  2
LAYER
  5
2
100
AcDbSymbolTable
 70
1
  0
LAYER
  5
50
100
AcDbSymbolTableRecord
100
AcDbLayerTableRecord
  2
0
 70
0
  6
CONTINUOUS
  0
ENDTAB
  0
TABLE
  2
STYLE
  5
3
330
0
100
AcDbSymbolTable
 70
     1
  0
STYLE
  5
11
330
3
100
AcDbSymbolTableRecord
100
AcDbTextStyleTableRecord
  2
STANDARD
 70
     0
 40
0.0
 41
1.0
 50
0.0
 71
     0
 42
2.5
  3
txt
  4

  0
ENDTAB
  0
TABLE
  2
VIEW
  5
6
330
0
100
AcDbSymbolTable
 70
     0
  0
ENDTAB
  0
TABLE
  2
UCS
  5
7
330
0
100
AcDbSymbolTable
 70
     0
  0
ENDTAB
  0
TABLE
  2
APPID
  5
9
330
0
100
AcDbSymbolTable
 70
     2
  0
APPID
  5
12
330
9
100
AcDbSymbolTableRecord
100
AcDbRegAppTableRecord
  2
ACAD
 70
     0
  0
ENDTAB
  0
TABLE
  2
DIMSTYLE
  5
A
330
0
100
AcDbSymbolTable
 70
     1
  0
DIMSTYLE
105
27
330
A
100
AcDbSymbolTableRecord
100
AcDbDimStyleTableRecord
  2
ISO-25
 70
     0
  3

  4

  5

  6

  7

 40
1.0
 41
2.5
 42
0.625
 43
3.75
 44
1.25
 45
0.0
 46
0.0
 47
0.0
 48
0.0
140
2.5
141
2.5
142
0.0
143
0.03937007874016
144
1.0
145
0.0
146
1.0
147
0.625
 71
     0
 72
     0
 73
     0
 74
     0
 75
     0
 76
     0
 77
     1
 78
     8
170
     0
171
     3
172
     1
173
     0
174
     0
175
     0
176
     0
177
     0
178
     0
270
     2
271
     2
272
     2
273
     2
274
     3
340
11
275
     0
280
     0
281
     0
282
     0
283
     0
284
     8
285
     0
286
     0
287
     3
288
     0
  0
ENDTAB
  0
TABLE
  2
BLOCK_RECORD
  5
1
330
0
100
AcDbSymbolTable
 70
     1
  0
BLOCK_RECORD
  5
1F
330
1
100
AcDbSymbolTableRecord
100
AcDbBlockTableRecord
  2
*MODEL_SPACE
  0
BLOCK_RECORD
  5
1B
330
1
100
AcDbSymbolTableRecord
100
AcDbBlockTableRecord
  2
*PAPER_SPACE
  0
ENDTAB
  0
ENDSEC
  0
SECTION
  2
BLOCKS
  0
BLOCK
  5
20
330
1F
100
AcDbEntity
  8
0
100
AcDbBlockBegin
  2
*MODEL_SPACE
 70
     0
 10
0.0
 20
0.0
 30
0.0
  3
*MODEL_SPACE
  1

  0
ENDBLK
  5
21
330
1F
100
AcDbEntity
  8
0
100
AcDbBlockEnd
  0
BLOCK
  5
1C
330
1B
100
AcDbEntity
 67
     1
  8
0
100
AcDbBlockBegin
  2
*PAPER_SPACE
  1

  0
ENDBLK
  5
1D
330
1B
100
AcDbEntity
 67
     1
  8
0
100
AcDbBlockEnd
  0
ENDSEC
  0
SECTION
  2
ENTITIES
  0
SPLINE
  5
100
100
AcDbEntity
  8
0
 62
7
100
AcDbSpline
 70
8
 71
3
 72
8
 73
4
 74
0
 40
0
 40
0
 40
0
 40
0
 40
1
 40
1
 40
1
 40
1
 10
1.087700
 20
26.890818
 30
0.0
 10
1.020379
 20
26.342777
 30
0.0
 10
1.409981
 20
25.843890
 30
0.0
 10
1.958000
 20
25.776394
 30
0.0
  0
LWPOLYLINE
  5
101
100
AcDbEntity
  8
0
 62
7
100
AcDbPolyline
 90
2
 70
0
 10
9.630740
 20
96.468300
 30
0.0
 10
1.087700
 20
26.890818
 30
0.0
  0
SPLINE
  5
102
100
AcDbEntity
  8
0
 62
7
100
AcDbSpline
 70
8
 71
3
 72
8
 73
4
 74
0
 40
0
 40
0
 40
0
 40
0
 40
1
 40
1
 40
1
 40
1
 10
9.898745
 20
24.801448
 30
0.0
 10
10.446844
 20
24.734237
 30
0.0
 10
10.945676
 20
25.124010
 30
0.0
 10
11.013000
 20
25.672094
 30
0.0
  0
LWPOLYLINE
  5
103
100
AcDbEntity
  8
0
 62
7
100
AcDbPolyline
 90
2
 70
0
 10
1.958000
 20
25.776394
 30
0.0
 10
9.898745
 20
24.801448
 30
0.0
  0
SPLINE
  5
104
100
AcDbEntity
  8
0
 62
7
100
AcDbSpline
 70
8
 71
3
 72
8
 73
4
 74
0
 40
0
 40
0
 40
0
 40
0
 40
1
 40
1
 40
1
 40
1
 10
11.378769
 20
28.649763
 30
0.0
 10
11.446101
 20
29.197831
 30
0.0
 10
11.944915
 20
29.587592
 30
0.0
 10
12.492999
 20
29.520394
 30
0.0
  0
LWPOLYLINE
  5
105
100
AcDbEntity
  8
0
 62
7
100
AcDbPolyline
 90
2
 70
0
 10
11.013000
 20
25.672094
 30
0.0
 10
11.378769
 20
28.649763
 30
0.0
  0
SPLINE
  5
106
100
AcDbEntity
  8
0
 62
7
100
AcDbSpline
 70
8
 71
3
 72
8
 73
4
 74
0
 40
0
 40
0
 40
0
 40
0
 40
1
 40
1
 40
1
 40
1
 10
33.057499
 20
26.995459
 30
0.0
 10
33.320752
 20
26.963143
 30
0.0
 10
33.560384
 20
26.827569
 30
0.0
 10
33.723674
 20
26.618564
 30
0.0
  0
SPLINE
  5
107
100
AcDbEntity
  8
0
 62
7
100
AcDbSpline
 70
8
 71
3
 72
8
 73
4
 74
0
 40
0
 40
0
 40
0
 40
0
 40
1
 40
1
 40
1
 40
1
 10
33.723674
 20
26.618564
 30
0.0
 10
33.886964
 20
26.409559
 30
0.0
 10
33.960534
 20
26.144245
 30
0.0
 10
33.928198
 20
25.880994
 30
0.0
  0
LWPOLYLINE
  5
108
100
AcDbEntity
  8
0
 62
7
100
AcDbPolyline
 90
2
 70
0
 10
12.492999
 20
29.520394
 30
0.0
 10
33.057499
 20
26.995459
 30
0.0
  0
SPLINE
  5
109
100
AcDbEntity
  8
0
 62
7
100
AcDbSpline
 70
8
 71
3
 72
8
 73
4
 74
0
 40
0
 40
0
 40
0
 40
0
 40
1
 40
1
 40
1
 40
1
 10
32.430402
 20
13.682652
 30
0.0
 10
32.398068
 20
13.419403
 30
0.0
 10
32.471639
 20
13.154091
 30
0.0
 10
32.634928
 20
12.945088
 30
0.0
  0
SPLINE
  5
10a
100
AcDbEntity
  8
0
 62
7
100
AcDbSpline
 70
8
 71
3
 72
8
 73
4
 74
0
 40
0
 40
0
 40
0
 40
0
 40
1
 40
1
 40
1
 40
1
 10
32.634928
 20
12.945088
 30
0.0
 10
32.798217
 20
12.736085
 30
0.0
 10
33.037847
 20
12.600512
 30
0.0
 10
33.301099
 20
12.568195
 30
0.0
  0
LWPOLYLINE
  5
10b
100
AcDbEntity
  8
0
 62
7
100
AcDbPolyline
 90
2
 70
0
 10
33.928198
 20
25.880994
 30
0.0
 10
32.430402
 20
13.682652
 30
0.0
  0
SPLINE
  5
10c
100
AcDbEntity
  8
0
 62
7
100
AcDbSpline
 70
8
 71
3
 72
8
 73
4
 74
0
 40
0
 40
0
 40
0
 40
0
 40
1
 40
1
 40
1
 40
1
 10
76.458224
 20
7.269205
 30
0.0
 10
77.006388
 20
7.201897
 30
0.0
 10
77.396200
 20
6.702960
 30
0.0
 10
77.328897
 20
6.154795
 30
0.0
  0
LWPOLYLINE
  5
10d
100
AcDbEntity
  8
0
 62
7
100
AcDbPolyline
 90
2
 70
0
 10
33.301099
 20
12.568195
 30
0.0
 10
76.458224
 20
7.269205
 30
0.0
  0
SPLINE
  5
10e
100
AcDbEntity
  8
0
 62
7
100
AcDbSpline
 70
8
 71
3
 72
8
 73
4
 74
0
 40
0
 40
0
 40
0
 40
0
 40
1
 40
1
 40
1
 40
1
 10
76.963293
 20
3.177152
 30
0.0
 10
76.930960
 20
2.913901
 30
0.0
 10
77.004531
 20
2.648589
 30
0.0
 10
77.167822
 20
2.439586
 30
0.0
  0
SPLINE
  5
10f
100
AcDbEntity
  8
0
 62
7
100
AcDbSpline
 70
8
 71
3
 72
8
 73
4
 74
0
 40
0
 40
0
 40
0
 40
0
 40
1
 40
1
 40
1
 40
1
 10
77.167822
 20
2.439586
 30
0.0
 10
77.331112
 20
2.230583
 30
0.0
 10
77.570744
 20
2.095010
 30
0.0
 10
77.833997
 20
2.062696
 30
0.0
  0
LWPOLYLINE
  5
110
100
AcDbEntity
  8
0
 62
7
100
AcDbPolyline
 90
2
 70
0
 10
77.328897
 20
6.154795
 30
0.0
 10
76.963293
 20
3.177152
 30
0.0
  0
SPLINE
  5
111
100
AcDbEntity
  8
0
 62
7
100
AcDbSpline
 70
8
 71
3
 72
8
 73
4
 74
0
 40
0
 40
0
 40
0
 40
0
 40
1
 40
1
 40
1
 40
1
 10
85.774338
 20
1.087782
 30
0.0
 10
86.037590
 20
1.055448
 30
0.0
 10
86.302904
 20
1.129021
 30
0.0
 10
86.511908
 20
1.292314
 30
0.0
  0
SPLINE
  5
112
100
AcDbEntity
  8
0
 62
7
100
AcDbSpline
 70
8
 71
3
 72
8
 73
4
 74
0
 40
0
 40
0
 40
0
 40
0
 40
1
 40
1
 40
1
 40
1
 10
86.511908
 20
1.292314
 30
0.0
 10
86.720912
 20
1.455606
 30
0.0
 10
86.856484
 20
1.695241
 30
0.0
 10
86.888796
 20
1.958496
 30
0.0
  0
LWPOLYLINE
  5
113
100
AcDbEntity
  8
0
 62
7
100
AcDbPolyline
 90
2
 70
0
 10
77.833997
 20
2.062696
 30
0.0
 10
85.774338
 20
1.087782
 30
0.0
  0
SPLINE
  5
114
100
AcDbEntity
  8
0
 62
7
100
AcDbSpline
 70
8
 71
3
 72
8
 73
4
 74
0
 40
0
 40
0
 40
0
 40
0
 40
1
 40
1
 40
1
 40
1
 10
87.254362
 20
4.936097
 30
0.0
 10
87.286678
 20
5.199344
 30
0.0
 10
87.422248
 20
5.438971
 30
0.0
 10
87.631246
 20
5.602259
 30
0.0
  0
SPLINE
  5
115
100
AcDbEntity
  8
0
 62
7
100
AcDbSpline
 70
8
 71
3
 72
8
 73
4
 74
0
 40
0
 40
0
 40
0
 40
0
 40
1
 40
1
 40
1
 40
1
 10
87.631246
 20
5.602259
 30
0.0
 10
87.840244
 20
5.765548
 30
0.0
 10
88.105550
 20
5.839122
 30
0.0
 10
88.368796
 20
5.806795
 30
0.0
  0
LWPOLYLINE
  5
116
100
AcDbEntity
  8
0
 62
7
100
AcDbPolyline
 90
2
 70
0
 10
86.888796
 20
1.958496
 30
0.0
 10
87.254362
 20
4.936097
 30
0.0
  0
SPLINE
  5
117
100
AcDbEntity
  8
0
 62
7
100
AcDbSpline
 70
8
 71
3
 72
8
 73
4
 74
0
 40
0
 40
0
 40
0
 40
0
 40
1
 40
1
 40
1
 40
1
 10
98.294238
 20
4.588080
 30
0.0
 10
98.557490
 20
4.555747
 30
0.0
 10
98.822804
 20
4.629320
 30
0.0
 10
99.031808
 20
4.792613
 30
0.0
  0
SPLINE
  5
118
100
AcDbEntity
  8
0
 62
7
100
AcDbSpline
 70
8
 71
3
 72
8
 73
4
 74
0
 40
0
 40
0
 40
0
 40
0
 40
1
 40
1
 40
1
 40
1
 10
99.031808
 20
4.792613
 30
0.0
 10
99.240812
 20
4.955906
 30
0.0
 10
99.376384
 20
5.195541
 30
0.0
 10
99.408696
 20
5.458795
 30
0.0
  0
LWPOLYLINE
  5
119
100
AcDbEntity
  8
0
 62
7
100
AcDbPolyline
 90
2
 70
0
 10
88.368796
 20
5.806795
 30
0.0
 10
98.294238
 20
4.588080
 30
0.0
  0
SPLINE
  5
11a
100
AcDbEntity
  8
0
 62
7
100
AcDbSpline
 70
8
 71
3
 72
8
 73
4
 74
0
 40
0
 40
0
 40
0
 40
0
 40
1
 40
1
 40
1
 40
1
 10
109.634710
 20
88.743301
 30
0.0
 10
109.667024
 20
89.006542
 30
0.0
 10
109.593442
 20
89.271839
 30
0.0
 10
109.430151
 20
89.480828
 30
0.0
  0
SPLINE
  5
11b
100
AcDbEntity
  8
0
 62
7
100
AcDbSpline
 70
8
 71
3
 72
8
 73
4
 74
0
 40
0
 40
0
 40
0
 40
0
 40
1
 40
1
 40
1
 40
1
 10
109.430151
 20
89.480828
 30
0.0
 10
109.266861
 20
89.689817
 30
0.0
 10
109.027237
 20
89.825379
 30
0.0
 10
108.763995
 20
89.857692
 30
0.0
  0
LWPOLYLINE
  5
11c
100
AcDbEntity
  8
0
 62
7
100
AcDbPolyline
 90
2
 70
0
 10
99.408696
 20
5.458795
 30
0.0
 10
109.634710
 20
88.743301
 30
0.0
  0
SPLINE
  5
11d
100
AcDbEntity
  8
0
 62
7
100
AcDbSpline
 70
8
 71
3
 72
8
 73
4
 74
0
 40
0
 40
0
 40
0
 40
0
 40
1
 40
1
 40
1
 40
1
 10
100.823664
 20
90.832671
 30
0.0
 10
100.275512
 20
90.899949
 30
0.0
 10
99.776602
 20
90.510140
 30
0.0
 10
99.709296
 20
89.961992
 30
0.0
  0
LWPOLYLINE
  5
11e
100
AcDbEntity
  8
0
 62
7
100
AcDbPolyline
 90
2
 70
0
 10
108.763995
 20
89.857692
 30
0.0
 10
100.823664
 20
90.832671
 30
0.0
  0
SPLINE
  5
11f
100
AcDbEntity
  8
0
 62
7
100
AcDbSpline
 70
8
 71
3
 72
8
 73
4
 74
0
 40
0
 40
0
 40
0
 40
0
 40
1
 40
1
 40
1
 40
1
 10
99.372889
 20
87.222567
 30
0.0
 10
99.305582
 20
86.674409
 30
0.0
 10
98.806655
 20
86.284598
 30
0.0
 10
98.258496
 20
86.351892
 30
0.0
  0
LWPOLYLINE
  5
120
100
AcDbEntity
  8
0
 62
7
100
AcDbPolyline
 90
2
 70
0
 10
99.709296
 20
89.961992
 30
0.0
 10
99.372889
 20
87.222567
 30
0.0
  0
SPLINE
  5
121
100
AcDbEntity
  8
0
 62
7
100
AcDbSpline
 70
8
 71
3
 72
8
 73
4
 74
0
 40
0
 40
0
 40
0
 40
0
 40
1
 40
1
 40
1
 40
1
 10
72.353020
 20
89.532680
 30
0.0
 10
72.089773
 20
89.564990
 30
0.0
 10
71.850144
 20
89.700554
 30
0.0
 10
71.686850
 20
89.909548
 30
0.0
  0
SPLINE
  5
122
100
AcDbEntity
  8
0
 62
7
100
AcDbSpline
 70
8
 71
3
 72
8
 73
4
 74
0
 40
0
 40
0
 40
0
 40
0
 40
1
 40
1
 40
1
 40
1
 10
71.686850
 20
89.909548
 30
0.0
 10
71.523557
 20
90.118542
 30
0.0
 10
71.449977
 20
90.383845
 30
0.0
 10
71.482297
 20
90.647092
 30
0.0
  0
LWPOLYLINE
  5
123
100
AcDbEntity
  8
0
 62
7
100
AcDbPolyline
 90
2
 70
0
 10
98.258496
 20
86.351892
 30
0.0
 10
72.353020
 20
89.532680
 30
0.0
  0
SPLINE
  5
124
100
AcDbEntity
  8
0
 62
7
100
AcDbSpline
 70
8
 71
3
 72
8
 73
4
 74
0
 40
0
 40
0
 40
0
 40
0
 40
1
 40
1
 40
1
 40
1
 10
71.818703
 20
93.386522
 30
0.0
 10
71.885981
 20
93.934684
 30
0.0
 10
71.496156
 20
94.433599
 30
0.0
 10
70.947997
 20
94.500891
 30
0.0
  0
LWPOLYLINE
  5
125
100
AcDbEntity
  8
0
 62
7
100
AcDbPolyline
 90
2
 70
0
 10
71.482297
 20
90.647092
 30
0.0
 10
71.818703
 20
93.386522
 30
0.0
  0
SPLINE
  5
126
100
AcDbEntity
  8
0
 62
7
100
AcDbSpline
 70
8
 71
3
 72
8
 73
4
 74
0
 40
0
 40
0
 40
0
 40
0
 40
1
 40
1
 40
1
 40
1
 10
49.112012
 20
97.182063
 30
0.0
 10
48.563846
 20
97.249369
 30
0.0
 10
48.064907
 20
96.859557
 30
0.0
 10
47.997598
 20
96.311391
 30
0.0
  0
LWPOLYLINE
  5
127
100
AcDbEntity
  8
0
 62
7
100
AcDbPolyline
 90
2
 70
0
 10
70.947997
 20
94.500891
 30
0.0
 10
49.112012
 20
97.182063
 30
0.0
  0
SPLINE
  5
128
100
AcDbEntity
  8
0
 62
7
100
AcDbSpline
 70
8
 71
3
 72
8
 73
4
 74
0
 40
0
 40
0
 40
0
 40
0
 40
1
 40
1
 40
1
 40
1
 10
47.661237
 20
93.571959
 30
0.0
 10
47.628913
 20
93.308717
 30
0.0
 10
47.493340
 20
93.069097
 30
0.0
 10
47.284341
 20
92.905814
 30
0.0
  0
SPLINE
  5
129
100
AcDbEntity
  8
0
 62
7
100
AcDbSpline
 70
8
 71
3
 72
8
 73
4
 74
0
 40
0
 40
0
 40
0
 40
0
 40
1
 40
1
 40
1
 40
1
 10
47.284341
 20
92.905814
 30
0.0
 10
47.075343
 20
92.742532
 30
0.0
 10
46.810040
 20
92.668963
 30
0.0
 10
46.546798
 20
92.701291
 30
0.0
  0
LWPOLYLINE
  5
12a
100
AcDbEntity
  8
0
 62
7
100
AcDbPolyline
 90
2
 70
0
 10
47.997598
 20
96.311391
 30
0.0
 10
47.661237
 20
93.571959
 30
0.0
  0
SPLINE
  5
12b
100
AcDbEntity
  8
0
 62
7
100
AcDbSpline
 70
8
 71
3
 72
8
 73
4
 74
0
 40
0
 40
0
 40
0
 40
0
 40
1
 40
1
 40
1
 40
1
 10
29.623911
 20
94.779155
 30
0.0
 10
29.075748
 20
94.846460
 30
0.0
 10
28.576812
 20
94.456652
 30
0.0
 10
28.509499
 20
93.908491
 30
0.0
  0
LWPOLYLINE
  5
12c
100
AcDbEntity
  8
0
 62
7
100
AcDbPolyline
 90
2
 70
0
 10
46.546798
 20
92.701291
 30
0.0
 10
29.623911
 20
94.779155
 30
0.0
  0
SPLINE
  5
12d
100
AcDbEntity
  8
0
 62
7
100
AcDbSpline
 70
8
 71
3
 72
8
 73
4
 74
0
 40
0
 40
0
 40
0
 40
0
 40
1
 40
1
 40
1
 40
1
 10
28.173136
 20
91.169051
 30
0.0
 10
28.140810
 20
90.905810
 30
0.0
 10
28.005236
 20
90.666193
 30
0.0
 10
27.796238
 20
90.502912
 30
0.0
  0
SPLINE
  5
12e
100
AcDbEntity
  8
0
 62
7
100
AcDbSpline
 70
8
 71
3
 72
8
 73
4
 74
0
 40
0
 40
0
 40
0
 40
0
 40
1
 40
1
 40
1
 40
1
 10
27.796238
 20
90.502912
 30
0.0
 10
27.587240
 20
90.339632
 30
0.0
 10
27.321939
 20
90.266063
 30
0.0
 10
27.058699
 20
90.298392
 30
0.0
  0
LWPOLYLINE
  5
12f
100
AcDbEntity
  8
0
 62
7
100
AcDbPolyline
 90
2
 70
0
 10
28.509499
 20
93.908491
 30
0.0
 10
28.173136
 20
91.169051
 30
0.0
  0
SPLINE
  5
130
100
AcDbEntity
  8
0
 62
7
100
AcDbSpline
 70
8
 71
3
 72
8
 73
4
 74
0
 40
0
 40
0
 40
0
 40
0
 40
1
 40
1
 40
1
 40
1
 10
20.061270
 20
91.157553
 30
0.0
 10
19.513256
 20
91.225063
 30
0.0
 10
19.123668
 20
91.723955
 30
0.0
 10
19.190999
 20
92.271992
 30
0.0
  0
LWPOLYLINE
  5
131
100
AcDbEntity
  8
0
 62
7
100
AcDbPolyline
 90
2
 70
0
 10
27.058699
 20
90.298392
 30
0.0
 10
20.061270
 20
91.157553
 30
0.0
  0
SPLINE
  5
132
100
AcDbEntity
  8
0
 62
7
100
AcDbSpline
 70
8
 71
3
 72
8
 73
4
 74
0
 40
0
 40
0
 40
0
 40
0
 40
1
 40
1
 40
1
 40
1
 10
19.556201
 20
95.249607
 30
0.0
 10
19.623502
 20
95.797599
 30
0.0
 10
19.233962
 20
96.296446
 30
0.0
 10
18.685999
 20
96.363991
 30
0.0
  0
LWPOLYLINE
  5
133
100
AcDbEntity
  8
0
 62
7
100
AcDbPolyline
 90
2
 70
0
 10
19.190999
 20
92.271992
 30
0.0
 10
19.556201
 20
95.249607
 30
0.0
  0
SPLINE
  5
134
100
AcDbEntity
  8
0
 62
7
100
AcDbSpline
 70
8
 71
3
 72
8
 73
4
 74
0
 40
0
 40
0
 40
0
 40
0
 40
1
 40
1
 40
1
 40
1
 10
10.745156
 20
97.338977
 30
0.0
 10
10.197079
 20
97.406128
 30
0.0
 10
9.698305
 20
97.016349
 30
0.0
 10
9.631000
 20
96.468291
 30
0.0
  0
LWPOLYLINE
  5
135
100
AcDbEntity
  8
0
 62
7
100
AcDbPolyline
 90
2
 70
0
 10
18.685999
 20
96.363991
 30
0.0
 10
10.745156
 20
97.338977
 30
0.0
  0
LWPOLYLINE
  5
136
100
AcDbEntity
  8
0
 62
7
100
AcDbPolyline
 90
4
 70
1
 10
89.708758
 20
82.364114
 30
0.0
 10
88.002588
 20
68.468469
 30
0.0
 10
101.898233
 20
66.762298
 30
0.0
 10
103.604404
 20
80.657943
 30
0.0
  0
LWPOLYLINE
  5
137
100
AcDbEntity
  8
0
 62
7
100
AcDbPolyline
 90
4
 70
1
 10
87.387147
 20
63.456111
 30
0.0
 10
85.680977
 20
49.560465
 30
0.0
 10
99.576622
 20
47.854295
 30
0.0
 10
101.282793
 20
61.749940
 30
0.0
  0
LWPOLYLINE
  5
138
100
AcDbEntity
  8
0
 62
7
100
AcDbPolyline
 90
4
 70
1
 10
80.053179
 20
45.163548
 30
0.0
 10
66.157533
 20
46.869718
 30
0.0
 10
64.451362
 20
32.974073
 30
0.0
 10
78.347008
 20
31.267902
 30
0.0
  0
LWPOLYLINE
  5
139
100
AcDbEntity
  8
0
 62
7
100
AcDbPolyline
 90
4
 70
1
 10
32.984748
 20
89.328947
 30
0.0
 10
31.278578
 20
75.433301
 30
0.0
 10
45.174223
 20
73.727131
 30
0.0
 10
46.880394
 20
87.622776
 30
0.0
  0
LWPOLYLINE
  5
13a
100
AcDbEntity
  8
0
 62
7
100
AcDbPolyline
 90
4
 70
1
 10
85.065537
 20
44.548108
 30
0.0
 10
83.359366
 20
30.652462
 30
0.0
 10
97.255011
 20
28.946291
 30
0.0
 10
98.961182
 20
42.841937
 30
0.0
  0
LWPOLYLINE
  5
13b
100
AcDbEntity
  8
0
 62
7
100
AcDbPolyline
 90
4
 70
1
 10
30.663137
 20
70.420944
 30
0.0
 10
28.956967
 20
56.525298
 30
0.0
 10
42.852612
 20
54.819127
 30
0.0
 10
44.558783
 20
68.714773
 30
0.0
  0
LWPOLYLINE
  5
13c
100
AcDbEntity
  8
0
 62
7
100
AcDbPolyline
 90
4
 70
1
 10
56.460064
 20
28.867357
 30
0.0
 10
54.753893
 20
14.971711
 30
0.0
 10
40.858248
 20
16.677882
 30
0.0
 10
42.564419
 20
30.573527
 30
0.0
  0
LWPOLYLINE
  5
13d
100
AcDbEntity
  8
0
 62
7
100
AcDbPolyline
 90
4
 70
1
 10
85.479399
 20
11.199093
 30
0.0
 10
87.185570
 20
25.094739
 30
0.0
 10
73.289924
 20
26.800910
 30
0.0
 10
71.583753
 20
12.905264
 30
0.0
  0
LWPOLYLINE
  5
13e
100
AcDbEntity
  8
0
 62
7
100
AcDbPolyline
 90
4
 70
1
 10
11.175036
 20
68.018035
 30
0.0
 10
25.070682
 20
66.311864
 30
0.0
 10
23.364511
 20
52.416219
 30
0.0
 10
9.468865
 20
54.122389
 30
0.0
  0
LWPOLYLINE
  5
13f
100
AcDbEntity
  8
0
 62
7
100
AcDbPolyline
 90
4
 70
1
 10
8.853425
 20
49.110032
 30
0.0
 10
7.147254
 20
35.214386
 30
0.0
 10
21.042900
 20
33.508215
 30
0.0
 10
22.749071
 20
47.403861
 30
0.0
  0
LWPOLYLINE
  5
140
100
AcDbEntity
  8
0
 62
7
100
AcDbPolyline
 90
4
 70
1
 10
68.479144
 20
65.777722
 30
0.0
 10
82.374790
 20
64.071551
 30
0.0
 10
80.668619
 20
50.175906
 30
0.0
 10
66.772973
 20
51.882076
 30
0.0
  0
LWPOLYLINE
  5
141
100
AcDbEntity
  8
0
 62
7
100
AcDbPolyline
 90
4
 70
1
 10
46.123457
 20
40.020203
 30
0.0
 10
47.829628
 20
53.915849
 30
0.0
 10
61.725273
 20
52.209678
 30
0.0
 10
60.019103
 20
38.314033
 30
0.0
  0
LWPOLYLINE
  5
142
100
AcDbEntity
  8
0
 62
7
100
AcDbPolyline
 90
4
 70
1
 10
50.151239
 20
72.823852
 30
0.0
 10
48.445068
 20
58.928207
 30
0.0
 10
62.340714
 20
57.222036
 30
0.0
 10
64.046884
 20
71.117681
 30
0.0
  0
LWPOLYLINE
  5
143
100
AcDbEntity
  8
0
 62
7
100
AcDbPolyline
 90
4
 70
1
 10
52.472850
 20
91.731855
 30
0.0
 10
66.368495
 20
90.025685
 30
0.0
 10
64.662324
 20
76.130039
 30
0.0
 10
50.766679
 20
77.836210
 30
0.0
  0
LWPOLYLINE
  5
144
100
AcDbEntity
  8
0
 62
7
100
AcDbPolyline
 90
4
 70
1
 10
70.800755
 20
84.685725
 30
0.0
 10
84.696401
 20
82.979554
 30
0.0
 10
82.990230
 20
69.083909
 30
0.0
 10
69.094584
 20
70.790080
 30
0.0
  0
LWPOLYLINE
  5
145
100
AcDbEntity
  8
0
 62
7
100
AcDbPolyline
 90
4
 70
1
 10
13.496647
 20
86.926038
 30
0.0
 10
11.790476
 20
73.030393
 30
0.0
 10
25.686122
 20
71.324222
 30
0.0
 10
27.392292
 20
85.219868
 30
0.0
  0
LWPOLYLINE
  5
146
100
AcDbEntity
  8
0
 62
7
100
AcDbPolyline
 90
4
 70
1
 10
28.341527
 20
51.512940
 30
0.0
 10
26.635356
 20
37.617295
 30
0.0
 10
40.531001
 20
35.911124
 30
0.0
 10
42.237172
 20
49.806769
 30
0.0
  0
ENDSEC
  0
SECTION
  2
OBJECTS
  0
DICTIONARY
  5
C
330
0
100
AcDbDictionary
  3
ACAD_GROUP
350
D
  3
ACAD_MLINESTYLE
350
17
  0
DICTIONARY
  5
D
330
C
100
AcDbDictionary
  0
DICTIONARY
  5
1A
330
C
100
AcDbDictionary
  0
DICTIONARY
  5
17
330
C
100
AcDbDictionary
  3
STANDARD
350
18
  0
DICTIONARY
  5
19
330
C
100
AcDbDictionary
  0
ENDSEC
  0
EOF
