  0
SECTION
  2
HEADER
  9
$ACADVER
  1
AC1014
  9
$HANDSEED
  5
FFFF
  9
$MEASUREMENT
 70
     1
  0
ENDSEC
  0
SECTION
  2
TABLES
  0
TABLE
  2
VPORT
  5
8
330
0
100
AcDbSymbolTable
 70
     4
  0
VPORT
  5
2E
330
8
100
AcDbSymbolTableRecord
100
AcDbViewportTableRecord
  2
*ACTIVE
 70
     0
 10
0.0
 20
0.0
 11
1.0
 21
1.0
 12
210.0
 22
148.5
 13
0.0
 23
0.0
 14
10.0
 24
10.0
 15
10.0
 25
10.0
 16
0.0
 26
0.0
 36
1.0
 17
0.0
 27
0.0
 37
0.0
 40
341.0
 41
1.24
 42
50.0
 43
0.0
 44
0.0
 50
0.0
 51
0.0
 71
     0
 72
   100
 73
     1
 74
     3
 75
     0
 76
     0
 77
     0
 78
     0
  0
ENDTAB
  0
TABLE
  2
LTYPE
  5
5
330
0
100
AcDbSymbolTable
 70
     1
  0
LTYPE
  5
14
330
5
100
AcDbSymbolTableRecord
100
AcDbLinetypeTableRecord
  2
BYBLOCK
 70
     0
  3

 72
    65
 73
     0
 40
0.0
  0
LTYPE
  5
15
330
5
100
AcDbSymbolTableRecord
100
AcDbLinetypeTableRecord
  2
BYLAYER
 70
     0
  3

 72
    65
 73
     0
 40
0.0
  0
LTYPE
  5
16
330
5
100
AcDbSymbolTableRecord
100
AcDbLinetypeTableRecord
  2
CONTINUOUS
 70
     0
  3
Solid line
 72
    65
 73
     0
 40
0.0
  0
ENDTAB
  0
TABLE
  2
LAYER
  5
2
100
AcDbSymbolTable
 70
2
  0
LAYER
  5
50
100
AcDbSymbolTableRecord
100
AcDbLayerTableRecord
  2
0
 70
0
  6
CONTINUOUS
  0
LAYER
  5
51
100
AcDbSymbolTableRecord
100
AcDbLayerTableRecord
  2
Layer_1
 70
0
  6
CONTINUOUS
  0
ENDTAB
  0
TABLE
  2
STYLE
  5
3
330
0
100
AcDbSymbolTable
 70
     1
  0
STYLE
  5
11
330
3
100
AcDbSymbolTableRecord
100
AcDbTextStyleTableRecord
  2
STANDARD
 70
     0
 40
0.0
 41
1.0
 50
0.0
 71
     0
 42
2.5
  3
txt
  4

  0
ENDTAB
  0
TABLE
  2
VIEW
  5
6
330
0
100
AcDbSymbolTable
 70
     0
  0
ENDTAB
  0
TABLE
  2
UCS
  5
7
330
0
100
AcDbSymbolTable
 70
     0
  0
ENDTAB
  0
TABLE
  2
APPID
  5
9
330
0
100
AcDbSymbolTable
 70
     2
  0
APPID
  5
12
330
9
100
AcDbSymbolTableRecord
100
AcDbRegAppTableRecord
  2
ACAD
 70
     0
  0
ENDTAB
  0
TABLE
  2
DIMSTYLE
  5
A
330
0
100
AcDbSymbolTable
 70
     1
  0
DIMSTYLE
105
27
330
A
100
AcDbSymbolTableRecord
100
AcDbDimStyleTableRecord
  2
ISO-25
 70
     0
  3

  4

  5

  6

  7

 40
1.0
 41
2.5
 42
0.625
 43
3.75
 44
1.25
 45
0.0
 46
0.0
 47
0.0
 48
0.0
140
2.5
141
2.5
142
0.0
143
0.03937007874016
144
1.0
145
0.0
146
1.0
147
0.625
 71
     0
 72
     0
 73
     0
 74
     0
 75
     0
 76
     0
 77
     1
 78
     8
170
     0
171
     3
172
     1
173
     0
174
     0
175
     0
176
     0
177
     0
178
     0
270
     2
271
     2
272
     2
273
     2
274
     3
340
11
275
     0
280
     0
281
     0
282
     0
283
     0
284
     8
285
     0
286
     0
287
     3
288
     0
  0
ENDTAB
  0
TABLE
  2
BLOCK_RECORD
  5
1
330
0
100
AcDbSymbolTable
 70
     1
  0
BLOCK_RECORD
  5
1F
330
1
100
AcDbSymbolTableRecord
100
AcDbBlockTableRecord
  2
*MODEL_SPACE
  0
BLOCK_RECORD
  5
1B
330
1
100
AcDbSymbolTableRecord
100
AcDbBlockTableRecord
  2
*PAPER_SPACE
  0
ENDTAB
  0
ENDSEC
  0
SECTION
  2
BLOCKS
  0
BLOCK
  5
20
330
1F
100
AcDbEntity
  8
0
100
AcDbBlockBegin
  2
*MODEL_SPACE
 70
     0
 10
0.0
 20
0.0
 30
0.0
  3
*MODEL_SPACE
  1

  0
ENDBLK
  5
21
330
1F
100
AcDbEntity
  8
0
100
AcDbBlockEnd
  0
BLOCK
  5
1C
330
1B
100
AcDbEntity
 67
     1
  8
0
100
AcDbBlockBegin
  2
*PAPER_SPACE
  1

  0
ENDBLK
  5
1D
330
1B
100
AcDbEntity
 67
     1
  8
0
100
AcDbBlockEnd
  0
ENDSEC
  0
SECTION
  2
ENTITIES
  0
LINE
  5
100
100
AcDbEntity
  8
Layer_1
 62
7
100
AcDbLine
 10
5.174946
 20
90.565188
 30
0.0
 11
5.174924
 21
20.465173
 31
0.0
  0
SPLINE
  5
101
100
AcDbEntity
  8
Layer_1
 62
7
100
AcDbSpline
 70
8
 71
3
 72
8
 73
4
 74
0
 40
0
 40
0
 40
0
 40
0
 40
1
 40
1
 40
1
 40
1
 10
5.174924
 20
20.465173
 30
0.0
 10
5.174895
 20
19.913013
 30
0.0
 10
5.622391
 20
19.465326
 30
0.0
 10
6.174551
 20
19.465119
 30
0.0
  0
LINE
  5
102
100
AcDbEntity
  8
Layer_1
 62
7
100
AcDbLine
 10
6.174551
 20
19.465119
 30
0.0
 11
14.174930
 21
19.465171
 31
0.0
  0
SPLINE
  5
103
100
AcDbEntity
  8
Layer_1
 62
7
100
AcDbSpline
 70
8
 71
3
 72
8
 73
4
 74
0
 40
0
 40
0
 40
0
 40
0
 40
1
 40
1
 40
1
 40
1
 10
14.174930
 20
19.465171
 30
0.0
 10
14.727133
 20
19.465259
 30
0.0
 10
15.174742
 20
19.912918
 30
0.0
 10
15.174770
 20
20.465121
 30
0.0
  0
LINE
  5
104
100
AcDbEntity
  8
Layer_1
 62
7
100
AcDbLine
 10
15.174770
 20
20.465121
 30
0.0
 11
15.174928
 21
23.465171
 31
0.0
  0
SPLINE
  5
105
100
AcDbEntity
  8
Layer_1
 62
7
100
AcDbSpline
 70
8
 71
3
 72
8
 73
4
 74
0
 40
0
 40
0
 40
0
 40
0
 40
1
 40
1
 40
1
 40
1
 10
15.174928
 20
23.465171
 30
0.0
 10
15.174965
 20
24.017360
 30
0.0
 10
15.622561
 20
24.465005
 30
0.0
 10
16.174750
 20
24.465104
 30
0.0
  0
LINE
  5
106
100
AcDbEntity
  8
Layer_1
 62
7
100
AcDbLine
 10
16.174750
 20
24.465104
 30
0.0
 11
36.893681
 21
24.465164
 31
0.0
  0
SPLINE
  5
107
100
AcDbEntity
  8
Layer_1
 62
7
100
AcDbSpline
 70
8
 71
3
 72
8
 73
4
 74
0
 40
0
 40
0
 40
0
 40
0
 40
1
 40
1
 40
1
 40
1
 10
36.893681
 20
24.465164
 30
0.0
 10
37.158911
 20
24.465172
 30
0.0
 10
37.413279
 20
24.359812
 30
0.0
 10
37.600823
 20
24.172265
 30
0.0
  0
SPLINE
  5
108
100
AcDbEntity
  8
Layer_1
 62
7
100
AcDbSpline
 70
8
 71
3
 72
8
 73
4
 74
0
 40
0
 40
0
 40
0
 40
0
 40
1
 40
1
 40
1
 40
1
 10
37.600823
 20
24.172265
 30
0.0
 10
37.788367
 20
23.984717
 30
0.0
 10
37.893723
 20
23.730347
 30
0.0
 10
37.893710
 20
23.465118
 30
0.0
  0
LINE
  5
109
100
AcDbEntity
  8
Layer_1
 62
7
100
AcDbLine
 10
37.893710
 20
23.465118
 30
0.0
 11
37.893678
 21
11.175161
 31
0.0
  0
SPLINE
  5
10a
100
AcDbEntity
  8
Layer_1
 62
7
100
AcDbSpline
 70
8
 71
3
 72
8
 73
4
 74
0
 40
0
 40
0
 40
0
 40
0
 40
1
 40
1
 40
1
 40
1
 10
37.893678
 20
11.175161
 30
0.0
 10
37.893667
 20
10.909934
 30
0.0
 10
37.999023
 20
10.655566
 30
0.0
 10
38.186566
 20
10.468020
 30
0.0
  0
SPLINE
  5
10b
100
AcDbEntity
  8
Layer_1
 62
7
100
AcDbSpline
 70
8
 71
3
 72
8
 73
4
 74
0
 40
0
 40
0
 40
0
 40
0
 40
1
 40
1
 40
1
 40
1
 10
38.186566
 20
10.468020
 30
0.0
 10
38.374109
 20
10.280475
 30
0.0
 10
38.628475
 20
10.175115
 30
0.0
 10
38.893703
 20
10.175122
 30
0.0
  0
LINE
  5
10c
100
AcDbEntity
  8
Layer_1
 62
7
100
AcDbLine
 10
38.893703
 20
10.175122
 30
0.0
 11
82.374936
 21
10.175146
 31
0.0
  0
SPLINE
  5
10d
100
AcDbEntity
  8
Layer_1
 62
7
100
AcDbSpline
 70
8
 71
3
 72
8
 73
4
 74
0
 40
0
 40
0
 40
0
 40
0
 40
1
 40
1
 40
1
 40
1
 10
82.374936
 20
10.175146
 30
0.0
 10
82.927218
 20
10.175144
 30
0.0
 10
83.374929
 20
9.727432
 30
0.0
 10
83.374932
 20
9.175151
 30
0.0
  0
LINE
  5
10e
100
AcDbEntity
  8
Layer_1
 62
7
100
AcDbLine
 10
83.374932
 20
9.175151
 30
0.0
 11
83.374935
 21
6.175145
 31
0.0
  0
SPLINE
  5
10f
100
AcDbEntity
  8
Layer_1
 62
7
100
AcDbSpline
 70
8
 71
3
 72
8
 73
4
 74
0
 40
0
 40
0
 40
0
 40
0
 40
1
 40
1
 40
1
 40
1
 10
83.374935
 20
6.175145
 30
0.0
 10
83.374926
 20
5.909917
 30
0.0
 10
83.480282
 20
5.655549
 30
0.0
 10
83.667827
 20
5.468003
 30
0.0
  0
SPLINE
  5
110
100
AcDbEntity
  8
Layer_1
 62
7
100
AcDbSpline
 70
8
 71
3
 72
8
 73
4
 74
0
 40
0
 40
0
 40
0
 40
0
 40
1
 40
1
 40
1
 40
1
 10
83.667827
 20
5.468003
 30
0.0
 10
83.855371
 20
5.280458
 30
0.0
 10
84.109739
 20
5.175100
 30
0.0
 10
84.374967
 20
5.175108
 30
0.0
  0
LINE
  5
111
100
AcDbEntity
  8
Layer_1
 62
7
100
AcDbLine
 10
84.374967
 20
5.175108
 30
0.0
 11
92.374937
 21
5.175142
 31
0.0
  0
SPLINE
  5
112
100
AcDbEntity
  8
Layer_1
 62
7
100
AcDbSpline
 70
8
 71
3
 72
8
 73
4
 74
0
 40
0
 40
0
 40
0
 40
0
 40
1
 40
1
 40
1
 40
1
 10
92.374937
 20
5.175142
 30
0.0
 10
92.640167
 20
5.175132
 30
0.0
 10
92.894537
 20
5.280491
 30
0.0
 10
93.082083
 20
5.468037
 30
0.0
  0
SPLINE
  5
113
100
AcDbEntity
  8
Layer_1
 62
7
100
AcDbSpline
 70
8
 71
3
 72
8
 73
4
 74
0
 40
0
 40
0
 40
0
 40
0
 40
1
 40
1
 40
1
 40
1
 10
93.082083
 20
5.468037
 30
0.0
 10
93.269629
 20
5.655584
 30
0.0
 10
93.374986
 20
5.909954
 30
0.0
 10
93.374975
 20
6.175184
 30
0.0
  0
LINE
  5
114
100
AcDbEntity
  8
Layer_1
 62
7
100
AcDbLine
 10
93.374975
 20
6.175184
 30
0.0
 11
93.374939
 21
9.175143
 31
0.0
  0
SPLINE
  5
115
100
AcDbEntity
  8
Layer_1
 62
7
100
AcDbSpline
 70
8
 71
3
 72
8
 73
4
 74
0
 40
0
 40
0
 40
0
 40
0
 40
1
 40
1
 40
1
 40
1
 10
93.374939
 20
9.175143
 30
0.0
 10
93.374933
 20
9.440366
 30
0.0
 10
93.480289
 20
9.694729
 30
0.0
 10
93.667829
 20
9.882271
 30
0.0
  0
SPLINE
  5
116
100
AcDbEntity
  8
Layer_1
 62
7
100
AcDbSpline
 70
8
 71
3
 72
8
 73
4
 74
0
 40
0
 40
0
 40
0
 40
0
 40
1
 40
1
 40
1
 40
1
 10
93.667829
 20
9.882271
 30
0.0
 10
93.855370
 20
10.069813
 30
0.0
 10
94.109732
 20
10.175171
 30
0.0
 10
94.374955
 20
10.175167
 30
0.0
  0
LINE
  5
117
100
AcDbEntity
  8
Layer_1
 62
7
100
AcDbLine
 10
94.374955
 20
10.175167
 30
0.0
 11
104.374941
 21
10.175140
 31
0.0
  0
SPLINE
  5
118
100
AcDbEntity
  8
Layer_1
 62
7
100
AcDbSpline
 70
8
 71
3
 72
8
 73
4
 74
0
 40
0
 40
0
 40
0
 40
0
 40
1
 40
1
 40
1
 40
1
 10
104.374941
 20
10.175140
 30
0.0
 10
104.640172
 20
10.175130
 30
0.0
 10
104.894542
 20
10.280489
 30
0.0
 10
105.082087
 20
10.468035
 30
0.0
  0
SPLINE
  5
119
100
AcDbEntity
  8
Layer_1
 62
7
100
AcDbSpline
 70
8
 71
3
 72
8
 73
4
 74
0
 40
0
 40
0
 40
0
 40
0
 40
1
 40
1
 40
1
 40
1
 10
105.082087
 20
10.468035
 30
0.0
 10
105.269633
 20
10.655582
 30
0.0
 10
105.374990
 20
10.909953
 30
0.0
 10
105.374978
 20
11.175183
 30
0.0
  0
LINE
  5
11a
100
AcDbEntity
  8
Layer_1
 62
7
100
AcDbLine
 10
105.374978
 20
11.175183
 30
0.0
 11
105.374969
 21
95.085157
 31
0.0
  0
SPLINE
  5
11b
100
AcDbEntity
  8
Layer_1
 62
7
100
AcDbSpline
 70
8
 71
3
 72
8
 73
4
 74
0
 40
0
 40
0
 40
0
 40
0
 40
1
 40
1
 40
1
 40
1
 10
105.374969
 20
95.085157
 30
0.0
 10
105.374961
 20
95.350374
 30
0.0
 10
105.269596
 20
95.604726
 30
0.0
 10
105.082053
 20
95.792257
 30
0.0
  0
SPLINE
  5
11c
100
AcDbEntity
  8
Layer_1
 62
7
100
AcDbSpline
 70
8
 71
3
 72
8
 73
4
 74
0
 40
0
 40
0
 40
0
 40
0
 40
1
 40
1
 40
1
 40
1
 10
105.082053
 20
95.792257
 30
0.0
 10
104.894510
 20
95.979788
 30
0.0
 10
104.640152
 20
96.085137
 30
0.0
 10
104.374934
 20
96.085128
 30
0.0
  0
LINE
  5
11d
100
AcDbEntity
  8
Layer_1
 62
7
100
AcDbLine
 10
104.374934
 20
96.085128
 30
0.0
 11
96.374967
 21
96.085159
 31
0.0
  0
SPLINE
  5
11e
100
AcDbEntity
  8
Layer_1
 62
7
100
AcDbSpline
 70
8
 71
3
 72
8
 73
4
 74
0
 40
0
 40
0
 40
0
 40
0
 40
1
 40
1
 40
1
 40
1
 10
96.374967
 20
96.085159
 30
0.0
 10
95.822702
 20
96.085134
 30
0.0
 10
95.375015
 20
95.637428
 30
0.0
 10
95.375013
 20
95.085163
 30
0.0
  0
LINE
  5
11f
100
AcDbEntity
  8
Layer_1
 62
7
100
AcDbLine
 10
95.375013
 20
95.085163
 30
0.0
 11
95.374966
 21
92.325159
 31
0.0
  0
SPLINE
  5
120
100
AcDbEntity
  8
Layer_1
 62
7
100
AcDbSpline
 70
8
 71
3
 72
8
 73
4
 74
0
 40
0
 40
0
 40
0
 40
0
 40
1
 40
1
 40
1
 40
1
 10
95.374966
 20
92.325159
 30
0.0
 10
95.374963
 20
91.772884
 30
0.0
 10
94.927261
 20
91.325175
 30
0.0
 10
94.374987
 20
91.325164
 30
0.0
  0
LINE
  5
121
100
AcDbEntity
  8
Layer_1
 62
7
100
AcDbLine
 10
94.374987
 20
91.325164
 30
0.0
 11
68.274960
 21
91.325168
 31
0.0
  0
SPLINE
  5
122
100
AcDbEntity
  8
Layer_1
 62
7
100
AcDbSpline
 70
8
 71
3
 72
8
 73
4
 74
0
 40
0
 40
0
 40
0
 40
0
 40
1
 40
1
 40
1
 40
1
 10
68.274960
 20
91.325168
 30
0.0
 10
68.009737
 20
91.325155
 30
0.0
 10
67.755373
 20
91.430506
 30
0.0
 10
67.567827
 20
91.618041
 30
0.0
  0
SPLINE
  5
123
100
AcDbEntity
  8
Layer_1
 62
7
100
AcDbSpline
 70
8
 71
3
 72
8
 73
4
 74
0
 40
0
 40
0
 40
0
 40
0
 40
1
 40
1
 40
1
 40
1
 10
67.567827
 20
91.618041
 30
0.0
 10
67.380280
 20
91.805577
 30
0.0
 10
67.274916
 20
92.059936
 30
0.0
 10
67.274914
 20
92.325159
 30
0.0
  0
LINE
  5
124
100
AcDbEntity
  8
Layer_1
 62
7
100
AcDbLine
 10
67.274914
 20
92.325159
 30
0.0
 11
67.274961
 21
95.085169
 31
0.0
  0
SPLINE
  5
125
100
AcDbEntity
  8
Layer_1
 62
7
100
AcDbSpline
 70
8
 71
3
 72
8
 73
4
 74
0
 40
0
 40
0
 40
0
 40
0
 40
1
 40
1
 40
1
 40
1
 10
67.274961
 20
95.085169
 30
0.0
 10
67.274933
 20
95.637443
 30
0.0
 10
66.827212
 20
96.085132
 30
0.0
 10
66.274937
 20
96.085120
 30
0.0
  0
LINE
  5
126
100
AcDbEntity
  8
Layer_1
 62
7
100
AcDbLine
 10
66.274937
 20
96.085120
 30
0.0
 11
44.274956
 21
96.085176
 31
0.0
  0
SPLINE
  5
127
100
AcDbEntity
  8
Layer_1
 62
7
100
AcDbSpline
 70
8
 71
3
 72
8
 73
4
 74
0
 40
0
 40
0
 40
0
 40
0
 40
1
 40
1
 40
1
 40
1
 10
44.274956
 20
96.085176
 30
0.0
 10
43.722674
 20
96.085176
 30
0.0
 10
43.274960
 20
95.637464
 30
0.0
 10
43.274957
 20
95.085181
 30
0.0
  0
LINE
  5
128
100
AcDbEntity
  8
Layer_1
 62
7
100
AcDbLine
 10
43.274957
 20
95.085181
 30
0.0
 11
43.274955
 21
92.325176
 31
0.0
  0
SPLINE
  5
129
100
AcDbEntity
  8
Layer_1
 62
7
100
AcDbSpline
 70
8
 71
3
 72
8
 73
4
 74
0
 40
0
 40
0
 40
0
 40
0
 40
1
 40
1
 40
1
 40
1
 10
43.274955
 20
92.325176
 30
0.0
 10
43.274953
 20
92.059956
 30
0.0
 10
43.169592
 20
91.805600
 30
0.0
 10
42.982051
 20
91.618064
 30
0.0
  0
SPLINE
  5
12a
100
AcDbEntity
  8
Layer_1
 62
7
100
AcDbSpline
 70
8
 71
3
 72
8
 73
4
 74
0
 40
0
 40
0
 40
0
 40
0
 40
1
 40
1
 40
1
 40
1
 10
42.982051
 20
91.618064
 30
0.0
 10
42.794509
 20
91.430529
 30
0.0
 10
42.540150
 20
91.325175
 30
0.0
 10
42.274930
 20
91.325182
 30
0.0
  0
LINE
  5
12b
100
AcDbEntity
  8
Layer_1
 62
7
100
AcDbLine
 10
42.274930
 20
91.325182
 30
0.0
 11
25.224951
 21
91.325181
 31
0.0
  0
SPLINE
  5
12c
100
AcDbEntity
  8
Layer_1
 62
7
100
AcDbSpline
 70
8
 71
3
 72
8
 73
4
 74
0
 40
0
 40
0
 40
0
 40
0
 40
1
 40
1
 40
1
 40
1
 10
25.224951
 20
91.325181
 30
0.0
 10
24.672673
 20
91.325180
 30
0.0
 10
24.224961
 20
90.877474
 30
0.0
 10
24.224953
 20
90.325195
 30
0.0
  0
LINE
  5
12d
100
AcDbEntity
  8
Layer_1
 62
7
100
AcDbLine
 10
24.224953
 20
90.325195
 30
0.0
 11
24.224950
 21
87.565181
 31
0.0
  0
SPLINE
  5
12e
100
AcDbEntity
  8
Layer_1
 62
7
100
AcDbSpline
 70
8
 71
3
 72
8
 73
4
 74
0
 40
0
 40
0
 40
0
 40
0
 40
1
 40
1
 40
1
 40
1
 10
24.224950
 20
87.565181
 30
0.0
 10
24.224946
 20
87.299963
 30
0.0
 10
24.119584
 20
87.045609
 30
0.0
 10
23.932043
 20
86.858076
 30
0.0
  0
SPLINE
  5
12f
100
AcDbEntity
  8
Layer_1
 62
7
100
AcDbSpline
 70
8
 71
3
 72
8
 73
4
 74
0
 40
0
 40
0
 40
0
 40
0
 40
1
 40
1
 40
1
 40
1
 10
23.932043
 20
86.858076
 30
0.0
 10
23.744501
 20
86.670542
 30
0.0
 10
23.490144
 20
86.565190
 30
0.0
 10
23.224926
 20
86.565196
 30
0.0
  0
LINE
  5
130
100
AcDbEntity
  8
Layer_1
 62
7
100
AcDbLine
 10
23.224926
 20
86.565196
 30
0.0
 11
16.174947
 21
86.565183
 31
0.0
  0
SPLINE
  5
131
100
AcDbEntity
  8
Layer_1
 62
7
100
AcDbSpline
 70
8
 71
3
 72
8
 73
4
 74
0
 40
0
 40
0
 40
0
 40
0
 40
1
 40
1
 40
1
 40
1
 10
16.174947
 20
86.565183
 30
0.0
 10
15.622790
 20
86.565405
 30
0.0
 10
15.175307
 20
87.013100
 30
0.0
 10
15.175348
 20
87.565257
 30
0.0
  0
LINE
  5
132
100
AcDbEntity
  8
Layer_1
 62
7
100
AcDbLine
 10
15.175348
 20
87.565257
 30
0.0
 11
15.174947
 21
90.565184
 31
0.0
  0
SPLINE
  5
133
100
AcDbEntity
  8
Layer_1
 62
7
100
AcDbSpline
 70
8
 71
3
 72
8
 73
4
 74
0
 40
0
 40
0
 40
0
 40
0
 40
1
 40
1
 40
1
 40
1
 10
15.174947
 20
90.565184
 30
0.0
 10
15.174962
 20
91.117294
 30
0.0
 10
14.727533
 20
91.564949
 30
0.0
 10
14.175424
 20
91.565213
 30
0.0
  0
LINE
  5
134
100
AcDbEntity
  8
Layer_1
 62
7
100
AcDbLine
 10
14.175424
 20
91.565213
 30
0.0
 11
6.174951
 21
91.565188
 31
0.0
  0
SPLINE
  5
135
100
AcDbEntity
  8
Layer_1
 62
7
100
AcDbSpline
 70
8
 71
3
 72
8
 73
4
 74
0
 40
0
 40
0
 40
0
 40
0
 40
1
 40
1
 40
1
 40
1
 10
6.174951
 20
91.565188
 30
0.0
 10
5.622775
 20
91.565047
 30
0.0
 10
5.175218
 20
91.117387
 30
0.0
 10
5.175205
 20
90.565211
 30
0.0
  0
LINE
  5
136
100
AcDbEntity
  8
Layer_1
 62
7
100
AcDbLine
 10
29.224951
 20
86.325179
 30
0.0
 11
29.224946
 21
72.325176
 31
0.0
  0
LINE
  5
137
100
AcDbEntity
  8
Layer_1
 62
7
100
AcDbLine
 10
29.224946
 20
72.325176
 30
0.0
 11
43.224949
 21
72.325172
 31
0.0
  0
LINE
  5
138
100
AcDbEntity
  8
Layer_1
 62
7
100
AcDbLine
 10
43.224949
 20
72.325172
 30
0.0
 11
43.224953
 21
86.325174
 31
0.0
  0
LINE
  5
139
100
AcDbEntity
  8
Layer_1
 62
7
100
AcDbLine
 10
43.224953
 20
86.325174
 30
0.0
 11
29.224951
 21
86.325179
 31
0.0
  0
LINE
  5
13a
100
AcDbEntity
  8
Layer_1
 62
7
100
AcDbLine
 10
59.893689
 20
29.175158
 30
0.0
 11
59.893684
 21
15.175155
 31
0.0
  0
LINE
  5
13b
100
AcDbEntity
  8
Layer_1
 62
7
100
AcDbLine
 10
59.893684
 20
15.175155
 30
0.0
 11
45.893681
 21
15.175160
 31
0.0
  0
LINE
  5
13c
100
AcDbEntity
  8
Layer_1
 62
7
100
AcDbLine
 10
45.893681
 20
15.175160
 30
0.0
 11
45.893685
 21
29.175162
 31
0.0
  0
LINE
  5
13d
100
AcDbEntity
  8
Layer_1
 62
7
100
AcDbLine
 10
45.893685
 20
29.175162
 30
0.0
 11
59.893689
 21
29.175158
 31
0.0
  0
LINE
  5
13e
100
AcDbEntity
  8
Layer_1
 62
7
100
AcDbLine
 10
86.374949
 20
48.225153
 30
0.0
 11
86.374946
 21
34.225151
 31
0.0
  0
LINE
  5
13f
100
AcDbEntity
  8
Layer_1
 62
7
100
AcDbLine
 10
86.374946
 20
34.225151
 30
0.0
 11
100.374948
 21
34.225146
 31
0.0
  0
LINE
  5
140
100
AcDbEntity
  8
Layer_1
 62
7
100
AcDbLine
 10
100.374948
 20
34.225146
 30
0.0
 11
100.374952
 21
48.225149
 31
0.0
  0
LINE
  5
141
100
AcDbEntity
  8
Layer_1
 62
7
100
AcDbLine
 10
100.374952
 20
48.225149
 30
0.0
 11
86.374949
 21
48.225153
 31
0.0
  0
LINE
  5
142
100
AcDbEntity
  8
Layer_1
 62
7
100
AcDbLine
 10
86.374955
 20
67.275157
 30
0.0
 11
86.374952
 21
53.275154
 31
0.0
  0
LINE
  5
143
100
AcDbEntity
  8
Layer_1
 62
7
100
AcDbLine
 10
86.374952
 20
53.275154
 30
0.0
 11
100.374954
 21
53.275150
 31
0.0
  0
LINE
  5
144
100
AcDbEntity
  8
Layer_1
 62
7
100
AcDbLine
 10
100.374954
 20
53.275150
 30
0.0
 11
100.374958
 21
67.275152
 31
0.0
  0
LINE
  5
145
100
AcDbEntity
  8
Layer_1
 62
7
100
AcDbLine
 10
100.374958
 20
67.275152
 30
0.0
 11
86.374955
 21
67.275157
 31
0.0
  0
LINE
  5
146
100
AcDbEntity
  8
Layer_1
 62
7
100
AcDbLine
 10
10.174937
 20
43.465177
 30
0.0
 11
10.174923
 21
29.465173
 31
0.0
  0
LINE
  5
147
100
AcDbEntity
  8
Layer_1
 62
7
100
AcDbLine
 10
10.174923
 20
29.465173
 30
0.0
 11
24.174931
 21
29.465169
 31
0.0
  0
LINE
  5
148
100
AcDbEntity
  8
Layer_1
 62
7
100
AcDbLine
 10
24.174931
 20
29.465169
 30
0.0
 11
24.174936
 21
43.465172
 31
0.0
  0
LINE
  5
149
100
AcDbEntity
  8
Layer_1
 62
7
100
AcDbLine
 10
24.174936
 20
43.465172
 30
0.0
 11
10.174937
 21
43.465177
 31
0.0
  0
LINE
  5
14a
100
AcDbEntity
  8
Layer_1
 62
7
100
AcDbLine
 10
29.224944
 20
67.275175
 30
0.0
 11
29.224940
 21
53.275173
 31
0.0
  0
LINE
  5
14b
100
AcDbEntity
  8
Layer_1
 62
7
100
AcDbLine
 10
29.224940
 20
53.275173
 30
0.0
 11
43.224942
 21
53.275168
 31
0.0
  0
LINE
  5
14c
100
AcDbEntity
  8
Layer_1
 62
7
100
AcDbLine
 10
43.224942
 20
53.275168
 30
0.0
 11
43.224947
 21
67.275171
 31
0.0
  0
LINE
  5
14d
100
AcDbEntity
  8
Layer_1
 62
7
100
AcDbLine
 10
43.224947
 20
67.275171
 30
0.0
 11
29.224944
 21
67.275175
 31
0.0
  0
LINE
  5
14e
100
AcDbEntity
  8
Layer_1
 62
7
100
AcDbLine
 10
48.274939
 20
38.985163
 30
0.0
 11
48.274943
 21
52.985166
 31
0.0
  0
LINE
  5
14f
100
AcDbEntity
  8
Layer_1
 62
7
100
AcDbLine
 10
48.274943
 20
52.985166
 30
0.0
 11
62.274946
 21
52.985162
 31
0.0
  0
LINE
  5
150
100
AcDbEntity
  8
Layer_1
 62
7
100
AcDbLine
 10
62.274946
 20
52.985162
 30
0.0
 11
62.274941
 21
38.985159
 31
0.0
  0
LINE
  5
151
100
AcDbEntity
  8
Layer_1
 62
7
100
AcDbLine
 10
62.274941
 20
38.985159
 30
0.0
 11
48.274939
 21
38.985163
 31
0.0
  0
LINE
  5
152
100
AcDbEntity
  8
Layer_1
 62
7
100
AcDbLine
 10
67.324958
 20
86.325167
 30
0.0
 11
81.324961
 21
86.325162
 31
0.0
  0
LINE
  5
153
100
AcDbEntity
  8
Layer_1
 62
7
100
AcDbLine
 10
81.324961
 20
86.325162
 30
0.0
 11
81.324956
 21
72.325159
 31
0.0
  0
LINE
  5
154
100
AcDbEntity
  8
Layer_1
 62
7
100
AcDbLine
 10
81.324956
 20
72.325159
 30
0.0
 11
67.324953
 21
72.325164
 31
0.0
  0
LINE
  5
155
100
AcDbEntity
  8
Layer_1
 62
7
100
AcDbLine
 10
67.324953
 20
72.325164
 30
0.0
 11
67.324958
 21
86.325167
 31
0.0
  0
LINE
  5
156
100
AcDbEntity
  8
Layer_1
 62
7
100
AcDbLine
 10
86.374962
 20
86.325161
 30
0.0
 11
86.374958
 21
72.325158
 31
0.0
  0
LINE
  5
157
100
AcDbEntity
  8
Layer_1
 62
7
100
AcDbLine
 10
86.374958
 20
72.325158
 30
0.0
 11
100.374961
 21
72.325153
 31
0.0
  0
LINE
  5
158
100
AcDbEntity
  8
Layer_1
 62
7
100
AcDbLine
 10
100.374961
 20
72.325153
 30
0.0
 11
100.374964
 21
86.325156
 31
0.0
  0
LINE
  5
159
100
AcDbEntity
  8
Layer_1
 62
7
100
AcDbLine
 10
100.374964
 20
86.325156
 30
0.0
 11
86.374962
 21
86.325161
 31
0.0
  0
LINE
  5
15a
100
AcDbEntity
  8
Layer_1
 62
7
100
AcDbLine
 10
67.324952
 20
67.275163
 30
0.0
 11
81.324954
 21
67.275158
 31
0.0
  0
LINE
  5
15b
100
AcDbEntity
  8
Layer_1
 62
7
100
AcDbLine
 10
81.324954
 20
67.275158
 30
0.0
 11
81.324950
 21
53.275156
 31
0.0
  0
LINE
  5
15c
100
AcDbEntity
  8
Layer_1
 62
7
100
AcDbLine
 10
81.324950
 20
53.275156
 30
0.0
 11
67.324947
 21
53.275160
 31
0.0
  0
LINE
  5
15d
100
AcDbEntity
  8
Layer_1
 62
7
100
AcDbLine
 10
67.324947
 20
53.275160
 30
0.0
 11
67.324952
 21
67.275163
 31
0.0
  0
LINE
  5
15e
100
AcDbEntity
  8
Layer_1
 62
7
100
AcDbLine
 10
81.324948
 20
48.225155
 30
0.0
 11
67.324946
 21
48.225159
 31
0.0
  0
LINE
  5
15f
100
AcDbEntity
  8
Layer_1
 62
7
100
AcDbLine
 10
67.324946
 20
48.225159
 30
0.0
 11
67.324941
 21
34.225157
 31
0.0
  0
LINE
  5
160
100
AcDbEntity
  8
Layer_1
 62
7
100
AcDbLine
 10
67.324941
 20
34.225157
 30
0.0
 11
81.324944
 21
34.225152
 31
0.0
  0
LINE
  5
161
100
AcDbEntity
  8
Layer_1
 62
7
100
AcDbLine
 10
81.324944
 20
34.225152
 30
0.0
 11
81.324948
 21
48.225155
 31
0.0
  0
LINE
  5
162
100
AcDbEntity
  8
Layer_1
 62
7
100
AcDbLine
 10
48.274956
 20
91.085174
 30
0.0
 11
62.274958
 21
91.085169
 31
0.0
  0
LINE
  5
163
100
AcDbEntity
  8
Layer_1
 62
7
100
AcDbLine
 10
62.274958
 20
91.085169
 30
0.0
 11
62.274954
 21
77.085167
 31
0.0
  0
LINE
  5
164
100
AcDbEntity
  8
Layer_1
 62
7
100
AcDbLine
 10
62.274954
 20
77.085167
 30
0.0
 11
48.274951
 21
77.085171
 31
0.0
  0
LINE
  5
165
100
AcDbEntity
  8
Layer_1
 62
7
100
AcDbLine
 10
48.274951
 20
77.085171
 30
0.0
 11
48.274956
 21
91.085174
 31
0.0
  0
LINE
  5
166
100
AcDbEntity
  8
Layer_1
 62
7
100
AcDbLine
 10
48.274950
 20
72.035170
 30
0.0
 11
48.274945
 21
58.035168
 31
0.0
  0
LINE
  5
167
100
AcDbEntity
  8
Layer_1
 62
7
100
AcDbLine
 10
48.274945
 20
58.035168
 30
0.0
 11
62.274948
 21
58.035163
 31
0.0
  0
LINE
  5
168
100
AcDbEntity
  8
Layer_1
 62
7
100
AcDbLine
 10
62.274948
 20
58.035163
 30
0.0
 11
62.274952
 21
72.035166
 31
0.0
  0
LINE
  5
169
100
AcDbEntity
  8
Layer_1
 62
7
100
AcDbLine
 10
62.274952
 20
72.035166
 30
0.0
 11
48.274950
 21
72.035170
 31
0.0
  0
LINE
  5
16a
100
AcDbEntity
  8
Layer_1
 62
7
100
AcDbLine
 10
90.849940
 20
15.175145
 30
0.0
 11
90.849944
 21
29.175147
 31
0.0
  0
LINE
  5
16b
100
AcDbEntity
  8
Layer_1
 62
7
100
AcDbLine
 10
90.849944
 20
29.175147
 30
0.0
 11
76.849941
 21
29.175152
 31
0.0
  0
LINE
  5
16c
100
AcDbEntity
  8
Layer_1
 62
7
100
AcDbLine
 10
76.849941
 20
29.175152
 30
0.0
 11
76.849937
 21
15.175149
 31
0.0
  0
LINE
  5
16d
100
AcDbEntity
  8
Layer_1
 62
7
100
AcDbLine
 10
76.849937
 20
15.175149
 30
0.0
 11
90.849940
 21
15.175145
 31
0.0
  0
LINE
  5
16e
100
AcDbEntity
  8
Layer_1
 62
7
100
AcDbLine
 10
10.174942
 20
62.515181
 30
0.0
 11
24.174942
 21
62.515177
 31
0.0
  0
LINE
  5
16f
100
AcDbEntity
  8
Layer_1
 62
7
100
AcDbLine
 10
24.174942
 20
62.515177
 30
0.0
 11
24.174937
 21
48.515173
 31
0.0
  0
LINE
  5
170
100
AcDbEntity
  8
Layer_1
 62
7
100
AcDbLine
 10
24.174937
 20
48.515173
 30
0.0
 11
10.174939
 21
48.515178
 31
0.0
  0
LINE
  5
171
100
AcDbEntity
  8
Layer_1
 62
7
100
AcDbLine
 10
10.174939
 20
48.515178
 30
0.0
 11
10.174942
 21
62.515181
 31
0.0
  0
LINE
  5
172
100
AcDbEntity
  8
Layer_1
 62
7
100
AcDbLine
 10
29.224938
 20
48.225172
 30
0.0
 11
29.224934
 21
34.225169
 31
0.0
  0
LINE
  5
173
100
AcDbEntity
  8
Layer_1
 62
7
100
AcDbLine
 10
29.224934
 20
34.225169
 30
0.0
 11
43.224936
 21
34.225164
 31
0.0
  0
LINE
  5
174
100
AcDbEntity
  8
Layer_1
 62
7
100
AcDbLine
 10
43.224936
 20
34.225164
 30
0.0
 11
43.224941
 21
48.225167
 31
0.0
  0
LINE
  5
175
100
AcDbEntity
  8
Layer_1
 62
7
100
AcDbLine
 10
43.224941
 20
48.225167
 30
0.0
 11
29.224938
 21
48.225172
 31
0.0
  0
LINE
  5
176
100
AcDbEntity
  8
Layer_1
 62
7
100
AcDbLine
 10
10.174947
 20
81.565185
 30
0.0
 11
10.174944
 21
67.565182
 31
0.0
  0
LINE
  5
177
100
AcDbEntity
  8
Layer_1
 62
7
100
AcDbLine
 10
10.174944
 20
67.565182
 30
0.0
 11
24.174943
 21
67.565177
 31
0.0
  0
LINE
  5
178
100
AcDbEntity
  8
Layer_1
 62
7
100
AcDbLine
 10
24.174943
 20
67.565177
 30
0.0
 11
24.174948
 21
81.565180
 31
0.0
  0
LINE
  5
179
100
AcDbEntity
  8
Layer_1
 62
7
100
AcDbLine
 10
24.174948
 20
81.565180
 30
0.0
 11
10.174947
 21
81.565185
 31
0.0
  0
LINE
  5
17a
100
AcDbEntity
  8
Layer_1
 62
7
100
AcDbLine
 10
75.409937
 20
16.175150
 30
0.0
 11
68.409935
 21
16.175152
 31
0.0
  0
LINE
  5
17b
100
AcDbEntity
  8
Layer_1
 62
7
100
AcDbLine
 10
68.409935
 20
16.175152
 30
0.0
 11
68.409940
 21
31.175156
 31
0.0
  0
LINE
  5
17c
100
AcDbEntity
  8
Layer_1
 62
7
100
AcDbLine
 10
68.409940
 20
31.175156
 30
0.0
 11
75.409942
 21
31.175153
 31
0.0
  0
LINE
  5
17d
100
AcDbEntity
  8
Layer_1
 62
7
100
AcDbLine
 10
75.409942
 20
31.175153
 30
0.0
 11
75.409937
 21
16.175150
 31
0.0
  0
LINE
  5
17e
100
AcDbEntity
  8
Layer_1
 62
7
100
AcDbLine
 10
99.289941
 20
16.175142
 30
0.0
 11
99.289947
 21
31.175145
 31
0.0
  0
LINE
  5
17f
100
AcDbEntity
  8
Layer_1
 62
7
100
AcDbLine
 10
99.289947
 20
31.175145
 30
0.0
 11
92.289946
 21
31.175148
 31
0.0
  0
LINE
  5
180
100
AcDbEntity
  8
Layer_1
 62
7
100
AcDbLine
 10
92.289946
 20
31.175148
 30
0.0
 11
92.289940
 21
16.175145
 31
0.0
  0
LINE
  5
181
100
AcDbEntity
  8
Layer_1
 62
7
100
AcDbLine
 10
92.289940
 20
16.175145
 30
0.0
 11
99.289941
 21
16.175142
 31
0.0
  0
ENDSEC
  0
SECTION
  2
OBJECTS
  0
DICTIONARY
  5
C
330
0
100
AcDbDictionary
  3
ACAD_GROUP
350
D
  3
ACAD_MLINESTYLE
350
17
  0
DICTIONARY
  5
D
330
C
100
AcDbDictionary
  0
DICTIONARY
  5
1A
330
C
100
AcDbDictionary
  0
DICTIONARY
  5
17
330
C
100
AcDbDictionary
  3
STANDARD
350
18
  0
DICTIONARY
  5
19
330
C
100
AcDbDictionary
  0
ENDSEC
  0
EOF
