<?xml version="1.0" encoding="UTF-8" standalone="no"?>
<!-- Created with Inkscape (http://www.inkscape.org/) -->

<svg
   width="252.15492mm"
   height="60.350029mm"
   viewBox="0 0 252.15493 60.350029"
   version="1.1"
   id="svg5"
   xmlns="http://www.w3.org/2000/svg"
   xmlns:svg="http://www.w3.org/2000/svg">
  <defs
     id="defs2" />
  <g
     id="layer1"
     transform="translate(162.60009,1390.4236)">
    <g
       id="Sketch012"
       transform="matrix(1,0,0,-1,-36.522633,-1331.566)">
      <path
         id="Sketch012_w0000"
         d="M -120.90246,50.432575 V 6.9325747 A 3.25,3.25 0 0 1 -117.652,3.68257 l 235.30446,4.7e-6 A 3.25,3.25 0 0 1 120.902,6.93257 l 4.6e-4,43.500005 A 3.25,3.25 0 0 1 117.652,53.6826 l -235.30446,-2.5e-5 A 3.25,3.25 0 0 1 -120.902,50.4326"
         stroke="#191919"
         stroke-width="0.35 px"
         style="fill:none;fill-opacity:1;fill-rule:evenodd;stroke-width:0.35;stroke-linecap:square;stroke-miterlimit:4;stroke-dasharray:none" />
      <circle
         cx="115.15246"
         cy="46.932575"
         r="1.7"
         stroke="#191919"
         stroke-width="0.35 px"
         style="fill:none;stroke-width:0.35;stroke-linecap:square;stroke-miterlimit:4;stroke-dasharray:none"
         id="circle8841" />
      <circle
         cx="-35"
         cy="46.932575"
         r="1.7"
         stroke="#191919"
         stroke-width="0.35 px"
         style="fill:none;stroke-width:0.35;stroke-linecap:square;stroke-miterlimit:4;stroke-dasharray:none"
         id="circle8843" />
      <circle
         cx="-115.15246"
         cy="46.932575"
         r="1.7"
         stroke="#191919"
         stroke-width="0.35 px"
         style="fill:none;stroke-width:0.35;stroke-linecap:square;stroke-miterlimit:4;stroke-dasharray:none"
         id="circle8845" />
      <circle
         cx="35"
         cy="46.932575"
         r="1.7"
         stroke="#191919"
         stroke-width="0.35 px"
         style="fill:none;stroke-width:0.35;stroke-linecap:square;stroke-miterlimit:4;stroke-dasharray:none"
         id="circle8847" />
      <title
         id="title8849">b'Sketch012'</title>
    </g>
  </g>
</svg>
