<?xml version="1.0" encoding="UTF-8" standalone="no"?>
<!-- Created with Inkscape (http://www.inkscape.org/) -->

<svg
   width="259.15491mm"
   height="115.84302mm"
   viewBox="0 0 259.15491 115.84302"
   version="1.1"
   id="svg5"
   xmlns="http://www.w3.org/2000/svg"
   xmlns:svg="http://www.w3.org/2000/svg">
  <defs
     id="defs2" />
  <g
     id="layer1"
     transform="translate(166.10055,1608.4929)">
    <g
       id="Sketch012-52"
       transform="matrix(1,0,0,-1,-36.523093,-1546.1353)">
      <path
         id="Sketch012_w0000-5"
         d="m 117.65246,-48.310418 h -235.30492 c -3.72775,2.54e-4 -6.74955,3.022269 -6.74954,6.750018 l -4.6e-4,91.992975 c -10e-6,3.728111 3.02235,6.750279 6.75046,6.750025 l 107.116038,-2.5e-5 c 1.7949165,10e-7 3.2499882,-1.455059 3.250002,-3.249975 l -2.1e-6,-11.589368 C -7.2859759,41.292149 -8.2059916,40.478201 -9.24924,40.6063 l -27.217258,3.5576 -11.110047,2.102608 c -0.137023,0.01684 -0.233413,0.141445 -0.217627,0.278593 l 0.207297,1.801027 c 0.110517,0.96019 -0.564398,1.832501 -1.523725,1.950272 l -21.835983,2.681087 c -0.959291,0.11778 -1.832432,-0.564396 -1.950217,-1.523687 l -0.336375,-2.73943 c -0.01682,-0.137053 -0.141574,-0.234512 -0.278625,-0.21767 l -16.922886,2.077874 c -0.959286,0.117779 -1.832422,-0.56439 -1.950214,-1.523674 l -0.336374,-2.739439 c -0.01683,-0.137049 -0.141579,-0.234502 -0.278626,-0.217661 l -16.92288,2.077862 c -0.95928,0.117783 -1.83242,-0.56438 -1.95022,-1.523662 l -7.32436,-59.652039 c -0.11781,-0.959194 0.56418,-1.832312 1.52336,-1.950261 l 30.490098,-3.743645 c 0.137034,-0.01681 0.234499,-0.141519 0.217702,-0.278555 l -1.497807,-12.198441 c -0.117805,-0.959314 0.56439,-1.832484 1.523707,-1.950259 L -24.5,-40.79188 v 21.81291 h 4 v -20 h 41 v 20 h 4 v -21.81291 l 62.440322,7.666712 c 0.95931,0.117789 1.641489,0.990961 1.523678,1.950268 l -1.497768,12.198351 c -0.01685,0.137058 0.08061,0.261822 0.217668,0.278649 l 30.48977,3.743628 c 0.95917,0.117964 1.64115,0.991084 1.52333,1.950272 l -7.32398,59.651973 c -0.11777,0.95922 -0.99079,1.641389 -1.95002,1.523727 L 92.999876,46.093793 c -0.137045,-0.01681 -0.261768,0.08066 -0.278576,0.217707 l -0.336385,2.739389 c -0.117773,0.9593 -0.990916,1.64149 -1.950215,1.523711 L 73.511774,48.496706 c -0.13704,-0.01681 -0.261762,0.08065 -0.278574,0.217694 l -0.336384,2.739398 C 72.779038,52.413094 71.905896,53.095279 70.9466,52.9775 L 49.110567,50.296365 C 48.151266,50.178565 47.469096,49.3054 47.5869,48.3461 l 0.336334,-2.7394 c 0.01683,-0.13703 -0.0806,-0.26176 -0.217634,-0.2786 L 9.2492387,40.606271 C 8.2059912,40.478172 7.2859755,41.292117 7.28596,42.3432 l 2.1e-6,11.589375 C 7.2859483,55.727525 8.74105,57.182621 10.536,57.1826 l 107.11646,-2.5e-5 c 3.72773,-2.54e-4 6.74953,-3.022242 6.74954,-6.749975 l 4.6e-4,-91.993018 c -1e-5,-3.728095 -3.02237,-6.750236 -6.75046,-6.749982"
         stroke="#191919"
         stroke-width="0.35 px"
         style="fill:none;fill-opacity:1;fill-rule:evenodd;stroke-width:0.35;stroke-linecap:square;stroke-miterlimit:4;stroke-dasharray:none" />
      <circle
         cx="-115.15246"
         cy="-42.560417"
         r="1.7"
         stroke="#191919"
         stroke-width="0.35 px"
         style="fill:none;stroke-width:0.35;stroke-linecap:square;stroke-miterlimit:4;stroke-dasharray:none"
         id="circle9054" />
      <circle
         cx="-35"
         cy="46.932575"
         r="1.7"
         stroke="#191919"
         stroke-width="0.35 px"
         style="fill:none;stroke-width:0.35;stroke-linecap:square;stroke-miterlimit:4;stroke-dasharray:none"
         id="circle9056" />
      <circle
         cx="-115.15246"
         cy="46.932575"
         r="1.7"
         stroke="#191919"
         stroke-width="0.35 px"
         style="fill:none;stroke-width:0.35;stroke-linecap:square;stroke-miterlimit:4;stroke-dasharray:none"
         id="circle9058" />
      <circle
         cx="115.15246"
         cy="-42.560417"
         r="1.7"
         stroke="#191919"
         stroke-width="0.35 px"
         style="fill:none;stroke-width:0.35;stroke-linecap:square;stroke-miterlimit:4;stroke-dasharray:none"
         id="circle9060" />
      <circle
         cx="35"
         cy="46.932575"
         r="1.7"
         stroke="#191919"
         stroke-width="0.35 px"
         style="fill:none;stroke-width:0.35;stroke-linecap:square;stroke-miterlimit:4;stroke-dasharray:none"
         id="circle9062" />
      <circle
         cx="115.15246"
         cy="46.932575"
         r="1.7"
         stroke="#191919"
         stroke-width="0.35 px"
         style="fill:none;stroke-width:0.35;stroke-linecap:square;stroke-miterlimit:4;stroke-dasharray:none"
         id="circle9064" />
      <path
         id="Sketch012_w0007-47"
         d="m 0,-40.860418 a 1.7,1.7 0 0 1 0,-3.399982 1.7,1.7 0 0 1 0,3.4"
         stroke="#191919"
         stroke-width="0.35 px"
         style="fill:none;fill-opacity:1;fill-rule:evenodd;stroke-width:0.35;stroke-linecap:square;stroke-miterlimit:4;stroke-dasharray:none" />
      <title
         id="title9067">b'Sketch012'</title>
    </g>
  </g>
</svg>
