<?xml version="1.0" encoding="UTF-8" standalone="no"?>
<!-- Created with Inkscape (http://www.inkscape.org/) -->

<svg
   width="262.65491mm"
   height="119.34302mm"
   viewBox="0 0 262.65491 119.34302"
   version="1.1"
   id="svg5"
   xmlns="http://www.w3.org/2000/svg"
   xmlns:svg="http://www.w3.org/2000/svg">
  <defs
     id="defs2" />
  <g
     id="layer1"
     transform="translate(421.94576,1501.2082)">
    <g
       id="Sketch012-5"
       transform="matrix(1,0,0,-1,-290.6183,-1437.1006)">
      <path
         id="Sketch012_w0000-4"
         d="M -117.65246,58.932575 A 8.5,8.5 0 0 1 -126.152,50.4326 l -4.6e-4,-91.993018 a 8.5,8.5 0 0 1 8.50046,-8.499982 l 235.30446,-1.8e-5 a 8.5,8.5 0 0 1 8.49954,8.500018 l 4.6e-4,91.992975 A 8.5,8.5 0 0 1 117.652,58.9326 l -235.30446,-2.5e-5"
         stroke="#191919"
         stroke-width="0.35 px"
         style="fill:none;fill-opacity:1;fill-rule:evenodd;stroke-width:0.35;stroke-linecap:square;stroke-miterlimit:4;stroke-dasharray:none" />
      <path
         id="Sketch012_w0001-7"
         d="m -108.02682,-16.390634 -0.36561,-2.977638 c -0.11776,-0.959463 -0.99114,-1.641718 -1.95057,-1.523728 l -7.94003,0.974998 c -0.9594,0.117643 -1.64173,0.990818 -1.52397,1.950202 l 8.54333,69.577511 c 0.11778,0.959491 0.99121,1.64174 1.95067,1.523689 l 7.93993,-0.97496 c 0.95929,-0.117794 1.641465,-0.990946 1.52367,-1.95024 l -0.3656,-2.977625 c -0.0168,-0.137042 0.0807,-0.261763 0.2177,-0.278575 l 6.997424,-0.859207 c 0.137045,-0.01681 0.261768,0.08066 0.278576,0.217707 l 0.336385,2.739389 c 0.117773,0.9593 0.990916,1.64149 1.950215,1.523711 l 16.922926,-2.077894 c 0.13704,-0.01681 0.261762,0.08065 0.278574,0.217694 l 0.336384,2.739398 c 0.117778,0.959296 0.99092,1.641481 1.950216,1.523702 l 21.836033,-2.681135 c 0.959301,-0.1178 1.634174,-0.990097 1.523667,-1.950265 l -0.207279,-1.800992 c -0.01579,-0.137154 0.0806,-0.26176 0.217634,-0.2786 l 11.110047,-2.102608 14.66638,-2.016577 c 0.137052,-0.01684 0.261803,0.08062 0.278618,0.217677 l 0.336329,2.739406 c 0.117786,0.959314 0.990959,1.641501 1.950271,1.523694 l 7.848938,-0.963727 h 3.0999999 c 0.5522961,-10e-7 1.000017,0.447731 1.0000021,1.000027 l -2.1e-6,2.999973 c -1.49e-5,0.552296 0.447706,1.000028 1.0000021,1.000027 l 12.5719221,-2.7e-5 c 0.5522734,-10e-7 0.999983,-0.4477 0.9999979,-0.999973 l 2.1e-6,-3.000027 C 7.285977,46.1121 7.7336866,45.664401 8.28596,45.6644 l 3.100002,-2.7e-5 7.848966,0.963731 c 0.959316,0.117807 1.832491,-0.564385 1.950272,-1.523704 l 0.336331,-2.739421 c 0.01681,-0.137035 0.141534,-0.234493 0.278569,-0.217679 l 25.905473,3.180807 c 0.137023,0.01684 0.234453,0.141568 0.217627,0.278593 l -0.336325,2.739428 c -0.117807,0.959323 0.564398,1.832501 1.523725,1.950272 l 21.835983,2.681087 c 0.959291,0.11778 1.832432,-0.564396 1.950217,-1.523687 l 0.336375,-2.73943 c 0.01682,-0.137053 0.141574,-0.234512 0.278625,-0.21767 l 16.922886,2.077874 c 0.959286,0.117779 1.832422,-0.56439 1.950214,-1.523674 l 0.336374,-2.739439 c 0.01683,-0.137049 0.141579,-0.234502 0.278626,-0.217661 l 6.997427,0.859171 c 0.137053,0.01682 0.234513,0.141576 0.217673,0.278629 l -0.365612,2.977613 c -0.117764,0.959254 0.564362,1.832364 1.523612,1.950187 l 7.94044,0.974995 c 0.95942,0.117985 1.83278,-0.56425 1.95056,-1.523695 l 8.54271,-69.577475 c 0.11778,-0.959302 -0.56441,-1.832451 -1.52371,-1.950225 l -7.94034,-0.974956 c -0.95944,-0.118046 -1.83287,0.564183 -1.95066,1.523656 l -0.36518,2.977666 c -0.0168,0.137123 -0.14171,0.234591 -0.27882,0.217634 l -20.564098,-2.524945 c -0.137034,-0.01681 -0.234499,-0.141519 -0.217702,-0.278555 l 1.497807,-12.198441 c 0.117805,-0.959314 -0.56439,-1.832484 -1.523707,-1.950259 l -43.157125,-5.298999 c -0.137043,-0.01682 -0.2345,-0.141558 -0.217675,-0.278601 l 0.365614,-2.977642 C 44.048918,-42.639758 43.36672,-43.512929 42.4074,-43.6307 l -7.94034,-0.974924 c -0.95932,-0.117805 -1.832494,0.564399 -1.95026,1.523724 l -0.365575,2.977599 c -0.01681,0.137064 -0.141564,0.234539 -0.278625,0.217701 L 21.855757,-41.116552 0,-39.368369 l -21.855757,-1.748183 -10.016864,1.22992 c -0.137033,0.01681 -0.261751,-0.08064 -0.278579,-0.217668 l -0.365633,-2.977639 c -0.117798,-0.959302 -0.990966,-1.641472 -1.950267,-1.523661 l -7.940329,0.974931 c -0.959307,0.117793 -1.641483,0.990964 -1.523671,1.950269 l 0.365594,2.977597 c 0.01682,0.13705 -0.08064,0.261789 -0.217694,0.278603 l -43.157122,5.299032 c -0.95931,0.117789 -1.641489,0.990961 -1.523678,1.950268 l 1.497768,12.198351 c 0.01685,0.137058 -0.08061,0.261822 -0.217668,0.278649 l -20.56432,2.524936 c -0.13709,0.01693 -0.26194,-0.08053 -0.27878,-0.217636"
         stroke="#191919"
         stroke-width="0.35 px"
         style="fill:none;fill-opacity:1;fill-rule:evenodd;stroke-width:0.35;stroke-linecap:square;stroke-miterlimit:4;stroke-dasharray:none" />
      <circle
         cx="-115.15246"
         cy="46.932575"
         r="1.05"
         stroke="#191919"
         stroke-width="0.35 px"
         style="fill:none;stroke-width:0.35;stroke-linecap:square;stroke-miterlimit:4;stroke-dasharray:none"
         id="circle8954" />
      <circle
         cx="-115.15246"
         cy="-42.560417"
         r="1.05"
         stroke="#191919"
         stroke-width="0.35 px"
         style="fill:none;stroke-width:0.35;stroke-linecap:square;stroke-miterlimit:4;stroke-dasharray:none"
         id="circle8956" />
      <circle
         cx="115.15246"
         cy="46.932575"
         r="1.05"
         stroke="#191919"
         stroke-width="0.35 px"
         style="fill:none;stroke-width:0.35;stroke-linecap:square;stroke-miterlimit:4;stroke-dasharray:none"
         id="circle8958" />
      <circle
         cx="115.15246"
         cy="-42.560417"
         r="1.05"
         stroke="#191919"
         stroke-width="0.35 px"
         style="fill:none;stroke-width:0.35;stroke-linecap:square;stroke-miterlimit:4;stroke-dasharray:none"
         id="circle8960" />
      <circle
         cx="-35"
         cy="46.932575"
         r="1.05"
         stroke="#191919"
         stroke-width="0.35 px"
         style="fill:none;stroke-width:0.35;stroke-linecap:square;stroke-miterlimit:4;stroke-dasharray:none"
         id="circle8962" />
      <circle
         cx="35"
         cy="46.932575"
         r="1.05"
         stroke="#191919"
         stroke-width="0.35 px"
         style="fill:none;stroke-width:0.35;stroke-linecap:square;stroke-miterlimit:4;stroke-dasharray:none"
         id="circle8964" />
      <path
         id="Sketch012_w0008"
         d="m 0,-41.510418 a 1.05,1.05 0 0 1 0,-2.099982 1.05,1.05 0 0 1 0,2.1"
         stroke="#191919"
         stroke-width="0.35 px"
         style="fill:none;fill-opacity:1;fill-rule:evenodd;stroke-width:0.35;stroke-linecap:square;stroke-miterlimit:4;stroke-dasharray:none" />
      <title
         id="title8967">b'Sketch012'</title>
    </g>
  </g>
</svg>
