<?xml version="1.0" encoding="UTF-8" standalone="no"?>
<!-- Created with Inkscape (http://www.inkscape.org/) -->

<svg
   width="255.65492mm"
   height="112.34302mm"
   viewBox="0 0 255.65493 112.34302"
   version="1.1"
   id="svg5"
   xmlns="http://www.w3.org/2000/svg"
   xmlns:svg="http://www.w3.org/2000/svg">
  <defs
     id="defs2" />
  <g
     id="layer1"
     transform="translate(164.35055,1497.7082)">
    <g
       id="Sketch012-4"
       transform="matrix(1,0,0,-1,-36.523093,-1437.1006)">
      <path
         id="Sketch012_w0000-43"
         d="m -122.65246,-41.560418 a 5,5 0 0 1 5.00046,-4.999982 l 235.30446,-1.8e-5 a 5,5 0 0 1 4.99954,5.000018 l 4.6e-4,91.992975 A 5,5 0 0 1 117.652,55.4326 l -235.30446,-2.5e-5 A 5,5 0 0 1 -122.652,50.4326 l -4.6e-4,-91.993018"
         stroke="#191919"
         stroke-width="0.35 px"
         style="fill:none;fill-opacity:1;fill-rule:evenodd;stroke-width:0.35;stroke-linecap:square;stroke-miterlimit:4;stroke-dasharray:none" />
      <circle
         cx="-115.15246"
         cy="46.932575"
         r="1.7"
         stroke="#191919"
         stroke-width="0.35 px"
         style="fill:none;stroke-width:0.35;stroke-linecap:square;stroke-miterlimit:4;stroke-dasharray:none"
         id="circle9087" />
      <circle
         cx="-35"
         cy="46.932575"
         r="1.7"
         stroke="#191919"
         stroke-width="0.35 px"
         style="fill:none;stroke-width:0.35;stroke-linecap:square;stroke-miterlimit:4;stroke-dasharray:none"
         id="circle9089" />
      <circle
         cx="115.15246"
         cy="46.932575"
         r="1.7"
         stroke="#191919"
         stroke-width="0.35 px"
         style="fill:none;stroke-width:0.35;stroke-linecap:square;stroke-miterlimit:4;stroke-dasharray:none"
         id="circle9091" />
      <circle
         cx="35"
         cy="46.932575"
         r="1.7"
         stroke="#191919"
         stroke-width="0.35 px"
         style="fill:none;stroke-width:0.35;stroke-linecap:square;stroke-miterlimit:4;stroke-dasharray:none"
         id="circle9093" />
      <path
         id="Sketch012_w0005"
         d="m 0,-41.510418 a 1.05,1.05 0 0 1 0,-2.099982 1.05,1.05 0 0 1 0,2.1"
         stroke="#191919"
         stroke-width="0.35 px"
         style="fill:none;fill-opacity:1;fill-rule:evenodd;stroke-width:0.35;stroke-linecap:square;stroke-miterlimit:4;stroke-dasharray:none" />
      <circle
         cx="-115.15246"
         cy="-42.560417"
         r="1.05"
         stroke="#191919"
         stroke-width="0.35 px"
         style="fill:none;stroke-width:0.35;stroke-linecap:square;stroke-miterlimit:4;stroke-dasharray:none"
         id="circle9096" />
      <circle
         cx="115.15246"
         cy="-42.560417"
         r="1.05"
         stroke="#191919"
         stroke-width="0.35 px"
         style="fill:none;stroke-width:0.35;stroke-linecap:square;stroke-miterlimit:4;stroke-dasharray:none"
         id="circle9098" />
      <title
         id="title9100">b'Sketch012'</title>
    </g>
  </g>
</svg>
