<?xml version="1.0" encoding="UTF-8" standalone="no"?>
<!-- Created with Inkscape (http://www.inkscape.org/) -->

<svg
   width="248.65492mm"
   height="35.350025mm"
   viewBox="0 0 248.65493 35.350025"
   version="1.1"
   id="svg5"
   xmlns="http://www.w3.org/2000/svg"
   xmlns:svg="http://www.w3.org/2000/svg">
  <defs
     id="defs2" />
  <g
     id="layer1"
     transform="translate(160.84964,1335.1319)">
    <g
       id="Sketch012-0"
       transform="matrix(1,0,0,-1,-36.522173,-1278.0243)">
      <path
         id="Sketch012_w0000-3"
         d="M -119.15246,28.432575 A 1.5,1.5 0 0 1 -117.652,26.9326 l 235.30446,-2.5e-5 A 1.5,1.5 0 0 1 119.152,28.4326 l 4.6e-4,21.999975 A 1.5,1.5 0 0 1 117.652,51.9326 l -235.30446,-2.5e-5 A 1.5,1.5 0 0 1 -119.152,50.4326 l -4.6e-4,-22.000025"
         stroke="#191919"
         stroke-width="0.35 px"
         style="fill:none;fill-opacity:1;fill-rule:evenodd;stroke-width:0.35;stroke-linecap:square;stroke-miterlimit:4;stroke-dasharray:none" />
      <circle
         cx="-35"
         cy="46.932575"
         r="1.05"
         stroke="#191919"
         stroke-width="0.35 px"
         style="fill:none;stroke-width:0.35;stroke-linecap:square;stroke-miterlimit:4;stroke-dasharray:none"
         id="circle8866" />
      <circle
         cx="-115.15246"
         cy="46.932575"
         r="1.05"
         stroke="#191919"
         stroke-width="0.35 px"
         style="fill:none;stroke-width:0.35;stroke-linecap:square;stroke-miterlimit:4;stroke-dasharray:none"
         id="circle8868" />
      <circle
         cx="115.15246"
         cy="46.932575"
         r="1.05"
         stroke="#191919"
         stroke-width="0.35 px"
         style="fill:none;stroke-width:0.35;stroke-linecap:square;stroke-miterlimit:4;stroke-dasharray:none"
         id="circle8870" />
      <circle
         cx="35"
         cy="46.932575"
         r="1.05"
         stroke="#191919"
         stroke-width="0.35 px"
         style="fill:none;stroke-width:0.35;stroke-linecap:square;stroke-miterlimit:4;stroke-dasharray:none"
         id="circle8872" />
      <title
         id="title8874">b'Sketch012'</title>
    </g>
  </g>
</svg>
