<?xml version="1.0" encoding="UTF-8" standalone="no"?>
<!-- Created with Inkscape (http://www.inkscape.org/) -->

<svg
   width="262.65491mm"
   height="119.34302mm"
   viewBox="0 0 262.65491 119.34302"
   version="1.1"
   id="svg5"
   xmlns="http://www.w3.org/2000/svg"
   xmlns:svg="http://www.w3.org/2000/svg">
  <defs
     id="defs2" />
  <g
     id="layer1"
     transform="translate(167.85055,1722.7776)">
    <g
       id="Sketch012-65"
       transform="matrix(1,0,0,-1,-36.523093,-1658.67)">
      <path
         id="Sketch012_w0000-6"
         d="m 0,-39.368369 -21.855757,-1.748183 -65.084565,7.991384 c -0.95931,0.117789 -1.641489,0.990961 -1.523678,1.950268 l 1.497768,12.198351 c 0.01685,0.137058 -0.08061,0.261822 -0.217668,0.278649 l -30.48977,3.743628 c -0.95917,0.117964 -1.64115,0.991084 -1.52333,1.950272 l 7.32398,59.651973 c 0.11777,0.95922 0.99079,1.641389 1.95002,1.523727 l 16.923124,-2.077907 c 0.137045,-0.01681 0.261768,0.08066 0.278576,0.217707 l 0.336385,2.739389 c 0.117773,0.9593 0.990916,1.64149 1.950215,1.523711 l 16.922926,-2.077894 c 0.13704,-0.01681 0.261762,0.08065 0.278574,0.217694 l 0.336384,2.739398 c 0.117778,0.959296 0.99092,1.641481 1.950216,1.523702 l 21.836033,-2.681135 c 0.959301,-0.1178 1.634174,-0.990097 1.523667,-1.950265 l -0.207279,-1.800992 c -0.01579,-0.137154 0.0806,-0.26176 0.217634,-0.2786 L -36.466498,44.1639 -9.2492387,40.606271 c 1.0432475,-0.128099 1.9632632,0.685846 1.9632787,1.736929 l -2.1e-6,11.589375 c 1.38e-5,2.761448 -2.2385896,5.000046 -5.0000379,5.000025 l -105.36646,-2.5e-5 c -4.69423,-2.54e-4 -8.49953,-3.805744 -8.49954,-8.499975 l -4.6e-4,-91.993018 c 1e-5,-4.694593 3.80587,-8.500236 8.50046,-8.499982 l 235.30446,-1.8e-5 c 4.69425,2.54e-4 8.49955,3.80577 8.49954,8.500018 l 4.6e-4,91.992975 c 10e-6,4.69461 -3.80585,8.500279 -8.50046,8.500025 L 12.285962,58.932575 C 9.5245472,58.932576 7.2859738,56.694015 7.28596,53.9326 l 2.1e-6,-11.589368 C 7.2859759,41.292149 8.2059916,40.478201 9.24924,40.6063 l 38.456333,4.721807 c 0.137023,0.01684 0.234453,0.141568 0.217627,0.278593 l -0.336325,2.739428 c -0.117807,0.959323 0.564398,1.832501 1.523725,1.950272 l 21.835983,2.681087 c 0.959291,0.11778 1.832432,-0.564396 1.950217,-1.523687 l 0.336375,-2.73943 c 0.01682,-0.137053 0.141574,-0.234512 0.278625,-0.21767 l 16.922886,2.077874 c 0.959286,0.117779 1.832422,-0.56439 1.950214,-1.523674 l 0.336374,-2.739439 c 0.01683,-0.137049 0.141579,-0.234502 0.278626,-0.217661 l 16.92288,2.077862 c 0.95928,0.117783 1.83242,-0.56438 1.95022,-1.523662 l 7.32436,-59.652039 c 0.11781,-0.959194 -0.56418,-1.832312 -1.52336,-1.950261 l -30.490098,-3.743645 c -0.137034,-0.01681 -0.234499,-0.141519 -0.217702,-0.278555 l 1.497807,-12.198441 c 0.117805,-0.959314 -0.56439,-1.832484 -1.523707,-1.950259 L 21.855757,-41.116552 0,-39.368369"
         stroke="#191919"
         stroke-width="0.35 px"
         style="fill:none;fill-opacity:1;fill-rule:evenodd;stroke-width:0.35;stroke-linecap:square;stroke-miterlimit:4;stroke-dasharray:none" />
      <circle
         cx="-115.15246"
         cy="46.932575"
         r="1.7"
         stroke="#191919"
         stroke-width="0.35 px"
         style="fill:none;stroke-width:0.35;stroke-linecap:square;stroke-miterlimit:4;stroke-dasharray:none"
         id="circle8988" />
      <circle
         cx="-115.15246"
         cy="-42.560417"
         r="1.7"
         stroke="#191919"
         stroke-width="0.35 px"
         style="fill:none;stroke-width:0.35;stroke-linecap:square;stroke-miterlimit:4;stroke-dasharray:none"
         id="circle8990" />
      <circle
         cx="115.15246"
         cy="46.932575"
         r="1.7"
         stroke="#191919"
         stroke-width="0.35 px"
         style="fill:none;stroke-width:0.35;stroke-linecap:square;stroke-miterlimit:4;stroke-dasharray:none"
         id="circle8992" />
      <circle
         cx="115.15246"
         cy="-42.560417"
         r="1.7"
         stroke="#191919"
         stroke-width="0.35 px"
         style="fill:none;stroke-width:0.35;stroke-linecap:square;stroke-miterlimit:4;stroke-dasharray:none"
         id="circle8994" />
      <circle
         cx="-35"
         cy="46.932575"
         r="1.7"
         stroke="#191919"
         stroke-width="0.35 px"
         style="fill:none;stroke-width:0.35;stroke-linecap:square;stroke-miterlimit:4;stroke-dasharray:none"
         id="circle8996" />
      <circle
         cx="35"
         cy="46.932575"
         r="1.7"
         stroke="#191919"
         stroke-width="0.35 px"
         style="fill:none;stroke-width:0.35;stroke-linecap:square;stroke-miterlimit:4;stroke-dasharray:none"
         id="circle8998" />
      <path
         id="Sketch012_w0007-9"
         d="m 0,-40.860418 a 1.7,1.7 0 0 1 0,-3.399982 1.7,1.7 0 0 1 0,3.4"
         stroke="#191919"
         stroke-width="0.35 px"
         style="fill:none;fill-opacity:1;fill-rule:evenodd;stroke-width:0.35;stroke-linecap:square;stroke-miterlimit:4;stroke-dasharray:none" />
      <title
         id="title9001">b'Sketch012'</title>
    </g>
  </g>
</svg>
