<?xml version="1.0" encoding="UTF-8" standalone="no"?>
<!-- Created with Inkscape (http://www.inkscape.org/) -->

<svg
   width="259.15491mm"
   height="115.84302mm"
   viewBox="0 0 259.15491 115.84302"
   version="1.1"
   id="svg5"
   xmlns="http://www.w3.org/2000/svg"
   xmlns:svg="http://www.w3.org/2000/svg">
  <defs
     id="defs2" />
  <g
     id="layer1"
     transform="translate(420.19622,1611.9929)">
    <g
       id="Sketch012-06"
       transform="matrix(1,0,0,-1,-290.61876,-1549.6353)">
      <path
         id="Sketch012_w0000-32"
         d="M -117.65246,57.182575 A 6.75,6.75 0 0 1 -124.402,50.4326 l -4.6e-4,-91.993018 a 6.75,6.75 0 0 1 6.75046,-6.749982 l 235.30446,-1.8e-5 a 6.75,6.75 0 0 1 6.74954,6.750018 l 4.6e-4,91.992975 A 6.75,6.75 0 0 1 117.652,57.1826 l -235.30446,-2.5e-5"
         stroke="#191919"
         stroke-width="0.35 px"
         style="fill:none;fill-opacity:1;fill-rule:evenodd;stroke-width:0.35;stroke-linecap:square;stroke-miterlimit:4;stroke-dasharray:none" />
      <path
         id="Sketch012_w0001-0"
         d="m -85.21356,-30.087969 a 0.75,0.75 0 0 1 0.65296,-0.835831 l 61.451062,-7.545216 A 0.75,0.75 0 0 1 -22.2737,-37.816 l 9.286417,75.632008 A 0.75,0.75 0 0 1 -13.6403,38.6518 l -36.32718,4.460438 A 0.75,0.75 0 0 0 -50.6205,43.948 l 0.397307,3.23575 A 0.75,0.75 0 0 1 -50.8762,48.0196 l -18.908005,2.321573 A 0.75,0.75 0 0 1 -70.62,49.6882 l -0.397311,-3.235735 A 0.75,0.75 0 0 0 -71.8531,45.7995 l -17.419207,2.138764 A 0.75,0.75 0 0 1 -90.1081,47.2853 l -0.397313,-3.235744 A 0.75,0.75 0 0 0 -91.3412,43.3965 l -17.41921,2.138855 A 0.75,0.75 0 0 1 -109.596,44.8823 l -6.96505,-56.723965 a 0.75,0.75 0 0 1 0.65305,-0.835835 l 18.907958,-2.321588 a 0.75,0.75 0 0 1 0.835842,0.652988 l 0.397263,3.235721 a 0.75,0.75 0 0 0 0.835837,0.652979 l 11.20334,-1.375572 a 0.75,0.75 0 0 0 0.65296,-0.835828 l -2.13876,-17.419169"
         stroke="#191919"
         stroke-width="0.35 px"
         style="fill:none;fill-opacity:1;fill-rule:evenodd;stroke-width:0.35;stroke-linecap:square;stroke-miterlimit:4;stroke-dasharray:none" />
      <path
         id="Sketch012_w0002-6"
         d="M 84.560552,-30.92378 A 0.75,0.75 0 0 1 85.2136,-30.088 l -2.138847,17.419216 A 0.75,0.75 0 0 0 83.7278,-11.833 l 11.203325,1.375628 A 0.75,0.75 0 0 0 95.7669,-11.1104 l 0.397331,-3.23568 A 0.75,0.75 0 0 1 97,-14.9991 l 18.90805,2.321623 a 0.75,0.75 0 0 1 0.65295,0.835777 l -6.96478,56.724048 A 0.75,0.75 0 0 1 108.76,45.5354 L 91.341224,43.396548 A 0.75,0.75 0 0 0 90.5054,44.0496 l -0.397281,3.235656 A 0.75,0.75 0 0 1 89.2723,47.9383 L 71.853122,45.799457 A 0.75,0.75 0 0 0 71.0173,46.4525 l -0.397283,3.235665 A 0.75,0.75 0 0 1 69.7842,50.3412 L 50.876201,48.019562 A 0.75,0.75 0 0 1 50.2232,47.1838 l 0.397287,-3.23575 A 0.75,0.75 0 0 0 49.9675,43.1122 L 13.64029,38.65182 A 0.75,0.75 0 0 1 12.9873,37.816 l 9.286427,-75.632008 A 0.75,0.75 0 0 1 23.1095,-38.469 l 61.451052,7.54522"
         stroke="#191919"
         stroke-width="0.35 px"
         style="fill:none;fill-opacity:1;fill-rule:evenodd;stroke-width:0.35;stroke-linecap:square;stroke-miterlimit:4;stroke-dasharray:none" />
      <path
         id="Sketch012_w0003-1"
         d="m -5.6,-16.345786 a 0.5,0.5 0 0 1 0.5,-0.500014 l 10.2,1.4e-5 A 0.5,0.5 0 0 1 5.6,-16.3458 V 8.6542138 A 0.5,0.5 0 0 1 5.1,9.15421 l -10.2,3.8e-6 A 0.5,0.5 0 0 1 -5.6,8.65421 v -24.999996"
         stroke="#191919"
         stroke-width="0.35 px"
         style="fill:none;fill-opacity:1;fill-rule:evenodd;stroke-width:0.35;stroke-linecap:square;stroke-miterlimit:4;stroke-dasharray:none" />
      <path
         id="Sketch012_w0004-5"
         d="m -7,31.404214 v -14 H 7 v 14 H -7"
         stroke="#191919"
         stroke-width="0.35 px"
         style="fill:none;fill-opacity:1;fill-rule:evenodd;stroke-width:0.35;stroke-linecap:square;stroke-miterlimit:4;stroke-dasharray:none" />
      <circle
         cx="-115.15246"
         cy="-42.560417"
         r="2.2"
         stroke="#191919"
         stroke-width="0.35 px"
         style="fill:none;stroke-width:0.35;stroke-linecap:square;stroke-miterlimit:4;stroke-dasharray:none"
         id="circle8916" />
      <circle
         cx="-115.15246"
         cy="46.932575"
         r="2.2"
         stroke="#191919"
         stroke-width="0.35 px"
         style="fill:none;stroke-width:0.35;stroke-linecap:square;stroke-miterlimit:4;stroke-dasharray:none"
         id="circle8918" />
      <path
         id="Sketch012_w0007"
         d="m 0,-40.360418 a 2.2,2.2 0 0 1 0,-4.399982 2.2,2.2 0 0 1 0,4.4"
         stroke="#191919"
         stroke-width="0.35 px"
         style="fill:none;fill-opacity:1;fill-rule:evenodd;stroke-width:0.35;stroke-linecap:square;stroke-miterlimit:4;stroke-dasharray:none" />
      <circle
         cx="115.15246"
         cy="-42.560417"
         r="2.2"
         stroke="#191919"
         stroke-width="0.35 px"
         style="fill:none;stroke-width:0.35;stroke-linecap:square;stroke-miterlimit:4;stroke-dasharray:none"
         id="circle8921" />
      <circle
         cx="115.15246"
         cy="46.932575"
         r="2.2"
         stroke="#191919"
         stroke-width="0.35 px"
         style="fill:none;stroke-width:0.35;stroke-linecap:square;stroke-miterlimit:4;stroke-dasharray:none"
         id="circle8923" />
      <circle
         cx="-35"
         cy="46.932575"
         r="2.2"
         stroke="#191919"
         stroke-width="0.35 px"
         style="fill:none;stroke-width:0.35;stroke-linecap:square;stroke-miterlimit:4;stroke-dasharray:none"
         id="circle8925" />
      <circle
         cx="35"
         cy="46.932575"
         r="2.2"
         stroke="#191919"
         stroke-width="0.35 px"
         style="fill:none;stroke-width:0.35;stroke-linecap:square;stroke-miterlimit:4;stroke-dasharray:none"
         id="circle8927" />
      <title
         id="title8929">b'Sketch012'</title>
    </g>
  </g>
</svg>
