<?xml version="1.0" encoding="UTF-8" standalone="no"?>
<!-- Created with Inkscape (http://www.inkscape.org/) -->

<svg
   width="255.65492mm"
   height="112.34302mm"
   viewBox="0 0 255.65493 112.34302"
   version="1.1"
   id="svg5"
   xmlns="http://www.w3.org/2000/svg"
   xmlns:svg="http://www.w3.org/2000/svg">
  <defs
     id="defs2" />
  <g
     id="layer1"
     transform="translate(418.44622,1719.2776)">
    <g
       id="Sketch012-6"
       transform="matrix(1,0,0,-1,-290.61876,-1658.67)">
      <path
         id="Sketch012_w0000-1"
         d="m 117.65246,-46.560418 h -235.30492 a 5,5 0 0 0 -4.99954,5.000018 l -4.6e-4,91.992975 a 5,5 0 0 0 5.00046,5.000025 l 235.30446,-2.5e-5 A 5,5 0 0 0 122.652,50.4326 l 4.6e-4,-91.993018 A 5,5 0 0 0 117.652,-46.5604"
         stroke="#191919"
         stroke-width="0.35 px"
         style="fill:none;fill-opacity:1;fill-rule:evenodd;stroke-width:0.35;stroke-linecap:square;stroke-miterlimit:4;stroke-dasharray:none" />
      <path
         id="Sketch012_w0001"
         d="m -91.341224,43.396548 -17.419186,2.138807 A 0.75,0.75 0 0 1 -109.596,44.8823 l -6.96505,-56.723965 a 0.75,0.75 0 0 1 0.65305,-0.835835 l 18.907958,-2.321588 a 0.75,0.75 0 0 1 0.835842,0.652988 l 0.397263,3.235721 a 0.75,0.75 0 0 0 0.835837,0.652979 l 11.20334,-1.375572 a 0.75,0.75 0 0 0 0.65296,-0.835828 l -2.13876,-17.419169 a 0.75,0.75 0 0 1 0.65296,-0.835831 l 61.451062,-7.545216 A 0.75,0.75 0 0 1 -22.2737,-37.816 l 9.286417,75.632008 A 0.75,0.75 0 0 1 -13.6403,38.6518 l -36.32718,4.460438 A 0.75,0.75 0 0 0 -50.6205,43.948 l 0.397307,3.23575 A 0.75,0.75 0 0 1 -50.8762,48.0196 l -18.908005,2.321573 A 0.75,0.75 0 0 1 -70.62,49.6882 l -0.397311,-3.235735 A 0.75,0.75 0 0 0 -71.8531,45.7995 l -17.419207,2.138764 A 0.75,0.75 0 0 1 -90.1081,47.2853 l -0.397313,-3.235744 A 0.75,0.75 0 0 0 -91.3412,43.3965"
         stroke="#191919"
         stroke-width="0.35 px"
         style="fill:none;fill-opacity:1;fill-rule:evenodd;stroke-width:0.35;stroke-linecap:square;stroke-miterlimit:4;stroke-dasharray:none" />
      <path
         id="Sketch012_w0002"
         d="m 91.341224,43.396548 17.419186,2.138807 A 0.75,0.75 0 0 0 109.596,44.8823 l 6.96505,-56.723965 A 0.75,0.75 0 0 0 115.908,-12.6775 L 97.000042,-14.999088 A 0.75,0.75 0 0 0 96.1642,-14.3461 l -0.397263,3.235721 A 0.75,0.75 0 0 1 94.9311,-10.4574 L 83.72776,-11.832972 A 0.75,0.75 0 0 1 83.0748,-12.6688 l 2.13876,-17.419169 A 0.75,0.75 0 0 0 84.5606,-30.9238 L 23.109538,-38.469016 A 0.75,0.75 0 0 0 22.2737,-37.816 L 12.987283,37.816008 A 0.75,0.75 0 0 0 13.6403,38.6518 l 36.32718,4.460438 A 0.75,0.75 0 0 1 50.6205,43.948 l -0.397307,3.23575 A 0.75,0.75 0 0 0 50.8762,48.0196 l 18.908005,2.321573 A 0.75,0.75 0 0 0 70.62,49.6882 l 0.397311,-3.235735 A 0.75,0.75 0 0 1 71.8531,45.7995 l 17.419207,2.138764 A 0.75,0.75 0 0 0 90.1081,47.2853 l 0.397313,-3.235744 A 0.75,0.75 0 0 1 91.3412,43.3965"
         stroke="#191919"
         stroke-width="0.35 px"
         style="fill:none;fill-opacity:1;fill-rule:evenodd;stroke-width:0.35;stroke-linecap:square;stroke-miterlimit:4;stroke-dasharray:none" />
      <path
         id="Sketch012_w0003"
         d="M 6.475,9.2792138 A 0.75,0.75 0 0 1 5.725,10.0292 l -11.45,1.4e-5 A 0.75,0.75 0 0 1 -6.475,9.27921 v -26.249996 a 0.75,0.75 0 0 1 0.75,-0.750014 l 11.45,1.4e-5 a 0.75,0.75 0 0 1 0.75,0.749986 V 9.2792138"
         stroke="#191919"
         stroke-width="0.35 px"
         style="fill:none;fill-opacity:1;fill-rule:evenodd;stroke-width:0.35;stroke-linecap:square;stroke-miterlimit:4;stroke-dasharray:none" />
      <path
         id="Sketch012_w0004"
         d="M 0,29.404214 A 5.000007,5.000007 0 0 1 0,19.4042 a 5,5 0 0 1 0,10"
         stroke="#191919"
         stroke-width="0.35 px"
         style="fill:none;fill-opacity:1;fill-rule:evenodd;stroke-width:0.35;stroke-linecap:square;stroke-miterlimit:4;stroke-dasharray:none" />
      <title
         id="title8895">b'Sketch012'</title>
    </g>
  </g>
</svg>
