<?xml version="1.0"?>
<!DOCTYPE svg PUBLIC "-//W3C//DTD SVG 1.1//EN" "http://www.w3.org/Graphics/SVG/1.1/DTD/svg11.dtd">
<svg width="110.72251097804828mm" height="98.4266956205132mm" viewBox="0 0 110.72251097804828 98.4266956205132" xmlns="http://www.w3.org/2000/svg" version="1.1">
<g id="Sketch013" transform="translate(120.150048,53.477734) scale(1,-1)">
<path id="Sketch013_w0000"  d="M -110.51925915489073 51.51930861942114 L -119.06230012759153 -18.05817661063547 A 1 1 0 0 1 -118.192 -19.1726L -110.25125410622476 -20.147546852923128 A 1 1 0 0 1 -109.137 -19.2769L -108.77123058096288 -16.299231589763018 A 1 1 0 0 0 -107.657 -15.4286L -87.09249950659779 -17.953535240202246 A 1 1 0 0 0 -86.2218 -19.068L -87.71959692881087 -31.266342938920506 A 1 1 0 0 1 -86.8489 -32.3808L -43.69177276452048 -37.679789821902055 A 1 1 0 0 0 -42.8211 -38.7942L -43.186703986499744 -41.77184377187246 A 1 1 0 0 1 -42.316 -42.8863L -34.375657965132994 -43.861214014160105 A 1 1 0 0 1 -33.2612 -42.9905L -32.89563443987109 -40.012898751 A 1 1 0 0 0 -31.7812 -39.1422L -21.85575742841138 -40.360915376815306 A 1 1 0 0 1 -20.7413 -39.4902L -10.515285328239024 43.79430901564422 A 1 1 0 0 1 -11.386 44.9087L -19.326331349605773 45.883679257931874 A 1 1 0 0 1 -20.4407 45.013L -20.77710623245045 42.27357507116563 A 1 1 0 0 0 -21.8915 41.4029L -47.79697628533538 44.58368812580381 A 1 1 0 0 0 -48.6677 45.6981L -48.331293705773355 48.43753099938033 A 1 1 0 0 1 -49.202 49.5519L -71.03798585011872 52.23307204934005 A 1 1 0 0 1 -72.1524 51.3624L -72.48876073296339 48.62296786257381 A 1 1 0 0 0 -73.6032 47.7523L -90.52608811349442 49.8301633593954 A 1 1 0 0 1 -91.6405 48.9595L -91.97686299633911 46.220059172629156 A 1 1 0 0 0 -93.0913 45.3494L -100.08872886045678 46.208561235399266 A 1 1 0 0 0 -100.959 47.323L -100.59379763847751 50.30061518536967 A 1 1 0 0 1 -101.464 51.415L -109.40484365984426 52.389985427657315 A 1 1 0 0 1 -110.519 51.5193" stroke="#191919" stroke-width="0.35 px" style="stroke-width:0.35;stroke-miterlimit:4;stroke-dasharray:none;stroke-linecap:square;fill:none;fill-opacity:1;fill-rule: evenodd"/>
<path id="Sketch013_w0001"  d="M -30.44123765765324 37.41512225196405 L -32.1474084653253 23.519476128985534 L -18.251762342346783 21.813305321313464 L -16.545591534674724 35.708951444291976 L -30.44123765765324 37.41512225196405 " stroke="#191919" stroke-width="0.35 px" style="stroke-width:0.35;stroke-miterlimit:4;stroke-dasharray:none;stroke-linecap:square;fill:none;fill-opacity:1;fill-rule: evenodd"/>
<path id="Sketch013_w0002"  d="M -32.76284864952129 18.50711806319686 L -34.46901945719335 4.6114719402183475 L -20.57337333421483 2.905301132546277 L -18.867202526542773 16.80094725552479 L -32.76284864952129 18.50711806319686 " stroke="#191919" stroke-width="0.35 px" style="stroke-width:0.35;stroke-miterlimit:4;stroke-dasharray:none;stroke-linecap:square;fill:none;fill-opacity:1;fill-rule: evenodd"/>
<path id="Sketch013_w0003"  d="M -40.09681770717799 0.21455405862564447 L -53.9924638301565 1.920724866297714 L -55.69863463782856 -11.974921256680798 L -41.80298851485005 -13.681092064352868 L -40.09681770717799 0.21455405862564447 " stroke="#191919" stroke-width="0.35 px" style="stroke-width:0.35;stroke-miterlimit:4;stroke-dasharray:none;stroke-linecap:square;fill:none;fill-opacity:1;fill-rule: evenodd"/>
<path id="Sketch013_w0004"  d="M -87.16525022395481 44.37995522756818 L -88.87142103162687 30.48430910458967 L -74.97577490864836 28.7781382969176 L -73.2696041009763 42.67378441989611 L -87.16525022395481 44.37995522756818 " stroke="#191919" stroke-width="0.35 px" style="stroke-width:0.35;stroke-miterlimit:4;stroke-dasharray:none;stroke-linecap:square;fill:none;fill-opacity:1;fill-rule: evenodd"/>
<path id="Sketch013_w0005"  d="M -35.08445964138934 -0.40088612557032866 L -36.790630449061396 -14.296532248548841 L -22.894984326082884 -16.00270305622091 L -21.188813518410825 -2.107056933242397 L -35.08445964138934 -0.40088612557032866 " stroke="#191919" stroke-width="0.35 px" style="stroke-width:0.35;stroke-miterlimit:4;stroke-dasharray:none;stroke-linecap:square;fill:none;fill-opacity:1;fill-rule: evenodd"/>
<path id="Sketch013_w0006"  d="M -89.48686121582287 25.471951038800995 L -91.19303202349494 11.576304915822485 L -77.29738590051642 9.870134108150415 L -75.59121509284437 23.765780231128925 L -89.48686121582287 25.471951038800995 " stroke="#191919" stroke-width="0.35 px" style="stroke-width:0.35;stroke-miterlimit:4;stroke-dasharray:none;stroke-linecap:square;fill:none;fill-opacity:1;fill-rule: evenodd"/>
<path id="Sketch013_w0007"  d="M -63.68993341140913 -16.081637764289994 L -65.3961042190812 -29.977283887268502 L -79.2917503420597 -28.271113079596436 L -77.58557953438763 -14.375466956617924 L -63.68993341140913 -16.081637764289994 " stroke="#191919" stroke-width="0.35 px" style="stroke-width:0.35;stroke-miterlimit:4;stroke-dasharray:none;stroke-linecap:square;fill:none;fill-opacity:1;fill-rule: evenodd"/>
<path id="Sketch013_w0008"  d="M -34.67059741233451 -33.749901749054075 L -32.96442660466245 -19.854255626075567 L -46.86007272764096 -18.148084818403497 L -48.56624353531302 -32.04373094138201 L -34.67059741233451 -33.749901749054075 " stroke="#191919" stroke-width="0.35 px" style="stroke-width:0.35;stroke-miterlimit:4;stroke-dasharray:none;stroke-linecap:square;fill:none;fill-opacity:1;fill-rule: evenodd"/>
<path id="Sketch013_w0009"  d="M -108.97496347919851 23.069042348856346 L -95.07931735621999 21.36287154118428 L -96.78548816389205 7.46722541820577 L -110.68113428687056 9.173396225877838 L -108.97496347919851 23.069042348856346 " stroke="#191919" stroke-width="0.35 px" style="stroke-width:0.35;stroke-miterlimit:4;stroke-dasharray:none;stroke-linecap:square;fill:none;fill-opacity:1;fill-rule: evenodd"/>
<path id="Sketch013_w0010"  d="M -111.29657447106653 4.161038160089159 L -113.0027452787386 -9.73460796288935 L -99.10709915576008 -11.440778770561415 L -97.40092834808803 2.4548673524170894 L -111.29657447106653 4.161038160089159 " stroke="#191919" stroke-width="0.35 px" style="stroke-width:0.35;stroke-miterlimit:4;stroke-dasharray:none;stroke-linecap:square;fill:none;fill-opacity:1;fill-rule: evenodd"/>
<path id="Sketch013_w0011"  d="M -51.67085283828845 20.8287290550649 L -37.77520671530994 19.12255824739283 L -39.481377522982 5.226912124414319 L -53.377023645960506 6.93308293208639 L -51.67085283828845 20.8287290550649 " stroke="#191919" stroke-width="0.35 px" style="stroke-width:0.35;stroke-miterlimit:4;stroke-dasharray:none;stroke-linecap:square;fill:none;fill-opacity:1;fill-rule: evenodd"/>
<path id="Sketch013_w0012"  d="M -74.02654075198721 -4.92879058300004 L -72.32036994431516 8.966855539978472 L -58.42472382133665 7.2606847323064025 L -60.13089462900871 -6.634961390672109 L -74.02654075198721 -4.92879058300004 " stroke="#191919" stroke-width="0.35 px" style="stroke-width:0.35;stroke-miterlimit:4;stroke-dasharray:none;stroke-linecap:square;fill:none;fill-opacity:1;fill-rule: evenodd"/>
<path id="Sketch013_w0013"  d="M -69.99875895244712 27.874859728745662 L -71.70492976011917 13.979213605767152 L -57.809283637140666 12.273042798095082 L -56.10311282946861 26.168688921073592 L -69.99875895244712 27.874859728745662 " stroke="#191919" stroke-width="0.35 px" style="stroke-width:0.35;stroke-miterlimit:4;stroke-dasharray:none;stroke-linecap:square;fill:none;fill-opacity:1;fill-rule: evenodd"/>
<path id="Sketch013_w0014"  d="M -67.67714796057908 46.78286391751285 L -53.781501837600565 45.07669310984078 L -55.487672645272625 31.18104698686227 L -69.38331876825113 32.88721779453434 L -67.67714796057908 46.78286391751285 " stroke="#191919" stroke-width="0.35 px" style="stroke-width:0.35;stroke-miterlimit:4;stroke-dasharray:none;stroke-linecap:square;fill:none;fill-opacity:1;fill-rule: evenodd"/>
<path id="Sketch013_w0015"  d="M -49.3492418464204 39.736733243832084 L -35.45359572344189 38.03056243616002 L -37.15976653111395 24.134916313181506 L -51.05541265409246 25.841087120853576 L -49.3492418464204 39.736733243832084 " stroke="#191919" stroke-width="0.35 px" style="stroke-width:0.35;stroke-miterlimit:4;stroke-dasharray:none;stroke-linecap:square;fill:none;fill-opacity:1;fill-rule: evenodd"/>
<path id="Sketch013_w0016"  d="M -106.65335248733044 41.97704653762353 L -108.35952329500249 28.08140041464502 L -94.46387717202398 26.37522960697295 L -92.75770636435193 40.27087572995146 L -106.65335248733044 41.97704653762353 " stroke="#191919" stroke-width="0.35 px" style="stroke-width:0.35;stroke-miterlimit:4;stroke-dasharray:none;stroke-linecap:square;fill:none;fill-opacity:1;fill-rule: evenodd"/>
<path id="Sketch013_w0017"  d="M -91.80847220769091 6.563946850033806 L -93.51464301536296 -7.331699272944705 L -79.61899689238446 -9.03787008061677 L -77.9128260847124 4.857776042361737 L -91.80847220769091 6.563946850033806 " stroke="#191919" stroke-width="0.35 px" style="stroke-width:0.35;stroke-miterlimit:4;stroke-dasharray:none;stroke-linecap:square;fill:none;fill-opacity:1;fill-rule: evenodd"/>
<title>b'Sketch013'</title>
</g>
</svg>