<?xml version="1.0" encoding="UTF-8" standalone="no"?>
<!-- Created with Inkscape (http://www.inkscape.org/) -->

<svg
   width="110.55003mm"
   height="101.26004mm"
   viewBox="0 0 110.55003 101.26004"
   version="1.1"
   id="svg2462"
   inkscape:version="1.1.2 (0a00cf5339, 2022-02-04, custom)"
   sodipodi:docname="plate.svg"
   xmlns:inkscape="http://www.inkscape.org/namespaces/inkscape"
   xmlns:sodipodi="http://sodipodi.sourceforge.net/DTD/sodipodi-0.dtd"
   xmlns="http://www.w3.org/2000/svg"
   xmlns:svg="http://www.w3.org/2000/svg">
  <sodipodi:namedview
     id="namedview2464"
     pagecolor="#ffffff"
     bordercolor="#666666"
     borderopacity="1.0"
     inkscape:pageshadow="2"
     inkscape:pageopacity="0.0"
     inkscape:pagecheckerboard="0"
     inkscape:document-units="mm"
     showgrid="false"
     inkscape:zoom="0.80000879"
     inkscape:cx="183.74798"
     inkscape:cy="61.87432"
     inkscape:window-width="1920"
     inkscape:window-height="1135"
     inkscape:window-x="0"
     inkscape:window-y="0"
     inkscape:window-maximized="1"
     inkscape:current-layer="layer1"
     lock-margins="true"
     fit-margin-top="5"
     fit-margin-left="5"
     fit-margin-right="5"
     fit-margin-bottom="5" />
  <defs
     id="defs2459" />
  <g
     inkscape:label="Layer 1"
     inkscape:groupmode="layer"
     id="layer1"
     transform="translate(-46.85195,-96.600698)">
    <g
       id="Sketch013"
       transform="matrix(0.99254615,-0.12186934,-0.12186934,-0.99254615,168.00104,144.96208)">
      <path
         id="Sketch013_w0000"
         d="m -110.51926,51.519309 -8.54304,-69.577486 a 1,1 0 0 1 0.8703,-1.114423 l 7.94075,-0.974947 a 1,1 0 0 1 1.11425,0.870647 l 0.36577,2.977668 a 1,1 0 0 0 1.11423,0.870632 l 20.5645,-2.524935 a 1,1 0 0 0 0.8707,-1.114465 l -1.497797,-12.198343 A 1,1 0 0 1 -86.8489,-32.3808 l 43.157127,-5.29899 a 1,1 0 0 0 0.870673,-1.11441 l -0.365604,-2.977644 A 1,1 0 0 1 -42.316,-42.8863 l 7.940342,-0.974914 a 1,1 0 0 1 1.114458,0.870714 l 0.365566,2.977601 a 1,1 0 0 0 1.114434,0.870699 l 9.925443,-1.218715 a 1,1 0 0 1 1.114457,0.870715 l 10.226015,83.284509 A 1,1 0 0 1 -11.386,44.9087 l -7.940331,0.974979 A 1,1 0 0 1 -20.4407,45.013 l -0.336406,-2.739425 A 1,1 0 0 0 -21.8915,41.4029 l -25.905476,3.180788 A 1,1 0 0 0 -48.6677,45.6981 l 0.336406,2.739431 A 1,1 0 0 1 -49.202,49.5519 l -21.835986,2.681172 A 1,1 0 0 1 -72.1524,51.3624 l -0.336361,-2.739432 A 1,1 0 0 0 -73.6032,47.7523 l -16.922888,2.077863 A 1,1 0 0 1 -91.6405,48.9595 l -0.336363,-2.739441 A 1,1 0 0 0 -93.0913,45.3494 l -6.99743,0.859161 A 1,1 0 0 0 -100.959,47.323 l 0.3652,2.977615 A 1,1 0 0 1 -101.464,51.415 l -7.94084,0.974985 A 1,1 0 0 1 -110.519,51.5193"
         stroke="#191919"
         stroke-width="0.35 px"
         style="fill:none;fill-opacity:1;fill-rule:evenodd;stroke-width:0.35;stroke-linecap:square;stroke-miterlimit:4;stroke-dasharray:none" />
      <path
         id="Sketch013_w0001"
         d="m -87.16525,44.379955 -1.706171,-13.895646 13.895646,-1.706171 1.706171,13.895646 -13.895646,1.706171"
         stroke="#191919"
         stroke-width="0.35 px"
         style="fill:none;fill-opacity:1;fill-rule:evenodd;stroke-width:0.35;stroke-linecap:square;stroke-miterlimit:4;stroke-dasharray:none" />
      <path
         id="Sketch013_w0002"
         d="m -63.689933,-16.081638 -1.706171,-13.895646 -13.895646,1.706171 1.70617,13.895646 13.895647,-1.706171"
         stroke="#191919"
         stroke-width="0.35 px"
         style="fill:none;fill-opacity:1;fill-rule:evenodd;stroke-width:0.35;stroke-linecap:square;stroke-miterlimit:4;stroke-dasharray:none" />
      <path
         id="Sketch013_w0003"
         d="m -35.08446,-0.40088613 -1.70617,-13.89564587 13.895646,-1.706171 1.70617,13.8956461 -13.895646,1.70617077"
         stroke="#191919"
         stroke-width="0.35 px"
         style="fill:none;fill-opacity:1;fill-rule:evenodd;stroke-width:0.35;stroke-linecap:square;stroke-miterlimit:4;stroke-dasharray:none" />
      <path
         id="Sketch013_w0004"
         d="m -32.762849,18.507118 -1.70617,-13.8956461 13.895646,-1.7061708 1.70617,13.8956459 -13.895646,1.706171"
         stroke="#191919"
         stroke-width="0.35 px"
         style="fill:none;fill-opacity:1;fill-rule:evenodd;stroke-width:0.35;stroke-linecap:square;stroke-miterlimit:4;stroke-dasharray:none" />
      <path
         id="Sketch013_w0005"
         d="m -111.29657,4.1610382 -1.70618,-13.8956462 13.895651,-1.706171 1.706171,13.8956464 -13.895642,1.7061708"
         stroke="#191919"
         stroke-width="0.35 px"
         style="fill:none;fill-opacity:1;fill-rule:evenodd;stroke-width:0.35;stroke-linecap:square;stroke-miterlimit:4;stroke-dasharray:none" />
      <path
         id="Sketch013_w0006"
         d="m -89.486861,25.471951 -1.706171,-13.895646 13.895646,-1.7061709 1.706171,13.8956459 -13.895646,1.706171"
         stroke="#191919"
         stroke-width="0.35 px"
         style="fill:none;fill-opacity:1;fill-rule:evenodd;stroke-width:0.35;stroke-linecap:square;stroke-miterlimit:4;stroke-dasharray:none" />
      <path
         id="Sketch013_w0007"
         d="m -74.026541,-4.9287906 1.706171,13.8956461 13.895646,-1.7061708 -1.706171,-13.8956461 -13.895646,1.7061708"
         stroke="#191919"
         stroke-width="0.35 px"
         style="fill:none;fill-opacity:1;fill-rule:evenodd;stroke-width:0.35;stroke-linecap:square;stroke-miterlimit:4;stroke-dasharray:none" />
      <path
         id="Sketch013_w0008"
         d="m -49.349242,39.736733 13.895646,-1.706171 -1.706171,-13.895646 -13.895646,1.706171 1.706171,13.895646"
         stroke="#191919"
         stroke-width="0.35 px"
         style="fill:none;fill-opacity:1;fill-rule:evenodd;stroke-width:0.35;stroke-linecap:square;stroke-miterlimit:4;stroke-dasharray:none" />
      <path
         id="Sketch013_w0009"
         d="m -30.441238,37.415122 -1.70617,-13.895646 13.895646,-1.706171 1.70617,13.895646 -13.895646,1.706171"
         stroke="#191919"
         stroke-width="0.35 px"
         style="fill:none;fill-opacity:1;fill-rule:evenodd;stroke-width:0.35;stroke-linecap:square;stroke-miterlimit:4;stroke-dasharray:none" />
      <path
         id="Sketch013_w0010"
         d="m -51.670853,20.828729 13.895646,-1.706171 -1.706171,-13.8956459 -13.895646,1.7061708 1.706171,13.8956461"
         stroke="#191919"
         stroke-width="0.35 px"
         style="fill:none;fill-opacity:1;fill-rule:evenodd;stroke-width:0.35;stroke-linecap:square;stroke-miterlimit:4;stroke-dasharray:none" />
      <path
         id="Sketch013_w0011"
         d="m -40.096818,0.21455406 -13.895646,1.70617084 -1.706171,-13.8956459 13.895646,-1.706171 1.706171,13.89564606"
         stroke="#191919"
         stroke-width="0.35 px"
         style="fill:none;fill-opacity:1;fill-rule:evenodd;stroke-width:0.35;stroke-linecap:square;stroke-miterlimit:4;stroke-dasharray:none" />
      <path
         id="Sketch013_w0012"
         d="m -67.677148,46.782864 13.895646,-1.706171 -1.706171,-13.895646 -13.895646,1.706171 1.706171,13.895646"
         stroke="#191919"
         stroke-width="0.35 px"
         style="fill:none;fill-opacity:1;fill-rule:evenodd;stroke-width:0.35;stroke-linecap:square;stroke-miterlimit:4;stroke-dasharray:none" />
      <path
         id="Sketch013_w0013"
         d="m -69.998759,27.87486 -1.706171,-13.895646 13.895646,-1.706171 1.706171,13.895646 -13.895646,1.706171"
         stroke="#191919"
         stroke-width="0.35 px"
         style="fill:none;fill-opacity:1;fill-rule:evenodd;stroke-width:0.35;stroke-linecap:square;stroke-miterlimit:4;stroke-dasharray:none" />
      <path
         id="Sketch013_w0014"
         d="m -34.670597,-33.749902 1.70617,13.895646 -13.895646,1.706171 -1.706171,-13.895646 13.895647,-1.706171"
         stroke="#191919"
         stroke-width="0.35 px"
         style="fill:none;fill-opacity:1;fill-rule:evenodd;stroke-width:0.35;stroke-linecap:square;stroke-miterlimit:4;stroke-dasharray:none" />
      <path
         id="Sketch013_w0015"
         d="m -108.97496,23.069042 13.895643,-1.70617 -1.706171,-13.8956466 -13.895642,1.7061708 1.70617,13.8956458"
         stroke="#191919"
         stroke-width="0.35 px"
         style="fill:none;fill-opacity:1;fill-rule:evenodd;stroke-width:0.35;stroke-linecap:square;stroke-miterlimit:4;stroke-dasharray:none" />
      <path
         id="Sketch013_w0016"
         d="m -91.808472,6.5639469 -1.706171,-13.8956462 13.895646,-1.7061708 1.706171,13.8956461 -13.895646,1.7061709"
         stroke="#191919"
         stroke-width="0.35 px"
         style="fill:none;fill-opacity:1;fill-rule:evenodd;stroke-width:0.35;stroke-linecap:square;stroke-miterlimit:4;stroke-dasharray:none" />
      <path
         id="Sketch013_w0017"
         d="m -106.65335,41.977047 -1.70617,-13.895647 13.895643,-1.70617 1.706171,13.895646 -13.895644,1.706171"
         stroke="#191919"
         stroke-width="0.35 px"
         style="fill:none;fill-opacity:1;fill-rule:evenodd;stroke-width:0.35;stroke-linecap:square;stroke-miterlimit:4;stroke-dasharray:none" />
      <path
         id="Sketch013_w0018"
         d="m -49.873641,-30.875693 -6.947823,0.853085 1.82804,14.888193 6.947824,-0.853086 -1.828041,-14.888192"
         stroke="#191919"
         stroke-width="0.35 px"
         style="fill:none;fill-opacity:1;fill-rule:evenodd;stroke-width:0.35;stroke-linecap:square;stroke-miterlimit:4;stroke-dasharray:none" />
      <path
         id="Sketch013_w0019"
         d="m -26.171639,-33.785933 1.828041,14.888192 -6.947823,0.853086 -1.828041,-14.888192 6.947823,-0.853086"
         stroke="#191919"
         stroke-width="0.35 px"
         style="fill:none;fill-opacity:1;fill-rule:evenodd;stroke-width:0.35;stroke-linecap:square;stroke-miterlimit:4;stroke-dasharray:none" />
      <title
         id="title2604">b'Sketch013'</title>
    </g>
  </g>
</svg>
